<svg width="58" height="18" viewBox="0 0 58 18" fill="none" xmlns="http://www.w3.org/2000/svg">
<path d="M22.0174 0.318457L14.4046 17.7366H9.471L5.76183 3.83532C5.7269 3.50722 5.60357 3.19353 5.40401 2.92523C5.20445 2.65692 4.93556 2.44327 4.62387 2.30535C3.1504 1.63401 1.59782 1.13656 0 0.823833L0.108034 0.318457H8.08096C8.60311 0.313033 9.10964 0.489552 9.50685 0.815363C9.90407 1.14117 10.1651 1.59423 10.2416 2.09074L12.2439 12.1706L17.0982 0.318457H22.0174ZM41.4636 12.0875C41.4636 7.49065 34.8519 7.24142 34.8951 5.16453C34.8951 4.54147 35.5289 3.87686 36.8829 3.71071C38.4688 3.56137 40.0671 3.82939 41.5068 4.48608L42.3278 0.789218C40.9163 0.277241 39.4215 0.0100274 37.9128 0C33.2818 0 29.9903 2.36765 29.9903 5.75991C29.9903 8.26602 32.3167 9.65754 34.0884 10.4952C35.8602 11.3329 36.53 11.8798 36.5228 12.6621C36.5228 13.8321 35.0823 14.3444 33.7211 14.3652C32.0433 14.4023 30.3838 14.0232 28.9028 13.2644L28.0889 17.079C29.7413 17.6983 31.501 18.0108 33.2746 17.9997C38.1937 17.9997 41.4203 15.6667 41.4347 12.046L41.4636 12.0875ZM53.6786 17.7297H58L54.2188 0.318457H50.2143C49.7935 0.325335 49.3839 0.450205 49.0359 0.677728C48.6879 0.905252 48.4166 1.22552 48.2553 1.59921L41.1899 17.7366H46.0946L47.0741 15.1336H53.088L53.6786 17.7297ZM48.4354 11.5614L50.9058 5.02607L52.3462 11.5614H48.4354ZM28.7155 0.318457L24.8407 17.7366H20.1664L24.034 0.318457H28.7155Z" fill="white"/>
</svg>
