<svg width="972" height="413" viewBox="0 0 972 413" fill="none" xmlns="http://www.w3.org/2000/svg">
<g clip-path="url(#clip0_1_13342)">
<path d="M273.889 491.01C286.843 485.604 295.622 473.106 296.101 459.192C296.67 442.699 285.314 430.317 276.751 425.011C268.195 419.712 263.604 422.796 251.584 417.404C241.499 412.884 234.379 406.077 229.887 400.944C234.798 412.846 240.807 420.123 245.367 424.568C255.195 434.136 261.499 433.63 268.222 443.683C274.167 452.585 275.321 462.106 275.877 466.635C277.198 477.519 275.285 486.249 273.895 491.009L273.889 491.01Z" fill="#51797C"/>
<path d="M184.832 407.084C180.029 400.906 169.612 389.163 152.466 381.326C134.524 373.122 118.553 373.458 110.967 374.132" stroke="#51797C" stroke-width="3.69" stroke-linecap="round" stroke-linejoin="round"/>
<path d="M92.8862 359.44C89.2223 359.973 83.721 361.898 73.8487 368.018C67.8572 371.728 61.7449 375.556 54.9247 376.927C48.1046 378.298 40.3044 376.767 35.5249 371.122C38.8772 380.072 46.1461 386.966 54.3533 390.663C62.5605 394.36 71.6261 395.094 80.3801 394.227C84.564 393.813 92.3135 393.239 101.387 388.926C111.449 384.145 118.018 377.334 121.602 372.968C108.07 359.72 98.5139 358.625 92.8871 359.447L92.8862 359.44Z" fill="#51797C"/>
<path d="M166.44 389.691C166.185 385.263 165.193 378.668 161.325 372.458C157.813 366.81 153.386 364.119 152.251 363.086C137.15 349.366 129.84 326.204 134.124 305.673C133.157 315.048 139.017 324.967 145.328 331.632C151.638 338.291 159.373 343.084 166.315 348.95C169.99 352.056 173.504 355.53 175.905 359.869C176.944 361.744 179.42 367.458 178.232 374.303C176.438 384.633 167.525 389.169 166.441 389.698L166.44 389.691Z" fill="#51797C"/>
<path d="M183.272 403.711C179.641 405.625 173.95 407.888 167.141 407.199C160.957 406.575 156.669 403.628 155.301 403.033C137.079 395.193 115.184 399.461 101.041 413.613C107.981 408.104 118.691 408.906 127.04 411.727C135.39 414.556 142.956 419.658 150.981 423.481C155.23 425.503 159.7 427.19 164.296 427.385C166.291 427.467 172.011 427.06 176.847 422.578C184.143 415.803 183.38 405.007 183.265 403.705L183.272 403.711Z" fill="#51797C"/>
<path d="M138.093 376.493C136.88 372.971 133.408 371.128 130.7 368.773C125.165 363.972 122.282 355.78 123.504 348.319C123.754 350.927 125.637 352.844 127.587 354.419C129.536 355.994 131.758 357.151 133.634 358.824C138.34 363.019 140.115 370.384 138.093 376.493Z" fill="#51797C"/>
<path d="M143.877 378.564C143.577 381.607 140.807 383.635 138.063 384.26C135.32 384.885 132.442 384.531 129.669 384.983C125.273 385.711 121.256 388.582 118.935 392.674C123.294 390.355 128.625 390.145 133.286 391.907C135.371 392.696 137.474 393.897 139.636 393.568C142.425 393.134 144.356 390.147 144.755 387.104C145.149 384.062 144.669 381.547 143.884 378.563L143.877 378.564Z" fill="#51797C"/>
<path d="M63.501 381.782C67.2498 381.597 73.0359 381.033 79.8865 379.155C86.2099 377.424 88.6546 375.882 93.8385 374.503C98.3323 373.307 105.079 372.17 113.995 373.135" stroke="#1D1D1B" stroke-width="3.69" stroke-linecap="round" stroke-linejoin="round"/>
<path d="M122.956 405.988C132.993 403.724 140.349 405.098 145.354 406.922C153.832 410.011 158.798 415.563 167.555 415.082C171.715 414.855 175.042 413.356 177.239 412.099" stroke="#1D1D1B" stroke-width="3.69" stroke-linecap="round" stroke-linejoin="round"/>
<path d="M135.094 319.321C137.039 328.897 141.946 337.805 148.829 344.236C152.185 347.371 155.971 349.925 159.189 353.236C166.615 360.876 170.411 372.489 169.036 383.34" stroke="#1D1D1B" stroke-width="3.69" stroke-linecap="round" stroke-linejoin="round"/>
<path d="M125.945 355.519C126.438 356.898 127.3 358.845 128.83 360.763C130.254 362.545 131.302 363.115 132.716 364.553C134.03 365.888 135.694 368.018 137.058 371.411" stroke="#1D1D1B" stroke-width="3.69" stroke-linecap="round" stroke-linejoin="round"/>
<path d="M125.767 388.795C128.029 388.147 130.442 388.518 132.785 388.83C135.128 389.143 137.574 389.387 139.759 388.498C141.952 387.615 143.796 385.272 143.48 382.721" stroke="#1D1D1B" stroke-width="3.69" stroke-linecap="round" stroke-linejoin="round"/>
<path d="M276.151 487.672C282.964 480.685 286.557 470.144 285.616 459.86C284.674 449.577 279.235 439.777 271.256 434.012C261.98 427.309 249.402 425.573 242.777 415.833" stroke="#1D1D1B" stroke-width="3.69" stroke-linecap="round" stroke-linejoin="round"/>
<path d="M58.7249 127.436L62.623 137.426L72.448 138.851L63.3636 142.86L62.2808 153.528L58.3827 143.539L48.5568 142.107L57.6421 138.104L58.7249 127.436Z" fill="#F1EDE7"/>
<path d="M322.941 372.967L326.84 382.956L336.665 384.388L327.581 388.397L326.498 399.065L322.606 389.075L312.78 387.643L321.865 383.634L322.941 372.967Z" fill="#F1EDE7"/>
<path d="M24.6981 186.333L26.1211 189.977L29.7052 190.5L26.3919 191.964L25.9967 195.862L24.5729 192.212L20.9887 191.688L24.3021 190.225L24.6981 186.333Z" fill="white"/>
<path d="M43.4364 104.533L44.8593 108.177L48.4496 108.699L45.1302 110.164L44.735 114.062L43.3111 110.412L39.727 109.888L43.0403 108.425L43.4364 104.533Z" fill="#F1EDE7"/>
<path d="M345.62 398.041L347.043 401.685L350.633 402.207L347.314 403.672L346.918 407.563L345.495 403.92L341.911 403.396L345.224 401.933L345.62 398.041Z" fill="#F1EDE7"/>
<path d="M321.263 328.03L322.687 331.68L326.27 332.197L322.957 333.661L322.561 337.559L321.138 333.909L317.547 333.386L320.868 331.928L321.263 328.03Z" fill="#F1EDE7"/>
<g clip-path="url(#clip1_1_13342)">
<path d="M315.477 415.496C319.138 442.36 268.457 471.455 202.274 480.474C136.091 489.494 79.4673 475.024 75.8061 448.16C75.4279 445.385 75.6282 442.577 76.3715 439.781C89.0529 461.464 140.709 472.262 200.053 464.174C259.397 456.087 306.274 431.86 312.69 407.575C314.149 410.07 315.099 412.721 315.477 415.496Z" fill="#416263" stroke="#1D1D1B" stroke-width="3.69" stroke-linecap="round" stroke-linejoin="round"/>
<path d="M310.958 404.99C310.944 404.969 310.923 404.949 310.907 404.922C310.756 404.725 310.603 404.521 310.439 404.325C310.411 404.295 310.383 404.264 310.361 404.227C301.347 393.046 284.24 383.106 274.879 362C270.576 352.291 269.053 345.312 268.37 338.373C263.038 339.06 187.859 347.461 173.5 365.981C158.858 359.112 132.079 356.379 100.252 359.257C101.444 366.127 102.17 375.248 100.62 385.749C97.2679 408.467 83.5773 422.593 77.8287 435.717C77.815 435.747 77.8006 435.772 77.792 435.796C77.6501 436.109 77.5149 436.426 77.3913 436.741C77.3827 436.766 77.3741 436.79 77.3597 436.815C76.9703 437.798 76.6408 438.786 76.3821 439.769C89.0635 461.451 140.72 472.249 200.064 464.162C259.407 456.074 306.284 431.847 312.701 407.562C312.189 406.684 311.607 405.821 310.968 404.977L310.958 404.99Z" fill="#51797C" stroke="#1D1D1B" stroke-width="3.69" stroke-linecap="round" stroke-linejoin="round"/>
<path d="M188.916 386.119C235.596 379.757 271.344 359.236 268.761 340.285C266.178 321.333 226.243 311.127 179.563 317.489C132.883 323.851 97.1348 344.371 99.7177 363.323C102.301 382.274 142.236 392.481 188.916 386.119Z" fill="#416263" stroke="#1D1D1B" stroke-width="3.69" stroke-linecap="round" stroke-linejoin="round"/>
<path d="M186.16 365.899C232.84 359.537 268.588 339.016 266.005 320.064C263.423 301.113 223.487 290.907 176.807 297.268C130.127 303.63 94.379 324.151 96.9618 343.103C99.5447 362.054 139.48 372.26 186.16 365.899Z" fill="#51797C" stroke="#1D1D1B" stroke-width="3.69" stroke-linecap="round" stroke-linejoin="round"/>
<path d="M181.601 343.586C249.708 334.304 297.654 273.459 288.69 207.686C279.726 141.913 217.247 96.1178 149.14 105.4C81.0322 114.682 33.087 175.526 42.051 241.3C51.015 307.073 113.494 352.868 181.601 343.586Z" fill="#F2ACA8" stroke="#1D1D1B" stroke-width="3.69" stroke-linecap="round" stroke-linejoin="round"/>
<path d="M231.505 223.396C229.106 227.176 210.418 255.53 172.852 260.73C135.086 265.951 109.303 243.469 106.014 240.499C107.101 238.392 118.158 217.869 141.87 206.514C148.437 203.367 155.975 200.932 164.545 199.782C172.981 198.649 180.779 198.988 187.857 200.247C213.727 204.822 229.846 221.612 231.505 223.396Z" fill="#F1EDE9"/>
<path d="M199.324 220.015C201.622 236.874 189.333 252.468 171.876 254.847C154.42 257.227 138.406 245.489 136.108 228.63C135.003 220.52 137.27 212.714 141.864 206.521C148.431 203.374 155.969 200.939 164.539 199.788C172.975 198.656 180.773 198.995 187.851 200.253C193.945 204.99 198.214 211.911 199.319 220.021L199.324 220.015Z" fill="#51797C" stroke="#1D1D1B" stroke-width="3.69" stroke-linecap="round" stroke-linejoin="round"/>
<path d="M169.668 238.637C177.857 237.521 183.622 230.205 182.545 222.296C181.467 214.387 173.954 208.88 165.764 209.997C157.575 211.113 151.809 218.429 152.887 226.338C153.965 234.247 161.478 239.754 169.668 238.637Z" fill="#1D1D1B"/>
<path d="M231.505 223.396C229.106 227.176 210.418 255.53 172.852 260.73C135.086 265.951 109.303 243.469 106.014 240.499C107.101 238.392 118.158 217.869 141.87 206.514C148.437 203.367 155.975 200.932 164.545 199.782C172.981 198.649 180.779 198.988 187.857 200.247C213.727 204.822 229.846 221.612 231.505 223.396Z" stroke="#1D1D1B" stroke-width="3.69" stroke-linecap="round" stroke-linejoin="round"/>
<path d="M101.388 234.505C103.186 231.239 122.43 197.714 164.004 192.111C205.41 186.537 232.766 213.538 235.407 216.241" stroke="#1D1D1B" stroke-width="3.69" stroke-linecap="round" stroke-linejoin="round"/>
<path d="M163.34 192.202L160.541 171.666" stroke="#1D1D1B" stroke-width="3.69" stroke-linecap="round" stroke-linejoin="round"/>
<path d="M174 191.369L173.846 172.168" stroke="#1D1D1B" stroke-width="3.69" stroke-linecap="round" stroke-linejoin="round"/>
<path d="M184.197 191.853L187.071 174.576" stroke="#1D1D1B" stroke-width="3.69" stroke-linecap="round" stroke-linejoin="round"/>
<path d="M194.749 193.327L198.966 178.356" stroke="#1D1D1B" stroke-width="3.69" stroke-linecap="round" stroke-linejoin="round"/>
<path d="M204.28 196.486L209.692 183.248" stroke="#1D1D1B" stroke-width="3.69" stroke-linecap="round" stroke-linejoin="round"/>
<path d="M213.951 200.615L219.966 189.707" stroke="#1D1D1B" stroke-width="3.69" stroke-linecap="round" stroke-linejoin="round"/>
<path d="M221.146 205.034L226.907 195.804" stroke="#1D1D1B" stroke-width="3.69" stroke-linecap="round" stroke-linejoin="round"/>
<path d="M228.072 209.858L233.491 202.174" stroke="#1D1D1B" stroke-width="3.69" stroke-linecap="round" stroke-linejoin="round"/>
<path d="M234.833 215.779L240.637 210.133" stroke="#1D1D1B" stroke-width="3.69" stroke-linecap="round" stroke-linejoin="round"/>
<path d="M152.851 194.252L147.855 175.71" stroke="#1D1D1B" stroke-width="3.69" stroke-linecap="round" stroke-linejoin="round"/>
<path d="M143.156 197.446L135.758 181.57" stroke="#1D1D1B" stroke-width="3.69" stroke-linecap="round" stroke-linejoin="round"/>
<path d="M133.383 201.69L125.307 188.394" stroke="#1D1D1B" stroke-width="3.69" stroke-linecap="round" stroke-linejoin="round"/>
<path d="M125.038 207.286L116.287 195.977" stroke="#1D1D1B" stroke-width="3.69" stroke-linecap="round" stroke-linejoin="round"/>
<path d="M116.832 213.85L108.117 204.95" stroke="#1D1D1B" stroke-width="3.69" stroke-linecap="round" stroke-linejoin="round"/>
<path d="M111.076 220.035L103.061 212.682" stroke="#1D1D1B" stroke-width="3.69" stroke-linecap="round" stroke-linejoin="round"/>
<path d="M105.694 226.537L98.4219 220.582" stroke="#1D1D1B" stroke-width="3.69" stroke-linecap="round" stroke-linejoin="round"/>
<path d="M100.767 234.05L93.6582 230.164" stroke="#1D1D1B" stroke-width="3.69" stroke-linecap="round" stroke-linejoin="round"/>
<path d="M56.712 194.611C59.3912 185.33 67.3264 162.584 89.7325 142.962C111.804 123.633 135.555 118.161 145.374 116.438" stroke="white" stroke-width="3.69" stroke-linecap="round" stroke-linejoin="round"/>
<path d="M54.0653 203.475C52.981 208.919 52.0918 215.664 52.1001 223.408C52.1067 231.226 53.0205 238.018 54.1329 243.473" stroke="white" stroke-width="3.69" stroke-linecap="round" stroke-linejoin="round"/>
<path d="M227.416 132.683C233.771 136.626 241.69 142.395 249.53 150.593C258.854 160.347 264.734 170.053 268.384 177.328" stroke="white" stroke-width="3.69" stroke-linecap="round" stroke-linejoin="round"/>
<path d="M169.758 334.118C179.606 333.827 204.655 331.809 229.416 314.842C250.182 300.608 260.421 282.937 264.725 274.227" fill="#F2ACA8"/>
<path d="M169.758 334.118C179.606 333.827 204.655 331.809 229.416 314.842C250.182 300.608 260.421 282.937 264.725 274.227" stroke="#1D1D1B" stroke-width="3.69" stroke-linecap="round" stroke-linejoin="round"/>
<path d="M154.593 333.588C150.672 333.628 145.911 333.346 140.619 332.321C132.351 330.713 125.825 327.874 121.275 325.438" fill="#F2ACA8"/>
<path d="M154.593 333.588C150.672 333.628 145.911 333.346 140.619 332.321C132.351 330.713 125.825 327.874 121.275 325.438" stroke="#1D1D1B" stroke-width="3.69" stroke-linecap="round" stroke-linejoin="round"/>
<path d="M204.196 348.038C211.882 346.468 223.555 343.073 235.636 335.165C242.933 330.39 248.419 325.242 252.373 320.911" stroke="white" stroke-width="3.69" stroke-linecap="round" stroke-linejoin="round"/>
<path d="M109.405 384.948C108.547 392.528 106.409 403.338 100.797 415.283C96.255 424.95 90.8363 432.376 86.3522 437.623" stroke="#1D1D1B" stroke-width="3.69" stroke-linecap="round" stroke-linejoin="round"/>
<path d="M106.905 334.865C104.514 339.546 104.518 345.29 106.91 349.922" stroke="#1D1D1B" stroke-width="3.69" stroke-linecap="round" stroke-linejoin="round"/>
<path d="M106.503 360.347C106.269 361.557 106.074 363.353 106.435 365.475C106.963 368.609 108.424 370.817 109.296 371.939" stroke="#1D1D1B" stroke-width="3.69" stroke-linecap="round" stroke-linejoin="round"/>
<path d="M270.15 367.458C273.446 373.921 278.546 382.228 286.336 390.668C292.792 397.665 299.31 402.803 304.725 406.483" stroke="#1D1D1B" stroke-width="3.69" stroke-linecap="round" stroke-linejoin="round"/>
<path d="M97.092 273.783L100.078 280.81L107.897 281.698L100.602 284.651L99.6048 292.221L96.6186 285.194L88.8049 284.3L96.0951 281.353L97.092 273.783Z" fill="white"/>
<path d="M110.508 146.123L112.699 151.282L118.439 151.936L113.083 154.102L112.353 159.654L110.163 154.5L104.422 153.846L109.779 151.68L110.508 146.123Z" fill="white"/>
<path d="M179.014 118.489L180.818 122.73L185.538 123.27L181.135 125.053L180.533 129.628L178.728 125.381L174.003 124.842L178.412 123.058L179.014 118.489Z" fill="white"/>
<path d="M158.177 150.404L159.56 153.651L163.173 154.066L159.802 155.428L159.339 158.926L157.962 155.678L154.349 155.269L157.72 153.902L158.177 150.404Z" fill="white"/>
<path d="M221.661 285.916L222.494 287.877L224.681 288.124L222.64 288.948L222.363 291.066L221.53 289.099L219.349 288.851L221.384 288.028L221.661 285.916Z" fill="white"/>
<path d="M192.421 307.871L193.804 311.118L197.417 311.528L194.045 312.889L193.582 316.388L192.205 313.14L188.592 312.731L191.964 311.369L192.421 307.871Z" fill="white"/>
<path d="M194.526 292.234C195.852 292.053 196.785 290.869 196.611 289.589C196.436 288.308 195.22 287.417 193.895 287.598C192.569 287.778 191.636 288.963 191.81 290.243C191.985 291.523 193.201 292.415 194.526 292.234Z" fill="white"/>
<path d="M125.474 143.279C127.2 143.044 128.415 141.502 128.188 139.836C127.961 138.169 126.378 137.009 124.652 137.244C122.926 137.479 121.711 139.021 121.939 140.687C122.166 142.354 123.749 143.514 125.474 143.279Z" fill="white"/>
<path d="M69.5993 273.026C70.7896 272.864 71.6274 271.8 71.4708 270.651C71.3141 269.502 70.2223 268.701 69.032 268.864C67.8418 269.026 67.0039 270.089 67.1606 271.238C67.3172 272.388 68.4091 273.188 69.5993 273.026Z" fill="white"/>
<path d="M63.5464 314.158L66.0264 320.001L72.5281 320.741L66.4614 323.194L65.6357 329.488L63.1558 323.644L56.654 322.904L62.7207 320.452L63.5464 314.158Z" fill="#F1EDE7"/>
<path d="M288.322 303.717L290.624 309.131L296.649 309.821L291.028 312.093L290.258 317.925L287.962 312.51L281.937 311.826L287.558 309.549L288.322 303.717Z" fill="#F1EDE7"/>
<path d="M44.7313 301.113L46.1494 304.447L49.86 304.872L46.3985 306.274L45.9243 309.867L44.5062 306.532L40.7957 306.107L44.2572 304.705L44.7313 301.113Z" fill="#F1EDE7"/>
</g>
</g>
<g clip-path="url(#clip2_1_13342)">
<path d="M903.226 312.159C885.152 316.974 867.084 321.795 849.01 326.61L769.716 455.432L781.256 510.315L835.417 495.96L914.713 367.131C910.884 348.807 907.055 330.483 903.232 312.16L903.226 312.159Z" fill="#F1EDE7" stroke="#1D1D1B" stroke-width="3.69" stroke-linecap="round" stroke-linejoin="round"/>
<path d="M849.011 326.61C856.719 327.834 864.42 329.056 872.128 330.28C881.531 335.968 890.927 341.661 900.33 347.35C905.123 353.941 909.921 360.54 914.714 367.131" fill="#F1EDE7"/>
<path d="M849.011 326.61C856.719 327.834 864.42 329.056 872.128 330.28C881.531 335.968 890.927 341.661 900.33 347.35C905.123 353.941 909.921 360.54 914.714 367.131" stroke="#1D1D1B" stroke-width="3.69" stroke-linecap="round" stroke-linejoin="round"/>
<path d="M902.21 313.812C901.583 324.993 900.957 336.168 900.33 347.35L902.21 313.812Z" fill="#F1EDE7"/>
<path d="M902.21 313.812C901.583 324.993 900.957 336.168 900.33 347.35" stroke="#1D1D1B" stroke-width="3.69" stroke-linecap="round" stroke-linejoin="round"/>
<path d="M902.209 313.812C892.399 319.185 882.583 324.562 872.773 329.934L902.209 313.812Z" fill="#F1EDE7"/>
<path d="M902.209 313.812C892.399 319.185 882.583 324.562 872.773 329.934" stroke="#1D1D1B" stroke-width="3.69" stroke-linecap="round" stroke-linejoin="round"/>
<path d="M872.127 330.28C842.737 378.021 813.351 425.769 783.961 473.509L872.127 330.28Z" fill="#F1EDE7"/>
<path d="M872.127 330.28C842.737 378.021 813.351 425.769 783.961 473.509" stroke="#1D1D1B" stroke-width="3.69" stroke-linecap="round" stroke-linejoin="round"/>
<path d="M900.188 347.584C870.797 395.324 841.412 443.072 812.022 490.813L900.188 347.584Z" fill="#F1EDE7"/>
<path d="M900.188 347.584C870.797 395.324 841.412 443.072 812.022 490.813" stroke="#1D1D1B" stroke-width="3.69" stroke-linecap="round" stroke-linejoin="round"/>
<path d="M897.433 322.666C896.853 328.155 896.268 333.643 895.69 339.125" stroke="#1D1D1B" stroke-width="3.69" stroke-linecap="round" stroke-linejoin="round"/>
<path d="M832.547 405.253L823.789 419.483" stroke="#1D1D1B" stroke-width="3.69" stroke-linecap="round" stroke-linejoin="round"/>
<path d="M851.613 332.897L827.373 372.28" stroke="#1D1D1B" stroke-width="3.69" stroke-linecap="round" stroke-linejoin="round"/>
<path d="M849.945 376.989L838.298 395.91" stroke="#1D1D1B" stroke-width="3.69" stroke-linecap="round" stroke-linejoin="round"/>
<path d="M926.74 352.991L965.021 339.374" stroke="white" stroke-width="3.69" stroke-linecap="round" stroke-linejoin="round"/>
<path d="M931.239 363.462L962.34 369.076" stroke="white" stroke-width="3.69" stroke-linecap="round" stroke-linejoin="round"/>
<path d="M923.875 373.153C929.339 378.356 934.802 383.559 940.273 388.758" stroke="white" stroke-width="3.69" stroke-linecap="round" stroke-linejoin="round"/>
<path d="M850.063 313.283C848.658 309.126 847.254 304.963 845.842 300.805" stroke="white" stroke-width="3.69" stroke-linecap="round" stroke-linejoin="round"/>
<path d="M831.088 338.046C827.828 338.306 824.568 338.566 821.309 338.826" stroke="white" stroke-width="3.69" stroke-linecap="round" stroke-linejoin="round"/>
<path d="M837.297 324.796C831.109 322.21 824.914 319.63 818.726 317.044" stroke="white" stroke-width="3.69" stroke-linecap="round" stroke-linejoin="round"/>
</g>
<path d="M589.75 2.22412C581.288 12.8425 571.672 27.2372 564.088 45.4368C550.298 78.5297 549.905 108.15 551.282 126.017C542.595 128.063 533.908 130.109 525.221 132.16C534.02 133.828 542.819 135.495 551.612 137.157C554.728 154.188 558.511 190.255 539.498 228.642C532.145 243.484 523.134 255.14 515.026 263.867C500.986 261.913 486.946 259.965 472.912 258.01C483.033 264.904 493.153 271.798 503.279 278.691C498.225 290.633 488.174 307.951 468.444 320.065C441.966 336.327 412.963 334.07 390.859 332.345C367.11 330.494 348.291 324.517 336.164 319.749C332.45 308.506 332.013 298.879 332.674 291.39C337.466 237.066 407.76 208.34 413.462 206.099C418.958 213.13 424.454 220.161 429.951 227.193C428.736 217.818 427.514 208.437 426.299 199.062C430.979 186.627 438.42 170.714 450.453 153.804C463.216 135.868 476.982 122.676 488.005 113.565C490.342 116.39 492.685 119.221 495.022 122.046C494.642 116.224 494.256 110.402 493.876 104.574C500.618 85.1139 509.673 70.3811 516.821 60.4848C539.205 29.5007 565.877 14.1547 571.298 11.1177C578.596 7.02617 585.058 4.14379 589.75 2.22412Z" fill="#F2ACA8"/>
<path d="M589.75 2.22412C581.288 12.8425 571.672 27.2372 564.088 45.4368C550.298 78.5297 549.905 108.15 551.282 126.017C542.595 128.063 533.908 130.109 525.221 132.16C534.02 133.828 542.819 135.495 551.612 137.157C554.728 154.188 558.511 190.255 539.498 228.642C532.145 243.484 523.134 255.14 515.026 263.867C500.986 261.913 486.946 259.965 472.912 258.01C483.033 264.904 493.153 271.798 503.279 278.691C498.225 290.633 488.174 307.951 468.444 320.065C441.966 336.327 412.963 334.07 390.859 332.345C367.11 330.494 348.291 324.517 336.164 319.749C332.45 308.506 332.013 298.879 332.674 291.39C337.466 237.066 407.76 208.34 413.462 206.099C418.958 213.13 424.454 220.161 429.951 227.193C428.736 217.818 427.514 208.437 426.299 199.062C430.979 186.627 438.42 170.714 450.453 153.804C463.216 135.868 476.982 122.676 488.005 113.565C490.342 116.39 492.685 119.221 495.022 122.046C494.642 116.224 494.256 110.402 493.876 104.574C500.618 85.1139 509.673 70.3811 516.821 60.4848C539.205 29.5007 565.877 14.1547 571.298 11.1177C578.596 7.02617 585.058 4.14379 589.75 2.22412Z" stroke="white" stroke-width="3.69" stroke-linecap="round" stroke-linejoin="round"/>
<path d="M514.309 100.786C518.291 97.6174 524.977 93.1076 534.406 90.1278C541.261 87.956 547.386 87.2856 551.88 87.1309" stroke="white" stroke-width="3.69" stroke-linecap="round" stroke-linejoin="round"/>
<path d="M469.209 210.855C501.77 203.412 522.914 205.566 546.04 214.511" stroke="white" stroke-width="3.69" stroke-linecap="round" stroke-linejoin="round"/>
<path d="M375.199 284.634C387.856 290.765 404.625 297.539 425.115 302.495C447.356 307.876 467.03 309.435 482.098 309.612" stroke="white" stroke-width="3.69" stroke-linecap="round" stroke-linejoin="round"/>
<path d="M515.785 62.7368C519.854 69.5388 521.425 77.5785 520.185 85.2514" stroke="white" stroke-width="3.69" stroke-linecap="round" stroke-linejoin="round"/>
<path d="M455.426 147.105C467.515 163.66 474.526 177.373 476.501 197.234" stroke="white" stroke-width="3.69" stroke-linecap="round" stroke-linejoin="round"/>
<path d="M384.695 278.863C382.315 271.901 380.046 263.672 378.476 254.343C376.718 243.897 376.251 234.487 376.382 226.534" stroke="white" stroke-width="3.69" stroke-linecap="round" stroke-linejoin="round"/>
<path d="M589.912 2.40173C558.965 26.7902 533.116 57.3044 518.204 92.3513C510.67 109.817 506.756 128.367 500.444 146.286C494.299 164.181 485.924 181.59 476.819 198.369C467.777 215.199 458.716 232.55 444.202 246.091C437.048 252.888 429.028 258.922 420.304 263.953C411.611 269.059 402.138 272.829 392.947 276.863C383.774 280.829 374.812 285.419 366.792 291.126C350.615 302.449 337.653 317.377 328.212 333.875C323.476 342.138 319.506 350.774 316.241 359.627C316.035 360.183 315.387 360.475 314.782 360.292C314.178 360.103 313.86 359.507 314.059 358.951C317.393 350.011 321.444 341.284 326.274 332.929C336.506 315.159 350.845 299.275 368.699 287.573C370.182 286.599 371.977 285.545 373.504 284.594C373.902 284.341 374.719 283.866 375.136 283.648C389.226 275.522 405.373 270.732 419.375 262.6C451.045 244.561 463.284 221.032 478.95 191.481C486.809 176.794 493.869 161.545 499.316 145.959C505.672 128.097 509.698 109.537 517.313 92.0361C532.418 56.9204 558.454 26.412 589.582 2.05791C589.688 1.97195 589.85 1.98341 589.937 2.08083C590.03 2.17824 590.018 2.32723 589.912 2.40746V2.40173Z" fill="white"/>
<path d="M531.353 158.359L530.387 164.64L535.859 168.514L529.022 167.62L524.816 172.651L525.782 166.37L520.311 162.497L527.147 163.391L531.353 158.359Z" fill="white"/>
<path d="M381.232 302.604L380.266 308.885L385.738 312.758L378.901 311.865L374.695 316.896L375.667 310.615L370.189 306.742L377.026 307.635L381.232 302.604Z" fill="white"/>
<path d="M542.389 67.877L541.809 71.6762L545.112 74.0142L540.98 73.4755L538.438 76.5126L539.024 72.7191L535.721 70.3811L539.846 70.914L542.389 67.877Z" fill="white"/>
<path d="M482.682 135.117L482.096 138.916L485.399 141.254L481.274 140.716L478.731 143.753L479.317 139.959L476.008 137.621L480.139 138.16L482.682 135.117Z" fill="white"/>
<path d="M502.649 192.644L502.063 196.443L505.366 198.781L501.24 198.243L498.698 201.28L499.284 197.486L495.975 195.148L500.106 195.687L502.649 192.644Z" fill="white"/>
<path d="M460.76 194.22L460.174 198.013L463.477 200.351L459.352 199.813L456.809 202.856L457.395 199.056L454.086 196.718L458.218 197.257L460.76 194.22Z" fill="white"/>
<path d="M455.645 269.609L455.059 273.402L458.362 275.74L454.236 275.207L451.694 278.244L452.28 274.445L448.971 272.107L453.102 272.646L455.645 269.609Z" fill="white"/>
<path d="M424.579 286.307L424.224 288.605L426.224 290.015L423.725 289.688L422.192 291.527L422.541 289.235L420.547 287.82L423.04 288.146L424.579 286.307Z" fill="white"/>
<path d="M413.979 320.133L413.624 322.425L415.624 323.841L413.132 323.514L411.592 325.354L411.948 323.056L409.947 321.646L412.446 321.967L413.979 320.133Z" fill="white"/>
<path d="M529.858 108.339L529.509 110.631L531.503 112.047L529.01 111.72L527.471 113.554L527.826 111.261L525.832 109.846L528.325 110.173L529.858 108.339Z" fill="white"/>
<path d="M444.887 217.743L444.532 220.041L446.526 221.451L444.034 221.124L442.501 222.964L442.85 220.671L440.855 219.256L443.348 219.583L444.887 217.743Z" fill="white"/>
<path d="M474.563 229.221L474.208 231.519L476.208 232.929L473.716 232.608L472.176 234.441L472.532 232.149L470.531 230.734L473.03 231.061L474.563 229.221Z" fill="white"/>
<path d="M469.883 292.737L469.534 295.034L471.528 296.444L469.036 296.118L467.496 297.957L467.852 295.665L465.857 294.249L468.35 294.576L469.883 292.737Z" fill="white"/>
<path d="M529.37 51.5167L529.015 53.8089L531.015 55.2243L528.522 54.8976L526.983 56.7314L527.338 54.4392L525.338 53.0295L527.837 53.3504L529.37 51.5167Z" fill="white"/>
<path d="M353.563 274.084L353.208 276.376L355.208 277.792L352.709 277.465L351.176 279.299L351.532 277.007L349.531 275.597L352.024 275.918L353.563 274.084Z" fill="white"/>
<path d="M445.909 182.329L445.554 184.627L447.554 186.037L445.055 185.716L443.522 187.55L443.871 185.258L441.877 183.842L444.37 184.169L445.909 182.329Z" fill="white"/>
<path d="M508.394 228.556L507.422 234.837L512.893 238.711L506.063 237.817L501.851 242.848L502.823 236.567L497.352 232.694L504.188 233.588L508.394 228.556Z" fill="white"/>
<path d="M409.38 234.888L408.415 241.175L413.886 245.043L407.05 244.154L402.843 249.186L403.809 242.899L398.338 239.031L405.174 239.92L409.38 234.888Z" fill="white"/>
<path d="M362.803 253.271C363.925 253.271 364.835 252.435 364.835 251.403C364.835 250.372 363.925 249.535 362.803 249.535C361.681 249.535 360.771 250.372 360.771 251.403C360.771 252.435 361.681 253.271 362.803 253.271Z" fill="white"/>
<path d="M369.671 274.199C370.532 274.199 371.229 273.557 371.229 272.766C371.229 271.975 370.532 271.333 369.671 271.333C368.811 271.333 368.113 271.975 368.113 272.766C368.113 273.557 368.811 274.199 369.671 274.199Z" fill="white"/>
<path d="M358.897 315.52C359.593 315.52 360.156 315.002 360.156 314.363C360.156 313.724 359.593 313.205 358.897 313.205C358.202 313.205 357.639 313.724 357.639 314.363C357.639 315.002 358.202 315.52 358.897 315.52Z" fill="white"/>
<path d="M433.035 317.096C433.771 317.096 434.368 316.547 434.368 315.87C434.368 315.193 433.771 314.644 433.035 314.644C432.298 314.644 431.701 315.193 431.701 315.87C431.701 316.547 432.298 317.096 433.035 317.096Z" fill="white"/>
<path d="M486.927 281.562C487.945 281.562 488.771 280.803 488.771 279.866C488.771 278.929 487.945 278.17 486.927 278.17C485.908 278.17 485.082 278.929 485.082 279.866C485.082 280.803 485.908 281.562 486.927 281.562Z" fill="white"/>
<path d="M431.938 270.806C432.991 270.806 433.845 270.021 433.845 269.053C433.845 268.085 432.991 267.299 431.938 267.299C430.885 267.299 430.031 268.085 430.031 269.053C430.031 270.021 430.885 270.806 431.938 270.806Z" fill="white"/>
<path d="M529.09 220.528C529.94 220.528 530.629 219.894 530.629 219.113C530.629 218.331 529.94 217.697 529.09 217.697C528.24 217.697 527.551 218.331 527.551 219.113C527.551 219.894 528.24 220.528 529.09 220.528Z" fill="white"/>
<path d="M483.138 250.171C484.211 250.171 485.082 249.371 485.082 248.383C485.082 247.396 484.211 246.596 483.138 246.596C482.064 246.596 481.193 247.396 481.193 248.383C481.193 249.371 482.064 250.171 483.138 250.171Z" fill="white"/>
<path d="M451.324 168.256C452.174 168.256 452.864 167.622 452.864 166.84C452.864 166.059 452.174 165.425 451.324 165.425C450.474 165.425 449.785 166.059 449.785 166.84C449.785 167.622 450.474 168.256 451.324 168.256Z" fill="white"/>
<path d="M479.531 165.54C480.382 165.54 481.071 164.906 481.071 164.124C481.071 163.342 480.382 162.709 479.531 162.709C478.681 162.709 477.992 163.342 477.992 164.124C477.992 164.906 478.681 165.54 479.531 165.54Z" fill="white"/>
<path d="M495.589 131.553C496.012 131.553 496.355 131.237 496.355 130.848C496.355 130.459 496.012 130.143 495.589 130.143C495.165 130.143 494.822 130.459 494.822 130.848C494.822 131.237 495.165 131.553 495.589 131.553Z" fill="white"/>
<path d="M516.883 144.234C518.146 144.234 519.17 143.292 519.17 142.131C519.17 140.97 518.146 140.028 516.883 140.028C515.62 140.028 514.596 140.97 514.596 142.131C514.596 143.292 515.62 144.234 516.883 144.234Z" fill="white"/>
<path d="M502.244 172.17C502.988 172.17 503.591 171.615 503.591 170.932C503.591 170.248 502.988 169.694 502.244 169.694C501.501 169.694 500.898 170.248 500.898 170.932C500.898 171.615 501.501 172.17 502.244 172.17Z" fill="white"/>
<path d="M530.743 196.26C532.051 196.26 533.111 195.285 533.111 194.083C533.111 192.88 532.051 191.905 530.743 191.905C529.435 191.905 528.375 192.88 528.375 194.083C528.375 195.285 529.435 196.26 530.743 196.26Z" fill="white"/>
<path d="M542.589 151.414C543.497 151.414 544.234 150.737 544.234 149.901C544.234 149.066 543.497 148.389 542.589 148.389C541.68 148.389 540.943 149.066 540.943 149.901C540.943 150.737 541.68 151.414 542.589 151.414Z" fill="white"/>
<path d="M542.426 119.221C543.276 119.221 543.965 118.587 543.965 117.806C543.965 117.024 543.276 116.39 542.426 116.39C541.576 116.39 540.887 117.024 540.887 117.806C540.887 118.587 541.576 119.221 542.426 119.221Z" fill="white"/>
<path d="M502.064 107.319C502.635 107.319 503.098 106.893 503.098 106.368C503.098 105.842 502.635 105.417 502.064 105.417C501.492 105.417 501.029 105.842 501.029 106.368C501.029 106.893 501.492 107.319 502.064 107.319Z" fill="white"/>
<path d="M513.4 79.6528C514.137 79.6528 514.734 79.1038 514.734 78.4265C514.734 77.7492 514.137 77.2002 513.4 77.2002C512.663 77.2002 512.066 77.7492 512.066 78.4265C512.066 79.1038 512.663 79.6528 513.4 79.6528Z" fill="white"/>
<path d="M553.562 53.6025C554.299 53.6025 554.896 53.0535 554.896 52.3762C554.896 51.6989 554.299 51.1499 553.562 51.1499C552.826 51.1499 552.229 51.6989 552.229 52.3762C552.229 53.0535 552.826 53.6025 553.562 53.6025Z" fill="white"/>
<path d="M539.903 47.0412C540.271 47.0412 540.57 46.7667 540.57 46.4281C540.57 46.0895 540.271 45.8149 539.903 45.8149C539.535 45.8149 539.236 46.0895 539.236 46.4281C539.236 46.7667 539.535 47.0412 539.903 47.0412Z" fill="white"/>
<g clip-path="url(#clip3_1_13342)">
<path d="M487.079 161.351C487.336 155.995 488.172 150.868 488.172 150.868C488.68 147.768 489.28 145.087 489.842 142.901C488.697 141.928 485.081 138.621 484.443 133.366C483.367 124.473 491.893 118.828 492.589 118.383C493.102 118.055 500.429 113.542 508.246 116.777C509.713 117.385 515.545 119.799 516.694 125.477C517.334 128.628 516.23 131.309 515.642 132.505C518.307 134.826 521.84 138.055 525.774 142.119C525.774 142.119 526.41 142.775 527.037 143.431C531.915 148.558 598.973 240.368 569.092 275.996C561.832 284.653 548.757 290.104 537.28 288.194C493.655 280.923 486.691 169.519 487.08 161.354L487.079 161.351Z" fill="#F1EDE7"/>
<path d="M487.079 161.351C487.336 155.995 488.172 150.868 488.172 150.868C488.68 147.768 489.28 145.087 489.842 142.901C488.697 141.928 485.081 138.621 484.443 133.366C483.367 124.473 491.893 118.828 492.589 118.383C493.102 118.055 500.429 113.542 508.246 116.777C509.713 117.385 515.545 119.799 516.694 125.477C517.334 128.628 516.23 131.309 515.642 132.505C518.307 134.826 521.84 138.055 525.774 142.119C525.774 142.119 526.41 142.775 527.037 143.431C531.915 148.558 598.973 240.368 569.092 275.996C561.832 284.653 548.757 290.104 537.28 288.194C493.655 280.923 486.691 169.519 487.08 161.354L487.079 161.351Z" stroke="#F1EDE7" stroke-width="3.69" stroke-linecap="round" stroke-linejoin="round"/>
<path d="M491.626 147.839C486.062 148.064 480.985 152.577 455.613 216.917C452.369 225.141 435.065 269.932 436.481 311.089C436.634 315.569 437.113 322.995 442.278 328.252C451.306 337.44 468.363 333.621 485.278 329.606C510.514 323.614 527.322 319.625 536.268 304.868C541.674 295.95 540.83 283.8 538.923 259.86C536.791 233.133 535.233 213.564 524.856 190.234C517.86 174.501 505.747 147.263 491.628 147.835L491.626 147.839Z" fill="#F2ACA8" stroke="#1D1D1B" stroke-width="3.69" stroke-linecap="round" stroke-linejoin="round"/>
<path d="M436.988 300.421C452.881 298.393 468.901 296.34 484.055 291.147C499.209 285.954 513.629 277.343 523.15 264.375C531.132 253.502 535.601 237.96 535.093 224.394" fill="#F2ACA8"/>
<path d="M436.988 300.421C452.881 298.393 468.901 296.34 484.055 291.147C499.209 285.954 513.629 277.343 523.15 264.375C531.132 253.502 535.601 237.96 535.093 224.394" stroke="#1D1D1B" stroke-width="3.69" stroke-linecap="round" stroke-linejoin="round"/>
<path d="M491.626 147.839C483.751 166.102 475.829 187.972 469.508 213.17C461.496 245.108 458.186 273.908 457.064 297.609" stroke="#1D1D1B" stroke-width="3.69" stroke-linecap="round" stroke-linejoin="round"/>
<path d="M496.138 148.583C493.35 167.948 491.186 189.349 490.222 212.532C489.074 240.213 489.842 265.611 491.611 288.231" stroke="#1D1D1B" stroke-width="3.69" stroke-linecap="round" stroke-linejoin="round"/>
<path d="M500.01 150.645C505.265 168.03 510.245 188.239 513.858 210.936C517.25 232.245 518.812 251.807 519.323 269.069" stroke="#1D1D1B" stroke-width="3.69" stroke-linecap="round" stroke-linejoin="round"/>
<path d="M462.453 326.9C455.498 329.758 447.529 326.37 444.657 319.327C442.183 313.265 444.294 306.473 449.369 302.875C447.809 305.725 447.499 309.248 448.83 312.506C451.156 318.206 457.603 320.946 463.232 318.634C467.162 317.02 469.65 313.371 470.004 309.378C472.591 316.319 469.277 324.092 462.453 326.9Z" fill="#F1EDE7" stroke="#1D1D1B" stroke-width="3.69" stroke-linecap="round" stroke-linejoin="round"/>
<path d="M495.373 301.817L497.632 306.926L503.134 307.48L498.088 309.732L497.571 315.284L495.313 310.179L489.81 309.621L494.857 307.373L495.373 301.817Z" fill="#1D1D1B"/>
<path d="M515.377 308.247L516.742 311.332L520.066 311.67L517.019 313.03L516.707 316.384L515.342 313.299L512.018 312.962L515.066 311.604L515.377 308.247Z" fill="#1D1D1B"/>
<path d="M508.894 285.108L510.256 288.195L513.583 288.531L510.535 289.889L510.221 293.247L508.856 290.161L505.532 289.824L508.579 288.463L508.894 285.108Z" fill="#1D1D1B"/>
<path d="M478.609 299.622L479.974 302.707L483.297 303.042L480.25 304.402L479.935 307.757L478.573 304.671L475.246 304.338L478.294 302.977L478.609 299.622Z" fill="#1D1D1B"/>
<path d="M477.716 319.445L479.078 322.531L482.404 322.865L479.357 324.225L479.042 327.58L477.677 324.495L474.354 324.161L477.401 322.8L477.716 319.445Z" fill="#1D1D1B"/>
<path d="M441.974 262.384C441.196 267.336 444.191 271.961 448.408 273.137C453.271 274.494 458.885 271.022 459.816 265.245" stroke="#1D1D1B" stroke-width="3.69" stroke-linecap="round" stroke-linejoin="round"/>
<path d="M489.947 257.088C492.809 263.711 499.895 267.426 506.747 265.982C513.321 264.598 518.201 258.778 518.489 251.875" stroke="#1D1D1B" stroke-width="3.69" stroke-linecap="round" stroke-linejoin="round"/>
<path d="M471.364 178.551C470.577 180.767 471.587 183.112 473.326 183.915C475.352 184.849 478.216 183.619 478.959 180.919" stroke="#1D1D1B" stroke-width="3.69" stroke-linecap="round" stroke-linejoin="round"/>
<path d="M492.203 182.297C493.118 184.893 495.409 186.676 497.884 186.77C501.001 186.887 503.951 184.316 504.333 180.724" stroke="#1D1D1B" stroke-width="3.69" stroke-linecap="round" stroke-linejoin="round"/>
<path d="M464.186 237.302C464.703 243.769 469.81 248.916 476.027 249.422C482.571 249.953 488.601 245.198 489.679 238.462" stroke="#1D1D1B" stroke-width="3.69" stroke-linecap="round" stroke-linejoin="round"/>
<path d="M478.152 242.903C480.197 242.339 481.393 240.205 480.822 238.136C480.251 236.068 478.131 234.849 476.086 235.413C474.041 235.977 472.845 238.111 473.416 240.18C473.987 242.248 476.107 243.468 478.152 242.903Z" fill="#1D1D1B"/>
<path d="M500.217 180.966C501.669 180.565 502.518 179.049 502.113 177.58C501.708 176.111 500.202 175.245 498.749 175.646C497.297 176.047 496.448 177.562 496.853 179.031C497.258 180.501 498.764 181.367 500.217 180.966Z" fill="#1D1D1B"/>
<path d="M475.66 181.239C476.654 180.965 477.234 179.928 476.957 178.924C476.68 177.919 475.65 177.326 474.656 177.6C473.663 177.874 473.082 178.911 473.359 179.916C473.637 180.921 474.667 181.514 475.66 181.239Z" fill="#1D1D1B"/>
<path d="M451.611 267.186C453.656 266.622 454.852 264.488 454.281 262.419C453.71 260.351 451.59 259.131 449.545 259.696C447.5 260.26 446.304 262.394 446.875 264.462C447.446 266.531 449.566 267.75 451.611 267.186Z" fill="#1D1D1B"/>
<path d="M504.217 260.38C506.262 259.816 507.457 257.681 506.886 255.613C506.316 253.544 504.195 252.325 502.15 252.889C500.105 253.453 498.91 255.588 499.481 257.656C500.051 259.725 502.172 260.944 504.217 260.38Z" fill="#1D1D1B"/>
<path d="M518.437 137.718C522.958 134.458 529.726 134.874 589.28 169.851C596.893 174.321 638.065 198.893 662.27 232.172C664.904 235.794 669.096 241.936 668.261 249.267C666.807 262.078 651.026 269.617 635.241 276.907C611.686 287.786 595.997 295.029 579.879 288.941C570.138 285.262 563.328 275.171 550.108 255.146C535.345 232.784 524.538 216.414 518.357 191.636C514.188 174.925 506.97 145.993 518.441 137.721L518.437 137.718Z" fill="#F2ACA8" stroke="#1D1D1B" stroke-width="3.69" stroke-linecap="round" stroke-linejoin="round"/>
<path d="M655.308 224.084C641.549 232.309 627.672 240.591 612.546 245.87C597.422 251.148 580.772 253.277 565.297 248.949C552.325 245.32 539.244 235.846 531.303 224.847" fill="#F2ACA8"/>
<path d="M655.308 224.084C641.549 232.309 627.672 240.591 612.546 245.87C597.422 251.148 580.772 253.277 565.297 248.949C552.325 245.32 539.244 235.846 531.303 224.847" stroke="#1D1D1B" stroke-width="3.69" stroke-linecap="round" stroke-linejoin="round"/>
<path d="M518.438 137.718C535.87 147.232 555.563 159.556 576.034 175.488C601.985 195.682 622.307 216.312 637.769 234.281" stroke="#1D1D1B" stroke-width="3.69" stroke-linecap="round" stroke-linejoin="round"/>
<path d="M515.342 141.092C529.447 154.614 544.318 170.126 559.335 187.785C577.263 208.868 592.282 229.34 604.802 248.245" stroke="#1D1D1B" stroke-width="3.69" stroke-linecap="round" stroke-linejoin="round"/>
<path d="M513.561 145.107C520.114 162.044 528.625 181.033 539.743 201.136C550.178 220.01 560.981 236.378 571.197 250.284" stroke="#1D1D1B" stroke-width="3.69" stroke-linecap="round" stroke-linejoin="round"/>
<path d="M651.542 260.672C658.775 258.625 662.964 251.033 660.894 243.714C659.111 237.413 653.273 233.368 647.067 233.673C650.048 234.954 652.456 237.534 653.415 240.922C655.09 246.847 651.701 252.99 645.844 254.648C641.756 255.803 637.554 254.471 634.815 251.546C637.048 258.61 644.439 262.684 651.539 260.673L651.542 260.672Z" fill="#F1EDE7" stroke="#1D1D1B" stroke-width="3.69" stroke-linecap="round" stroke-linejoin="round"/>
<path d="M582.648 279.465L584.043 280.944L586.001 280.453L584.544 281.853L585.041 283.83L583.643 282.351L581.688 282.842L583.146 281.442L582.648 279.465Z" fill="#1D1D1B"/>
<path d="M618.454 251.167L620.764 253.617L624 252.804L621.59 255.122L622.415 258.395L620.104 255.945L616.868 256.758L619.278 254.44L618.454 251.167Z" fill="#1D1D1B"/>
<path d="M641.114 240.383L643.424 242.833L646.661 242.02L644.251 244.338L645.072 247.611L642.762 245.164L639.528 245.973L641.938 243.655L641.114 240.383Z" fill="#1D1D1B"/>
<path d="M633.113 264.155L635.423 266.603L638.656 265.79L636.246 268.108L637.07 271.381L634.76 268.934L631.523 269.744L633.933 267.426L633.113 264.155Z" fill="#1D1D1B"/>
<path d="M603.474 256.631L604.869 258.11L606.823 257.616L605.367 259.02L605.864 260.996L604.469 259.517L602.515 260.007L603.972 258.607L603.474 256.631Z" fill="#1D1D1B"/>
<path d="M558.447 253.261L559.845 254.739L561.8 254.249L560.344 255.652L560.841 257.629L559.446 256.149L557.488 256.641L558.945 255.241L558.447 253.261Z" fill="#1D1D1B"/>
<path d="M583.982 261.263L585.377 262.743L587.332 262.252L585.875 263.652L586.375 265.628L584.977 264.149L583.022 264.64L584.48 263.24L583.982 261.263Z" fill="#1D1D1B"/>
<path d="M601.194 273.004L603.872 275.841L607.623 274.896L604.825 277.585L605.783 281.379L603.105 278.541L599.353 279.483L602.148 276.795L601.194 273.004Z" fill="#1D1D1B"/>
<path d="M613.061 207.888C616.65 210.89 621.919 210.676 625.175 207.463C628.523 204.159 628.76 198.649 625.645 194.969" stroke="#1D1D1B" stroke-width="3.69" stroke-linecap="round" stroke-linejoin="round"/>
<path d="M558.591 232.223C563.142 239.181 572.565 240.886 578.974 236.196C585.128 231.691 586.628 222.659 582.053 216.123" stroke="#1D1D1B" stroke-width="3.69" stroke-linecap="round" stroke-linejoin="round"/>
<path d="M565.365 194.989C571.489 199.565 579.633 197.637 582.577 192.4C584.889 188.289 583.889 182.341 579.748 178.407" stroke="#1D1D1B" stroke-width="3.69" stroke-linecap="round" stroke-linejoin="round"/>
<path d="M522.701 205.842C525.34 209.023 529.825 209.968 533.474 208.116C537.122 206.264 539.03 202.078 538.058 198.056" stroke="#1D1D1B" stroke-width="3.69" stroke-linecap="round" stroke-linejoin="round"/>
<path d="M534.94 160.726C538.843 163.372 543.479 161.982 544.808 159.186C545.758 157.191 545.08 154.36 543.107 152.277" stroke="#1D1D1B" stroke-width="3.69" stroke-linecap="round" stroke-linejoin="round"/>
<path d="M530.682 204.447C532.738 203.88 533.939 201.735 533.365 199.655C532.792 197.576 530.66 196.351 528.605 196.918C526.549 197.485 525.348 199.63 525.921 201.709C526.495 203.788 528.626 205.014 530.682 204.447Z" fill="#1D1D1B"/>
<path d="M574.635 233.82C576.691 233.253 577.892 231.108 577.319 229.029C576.745 226.949 574.614 225.724 572.558 226.291C570.502 226.858 569.301 229.003 569.875 231.082C570.448 233.162 572.58 234.387 574.635 233.82Z" fill="#1D1D1B"/>
<path d="M540 159.323C541.452 158.923 542.301 157.407 541.896 155.938C541.491 154.469 539.985 153.602 538.532 154.003C537.08 154.404 536.231 155.92 536.636 157.389C537.042 158.858 538.548 159.724 540 159.323Z" fill="#1D1D1B"/>
<path d="M621.025 205.572C623.07 205.008 624.266 202.874 623.695 200.806C623.124 198.737 621.004 197.518 618.959 198.082C616.914 198.646 615.718 200.78 616.289 202.849C616.86 204.917 618.98 206.137 621.025 205.572Z" fill="#1D1D1B"/>
<path d="M575.799 191.598C577.844 191.034 579.039 188.9 578.468 186.831C577.898 184.763 575.777 183.543 573.732 184.107C571.687 184.672 570.492 186.806 571.063 188.874C571.633 190.943 573.754 192.162 575.799 191.598Z" fill="#1D1D1B"/>
<path d="M486.528 137.896C487.041 137.484 489.418 135.483 489.817 131.998C490.333 127.486 487.07 124.473 486.76 124.195C486.199 124.918 483.976 127.94 484.353 132.188C484.603 135.017 485.882 137.01 486.53 137.892L486.528 137.896Z" fill="#1D1D1B"/>
<path d="M516.421 127.098C515.766 127.109 512.659 127.086 510.139 124.659C506.873 121.512 507.473 117.105 507.534 116.693C508.428 116.89 512.061 117.801 514.472 121.311C516.076 123.648 516.362 126.002 516.424 127.097L516.421 127.098Z" fill="#1D1D1B"/>
<path d="M500.29 129.192L503.438 133.799L508.939 133.321L504.399 136.473L504.902 142.035L501.754 137.431L496.249 137.907L500.793 134.754L500.29 129.192Z" fill="#1D1D1B"/>
<path d="M548.295 118.342L550.961 122.244L555.619 121.839L551.775 124.507L552.2 129.217L549.534 125.316L544.876 125.721L548.721 123.052L548.295 118.342Z" fill="#F1EDE7"/>
<path d="M525.045 88.8685L526.655 91.2246L529.472 90.9809L527.149 92.5924L527.405 95.436L525.793 93.0807L522.979 93.3268L525.302 91.7121L525.045 88.8685Z" fill="#F1EDE7"/>
<path d="M457.98 151.622L459.592 153.978L462.406 153.731L460.083 155.346L460.34 158.19L458.73 155.834L455.916 156.076L458.24 154.465L457.98 151.622Z" fill="#F1EDE7"/>
</g>
<g clip-path="url(#clip4_1_13342)">
<path d="M676.766 158.858C686.72 157.095 694.444 153.72 694.019 151.319C693.594 148.919 685.18 148.402 675.226 150.166C665.272 151.929 657.548 155.304 657.973 157.704C658.398 160.105 666.812 160.621 676.766 158.858Z" fill="#D6D6D6"/>
<path d="M749.4 240.713C737.232 223.544 727.244 211.866 727.244 211.866C714.558 197.043 707.742 191.666 701.765 179.587C696.302 168.551 694.595 158.096 693.983 151.32L694.022 151.313C694.354 149.947 694.888 146.933 693.866 143.389C693.27 141.321 692.344 139.786 691.641 138.805C679.729 140.915 667.818 143.03 655.907 145.145C655.595 146.372 655.249 148.361 655.521 150.802C655.893 154.14 657.227 156.54 657.977 157.703L658.015 157.697C659.769 164.271 661.756 174.675 660.412 186.918C658.946 200.309 654.393 207.706 647.571 225.984C647.571 225.984 642.201 240.378 636.671 260.687C624.247 306.281 645.574 356.729 651.605 371.026C654.781 378.562 659.377 388.249 665.94 399.02C673.954 412.175 682.198 422.567 689.18 430.35C691.177 432.578 693.662 434.213 696.388 435.092C702.741 437.152 712.371 439.172 723.77 437.605C737.465 435.724 747.459 429.52 753.25 424.997C755.522 423.228 757.278 420.804 758.39 418.009C769.618 389.783 772.524 365.059 773.281 349.467C774.033 333.969 776.734 279.264 749.4 240.713Z" fill="#F1EDE7" stroke="#1D1D1B" stroke-width="3.69" stroke-linecap="round" stroke-linejoin="round"/>
<path d="M674.645 146.891C684.599 145.128 692.323 141.753 691.898 139.353C691.473 136.952 683.059 136.436 673.105 138.199C663.151 139.962 655.427 143.337 655.852 145.738C656.277 148.138 664.691 148.655 674.645 146.891Z" fill="#F1EDE7" stroke="#1D1D1B" stroke-width="3.69" stroke-linecap="round" stroke-linejoin="round"/>
<path d="M687.201 126.045C688.757 137.028 690.313 148.01 691.87 158.993C692.301 161.427 686.103 164.557 678.028 165.987C669.953 167.417 663.057 166.607 662.626 164.173C660.315 153.324 658.004 142.475 655.693 131.627L687.196 126.046L687.201 126.045Z" fill="#D99B3C" stroke="#1D1D1B" stroke-width="3.69" stroke-linecap="round" stroke-linejoin="round"/>
<path d="M672.287 133.578C680.984 132.038 687.66 128.665 687.196 126.046C686.732 123.427 679.304 122.553 670.606 124.094C661.909 125.635 655.234 129.007 655.697 131.626C656.161 134.245 663.589 135.119 672.287 133.578Z" fill="#D99B3C" stroke="#1D1D1B" stroke-width="3.69" stroke-linecap="round" stroke-linejoin="round"/>
<path d="M659.75 136.387C660.535 140.056 661.324 143.723 662.108 147.391" stroke="white" stroke-width="3.69" stroke-linecap="round" stroke-linejoin="round"/>
<path d="M669.851 131.428C672.04 131.193 674.628 130.729 677.463 129.829C679.679 129.126 681.617 128.293 683.261 127.462" stroke="white" stroke-width="3.69" stroke-linecap="round" stroke-linejoin="round"/>
<path d="M657.973 157.704C662.688 158.236 669.164 158.429 676.638 157.012C683.417 155.724 689.663 153.382 693.675 151.38" stroke="#1D1D1B" stroke-width="3.69" stroke-linecap="round" stroke-linejoin="round"/>
<path d="M691.734 140.204C690.538 142.497 683.465 145.329 674.644 146.891C665.824 148.454 657.812 148.212 656.158 146.343" stroke="#1D1D1B" stroke-width="3.69" stroke-linecap="round" stroke-linejoin="round"/>
<path d="M736.064 236.894C742.603 245.332 752.171 259.569 758.798 279.315C768.963 309.6 766.443 335.684 764.498 355.751C763.192 369.255 760.148 388.863 752.301 411.527" stroke="#1D1D1B" stroke-width="3.69" stroke-linecap="round" stroke-linejoin="round"/>
<path d="M731.004 304.669C734.43 324.013 722.842 342.236 705.119 345.376C689.985 348.057 675.273 338.871 669.17 324.08C675.46 330.205 684.097 333.326 692.912 331.765C708.144 329.067 718.1 313.409 715.155 296.785C713.452 287.168 707.804 279.34 700.398 274.971C715.15 276.159 728.079 288.156 731.004 304.669Z" fill="#F2ACA8" stroke="#1D1D1B" stroke-width="3.69" stroke-linecap="round" stroke-linejoin="round"/>
<path d="M663.645 281.116L666.195 286.944L672.063 287.561L666.763 290.155L666.372 296.51L663.822 290.676L657.959 290.059L663.253 287.465L663.645 281.116Z" fill="#1D1D1B"/>
<path d="M680.139 299.975L681.414 302.892L684.343 303.201L681.698 304.497L681.502 307.674L680.227 304.758L677.293 304.45L679.943 303.152L680.139 299.975Z" fill="#1D1D1B"/>
<path d="M705.076 238.565L705.794 240.219L707.456 240.393L705.954 241.127L705.848 242.921L705.127 241.274L703.464 241.1L704.966 240.365L705.076 238.565Z" fill="#1D1D1B"/>
<path d="M715.727 246.237L716.677 248.416L718.868 248.643L716.889 249.615L716.745 251.988L715.791 249.809L713.599 249.577L715.578 248.611L715.727 246.237Z" fill="#1D1D1B"/>
<path d="M706.092 253.227L707.367 256.144L710.301 256.452L707.65 257.744L707.455 260.921L706.179 258.004L703.246 257.701L705.896 256.404L706.092 253.227Z" fill="#1D1D1B"/>
<path d="M736.773 353.385L738.044 356.303L740.978 356.611L738.327 357.903L738.136 361.079L736.861 358.163L733.928 357.86L736.578 356.562L736.773 353.385Z" fill="#1D1D1B"/>
<path d="M656.171 306.563L657.069 308.62L659.138 308.837L657.269 309.75L657.132 311.992L656.234 309.934L654.164 309.718L656.034 308.804L656.171 306.563Z" fill="#1D1D1B"/>
<path d="M708.102 359.635L709 361.687L711.07 361.908L709.201 362.822L709.064 365.063L708.165 363.006L706.096 362.789L707.964 361.87L708.102 359.635Z" fill="#1D1D1B"/>
<path d="M735.854 332.056L736.753 334.113L738.822 334.329L736.953 335.243L736.816 337.484L735.917 335.427L733.848 335.21L735.717 334.297L735.854 332.056Z" fill="#1D1D1B"/>
<path d="M723.077 369.656L725.627 375.49L731.495 376.106L726.195 378.695L725.804 385.05L723.258 379.216L717.391 378.604L722.69 376.01L723.077 369.656Z" fill="#1D1D1B"/>
<path d="M666.388 173.866C666.879 179.002 667.036 185.581 666.02 193.054C664.426 204.763 660.612 213.712 657.622 219.4" stroke="#1D1D1B" stroke-width="3.69" stroke-linecap="round" stroke-linejoin="round"/>
<path d="M634.902 186.496L637.848 193.24L644.626 193.951L638.505 196.947L638.053 204.288L635.108 197.549L628.33 196.838L634.451 193.842L634.902 186.496Z" fill="#F1EDE7"/>
<path d="M636.442 162.226L638.226 166.295L642.32 166.729L638.623 168.539L638.346 172.973L636.567 168.903L632.474 168.474L636.169 166.659L636.442 162.226Z" fill="#F1EDE7"/>
<path d="M719.691 175.11L721.471 179.185L725.564 179.615L721.867 181.424L721.595 185.857L719.816 181.787L715.718 181.359L719.419 179.548L719.691 175.11Z" fill="#F1EDE7"/>
</g>
<defs>
<clipPath id="clip0_1_13342">
<rect width="344" height="657" fill="white" transform="translate(0 110.453) rotate(-7.7608)"/>
</clipPath>
<clipPath id="clip1_1_13342">
<rect width="260" height="384" fill="white" transform="translate(15.3574 119.462) rotate(-7.7608)"/>
</clipPath>
<clipPath id="clip2_1_13342">
<rect width="220" height="176" fill="white" transform="translate(971.992 322.93) rotate(100.453)"/>
</clipPath>
<clipPath id="clip3_1_13342">
<rect width="243.581" height="222.564" fill="white" transform="translate(384 127.781) rotate(-15.4237)"/>
</clipPath>
<clipPath id="clip4_1_13342">
<rect width="139" height="320" fill="white" transform="translate(602 135.244) rotate(-10.0449)"/>
</clipPath>
</defs>
</svg>
