<svg width="24" height="24" viewBox="0 0 24 24" fill="none" xmlns="http://www.w3.org/2000/svg">
<path d="M17.2873 0.75L13.0498 7.0875H15.1498L19.8748 0.75H17.2873Z" fill="#428BC1"/>
<path d="M15.1502 0.75L10.9502 7.0875H13.0502L17.2877 0.75H15.1502Z" fill="#E8E8E8"/>
<path d="M13.0496 0.75L8.84961 7.0875H10.9496L15.1496 0.75H13.0496Z" fill="#ED4C5C"/>
<path d="M12.0004 23.2498C16.2668 23.2498 19.7254 19.7912 19.7254 15.5248C19.7254 11.2584 16.2668 7.7998 12.0004 7.7998C7.73399 7.7998 4.27539 11.2584 4.27539 15.5248C4.27539 19.7912 7.73399 23.2498 12.0004 23.2498Z" fill="#D3976E"/>
<path d="M8.13828 5.6626C7.95078 5.6626 7.80078 5.8126 7.80078 6.0001V9.1501C7.80078 9.3376 7.95078 9.4876 8.13828 9.4876H15.8633C16.0508 9.4876 16.2008 9.3376 16.2008 9.1501V6.0001C16.2008 5.8126 16.0508 5.6626 15.8633 5.6626H8.13828ZM15.5258 8.1376C15.5258 8.3251 15.3758 8.4751 15.1883 8.4751H8.85078C8.66328 8.4751 8.51328 8.3251 8.51328 8.1376V6.7126C8.51328 6.5251 8.66328 6.3751 8.85078 6.3751H15.1883C15.3758 6.3751 15.5258 6.5251 15.5258 6.7126V8.1376Z" fill="#D3976E"/>
<path opacity="0.5" d="M5.3623 16.4251C5.3623 12.2251 8.58731 8.8126 12.7123 8.5126C12.5248 8.5126 12.2998 8.4751 12.1123 8.4751C8.1748 8.4751 4.9873 11.6626 4.9873 15.6376C4.9873 16.8001 5.2873 17.9251 5.7748 18.9001C5.5123 18.1126 5.3623 17.2876 5.3623 16.4251Z" fill="#3E4347"/>
<path opacity="0.33" d="M14.9623 21.4876C18.4498 19.1626 19.4998 14.6251 17.4748 11.1001L17.8123 11.5501C19.9873 14.7751 19.0873 19.1626 15.8248 21.3751C14.8498 22.0501 13.7623 22.4251 12.6748 22.5376C13.4998 22.3126 14.2498 21.9751 14.9623 21.4876Z" fill="white"/>
<path d="M8.85 7.0875H10.95L6.7125 0.75H4.125L8.85 7.0875Z" fill="#ED4C5C"/>
<path d="M10.9504 7.0875H13.0504L8.85039 0.75H6.71289L10.9504 7.0875Z" fill="#E8E8E8"/>
<path opacity="0.5" d="M12.3371 1.80029L11.2871 3.37529L13.7621 7.08779H15.1496L15.5246 6.56279L12.3371 1.80029Z" fill="#3E4347"/>
<path d="M13.0496 7.0875H15.1496L10.9496 0.75H8.84961L13.0496 7.0875Z" fill="#428BC1"/>
<path opacity="0.5" d="M11.8129 11.8125C11.0254 11.8125 10.3879 12.45 10.3879 13.2H9.37539C9.37539 13.3125 9.33789 13.425 9.33789 13.5375H10.7629C10.7629 12.75 11.4004 12.1125 12.1879 12.1125C12.4879 12.1125 12.7504 12.225 12.9754 12.375C12.7129 12.075 12.3004 11.8125 11.8129 11.8125Z" fill="#3E4347"/>
<path opacity="0.5" d="M14.0258 15.6749C14.6258 15.1499 15.0008 14.3999 15.0008 13.5749C15.0008 12.7124 14.6258 11.9249 13.9883 11.3999C14.4008 11.8874 14.6633 12.5249 14.6633 13.1999C14.6633 14.0249 14.2883 14.8124 13.6883 15.2999C14.2883 15.8249 14.6633 16.5749 14.6633 17.3999C14.6633 18.9374 13.3883 20.2124 11.8508 20.2124C11.1758 20.2124 10.5383 19.9499 10.0508 19.5374C10.5758 20.1374 11.3258 20.5499 12.2258 20.5499C13.7633 20.5499 15.0383 19.2749 15.0383 17.7374C15.0008 16.9499 14.6258 16.1999 14.0258 15.6749Z" fill="#3E4347"/>
<path opacity="0.33" d="M12.1875 10.7628C12.8625 10.7628 13.5 11.0253 13.9875 11.4378C13.4625 10.8378 12.7125 10.4253 11.8125 10.4253C10.275 10.4253 9 11.7003 9 13.2378H9.375C9.5625 11.8503 10.725 10.7628 12.1875 10.7628Z" fill="white"/>
<path opacity="0.33" d="M13.575 13.5756C13.575 13.0881 13.35 12.6756 12.975 12.4131C13.125 12.6381 13.2375 12.9006 13.2375 13.2006C13.2375 13.9881 12.6 14.6256 11.8125 14.6256V16.0506C11.925 16.0506 12.0375 16.0881 12.15 16.0881V15.0006C12.9375 15.0006 13.575 14.3631 13.575 13.5756Z" fill="white"/>
<path opacity="0.33" d="M12.1875 19.2003C12.975 19.2003 13.6125 18.5628 13.6125 17.7753C13.6125 17.2878 13.3875 16.8753 13.0125 16.6128C13.1625 16.8378 13.275 17.1003 13.275 17.4003C13.275 18.1878 12.6375 18.8253 11.85 18.8253C11.55 18.8253 11.2875 18.7128 11.0625 18.5628C11.2875 18.9753 11.7 19.2003 12.1875 19.2003Z" fill="white"/>
<path opacity="0.33" d="M10.4625 17.8131C10.425 17.7006 10.425 17.5881 10.425 17.4756H9C9 18.3381 9.375 19.1256 10.0125 19.6506C9.6 19.1631 9.3375 18.5256 9.3375 17.8506L10.4625 17.8131Z" fill="white"/>
</svg>
