<svg width="24" height="24" viewBox="0 0 24 24" fill="none" xmlns="http://www.w3.org/2000/svg">
<path fill-rule="evenodd" clip-rule="evenodd" d="M2 3C2.55228 3 3 3.44772 3 4V18C3 18.5523 3.44772 19 4 19H22C22.5523 19 23 19.4477 23 20C23 20.5523 22.5523 21 22 21H4C2.34315 21 1 19.6569 1 18V4C1 3.44772 1.44772 3 2 3Z" fill="#777E91"/>
<path d="M18 5C17.4477 5 17 5.44771 17 6V16C17 16.5523 17.4477 17 18 17C18.5523 17 19 16.5523 19 16V6C19 5.44772 18.5523 5 18 5Z" fill="#777E91"/>
<path d="M10 7C9.44771 7 9 7.44772 9 8V16C9 16.5523 9.44771 17 10 17C10.5523 17 11 16.5523 11 16V8C11 7.44772 10.5523 7 10 7Z" fill="#777E91"/>
<path d="M6 13C5.44772 13 5 13.4477 5 14V16C5 16.5523 5.44772 17 6 17C6.55228 17 7 16.5523 7 16V14C7 13.4477 6.55228 13 6 13Z" fill="#777E91"/>
<path d="M13 10C13 9.44771 13.4477 9 14 9C14.5523 9 15 9.44771 15 10V16C15 16.5523 14.5523 17 14 17C13.4477 17 13 16.5523 13 16V10Z" fill="#777E91"/>
</svg>
