<svg width="32" height="32" viewBox="0 0 32 32" fill="none" xmlns="http://www.w3.org/2000/svg">
<path d="M7.6 25.7334C9.58822 25.7334 11.2 24.1217 11.2 22.1334C11.2 20.1452 9.58822 18.5334 7.6 18.5334C5.61177 18.5334 4 20.1452 4 22.1334C4 24.1217 5.61177 25.7334 7.6 25.7334Z" stroke="#192126" stroke-width="2" stroke-linecap="round" stroke-linejoin="round"/>
<path d="M24.4008 25.7334C26.389 25.7334 28.0008 24.1217 28.0008 22.1334C28.0008 20.1452 26.389 18.5334 24.4008 18.5334C22.4126 18.5334 20.8008 20.1452 20.8008 22.1334C20.8008 24.1217 22.4126 25.7334 24.4008 25.7334Z" stroke="#192126" stroke-width="2" stroke-linecap="round" stroke-linejoin="round"/>
<path d="M16.0004 23.3333V18.5333L12.4004 14.9333L18.4004 10.1333L20.8004 13.7333H24.4004" stroke="#192126" stroke-width="2" stroke-linecap="round" stroke-linejoin="round"/>
<path d="M22.2408 8.21325C23.0361 8.21325 23.6808 7.56854 23.6808 6.77325C23.6808 5.97796 23.0361 5.33325 22.2408 5.33325C21.4455 5.33325 20.8008 5.97796 20.8008 6.77325C20.8008 7.56854 21.4455 8.21325 22.2408 8.21325Z" stroke="#192126" stroke-width="2" stroke-linecap="round" stroke-linejoin="round"/>
</svg>
