<svg width="16" height="16" viewBox="0 0 16 16" fill="none" xmlns="http://www.w3.org/2000/svg">
<path fill-rule="evenodd" clip-rule="evenodd" d="M1.34883 12.2649L1.83193 10.091C1.94195 9.59589 2.19086 9.14245 2.54948 8.78384L9.11476 2.21855C10.1562 1.17715 11.8446 1.17715 12.886 2.21855L13.7814 3.11398C14.8228 4.15538 14.8228 5.84382 13.7814 6.88521L7.21615 13.4505C6.85753 13.8091 6.40409 14.058 5.90901 14.1681L3.73507 14.6511C2.30607 14.9687 1.03128 13.6939 1.34883 12.2649ZM3.13351 10.3802L2.65042 12.5542C2.54456 13.0305 2.9695 13.4554 3.44583 13.3496L5.61977 12.8665C5.85783 12.8136 6.07665 12.6964 6.25254 12.528L3.47195 9.74744C3.30356 9.92334 3.18642 10.1421 3.13351 10.3802ZM4.41453 8.8044L7.19558 11.5855L10.9194 7.86159L8.13839 5.08055L4.41453 8.8044ZM12.8386 5.94241L11.8622 6.91879L9.0812 4.13774L10.0576 3.16136C10.5783 2.64066 11.4225 2.64066 11.9432 3.16136L12.8386 4.05679C13.3593 4.57749 13.3593 5.42171 12.8386 5.94241Z" fill="#FCFCFD"/>
</svg>
