<svg width="16" height="16" viewBox="0 0 16 16" fill="none" xmlns="http://www.w3.org/2000/svg">
<path fill-rule="evenodd" clip-rule="evenodd" d="M0.516094 12.2985L1.05958 9.85283C1.18335 9.29587 1.46338 8.78575 1.86682 8.3823L9.25277 0.996357C10.4243 -0.175216 12.3238 -0.175219 13.4954 0.996354L14.5028 2.00371C15.6743 3.17529 15.6743 5.07478 14.5028 6.24635L7.11682 13.6323C6.71338 14.0357 6.20326 14.3158 5.64629 14.4395L3.20061 14.983C1.59299 15.3403 0.158845 13.9061 0.516094 12.2985ZM2.52386 10.1782L1.98038 12.6239C1.86129 13.1598 2.33934 13.6378 2.87521 13.5187L5.3209 12.9753C5.58872 12.9157 5.83488 12.784 6.03277 12.5945L2.9046 9.46635C2.71516 9.66424 2.58338 9.9104 2.52386 10.1782ZM3.965 8.40544L7.09368 11.5341L11.283 7.34478L8.15434 4.2161L3.965 8.40544ZM13.4421 5.18569L12.3437 6.28412L9.215 3.15544L10.3134 2.05702C10.8992 1.47123 11.849 1.47123 12.4348 2.05701L13.4421 3.06437C14.0279 3.65016 14.0279 4.59991 13.4421 5.18569Z" fill="#777E91"/>
</svg>
