<svg width="20" height="20" viewBox="0 0 20 20" fill="none" xmlns="http://www.w3.org/2000/svg">
<path fill-rule="evenodd" clip-rule="evenodd" d="M2 10C2 5.58172 5.58172 2 10 2C14.4183 2 18 5.58172 18 10C18 14.4183 14.4183 18 10 18C5.58172 18 2 14.4183 2 10ZM10 0C4.47715 0 0 4.47715 0 10C0 15.5228 4.47715 20 10 20C15.5228 20 20 15.5228 20 10C20 4.47715 15.5228 0 10 0ZM6.97195 11.7648C6.84206 11.228 6.30161 10.8982 5.76481 11.028C5.22802 11.1579 4.89816 11.6984 5.02805 12.2352C5.29096 13.3217 5.9358 14.2791 6.84106 14.958C7.74527 15.6362 8.85924 16 10 16C11.1408 16 12.2547 15.6362 13.1589 14.958C14.0642 14.2791 14.709 13.3217 14.972 12.2352C15.1018 11.6984 14.772 11.1579 14.2352 11.028C13.6984 10.8982 13.1579 11.228 13.028 11.7648C12.8786 12.3824 12.5072 12.9468 11.9589 13.358C11.4096 13.77 10.719 14 10 14C9.281 14 8.59039 13.77 8.04106 13.358C7.49278 12.9468 7.12138 12.3824 6.97195 11.7648ZM8.17856 8.98393C7.63515 9.08255 7.11469 8.72197 7.01607 8.17856C7.01169 8.1544 7.00616 8.1326 7 8.11308C6.99384 8.1326 6.98831 8.1544 6.98393 8.17856C6.88531 8.72197 6.36485 9.08255 5.82144 8.98393C5.27803 8.88531 4.91745 8.36485 5.01607 7.82144C5.09929 7.36286 5.31014 6.91656 5.65316 6.57354C6.00072 6.22598 6.47316 6 7 6C7.52683 6 7.99928 6.22598 8.34684 6.57354C8.68985 6.91656 8.90071 7.36286 8.98393 7.82144C9.08255 8.36485 8.72197 8.88531 8.17856 8.98393ZM13.0161 8.17856C13.1147 8.72197 13.6352 9.08255 14.1786 8.98393C14.722 8.88531 15.0825 8.36485 14.9839 7.82144C14.9007 7.36286 14.6899 6.91656 14.3468 6.57354C13.9993 6.22598 13.5268 6 13 6C12.4732 6 12.0007 6.22598 11.6532 6.57354C11.3101 6.91656 11.0993 7.36286 11.0161 7.82144C10.9175 8.36485 11.278 8.88531 11.8214 8.98393C12.3648 9.08255 12.8853 8.72197 12.9839 8.17856C12.9883 8.1544 12.9938 8.1326 13 8.11308C13.0062 8.1326 13.0117 8.1544 13.0161 8.17856Z" fill="#777E91"/>
</svg>
