<svg width="20" height="20" viewBox="0 0 20 20" fill="none" xmlns="http://www.w3.org/2000/svg">
<path d="M17.7077 7.62506C15.7827 4.60006 12.966 2.8584 9.99935 2.8584C8.51602 2.8584 7.07435 3.29173 5.75768 4.10007C4.44102 4.91673 3.25768 6.1084 2.29102 7.62506C1.45768 8.9334 1.45768 11.0584 2.29102 12.3667C4.21602 15.4001 7.03268 17.1334 9.99935 17.1334C11.4827 17.1334 12.9243 16.7001 14.241 15.8917C15.5577 15.0751 16.741 13.8834 17.7077 12.3667C18.541 11.0667 18.541 8.9334 17.7077 7.62506ZM9.99935 13.3667C8.13268 13.3667 6.63268 11.8584 6.63268 10.0001C6.63268 8.14173 8.13268 6.6334 9.99935 6.6334C11.866 6.6334 13.366 8.14173 13.366 10.0001C13.366 11.8584 11.866 13.3667 9.99935 13.3667Z" fill="#ACB5BB"/>
<path d="M10 7.6167C8.69167 7.6167 7.625 8.68337 7.625 10C7.625 11.3084 8.69167 12.375 10 12.375C11.3083 12.375 12.3833 11.3084 12.3833 10C12.3833 8.6917 11.3083 7.6167 10 7.6167Z" fill="#ACB5BB"/>
</svg>
