<svg width="20" height="20" viewBox="0 0 20 20" fill="none" xmlns="http://www.w3.org/2000/svg">
<g clip-path="url(#clip0_853_11926)">
<path d="M9.99935 9.44453C11.9438 6.56675 9.99935 2.63897 9.02713 1.66675C9.02713 4.62036 7.30338 6.27605 6.11046 7.50008C4.91852 8.72508 4.16602 10.6501 4.16602 12.3612C4.16602 13.9083 4.7806 15.392 5.87456 16.486C6.96852 17.5799 8.45225 18.1945 9.99935 18.1945C11.5464 18.1945 13.0302 17.5799 14.1241 16.486C15.2181 15.392 15.8327 13.9083 15.8327 12.3612C15.8327 10.8717 14.806 8.53064 13.8882 7.50008C12.1518 10.4167 11.1748 10.4167 9.99935 9.44453Z" stroke="#9EA3AE" stroke-width="1.5" stroke-linecap="round" stroke-linejoin="round"/>
</g>
<defs>
<clipPath id="clip0_853_11926">
<rect width="20" height="20" fill="white"/>
</clipPath>
</defs>
</svg>
