<svg width="24" height="24" viewBox="0 0 24 24" fill="none" xmlns="http://www.w3.org/2000/svg">
<g clip-path="url(#clip0_853_10977)">
<path d="M5 5V21" stroke="#9EA3AE" stroke-width="1.5" stroke-linecap="round" stroke-linejoin="round"/>
<path d="M19 5V14" stroke="#9EA3AE" stroke-width="1.5" stroke-linecap="round" stroke-linejoin="round"/>
<path d="M5 5.00009C5.93464 4.08395 7.19124 3.5708 8.5 3.5708C9.80876 3.5708 11.0654 4.08395 12 5.00009C12.9346 5.91622 14.1912 6.42937 15.5 6.42937C16.8088 6.42937 18.0654 5.91622 19 5.00009" stroke="#9EA3AE" stroke-width="1.5" stroke-linecap="round" stroke-linejoin="round"/>
<path d="M5 14.0001C5.93464 13.084 7.19124 12.5708 8.5 12.5708C9.80876 12.5708 11.0654 13.084 12 14.0001C12.9346 14.9162 14.1912 15.4294 15.5 15.4294C16.8088 15.4294 18.0654 14.9162 19 14.0001" stroke="#9EA3AE" stroke-width="1.5" stroke-linecap="round" stroke-linejoin="round"/>
</g>
<defs>
<clipPath id="clip0_853_10977">
<rect width="24" height="24" fill="white"/>
</clipPath>
</defs>
</svg>
