<svg width="34" height="34" viewBox="0 0 34 34" fill="none" xmlns="http://www.w3.org/2000/svg">
<path d="M31.2193 8.30454L32.836 6.68812C33.1046 6.41931 33.1931 6.01902 33.0626 5.66222C32.9321 5.30517 32.6064 5.05645 32.2274 5.0244L29.2283 4.77136L28.9753 1.77225C28.9435 1.39358 28.6945 1.0678 28.3377 0.937337C27.9809 0.80662 27.5806 0.895121 27.3118 1.16393L25.6952 2.78034C23.0808 1.17741 20.0916 0.333344 16.9997 0.333344C12.5479 0.333344 8.36244 2.067 5.21455 5.21488C2.06666 8.36277 0.333008 12.5483 0.333008 17C0.333008 21.4518 2.06666 25.6372 5.21455 28.7851C8.36244 31.933 12.5479 33.6667 16.9997 33.6667C21.4514 33.6667 25.6369 31.933 28.7848 28.7851C31.9327 25.6372 33.6663 21.4518 33.6663 17C33.6663 13.9081 32.8223 10.9191 31.2193 8.30454ZM27.3512 5.75733C27.3914 6.23188 27.7678 6.60827 28.2424 6.64845L29.9679 6.79392L27.6323 9.12953L25.0851 8.91463L24.8702 6.36743L27.2058 4.03182L27.3512 5.75733ZM20.32 17C20.32 18.8308 18.8305 20.3203 16.9997 20.3203C15.1689 20.3203 13.6794 18.8308 13.6794 17C13.6794 15.1692 15.1689 13.6797 16.9997 13.6797C17.5604 13.6797 18.0886 13.8198 18.5523 14.0663L16.3092 16.3096C15.9277 16.6908 15.9277 17.309 16.3092 17.6905C16.4997 17.8812 16.7497 17.9766 16.9997 17.9766C17.2497 17.9766 17.4997 17.8812 17.6901 17.6905L19.9334 15.4474C20.1799 15.911 20.32 16.4393 20.32 17ZM19.9718 12.6467C19.125 12.0668 18.1014 11.7266 16.9997 11.7266C14.0919 11.7266 11.7262 14.0922 11.7262 17C11.7262 19.9078 14.0919 22.2734 16.9997 22.2734C19.9075 22.2734 22.2731 19.9078 22.2731 17C22.2731 15.8983 21.9328 14.8747 21.353 14.0279L24.1413 11.2396C25.4152 12.8158 26.1794 14.8203 26.1794 17C26.1794 22.0616 22.0613 26.1797 16.9997 26.1797C11.9381 26.1797 7.81999 22.0616 7.81999 17C7.81999 11.9384 11.9381 7.82032 16.9997 7.82032C19.1794 7.82032 21.1839 8.58453 22.7601 9.85839L19.9718 12.6467ZM27.4036 27.404C24.6247 30.1831 20.9298 31.7136 16.9997 31.7136C13.0695 31.7136 9.3746 30.1831 6.59572 27.404C3.81659 24.6251 2.28613 20.9302 2.28613 17C2.28613 13.0699 3.81659 9.37494 6.59572 6.59606C9.3746 3.81693 13.0695 2.28647 16.9997 2.28647C19.5708 2.28647 22.0613 2.94692 24.27 4.20552L23.1686 5.30695C22.9905 5.48497 22.8891 5.72351 22.8827 5.97248C22.8819 6.00809 22.883 6.04369 22.8858 6.07955L23.0172 7.63773C21.281 6.51773 19.215 5.8672 16.9997 5.8672C10.8611 5.8672 5.86686 10.8614 5.86686 17C5.86686 23.1386 10.8611 28.1328 16.9997 28.1328C23.1383 28.1328 28.1325 23.1386 28.1325 17C28.1325 14.7847 27.482 12.7186 26.362 10.9825L27.9201 11.1139C27.9476 11.116 27.9751 11.1172 28.0023 11.1172C28.0069 11.1172 28.0117 11.1167 28.0163 11.1165C28.0292 11.1165 28.042 11.1155 28.0549 11.1147C28.076 11.1134 28.0974 11.1122 28.1182 11.1096C28.1312 11.1078 28.1442 11.1058 28.1572 11.1038C28.1778 11.1005 28.1981 11.0966 28.2184 11.0921C28.2314 11.089 28.2441 11.0857 28.2568 11.0824C28.2767 11.0771 28.2963 11.071 28.3158 11.0643C28.3286 11.06 28.341 11.0557 28.3535 11.0509C28.3726 11.0435 28.3914 11.0353 28.4102 11.0264C28.4222 11.0211 28.4341 11.0158 28.4461 11.0097C28.4649 11 28.4832 10.9893 28.5012 10.9786C28.5122 10.972 28.5231 10.9659 28.5338 10.9593C28.5531 10.9466 28.5717 10.9329 28.5903 10.9189C28.5989 10.9123 28.6078 10.9064 28.6162 10.8995C28.6426 10.8782 28.6683 10.8556 28.6927 10.8311L29.7942 9.72971C31.0528 11.9384 31.7132 14.4289 31.7132 17C31.7132 20.9302 30.1828 24.6251 27.4036 27.404Z" fill="#192126"/>
</svg>
