<svg width="24" height="24" viewBox="0 0 24 24" fill="none" xmlns="http://www.w3.org/2000/svg">
<path d="M17.2873 0.75L13.0498 7.0875H15.1498L19.8748 0.75H17.2873Z" fill="#428BC1"/>
<path d="M15.1502 0.75L10.9502 7.0875H13.0502L17.2877 0.75H15.1502Z" fill="#E8E8E8"/>
<path d="M13.0496 0.75L8.84961 7.0875H10.9496L15.1496 0.75H13.0496Z" fill="#ED4C5C"/>
<path d="M12.0004 23.2498C16.2668 23.2498 19.7254 19.7912 19.7254 15.5248C19.7254 11.2584 16.2668 7.7998 12.0004 7.7998C7.73399 7.7998 4.27539 11.2584 4.27539 15.5248C4.27539 19.7912 7.73399 23.2498 12.0004 23.2498Z" fill="#FFCE31"/>
<path d="M8.13828 5.6626C7.95078 5.6626 7.80078 5.8126 7.80078 6.0001V9.1501C7.80078 9.3376 7.95078 9.4876 8.13828 9.4876H15.8633C16.0508 9.4876 16.2008 9.3376 16.2008 9.1501V6.0001C16.2008 5.8126 16.0508 5.6626 15.8633 5.6626H8.13828ZM15.5258 8.1376C15.5258 8.3251 15.3758 8.4751 15.1883 8.4751H8.85078C8.66328 8.4751 8.51328 8.3251 8.51328 8.1376V6.7126C8.51328 6.5251 8.66328 6.3751 8.85078 6.3751H15.1883C15.3758 6.3751 15.5258 6.5251 15.5258 6.7126V8.1376Z" fill="#FFCE31"/>
<path opacity="0.5" d="M5.3623 16.4251C5.3623 12.2251 8.58731 8.8126 12.7123 8.5126C12.5248 8.5126 12.2998 8.4751 12.1123 8.4751C8.1748 8.4751 4.9873 11.6626 4.9873 15.6376C4.9873 16.8001 5.2873 17.9251 5.7748 18.9001C5.5123 18.1126 5.3623 17.2876 5.3623 16.4251Z" fill="#89664C"/>
<path opacity="0.33" d="M14.9623 21.4876C18.4498 19.1626 19.4998 14.6251 17.4748 11.1001L17.8123 11.5501C19.9873 14.7751 19.0873 19.1626 15.8248 21.3751C14.8498 22.0501 13.7623 22.4251 12.6748 22.5376C13.4998 22.3126 14.2498 21.9751 14.9623 21.4876Z" fill="white"/>
<path d="M8.85 7.0875H10.95L6.7125 0.75H4.125L8.85 7.0875Z" fill="#ED4C5C"/>
<path d="M10.9504 7.0875H13.0504L8.85039 0.75H6.71289L10.9504 7.0875Z" fill="#E8E8E8"/>
<path opacity="0.5" d="M12.3371 1.80029L11.2871 3.37529L13.7621 7.08779H15.1496L15.5246 6.56279L12.3371 1.80029Z" fill="#3E4347"/>
<path d="M13.0496 7.0875H15.1496L10.9496 0.75H8.84961L13.0496 7.0875Z" fill="#428BC1"/>
<path opacity="0.5" d="M10.0498 13.1997V13.5747C10.4248 13.5747 10.7623 13.4997 11.0998 13.3497V12.8247C10.7998 13.0497 10.4623 13.1622 10.0498 13.1997Z" fill="#89664C"/>
<path opacity="0.5" d="M12.5244 10.7622H12.8619V18.8622H12.5244V10.7622Z" fill="#89664C"/>
<path opacity="0.5" d="M13.9498 19.1997V20.2497H10.0498V20.6247H14.2873V19.1997H13.9498Z" fill="#89664C"/>
<path opacity="0.33" d="M12.8623 18.8628H13.9123V19.2003H12.8623V18.8628Z" fill="white"/>
<path opacity="0.33" d="M11.4748 10.7628H12.5248V10.4253H11.0998C11.0998 11.2128 10.4623 11.8503 9.6748 11.8503V13.2378C9.7873 13.2378 9.89981 13.2378 10.0123 13.2003V12.1503C10.8373 12.1878 11.4748 11.5503 11.4748 10.7628Z" fill="white"/>
<path opacity="0.33" d="M11.4744 19.2002V13.2002C11.3619 13.2752 11.2494 13.3127 11.1369 13.3877V18.8627H9.71191V20.2502H10.0494V19.2002H11.4744Z" fill="white"/>
</svg>
