<svg width="20" height="20" viewBox="0 0 20 20" fill="none" xmlns="http://www.w3.org/2000/svg">
<path d="M18.3317 7.28353C18.2559 3.49617 13.6343 0.704987 9.99935 3.88338C6.36688 0.707039 1.74282 3.49431 1.66696 7.28353C1.63915 8.67179 2.22748 10.0084 3.36826 11.1489C3.37135 11.1522 5.68387 13.452 9.6548 17.4014C9.84534 17.5909 10.1533 17.5909 10.3439 17.4014L16.6304 11.1489C17.7712 10.0085 18.3595 8.67179 18.3317 7.28353ZM9.99935 16.3662L4.63553 11.0315H6.35171C6.5233 11.0315 6.68232 10.9415 6.77059 10.7944L7.14555 10.1696L8.54499 12.3682C8.7508 12.6916 9.23406 12.6624 9.39862 12.315L11.33 8.23884L12.6957 10.7747C12.7809 10.9328 12.9461 11.0315 13.1258 11.0315H15.3631L9.99935 16.3662ZM16.3081 10.0547H13.4177L11.7322 6.9253C11.5433 6.5745 11.0323 6.58538 10.8606 6.94777L8.89436 11.0976L7.54549 8.97851C7.34883 8.66939 6.89956 8.68104 6.71446 8.98942L6.07514 10.0547H3.69067C2.98502 9.20624 2.62458 8.26395 2.64379 7.3031C2.70478 4.25772 6.58676 1.83101 9.65392 4.89739C9.84453 5.08797 10.154 5.08813 10.3448 4.89739C14.2609 0.982172 19.6447 6.04345 16.3081 10.0547Z" fill="#9EA3AE"/>
</svg>
