<svg width="56" height="56" viewBox="0 0 56 56" fill="none" xmlns="http://www.w3.org/2000/svg">
<path d="M15.1746 10.3473L28 1.22706L40.8254 10.3473L53.4626 19.7267L48.752 34.7427L43.7367 49.6598L28 49.82L12.2633 49.6598L7.248 34.7427L2.53742 19.7267L15.1746 10.3473Z" fill="url(#paint0_angular_856_20460)" stroke="#BBF246" stroke-width="2"/>
<g clip-path="url(#clip0_856_20460)">
<path d="M27.5001 33C21.2537 33 16.3106 26.5835 16.1036 26.3105C16.0365 26.2221 16 26.1127 16 26C16 25.8873 16.0365 25.7779 16.1036 25.6895C16.3106 25.4165 21.2537 19 27.5001 19C33.7465 19 38.6896 25.4165 38.8966 25.6895C38.9637 25.7779 39.0002 25.8873 39.0002 26C39.0002 26.1127 38.9637 26.2221 38.8966 26.3105C38.6896 26.5835 33.7465 33 27.5001 33ZM17.107 26C18.1707 27.27 22.4717 32 27.5001 32C32.5357 32 36.8309 27.271 37.8932 26C36.8295 24.73 32.5285 20 27.5001 20C22.4645 20 18.1693 24.729 17.107 26Z" fill="white"/>
<path d="M27.4997 32.5C26.2677 32.5 25.0633 32.1188 24.0389 31.4046C23.0146 30.6903 22.2161 29.6752 21.7447 28.4874C21.2732 27.2997 21.1498 25.9928 21.3902 24.7319C21.6306 23.471 22.2238 22.3128 23.095 21.4038C23.9662 20.4948 25.0761 19.8757 26.2844 19.6249C27.4928 19.3741 28.7452 19.5028 29.8835 19.9948C31.0217 20.4868 31.9946 21.3199 32.679 22.3888C33.3635 23.4577 33.7288 24.7144 33.7288 26C33.7269 27.7233 33.07 29.3754 31.9023 30.594C30.7345 31.8126 29.1512 32.498 27.4997 32.5ZM27.4997 20.5C26.4572 20.5 25.4381 20.8226 24.5714 21.4269C23.7046 22.0313 23.029 22.8903 22.6301 23.8952C22.2311 24.9002 22.1267 26.0061 22.3301 27.073C22.5335 28.1399 23.0355 29.1199 23.7726 29.8891C24.5098 30.6583 25.4489 31.1821 26.4714 31.3943C27.4938 31.6065 28.5536 31.4976 29.5167 31.0813C30.4799 30.6651 31.303 29.9601 31.8822 29.0556C32.4614 28.1512 32.7705 27.0878 32.7705 26C32.7689 24.5418 32.213 23.1439 31.2249 22.1128C30.2368 21.0817 28.8971 20.5017 27.4997 20.5Z" fill="white"/>
<path d="M27.4997 29.5C26.6101 29.5 25.7569 29.1313 25.1279 28.4749C24.4989 27.8185 24.1455 26.9283 24.1455 26C24.1455 25.0717 24.4989 24.1815 25.1279 23.5251C25.7569 22.8687 26.6101 22.5 27.4997 22.5V23.5C27.0258 23.5 26.5626 23.6466 26.1686 23.9213C25.7746 24.196 25.4675 24.5865 25.2862 25.0433C25.1049 25.5001 25.0574 26.0028 25.1499 26.4877C25.2423 26.9727 25.4705 27.4181 25.8056 27.7678C26.1406 28.1174 26.5675 28.3555 27.0323 28.452C27.497 28.5484 27.9787 28.4989 28.4165 28.3097C28.8543 28.1205 29.2285 27.8 29.4917 27.3889C29.755 26.9778 29.8955 26.4945 29.8955 26H30.8538C30.8527 26.9279 30.4989 27.8174 29.8702 28.4736C29.2414 29.1297 28.3889 29.4988 27.4997 29.5Z" fill="white"/>
<path d="M30.8538 24H29.8955V25H30.8538V24Z" fill="white"/>
<path d="M29.4163 22.5H28.458V23.5H29.4163V22.5Z" fill="white"/>
<path d="M27.9788 14H27.0205V18H27.9788V14Z" fill="white"/>
<path d="M23.6279 14.8029L22.7471 15.1968L24.1846 18.6969L25.0655 18.3029L23.6279 14.8029Z" fill="white"/>
<path d="M17.7899 17.1611L17.1123 17.8682L19.9733 20.8536L20.651 20.1465L17.7899 17.1611Z" fill="white"/>
<path d="M19.9743 31.1464L17.1133 34.1318L17.7909 34.8389L20.6519 31.8535L19.9743 31.1464Z" fill="white"/>
<path d="M24.1838 33.3027L22.7471 36.8032L23.6276 37.1967L25.0643 33.6962L24.1838 33.3027Z" fill="white"/>
<path d="M27.9788 34H27.0205V38H27.9788V34Z" fill="white"/>
<path d="M30.815 33.303L29.9346 33.6968L31.3721 37.1969L32.2525 36.8031L30.815 33.303Z" fill="white"/>
<path d="M35.0263 31.1464L34.3486 31.8535L37.2096 34.8389L37.8873 34.1318L35.0263 31.1464Z" fill="white"/>
<path d="M37.2096 17.1611L34.3486 20.1465L35.0263 20.8536L37.8873 17.8682L37.2096 17.1611Z" fill="white"/>
<path d="M31.3728 14.8029L29.9346 18.3027L30.8153 18.6968L32.2536 15.197L31.3728 14.8029Z" fill="white"/>
</g>
<path d="M43.529 35.0127L44 35.0003L44.471 35.0127L44.9407 35.0496L45.4079 35.1111L45.8711 35.197L46.3293 35.307L46.781 35.4408L47.2252 35.5981L47.6605 35.7784L48.0858 35.9812L48.4998 36.2061L48.9016 36.4523L49.2899 36.7191L49.6637 37.006L50.0219 37.3119L50.3637 37.6363L50.688 37.978L50.994 38.3363L51.2809 38.7101L51.5478 39.0985L51.7939 39.5002L52.0187 39.9142L52.2216 40.3395L52.4019 40.7748L52.5592 41.219L52.693 41.6707L52.803 42.1289L52.8889 42.5921L52.9504 43.0593L52.9873 43.529L52.9997 44L52.9873 44.471L52.9504 44.9407L52.8889 45.4079L52.803 45.8711L52.693 46.3293L52.5592 46.781L52.4019 47.2252L52.2216 47.6605L52.0187 48.0858L51.7939 48.4998L51.5478 48.9015L51.2809 49.2899L50.994 49.6637L50.6881 50.0219L50.3637 50.3637L50.0219 50.6881L49.6637 50.994L49.2899 51.2809L48.9015 51.5478L48.4998 51.7939L48.0858 52.0187L47.6605 52.2216L47.2252 52.4019L46.781 52.5592L46.3293 52.693L45.8711 52.803L45.4079 52.8889L44.9407 52.9504L44.471 52.9873L44 52.9997L43.529 52.9873L43.0593 52.9504L42.5921 52.8889L42.1289 52.803L41.6707 52.693L41.219 52.5592L40.7748 52.4019L40.3395 52.2216L39.9142 52.0187L39.5002 51.7939L39.0985 51.5478L38.7101 51.2809L38.3363 50.994L37.978 50.688L37.6363 50.3637L37.3119 50.0219L37.006 49.6637L36.7191 49.2899L36.4523 48.9016L36.2061 48.4998L35.9812 48.0858L35.7784 47.6605L35.5981 47.2252L35.4408 46.781L35.307 46.3293L35.197 45.8711L35.1111 45.4079L35.0496 44.9407L35.0127 44.471L35.0003 44L35.0127 43.529L35.0496 43.0593L35.1111 42.5921L35.197 42.1289L35.307 41.6707L35.4408 41.219L35.5981 40.7748L35.7784 40.3395L35.9812 39.9142L36.2061 39.5002L36.4523 39.0984L36.7191 38.7101L37.006 38.3363L37.312 37.9781L37.6363 37.6363L37.9781 37.312L38.3363 37.006L38.7101 36.7191L39.0984 36.4523L39.5002 36.2061L39.9142 35.9812L40.3395 35.7784L40.7748 35.5981L41.219 35.4408L41.6707 35.307L42.1289 35.197L42.5921 35.1111L43.0593 35.0496L43.529 35.0127Z" fill="url(#paint1_angular_856_20460)" stroke="#BBF246" stroke-width="2"/>
<path d="M46.4004 41.8999V45.8999H44.9004V41.8999H46.4004ZM46.4004 40.3999H44.9004C44.0704 40.3999 43.4004 41.0699 43.4004 41.8999V45.8999C43.4004 46.7299 44.0704 47.3999 44.9004 47.3999H46.4004C47.2304 47.3999 47.9004 46.7299 47.9004 45.8999V41.8999C47.9004 41.0699 47.2304 40.3999 46.4004 40.3999ZM41.1504 41.8999H41.4004V46.6499C41.4004 47.0649 41.7354 47.3999 42.1504 47.3999C42.5654 47.3999 42.9004 47.0649 42.9004 46.6499V41.3999C42.9004 40.8499 42.4504 40.3999 41.9004 40.3999H41.1504C40.7354 40.3999 40.4004 40.7349 40.4004 41.1499C40.4004 41.5649 40.7354 41.8999 41.1504 41.8999Z" fill="white"/>
<defs>
<radialGradient id="paint0_angular_856_20460" cx="0" cy="0" r="1" gradientUnits="userSpaceOnUse" gradientTransform="translate(28 28) rotate(-90) scale(25)">
<stop stop-color="#384046"/>
<stop offset="1" stop-color="#192126"/>
</radialGradient>
<radialGradient id="paint1_angular_856_20460" cx="0" cy="0" r="1" gradientUnits="userSpaceOnUse" gradientTransform="translate(44 44) rotate(-90) scale(8.92857)">
<stop stop-color="#384046"/>
<stop offset="1" stop-color="#192126"/>
</radialGradient>
<clipPath id="clip0_856_20460">
<rect width="23" height="24" fill="white" transform="translate(16 14)"/>
</clipPath>
</defs>
</svg>
