<svg width="28" height="17" viewBox="0 0 28 17" fill="none" xmlns="http://www.w3.org/2000/svg">
<g opacity="0.73">
<path d="M9.84961 1.94189H17.1496V15.0587H9.84961V1.94189Z" fill="#FF5F00"/>
<path d="M10.3127 8.50008C10.3127 5.83504 11.5641 3.47119 13.4876 1.94163C12.074 0.829266 10.2896 0.157227 8.34296 0.157227C3.73106 0.157227 0 3.88828 0 8.50008C0 13.1118 3.73106 16.8429 8.34286 16.8429C10.2895 16.8429 12.0739 16.1709 13.4876 15.0584C11.5641 13.5521 10.3127 11.1651 10.3127 8.50008Z" fill="#EB001B"/>
<path d="M27.0012 8.50008C27.0012 13.1118 23.2702 16.8429 18.6584 16.8429C16.7117 16.8429 14.9273 16.1709 13.5137 15.0584C15.4603 13.529 16.6886 11.1651 16.6886 8.50008C16.6886 5.83504 15.4371 3.47119 13.5137 1.94163C14.9272 0.829266 16.7117 0.157227 18.6584 0.157227C23.2702 0.157227 27.0013 3.91151 27.0013 8.50008H27.0012Z" fill="#F79E1B"/>
</g>
</svg>
