<?xml version="1.0" encoding="UTF-8"?>
<svg width="1200pt" height="1200pt" version="1.1" viewBox="0 0 1200 1200" xmlns="http://www.w3.org/2000/svg">
 <g>
  <path d="m381 753.48c-2.1602 28.078-4.4414 60-37.922 93.602v-0.003906c-3.3672 3.3516-5.668 7.625-6.6094 12.281s-0.47656 9.4883 1.332 13.879c1.8242 4.3828 4.9102 8.1211 8.8633 10.746 3.9492 2.6289 8.5898 4.0273 13.336 4.0156 63.27-1.625 124.91-20.414 178.32-54.359 20.297 4.1641 40.961 6.293 61.68 6.3594 158.76 0 288-118.44 288-264s-129.24-264-288-264-288 118.44-288 264c0.39062 63.918 25.203 125.27 69.359 171.48zm-21-177.48c0-119.16 108-216 240-216s240 96.84 240 216c0 137.04-144 246.12-301.32 208.56-6.8789-1.6211-14.121-0.12891-19.801 4.082-32.289 22.715-69.145 38.113-108 45.121 10.953-24.164 16.953-50.281 17.641-76.801 0-5.3984 0.83984-10.441 1.4414-14.879v-0.003906c1.0352-7.5156-1.5469-15.082-6.9609-20.398-19.703-18.84-35.43-41.441-46.25-66.461-10.82-25.023-16.516-51.957-16.75-79.219z"/>
  <path d="m552 600h60l-34.922 87.121c-2.3594 5.918-2.2695 12.535 0.25 18.387 2.5234 5.8516 7.2695 10.461 13.191 12.812 3.0234 1.1602 6.2422 1.7305 9.4805 1.6797 4.8086 0.003906 9.5039-1.4336 13.484-4.1289 3.9805-2.6953 7.0586-6.5273 8.8359-10.992l48-120c2.9453-7.3945 2.0312-15.77-2.4414-22.359-4.4688-6.5859-11.918-10.527-19.879-10.52h-60l34.922-87.121c3.1719-7.9727 1.8477-17.035-3.4727-23.77-5.3203-6.7344-13.828-10.117-22.32-8.8789-8.4922 1.2383-15.676 6.9141-18.848 14.891l-48 120c-2.9102 7.2969-2.0625 15.559 2.2656 22.113 4.332 6.5586 11.598 10.578 19.453 10.766z"/>
 </g>
</svg>
