<?xml version="1.0" encoding="UTF-8"?>
<svg id="Layer_1" data-name="Layer 1" xmlns="http://www.w3.org/2000/svg" viewBox="0 0 162.67 186.64">
  <defs>
    <style>
      .cls-1 {
        fill: #fff;
      }

      .cls-2 {
        font-family: MyriadPro-Regular, 'Myriad Pro';
        font-size: 41.63px;
      }

      .cls-2, .cls-3 {
        fill: #231f20;
      }
    </style>
  </defs>
  <g>
    <g>
      <path class="cls-1" d="m28.88,25.17v127.88h81.04c11.05,0,20-7.73,20-17.26V52.33l-31.47-27.16H28.88Z"/>
      <path class="cls-3" d="m109.92,154.17H27.76V24.06h71.1l32.17,27.76v83.97c0,10.13-9.48,18.38-21.12,18.38Zm-79.92-2.24h79.92c10.41,0,18.89-7.24,18.89-16.14V52.84l-30.77-26.55H30v125.64Z"/>
    </g>
    <g>
      <polygon class="cls-1" points="129.92 52.33 98.45 25.17 98.45 52.33 129.92 52.33"/>
      <path class="cls-3" d="m129.92,53.45h-31.47c-.62,0-1.12-.5-1.12-1.12v-27.16c0-.44.25-.83.65-1.02.4-.18.86-.12,1.2.17l31.47,27.16c.35.31.48.8.32,1.24-.16.44-.58.73-1.05.73Zm-30.35-2.24h27.35l-27.35-23.6v23.6Z"/>
    </g>
    <g>
      <circle class="cls-1" cx="28.88" cy="28.88" r="27.76"/>
      <path class="cls-3" d="m28.88,57.76C12.96,57.76,0,44.81,0,28.88S12.96,0,28.88,0s28.88,12.96,28.88,28.88-12.96,28.88-28.88,28.88Zm0-55.53C14.19,2.24,2.24,14.19,2.24,28.88s11.95,26.65,26.65,26.65,26.65-11.95,26.65-26.65S43.57,2.24,28.88,2.24Z"/>
    </g>
    <g>
      <path class="cls-1" d="m88.07,135.71v-4.25H3.56v4.25c0,9.58,9,17.34,20.09,17.34h80.95v-.28c-9.4-1.45-16.53-8.54-16.53-17.06Z"/>
      <path class="cls-3" d="m105.72,154.17H23.65c-11.7,0-21.21-8.28-21.21-18.46v-5.37h86.75v5.37c0,7.85,6.55,14.56,15.58,15.96l.95.15v2.35ZM4.68,132.58v3.13c0,8.94,8.51,16.22,18.98,16.22h74.37c-6.68-3.15-11.07-9.29-11.07-16.22v-3.13H4.68Z"/>
    </g>
    <g>
      <rect class="cls-3" x="44.72" y="73.74" width="67.43" height="2.24"/>
      <rect class="cls-3" x="44.72" y="85.34" width="36.61" height="2.24"/>
      <rect class="cls-3" x="44.72" y="96.93" width="36.61" height="2.24"/>
      <rect class="cls-3" x="44.72" y="109.74" width="36.61" height="2.24"/>
    </g>
    <text class="cls-2" transform="translate(18.14 42.97)"><tspan x="0" y="0">$</tspan></text>
  </g>
  <g>
    <g>
      <circle class="cls-1" cx="129.2" cy="153.16" r="30.92"/>
      <path class="cls-3" d="m129.2,186.64c-18.46,0-33.47-15.02-33.47-33.47s15.02-33.47,33.47-33.47,33.47,15.02,33.47,33.47-15.02,33.47-33.47,33.47Zm0-61.84c-15.64,0-28.36,12.72-28.36,28.36s12.72,28.36,28.36,28.36,28.36-12.72,28.36-28.36-12.72-28.36-28.36-28.36Z"/>
    </g>
    <rect class="cls-3" x="126.64" y="134.6" width="5.11" height="37.13" transform="translate(-70.46 136.22) rotate(-45)"/>
    <rect class="cls-3" x="110.63" y="150.61" width="37.13" height="5.11" transform="translate(-70.46 136.22) rotate(-45)"/>
  </g>
</svg>