<svg width="64" height="64" viewBox="0 0 64 64" fill="none" xmlns="http://www.w3.org/2000/svg">
<circle cx="32" cy="32" r="31" fill="#384046" stroke="#BBF246" stroke-width="2"/>
<g clip-path="url(#clip0_168_4217)">
<path d="M32.0003 31.1112C35.1114 26.5067 32.0003 20.2223 30.4448 18.6667C30.4448 23.3925 27.6868 26.0416 25.7781 28.0001C23.871 29.9601 22.667 33.0401 22.667 35.7779C22.667 38.2532 23.6503 40.6272 25.4007 42.3775C27.151 44.1279 29.525 45.1112 32.0003 45.1112C34.4757 45.1112 36.8497 44.1279 38.6 42.3775C40.3503 40.6272 41.3337 38.2532 41.3337 35.7779C41.3337 33.3947 39.691 29.649 38.2225 28.0001C35.4443 32.6667 33.881 32.6667 32.0003 31.1112Z" stroke="#BBF246" stroke-width="1.5" stroke-linecap="round" stroke-linejoin="round"/>
</g>
<defs>
<clipPath id="clip0_168_4217">
<rect width="32" height="32" fill="white" transform="translate(16 16)"/>
</clipPath>
</defs>
</svg>
