<svg width="17" height="16" viewBox="0 0 17 16" fill="none" xmlns="http://www.w3.org/2000/svg">
<g clip-path="url(#clip0_1673_858)">
<path d="M4.5 10C5.60457 10 6.5 9.10457 6.5 8C6.5 6.89543 5.60457 6 4.5 6C3.39543 6 2.5 6.89543 2.5 8C2.5 9.10457 3.39543 10 4.5 10Z" stroke="#2A2627" stroke-width="1.5" stroke-linecap="round" stroke-linejoin="round"/>
<path d="M12.5 6C13.6046 6 14.5 5.10457 14.5 4C14.5 2.89543 13.6046 2 12.5 2C11.3954 2 10.5 2.89543 10.5 4C10.5 5.10457 11.3954 6 12.5 6Z" stroke="#2A2627" stroke-width="1.5" stroke-linecap="round" stroke-linejoin="round"/>
<path d="M12.5 14C13.6046 14 14.5 13.1046 14.5 12C14.5 10.8954 13.6046 10 12.5 10C11.3954 10 10.5 10.8954 10.5 12C10.5 13.1046 11.3954 14 12.5 14Z" stroke="#2A2627" stroke-width="1.5" stroke-linecap="round" stroke-linejoin="round"/>
<path d="M6.2998 7.13337L10.6998 4.8667" stroke="#2A2627" stroke-width="1.5" stroke-linecap="round" stroke-linejoin="round"/>
<path d="M6.2998 8.8667L10.6998 11.1334" stroke="#2A2627" stroke-width="1.5" stroke-linecap="round" stroke-linejoin="round"/>
</g>
<defs>
<clipPath id="clip0_1673_858">
<rect width="16" height="16" fill="white" transform="translate(0.5)"/>
</clipPath>
</defs>
</svg>
