<svg width="632" height="616" viewBox="0 0 632 616" fill="none" xmlns="http://www.w3.org/2000/svg">
<g clip-path="url(#clip0_1494_10840)">
<path d="M570.931 392.418C571.374 392.977 572.031 393.301 572.746 393.301C574.061 393.301 575.112 392.22 575.112 390.896C575.112 390.646 575.076 390.418 575.012 390.19C567.801 343.631 533.546 324.995 503.895 323.047C502.136 322.929 500.371 322.841 498.592 322.752C486.342 322.149 474.772 321.583 464.487 312.214L461.793 309.758L465.109 311.199C474.972 315.479 486.042 310.434 497.948 296.704C498.806 295.719 499.664 294.689 500.543 293.645L500.779 293.358C505.717 287.452 510.82 281.341 517.502 278.657C522.097 276.811 525.37 276.495 530.981 276.495C532.131 276.495 533.36 276.509 534.711 276.524L537.534 276.554C538.871 276.554 539.914 275.473 539.914 274.149C539.914 273.318 539.507 272.56 538.828 272.112C529.015 264.037 517.037 259.963 503.18 259.963C496.09 259.963 488.429 261.036 480.403 263.147C476.351 264.213 471.984 264.772 467.418 264.64L463.022 264.544L466.789 263.434C479.117 259.808 488.122 253.55 493.56 244.842C494.718 242.989 495.783 240.937 496.905 238.768C500.714 231.406 504.659 223.795 513.4 220.757C516.523 219.669 519.517 218.75 522.419 217.867C534.318 214.22 544.467 211.116 554.272 200.011C565.192 187.649 570.145 165.344 569.516 153.996C569.459 152.893 568.68 151.974 567.622 151.768C566.557 151.562 565.499 152.136 565.056 153.121C556.559 171.963 537.22 178.647 523.241 178.647C521.597 178.647 519.968 178.559 518.388 178.39C502.072 176.625 489.137 179.809 480.16 187.826C466.939 199.629 454.854 205.13 442.111 205.13C439.524 205.13 436.83 204.902 434.107 204.453L432.134 204.13L433.964 203.299C449.015 196.489 454.561 179.067 454.732 165.028C454.846 154.82 454.947 146.01 462.093 138.714C468.425 132.25 471.041 129.58 482.997 125.955C484.048 125.639 484.748 124.594 484.67 123.469C484.584 122.344 483.741 121.417 482.654 121.263C478.859 120.726 475.408 120.461 472.099 120.461C466.045 120.461 460.442 121.373 454.968 123.241C442.368 127.543 436.579 136.935 430.991 146.01C427.003 152.481 423.244 158.571 417.176 162.711C408.657 168.513 404.919 170.146 399.795 170.315L397.28 170.396L399.502 169.168C408.05 164.447 414.903 157.519 418.305 150.15C425.466 134.633 425.066 120.623 424.716 108.268C424.516 101.135 424.323 94.3981 425.716 88.4854C429.175 73.8138 438.788 67.8569 459.034 60.0468C460.021 59.6717 460.642 58.6495 460.542 57.5684C460.442 56.4874 459.656 55.6049 458.62 55.4137C453.138 54.4209 447.728 53.9208 442.54 53.9208C411.716 53.9208 385.945 72.2621 373.61 102.995C367.17 119.042 359.552 135.383 343.672 143.473L341.599 144.532L342.929 142.583C343.936 141.104 344.722 139.501 345.258 137.817C347.731 130.066 345.573 119.917 338.848 107.65C338.162 106.393 337.426 105.113 336.682 103.819C332.837 97.1045 328.864 90.1695 328.549 82.7933C328.256 76.1083 328.885 70.1808 332.88 63.0105C333.388 62.0986 333.266 60.9661 332.58 60.1939C331.908 59.4364 330.786 59.2011 329.879 59.6203C310.039 68.9086 301.02 86.7719 302.314 114.232C302.621 120.77 302.035 127.198 300.57 133.353L299.376 138.361L299.405 133.206C299.484 118.954 294.731 106.76 285.276 96.9721C283.761 95.3983 282.274 93.9348 280.831 92.5155L280.673 92.361C274.106 85.8967 268.91 80.7856 265.751 70.9163C263.8 64.827 263.028 58.7451 262.278 52.8618C261.027 43.0881 259.741 32.9908 252.958 23.4966C243.56 10.2738 228.374 1.50025 212.365 0C212.308 0 212.243 0 212.179 0C211.25 0 210.407 0.551563 210.028 1.40465C209.37 2.87548 209.356 2.9049 218.375 13.6935L218.754 14.1494C220.119 15.782 221.177 17.047 221.456 17.3926C231.204 29.4976 232.519 40.5362 226.301 58.1053C222.02 70.2176 224.936 77.5571 228.981 87.7205L229.417 88.8237C235.892 105.113 236.714 119.895 231.926 134C230.982 136.766 230.289 139.781 229.86 142.965L229.517 145.495L228.717 143.083C224.65 130.831 212.908 121.454 197.307 117.99C187.609 115.85 179.233 113.997 173.73 105.385C171.164 101.377 170.106 96.9133 168.991 92.1919C168.112 88.456 167.198 84.595 165.468 80.9032C165.018 79.9398 163.967 79.3809 162.917 79.5868C161.873 79.7927 161.094 80.6973 161.03 81.7931C160.801 85.404 160.108 89.1473 159.365 93.1185C158.371 98.4797 157.342 104.01 157.542 109.276C158.078 123.697 166.562 131.956 174.766 139.935C179.854 144.892 184.643 149.554 187.759 155.629C190.353 160.689 191.439 166.395 191.075 173.073L190.896 176.279L189.924 173.235C187.044 164.241 181.941 156.423 175.924 151.783C162.552 141.487 149.138 139.111 137.296 137.016C130.463 135.802 124.017 134.662 118.65 132.081C105.964 125.977 99.275 113.225 98.1959 93.0891C98.1315 91.9639 97.3097 91.0226 96.2305 90.8461C95.1371 90.6769 94.0722 91.3094 93.6791 92.3463C76.8915 136.42 97.3811 170.403 122.152 187.517C123.888 188.723 125.689 189.899 127.512 191.091L127.69 191.208C137.624 197.702 147.901 204.409 152.368 217.463L152.968 219.228L151.475 218.169C147.63 215.44 142.856 214.065 137.274 214.065C132.579 214.065 127.44 214.992 122.002 216.816C120.787 217.22 119.55 217.661 118.292 218.103L117.914 218.235C111.932 220.36 105.786 222.537 99.7896 222.537C98.5818 222.537 97.4026 222.449 96.2805 222.265C93.5148 221.824 90.9133 220.015 88.169 218.11C84.7814 215.757 80.9722 213.094 76.6056 213.381C75.8123 213.433 75.1048 213.889 74.7117 214.602C74.3258 215.315 74.3115 216.168 74.676 216.897C84.4598 236.245 99.5323 248.674 120.744 254.888C125.461 256.271 129.892 257.867 133.915 259.624L136.702 260.845L133.172 260.779C127.748 260.779 123.217 261.61 119.336 263.323C116.163 264.721 113.454 266.236 111.067 267.574C105.957 270.442 101.919 272.7 95.816 272.7C94.5082 272.7 93.1145 272.597 91.678 272.391C86.7754 271.692 81.9013 270.523 77.1916 269.383L77.0415 269.346C69.5803 267.545 61.8619 265.677 53.9576 265.677C49.7982 265.677 45.9247 266.177 42.1083 267.199C26.4855 271.398 9.85509 288.666 4.93814 297.153C4.41642 298.042 4.51648 299.175 5.18113 299.962C5.83148 300.727 6.93922 300.999 7.854 300.602C13.8787 298.006 23.098 294.557 33.4822 294.557C43.8664 294.557 53.9004 298.234 62.5551 305.47C71.7601 313.177 78.8925 313.773 87.9546 313.773C89.048 313.773 90.1844 313.766 91.3707 313.751H92.3498C101.862 313.751 115.612 315.207 127.104 322.142L128.512 322.988L126.904 323.26C116.377 325.054 106.536 332.276 99.175 343.594C93.6577 352.081 88.8908 359.406 79.0855 361.494C70.5523 363.311 63.7129 363.017 54.7151 360.443C53.7074 360.156 52.5997 360.619 52.0708 361.531C51.5348 362.465 51.6706 363.664 52.4139 364.436C59.5249 371.922 67.0718 376.254 76.8914 378.49C79.9288 379.181 82.9519 379.534 85.8678 379.534C95.2657 379.534 102.584 376.041 109.659 372.658C116.106 369.576 122.18 366.686 129.406 366.62H129.792C132.064 366.62 134.03 366.775 135.795 367.091L139.733 367.797L135.766 368.289C129.906 369.018 124.567 370.812 120.336 373.489C106.114 382.468 99.0106 394.419 92.7501 404.972C89.1267 411.076 85.7177 416.827 81.4082 420.997C75.4264 426.792 68.9157 429.381 60.3039 429.381C53.6217 429.381 45.8317 427.807 38.4063 426.108C37.3986 425.873 36.3123 426.387 35.8263 427.336C35.3332 428.292 35.5333 429.476 36.298 430.219C51.9779 445.295 69.4874 452.936 88.3477 452.936C107.208 452.936 123.181 444.868 132.757 438.095C134.208 437.073 135.652 436.021 137.103 434.955C142.506 431.006 148.087 426.932 154.255 424.35L156.299 423.497L154.948 425.292C150.388 431.322 147.694 440.5 146.951 452.568C146.865 454.01 146.794 455.488 146.729 457.003C146.386 464.784 146.036 472.836 142.391 479.183C139.204 484.743 133.637 490.31 128.212 493.354C127.24 493.906 126.769 495.09 127.097 496.186C127.426 497.274 128.434 497.995 129.563 497.87C150.667 495.649 167.448 485.824 180.884 467.828C183.578 464.217 185.579 460.452 187.516 456.812L188.881 454.245L188.623 457.157C188.202 461.923 188.402 466.35 189.224 470.674C189.874 474.072 190.782 476.999 191.575 479.58C193.498 485.794 194.87 490.251 192.426 497.716C190.96 502.172 189.088 506.504 187.273 510.688C183.02 520.528 178.625 530.699 179.411 542.716C180.426 558.248 188.08 573.471 199.379 582.436C200.337 583.193 201.809 583.031 202.595 582.083C203.091 581.484 203.053 579.423 202.481 575.898C201.909 572.36 201.052 567.073 200.859 564.822C199.401 547.724 205.511 539.318 216.56 530.581C225.701 523.345 226.951 516.174 228.681 506.246L228.867 505.18C230.518 495.73 234.155 486.773 239.372 479.271L240.516 477.624L240.444 479.646C240.066 489.839 244.204 500.569 248.735 510.644C254.281 522.984 258.44 538.399 247.22 559.211C246.762 560.064 246.848 561.116 247.441 561.881C248.02 562.631 248.992 562.969 249.921 562.697C281.424 553.313 280.245 527.537 279.38 508.725C279.044 501.334 278.722 494.355 280.33 489.677C280.473 489.258 280.623 488.846 280.773 488.457L282.281 484.427L281.917 488.729C281.217 496.987 282.432 504.886 285.34 510.96C292.723 526.375 303.636 534.744 313.27 542.135C318.83 546.4 324.076 550.43 327.72 555.225C336.754 567.124 335.324 578.582 328.707 599.755C328.385 600.784 328.778 601.917 329.657 602.512C330.515 603.086 331.723 602.998 332.487 602.292C366.856 570.831 363.547 530.978 348.996 504.172C346.788 500.106 344.265 495.23 342.3 489.927L341.142 486.795L343.3 489.31C348.031 494.833 353.963 499.15 358.108 501.79L358.423 501.981C365.655 506.592 382.55 517.373 384.208 538.222C384.294 539.274 385.023 540.142 386.023 540.377C387.045 540.59 388.06 540.127 388.561 539.245C397.608 523.315 397.623 498.797 388.596 478.22C387.546 475.815 386.567 473.476 385.695 471.255L384.673 468.659L386.645 470.586C391.569 475.381 397.044 478.639 402.925 480.257C406.242 481.169 409.279 481.698 411.959 482.161C419.013 483.382 424.087 484.257 430.126 490.692C433.563 494.355 436.694 498.385 439.724 502.275C446.942 511.556 454.318 521.036 466.01 526.264C473.414 529.574 481.74 531.317 490.101 531.317C498.463 531.317 506.467 529.559 513.364 526.242C514.293 525.794 514.822 524.794 514.693 523.749C514.557 522.705 513.793 521.874 512.785 521.69C487.529 517.028 475.622 498.782 472.899 483.265C470.677 470.586 464.566 465.754 456.104 459.069L455.182 458.341C442.747 448.509 433.899 434.734 430.905 420.556L430.512 418.658L431.834 419.82C437.887 425.145 445.62 427.836 454.804 427.836C460.085 427.836 465.545 426.902 471.012 425.064C476.515 423.21 482.154 421.313 487.564 421.313C491.088 421.313 494.361 422.107 497.548 423.74C505.76 427.939 510.612 432.205 516.073 440.029C516.666 440.875 517.788 441.236 518.738 440.897C519.71 440.552 520.353 439.573 520.311 438.522C518.938 405.796 495.511 399.302 478.409 394.566C471.477 392.647 464.931 390.83 461.036 387.734C453.21 381.505 452.209 377.313 451.495 371.15L451.316 369.576L452.474 370.621C459.335 376.828 467.51 380.895 474.907 381.777C477.394 382.079 479.924 382.226 482.411 382.226C495.454 382.226 506.096 378.144 515.487 374.541C521.997 372.04 528.122 369.687 534.032 369.135C548.726 367.789 557.252 375.261 570.931 392.433V392.418ZM514.529 274.73C507.389 278.061 501.986 284.518 497.219 290.225L497.084 290.387C496.19 291.453 495.311 292.497 494.447 293.505C486.178 303.036 478.645 307.86 472.049 307.86C468.711 307.86 465.638 306.617 462.665 304.058L462.458 303.882V303.61C462.322 299.432 462.05 295.27 461.643 291.247L461.564 290.475L462.315 290.585C463.587 290.769 464.888 290.865 466.181 290.865C476.237 290.865 485.177 285.467 492.367 281.135C494.161 280.054 496.012 278.929 497.577 278.12C502.229 275.7 507.832 274.171 514.222 273.575L517.688 273.252L514.515 274.73H514.529ZM468.204 269.479C472.863 269.479 477.352 268.92 481.554 267.817C496.019 264.007 509.054 263.823 520.003 267.273L523.698 268.435L519.839 268.464C510.384 268.523 502.186 270.325 495.476 273.818C493.775 274.708 491.859 275.862 490.008 276.98C483.319 281.018 474.993 286.04 466.203 286.04C464.559 286.04 462.922 285.864 461.35 285.511L460.95 285.423L460.893 285.004C460.171 279.775 459.206 274.546 458.02 269.457L457.812 268.582L458.677 268.714C462.043 269.229 465.245 269.486 468.204 269.486V269.479ZM442.325 209.984C456.076 209.984 469.076 204.1 483.233 191.458C491.195 184.34 502.93 181.545 517.902 183.178C519.61 183.362 521.383 183.457 523.169 183.457C538.771 183.457 553.621 176.743 562.884 165.491L564.306 163.763L563.913 165.991C561.733 178.442 556.83 189.943 550.806 196.768C541.879 206.873 532.76 209.667 521.218 213.205C518.402 214.065 515.208 215.043 511.899 216.191C501.393 219.838 496.612 229.075 492.767 236.503C491.666 238.628 490.659 240.57 489.615 242.239C481.997 254.432 467.303 259.102 456.319 260.874L455.811 260.955L455.661 260.448C454.382 256.05 452.931 251.682 451.33 247.468L451.109 246.88L451.695 246.674C471.062 239.878 478.188 229.84 485.077 220.132C492.11 210.234 498.77 200.85 518.016 197.084C516.108 196.923 514.243 196.834 512.442 196.834C494.704 196.834 484.963 204.917 477.852 210.822L476.287 212.116C472.192 215.477 453.474 226.273 441.496 225.523L441.175 225.501L441.018 225.214C438.116 219.978 434.907 214.83 431.455 209.91L430.598 208.682L432.041 208.961C435.55 209.631 439.009 209.969 442.311 209.969L442.325 209.984ZM458.77 135.317C450.294 143.973 450.173 154.643 450.051 164.961C449.865 180.354 443.219 197.893 425.123 200.96L424.787 201.019L424.573 200.747C422.658 198.371 420.585 195.945 418.427 193.554L417.891 192.959L418.598 192.598C427.61 187.98 434.943 177.861 441.025 161.667C445.749 149.084 451.616 139.751 458.463 133.927L459.256 134.824L458.777 135.317H458.77ZM400.538 175.088C406.363 174.787 410.672 172.911 419.763 166.712C426.674 162.005 430.876 155.18 434.943 148.576C440.331 139.825 445.427 131.566 456.44 127.801L460.278 126.587L457.391 128.742C449.058 134.971 442.082 145.465 436.651 159.931C430.698 175.772 423.337 185.582 414.753 189.083L414.396 189.23L414.124 188.951C409.779 184.479 405.091 180.177 400.203 176.169L398.98 175.169L400.538 175.088ZM348.21 146.341C365.377 136.155 373.245 116.549 377.955 104.834C389.54 75.9686 413.688 58.7304 442.554 58.7304C443.812 58.7304 445.084 58.7598 446.378 58.826L448.865 58.951L446.585 59.988C433.835 65.7831 424.637 72.6592 421.178 87.3381C419.635 93.876 419.835 100.921 420.042 108.378C420.378 120.211 420.757 133.611 414.082 148.076C409.472 158.063 398.602 165.314 389.868 168.065L389.597 168.153L389.361 167.991C387.374 166.616 385.373 165.3 383.429 164.079L382.493 163.491L383.479 163.013C391.298 159.21 394.878 154.496 398.123 148.12C403.855 136.832 404.019 123.947 404.155 112.578C404.29 101.752 404.405 92.2286 408.893 85.6025C401.539 90.221 396.472 97.8325 394.164 107.797C393.985 108.555 393.806 109.452 393.599 110.452C391.426 120.983 386.352 145.642 359.037 151.349L358.866 151.386L358.701 151.319C355.35 149.937 351.862 148.635 348.317 147.458L347.052 147.039L348.203 146.355L348.21 146.341ZM323.94 75.4979L323.847 78.4543C323.804 79.9031 323.811 81.3886 323.883 82.9845C324.247 91.5521 328.714 99.3548 332.659 106.246C333.388 107.518 334.11 108.776 334.781 110.004C340.835 121.035 342.864 129.882 340.82 136.295C339.898 139.185 338.155 141.553 335.496 143.524L335.282 143.686L335.017 143.62C331.801 142.847 328.449 142.163 325.069 141.575L324.461 141.472L324.59 140.847C326.241 133.022 324.304 125.05 322.253 116.608C319.344 104.635 316.336 92.2507 322.725 78.1748L323.94 75.4906V75.4979ZM304 138.582C306.395 130.779 307.402 122.498 307.002 113.982C306.144 95.8469 309.925 82.5726 318.544 73.402L321.353 70.4162L319.494 74.1006C311.133 90.6843 314.778 105.701 317.708 117.777C319.737 126.124 321.488 133.338 319.916 140.215L319.795 140.751L319.266 140.678C314.463 140.023 309.503 139.582 304.529 139.369L303.757 139.339L303.993 138.582H304ZM236.342 135.589C241.445 120.535 240.573 104.187 233.748 86.9998L233.312 85.9041C229.26 75.7259 227.03 70.122 230.696 59.76C237.4 40.7936 235.77 27.6296 225.058 14.3259C224.75 13.9509 223.492 12.4433 221.92 10.5606L217.911 5.75096L219.655 6.15544C231.432 9.17065 242.203 16.5248 249.206 26.3353C255.267 34.822 256.425 43.8823 257.647 53.4722C258.426 59.5761 259.233 65.886 261.32 72.4092C264.851 83.4257 270.689 89.1767 277.45 95.8322C278.915 97.2663 280.423 98.7592 281.967 100.355C291.708 110.445 295.91 123.352 294.459 138.722L294.409 139.259L293.888 139.273C288.535 139.391 283.089 139.788 277.7 140.457L277.064 140.538L277.036 139.876C276.393 123.197 271.833 115.983 265.944 108.29C262.171 103.363 254.466 91.8683 251.958 86.6983C249.985 82.6315 245.497 69.644 245.84 54.2958C242.624 65.8051 240.545 76.4098 244.497 89.5076C244.847 90.6622 245.604 92.5522 246.569 94.9423C251.172 106.371 260.755 130.139 253.537 145.149L253.423 145.392L253.173 145.465C247.012 147.238 240.859 149.422 234.877 151.952L234.098 152.283L234.062 151.415C233.862 146.113 234.663 140.501 236.328 135.604L236.342 135.589ZM166.59 101.208C167.491 103.811 168.541 106.047 169.813 108.025C176.374 118.284 186.508 120.527 196.306 122.69C211.271 126.006 226.823 136.457 225.636 155.864L225.615 156.217L225.308 156.372C221.691 158.196 218.075 160.189 214.566 162.299L213.737 162.799L213.68 161.814C212.679 145.502 199.822 136.493 181.77 125.55C172.865 120.152 167.219 111.835 165.461 101.517L166.597 101.208H166.59ZM177.968 136.427C170.685 129.338 163.81 122.645 162.438 111.791L161.88 107.378L163.567 111.475C166.719 119.115 172.043 125.249 179.383 129.705C201.845 143.318 209.699 150.775 209.027 165.469L209.013 165.785L208.756 165.954C204.682 168.638 200.609 171.602 196.635 174.772L195.584 175.61L195.684 174.25C196.27 166.204 195.063 159.571 191.882 153.379C188.395 146.583 183.092 141.421 177.968 136.435V136.427ZM218.204 165.689L218.361 165.623C226.866 163.608 235.742 162.579 244.732 162.579C268.974 162.579 293.223 169.962 309.596 182.339C341.957 206.799 356.3 248.747 346.13 289.203C343.336 300.315 331.415 320.62 326.027 327.393C325.734 327.753 325.448 328.099 325.169 328.423L325.048 328.57C323.289 330.629 321.474 332.761 321.846 336.887C322.317 342.138 326.027 344.712 329.007 346.786C330.936 348.124 332.759 349.389 333.724 351.191C334.031 351.765 334.353 352.404 334.51 353.044C334.646 353.566 334.967 354.081 335.046 354.611C335.274 356.14 335.689 357.479 335.446 359.06C335.182 360.796 334.338 362.384 333.359 363.803C332.966 364.377 332.544 364.936 332.101 365.473C329.221 369.01 326.42 370.76 324.168 372.165C323.004 372.893 321.81 373.621 320.81 374.592C319.909 375.46 319.266 376.511 318.816 377.688C318.644 378.151 318.487 378.6 318.401 379.093C317.979 379.019 317.558 378.879 317.136 378.791C314.728 378.276 311.04 377.269 308.896 375.585C305.523 372.945 303.743 372.415 300.777 373.379C297.175 374.541 290.622 382.307 288.199 384.41C286.734 385.682 283.739 387.271 280.802 387.322C281.117 387.579 286.234 388.8 289.607 386.329C292.98 383.851 295.739 381.49 298.154 379.666C299.812 378.416 302.428 376.901 307.624 379.696C310.075 381.012 312.677 382.145 315.399 382.718C316.05 382.858 316.764 383.042 317.429 383.093C317.572 383.108 317.772 383.093 317.901 383.167C318.108 383.292 318.029 383.851 318.051 384.072C318.101 384.557 318.158 385.05 318.201 385.535C318.465 388.381 318.944 390.33 319.302 391.757C319.437 392.286 319.58 392.889 319.645 393.286C319.645 393.323 318.787 393.507 318.708 393.514C318.144 393.558 317.529 393.441 316.965 393.36C316.379 393.279 315.8 393.169 315.228 393.029C314.227 392.786 313.248 392.47 312.283 392.102C309.232 390.94 308.431 390.617 302.971 392.271C297.511 393.919 296.875 394.301 291.408 394.257C285.519 394.206 275.964 389.749 271.183 386.991C278.472 392.705 281.938 397.236 287.391 403.347C288.928 405.068 290.4 406.855 291.972 408.554C293.638 410.355 295.41 412.047 297.397 413.466C299.605 415.047 302.042 416.261 304.622 417.04C305.544 417.32 306.48 417.548 307.424 417.724C307.867 417.805 308.303 417.886 308.746 417.952C308.917 417.974 309.468 417.908 309.575 418.048C309.703 418.21 309.332 418.842 309.26 419.011C309.01 419.629 308.782 420.247 308.517 420.857C307.924 422.21 307.252 423.519 306.545 424.814C305.916 425.961 305.251 427.086 304.544 428.182C304.265 428.608 303.915 428.969 303.707 429.425C303.45 429.976 303.286 430.52 302.907 431.006C302.435 431.616 301.928 432.212 301.42 432.793C300.356 434.014 299.233 435.183 298.069 436.308C293.981 440.243 289.335 443.552 284.368 446.192C279.165 448.957 273.605 451.002 267.902 452.362C261.849 453.811 255.624 454.495 249.414 454.495C234.155 454.495 218.454 450.428 204.01 442.736C203.903 442.677 203.789 442.64 203.682 442.603L203.517 442.515C162.016 411.48 137.238 361.568 137.238 308.993C137.238 249.998 168.262 195.091 218.204 165.689ZM327.749 397.78C330.636 397.993 332.53 399.398 335.16 400.523C337.783 401.641 344.001 402.479 345.709 402.089C345.394 402.163 345.044 402.42 344.751 402.575C344.429 402.744 344.108 402.913 343.786 403.082C343.164 403.413 342.557 403.751 341.942 404.09C340.792 404.737 339.655 405.399 338.512 406.068C336.397 407.303 334.281 408.539 332.058 409.568C329.779 410.62 327.399 411.422 324.94 411.885C323.532 412.15 322.11 412.312 320.681 412.385C319.044 412.473 317.429 412.341 315.792 412.348C315.571 412.348 314.978 412.451 314.806 412.297C314.663 412.172 314.728 411.775 314.735 411.598C314.756 411.186 314.735 410.782 314.735 410.377C314.735 409.576 314.742 408.774 314.785 407.973C314.842 406.899 314.856 405.575 315.399 404.612C316.436 402.781 318.344 401.163 320.03 399.729C320.595 399.251 321.131 398.736 321.696 398.258C321.932 398.059 322.182 398.111 322.489 398.074C324.247 397.846 325.955 397.647 327.742 397.78H327.749ZM310.039 411.142C308.703 411.194 307.245 410.473 306.044 409.921C304.829 409.363 303.657 408.693 302.535 407.958C300.806 406.818 299.255 405.45 297.618 404.185C295.696 402.7 291.894 400.42 288.199 398.228C289.864 398.802 296.125 398.648 298.855 397.824C301.585 397 303.614 395.801 306.502 395.912C308.074 395.971 309.646 396.191 311.169 396.64C311.783 396.816 312.383 397.037 312.977 397.28C313.241 397.39 313.491 397.522 313.756 397.633C313.934 397.706 314.077 397.846 314.256 397.934C314.299 397.956 314.742 398.118 314.756 398.103L314.578 398.272C313.12 399.677 312.105 400.927 311.383 402.2C311.326 402.295 311.276 402.398 311.226 402.494C309.904 405.112 310.154 408.274 310.054 411.157L310.039 411.142ZM130.199 187.12L129.777 186.84C128.076 185.722 126.39 184.626 124.76 183.501C115.005 176.765 83.9667 151.327 94.1222 106.9L94.7083 104.326L95.2729 106.908C98.4246 121.366 105.421 131.022 116.67 136.435C122.595 139.288 129.348 140.487 136.502 141.752C147.83 143.759 160.658 146.032 173.122 155.629C181.713 162.255 186.072 174.272 187.194 182.545L187.237 182.861L187.001 183.075C184.407 185.487 181.784 188.098 179.204 190.826L178.525 191.547L178.218 190.598C170.478 166.469 151.968 162.196 143.077 160.137C140.748 159.6 138.368 159.174 136.066 158.762C127.276 157.188 118.207 155.563 110.009 147.282C112.718 158.218 122.123 163.799 132.05 169.69C135.066 171.477 138.182 173.33 141.205 175.375C154.141 184.134 161.63 195.113 164.103 208.947L164.146 209.204L163.996 209.417C162.016 212.219 160.137 215.058 158.393 217.86L157.7 218.978L157.328 217.705C152.725 201.865 140.748 194.04 130.177 187.127L130.199 187.12ZM96.7737 227.148C97.9029 227.273 98.8605 227.332 99.7824 227.332C106.608 227.332 113.418 224.905 119.436 222.765C120.801 222.28 122.137 221.802 123.445 221.368C128.355 219.728 133.136 218.853 137.267 218.853C144.635 218.853 149.788 221.353 153.026 226.501L153.219 226.803L153.047 227.119C151.296 230.384 149.617 233.774 148.051 237.201L147.744 237.878L147.165 237.437C144.207 235.172 138.468 232.37 127.919 231.899C125.646 231.796 123.317 231.759 121.065 231.723H120.794C112.153 231.59 103.992 231.465 96.4807 228.31L92.6071 226.685L96.7665 227.148H96.7737ZM122.023 250.24C109.616 246.607 99.6252 240.812 91.4851 232.532L88.8551 229.862L92.1569 231.561C101.29 236.253 111.617 236.407 120.73 236.547C123.238 236.584 125.496 236.62 127.719 236.723C139.318 237.246 143.985 240.753 145.45 242.246L145.736 242.541L145.579 242.923C143.756 247.35 142.07 252.005 140.576 256.749L140.369 257.411L139.761 257.109C134.394 254.44 128.427 252.138 122.023 250.262V250.24ZM92.357 308.919L90.5131 308.934C89.3554 308.949 88.2476 308.956 87.1827 308.956C79.5572 308.956 73.5396 308.434 65.521 301.72C51.4205 289.916 34.5471 286.783 15.7011 292.549L13.6357 293.181L15.1008 291.556C22.0617 283.819 33.1249 274.575 43.3018 271.84C46.7322 270.92 50.227 270.472 53.9719 270.472C61.333 270.472 68.4512 272.193 75.9838 274.009C80.8364 275.186 85.8463 276.399 91.0491 277.135C92.7143 277.37 94.3223 277.488 95.8232 277.488C103.12 277.488 108.066 274.715 113.304 271.781C115.784 270.391 118.25 269.016 121.187 267.721C124.474 266.272 128.405 265.566 133.186 265.566C134.373 265.566 135.63 265.618 137.289 265.743L137.996 265.794L137.817 266.5C136.495 271.766 135.402 277.193 134.58 282.628L134.48 283.268L133.872 283.128C129.484 282.157 122.752 282.856 114.569 285.195C106.879 287.386 100.976 288.409 95.9875 288.409C91.4279 288.409 88.0404 287.555 84.4527 286.651C80.1289 285.562 75.2263 284.327 67.179 284.327C65.8783 284.327 64.5133 284.356 63.0983 284.423C67.079 285.702 70.4808 287.526 74.0328 289.438C82.5588 294.02 92.2712 299.219 113.783 298.528C121.68 298.226 128.877 303.08 132.393 305.919L132.622 306.103L132.607 307.132C132.593 307.743 132.586 308.36 132.586 308.978C132.586 312.207 132.686 315.597 132.886 319.046L132.958 320.267L131.971 319.59C119.122 310.765 103.349 308.912 92.3784 308.912L92.357 308.919ZM81.7941 365.76C92.3284 362.789 97.7885 354.39 103.063 346.264C110.767 334.416 121.308 327.621 131.978 327.621C132.322 327.621 132.657 327.636 132.993 327.658L133.494 327.68L133.629 328.195C134.03 331.857 134.53 335.431 135.116 338.807L135.23 339.476L134.573 339.52C128.834 339.902 122.03 343.035 114.347 348.838C111.932 350.662 109.645 352.559 107.63 354.236C99.9182 360.641 93.2646 366.171 81.9799 366.936L76.1482 367.333L81.787 365.745L81.7941 365.76ZM129.792 361.81H129.363C121.123 361.877 114.297 365.135 107.701 368.289C100.762 371.599 94.2294 374.724 85.8678 374.724C83.2449 374.724 80.6435 374.423 77.8991 373.798C76.6199 373.511 75.3621 373.173 74.1471 372.79L68.5941 371.062L74.3687 371.599C76.091 371.761 77.7276 371.842 79.2427 371.842C93.9078 371.842 102.005 365.12 110.574 358.001C112.661 356.265 114.812 354.478 117.12 352.735C126.29 345.808 132.279 344.337 135.695 344.315H136.174L136.274 344.793C137.524 350.779 139.111 356.751 140.983 362.546L141.355 363.7L140.233 363.311C137.317 362.303 133.901 361.81 129.784 361.81H129.792ZM134.408 431.028C132.965 432.08 131.543 433.124 130.113 434.131C121.08 440.515 106.5 448.119 88.3477 448.119C74.1757 448.119 60.7112 443.442 48.3188 434.212L46.3106 432.719L48.7548 433.124C53.2 433.852 56.9807 434.205 60.2967 434.205C70.0592 434.205 77.7848 431.124 84.6099 424.512C89.3839 419.886 92.9502 413.871 96.7308 407.502C102.72 397.412 109.509 385.976 122.773 377.6C127.733 374.474 134.451 372.746 141.698 372.746C142.577 372.746 143.456 372.776 144.321 372.827L144.693 372.849L144.835 373.202C146.129 376.46 147.494 379.615 148.881 382.564L149.288 383.439H148.209C147.944 383.432 147.694 383.424 147.444 383.424C127.848 383.424 119.643 395.809 113.654 404.847C111.86 407.553 110.374 410.311 108.802 413.238C104.199 421.784 99.4537 430.594 86.9684 437.5C101.798 435.448 113.811 426.182 124.496 417.952C134.701 410.091 144.342 402.656 154.762 402.656C156.606 402.656 158.464 402.891 160.287 403.354L160.508 403.413L160.637 403.604C163.317 407.7 166.247 411.767 169.349 415.702L170.149 416.724L168.527 416.68C168.384 416.673 168.234 416.665 168.091 416.665C154.048 416.665 144.064 423.961 134.408 431.021V431.028ZM145.386 485.368L142.406 487.604L144.557 484.522C145.307 483.441 145.922 482.5 146.415 481.632C150.646 474.256 151.046 465.203 151.396 457.223C151.46 455.694 151.525 454.267 151.611 452.87C152.318 441.434 155.691 422.262 170.378 422.262C171.428 422.262 172.515 422.35 173.615 422.534L175.209 422.784L175.352 422.946C176.617 424.38 177.982 425.865 179.519 427.483L179.962 427.947L179.483 428.366C174.594 432.653 170.557 438.161 167.483 444.743C165.775 448.406 164.432 452.289 163.01 456.4C159.393 466.865 155.656 477.675 145.393 485.368H145.386ZM191.861 441.294C188.238 445.405 185.808 449.98 183.456 454.407C181.57 457.959 179.64 461.577 177.167 464.894C170.406 473.954 162.902 480.661 154.233 485.412L150.91 487.228L153.533 484.449C161.016 476.513 164.41 466.688 167.412 458.018C168.806 454.002 170.099 450.244 171.7 446.832C174.559 440.721 178.325 435.639 182.913 431.719L183.321 431.374L183.699 431.749C186.379 434.381 189.202 436.97 192.097 439.448L192.404 439.713L191.861 441.294ZM241.231 469.49C232.626 478.587 226.601 490.964 224.257 504.334L224.071 505.393C222.356 515.248 221.413 520.668 213.701 526.772C202.016 536.016 194.562 546.099 196.192 565.249C196.306 566.58 196.614 568.838 197.128 572.162L197.457 574.265L196.099 572.655C189.174 564.433 184.786 553.409 184.064 542.407C183.349 531.581 187.323 522.389 191.532 512.667C193.39 508.372 195.313 503.93 196.835 499.275C199.78 490.317 197.957 484.419 196.035 478.183C195.227 475.587 194.405 472.91 193.798 469.755C191.94 460.04 194.034 450.796 196.063 443.832L196.156 443.64L196.521 443.265L196.992 443.523C201.345 446.979 205.94 450.252 210.628 453.26L211.014 453.51L210.878 453.958C207.92 463.629 207.026 478.352 207.877 486.993C207.977 487.993 210.057 510.696 198.915 525.051C209.17 520.44 212.279 505.459 215.295 490.942C217.846 478.654 220.255 467.056 226.951 462.746L227.223 462.57L227.516 462.71C231.954 464.864 236.485 466.813 240.995 468.512L241.852 468.836L241.216 469.505L241.231 469.49ZM256.067 551.026L256.996 547.687C261.577 531.17 257.261 518.138 252.987 508.629C247.17 495.686 242.417 482.191 247.012 471.189L247.22 470.682L247.727 470.851C250.929 471.895 254.23 472.858 257.539 473.712L258.125 473.859L257.968 474.454C256.953 478.264 255.889 486.375 260.084 497.892C261.249 501.084 271.075 529.596 258.04 548.202L256.067 551.019V551.026ZM280.48 478.786C278.722 481.242 277.229 484.287 275.921 488.082C273.998 493.649 274.341 501.084 274.706 508.96C275.371 523.448 276.121 539.87 263.621 550.416L260.691 552.886L262.749 549.614C272.641 533.905 270.118 511.733 264.465 496.215C260.52 485.405 261.806 478.124 262.542 475.499L262.692 474.954L263.228 475.072C268.774 476.285 274.434 477.212 280.059 477.822L281.081 477.933L280.473 478.786H280.48ZM344.908 506.526C350.747 517.285 367.478 555.13 337.483 590.327L335.846 592.253L336.468 589.775C339.97 575.868 340.449 564.168 331.408 552.261C327.377 546.959 321.882 542.738 316.071 538.281C306.859 531.214 296.418 523.205 289.543 508.835C284.94 499.238 286.162 486.758 288.613 478.984L288.756 478.543L289.207 478.565C292.544 478.734 295.889 478.815 299.162 478.764L300.527 478.742L300.42 479.455C297.132 501.054 312.183 512.255 320.266 518.27C321.295 519.035 322.21 519.719 322.975 520.337C323.454 520.719 324.29 521.242 325.348 521.896C329.75 524.624 338.419 529.993 340.956 538.789C342.357 526.411 334.61 516.483 330.293 510.953C329.55 510.004 328.928 509.203 328.492 508.563C323.468 501.238 318.344 488.721 320.416 477.572L320.495 477.146L320.91 477.087C325.148 476.469 329.393 475.668 333.538 474.719L334.202 474.565L334.253 475.263C335.146 487.133 339.906 497.311 344.915 506.541L344.908 506.526ZM382.9 518.896C376.347 507.769 366.291 501.356 360.888 497.907L360.581 497.708C355.25 494.303 342.636 485.235 340.713 474.609C340.656 474.315 340.635 474.02 340.613 473.719L340.534 472.932L341.013 472.8C346.388 471.292 351.748 469.476 356.943 467.409L357.651 467.13L357.744 467.902C359.009 478.536 364.812 485.684 370.429 492.597C376.147 499.635 382.064 506.916 383.994 518.484L384.523 521.646L382.907 518.903L382.9 518.896ZM390.068 519.69L389.447 524.08L388.896 519.682C387.153 505.695 380.17 497.09 374.01 489.501C368.021 482.132 362.854 475.771 362.218 465.629L362.189 465.203L362.568 465.034C367.063 463.041 371.508 460.827 375.789 458.444L376.454 458.077L376.647 458.827C378.719 467.034 382.021 474.962 384.323 480.213C389.768 492.626 391.862 507.011 390.068 519.69ZM452.331 462.158L453.253 462.886C461.729 469.578 466.396 473.27 468.297 484.11C469.512 491.045 475.558 514.409 502.422 523.904L504.359 524.588L502.365 525.066C498.427 526.014 494.296 526.5 490.101 526.5C482.376 526.5 474.693 524.889 467.875 521.845C457.241 517.094 450.544 508.482 443.455 499.363C440.331 495.348 437.108 491.2 433.492 487.353C426.381 479.779 420.078 478.69 412.774 477.425C410.029 476.947 407.235 476.462 404.14 475.616C395.157 473.145 387.467 466.534 381.285 455.966L380.978 455.444L381.492 455.135C385.209 452.862 388.861 450.436 392.348 447.906L392.906 447.501L393.213 448.126C398.144 458.047 407.414 461.68 417.226 465.526C422.636 467.644 428.239 469.843 433.313 473.189C439.502 477.271 446.713 483.772 461.443 501.782C457.484 486.942 450.008 474.388 439.195 464.445C437.559 462.938 435.515 461.29 433.349 459.555C429.34 456.326 424.802 452.671 422.093 449.2C418.177 444.177 413.967 435.543 413.703 429.778L413.688 429.513L413.874 429.322C417.612 425.49 421.2 421.453 424.544 417.305L425.352 416.305L425.573 417.592C425.795 418.835 426.031 420.166 426.331 421.6C429.554 436.874 439.031 451.671 452.331 462.18V462.158ZM502.537 420.997C501.608 420.467 500.65 419.945 499.635 419.423C495.783 417.452 491.838 416.496 487.564 416.496C481.389 416.496 475.372 418.518 469.554 420.482C464.552 422.166 459.585 423.019 454.804 423.019C448.686 423.019 437.344 421.409 430.133 410.642L429.897 410.282L430.147 409.936C432.313 406.928 434.4 403.825 436.344 400.729L436.751 400.074L437.266 400.633C440.038 403.648 444.191 406.45 449.601 408.973C453.824 410.936 458.649 411.201 462.801 411.201C464.895 411.201 467.003 411.12 469.24 411.039C471.641 410.951 474.086 410.855 476.515 410.855C485.435 410.855 494.84 411.966 503.216 420.026L506.71 423.387L502.529 420.997H502.537ZM458.184 391.543C462.815 395.22 469.797 397.155 477.187 399.206C489.615 402.648 503.687 406.553 510.863 419.614L509.898 420.306C499.649 407.745 487.178 406.046 476.337 406.046C473.864 406.046 471.448 406.134 469.118 406.222C466.939 406.303 464.873 406.384 462.858 406.384C459.392 406.384 454.968 406.178 451.538 404.582C445.827 401.927 441.811 399.052 439.602 396.029L439.367 395.706L439.567 395.353C442.49 390.278 445.177 385.013 447.55 379.718L448.121 378.438L448.636 379.747C450.265 383.91 453.303 387.66 458.191 391.551L458.184 391.543ZM297.561 473.962C273.991 473.962 251.257 468.784 229.989 458.562L225.479 456.4L230.353 457.422C241.924 459.842 253.452 460.092 264.107 458.216C270.053 457.165 275.885 455.458 281.445 453.039C286.748 450.722 291.787 447.759 296.368 444.162C300.82 440.662 304.822 436.558 308.21 431.962C309.646 430.006 310.325 427.814 311.426 425.689C312.048 424.483 312.641 423.262 313.162 422.004C313.42 421.379 313.663 420.739 313.884 420.092C313.992 419.776 314.077 419.46 314.184 419.144C314.256 418.938 314.363 418.754 314.377 418.541C317.329 418.938 320.352 418.761 323.275 418.254C326.434 417.71 329.514 416.761 332.487 415.533C335.203 414.408 337.833 413.047 340.334 411.473C342.314 410.23 344.236 408.855 345.987 407.274C352.048 401.795 355.964 397.669 363.804 392.794C358.759 395.015 348.796 398.397 342.936 397.802C337.497 397.25 336.904 396.802 331.644 394.559C329.486 393.639 327.249 392.661 324.869 392.808C324.676 392.823 324.504 392.86 324.304 392.86C324.226 392.124 324.047 391.367 323.854 390.587C323.518 389.242 323.104 387.579 322.875 385.079C322.668 382.843 322.653 381.77 322.811 380.88C323.004 380.939 323.197 380.946 323.397 380.939C326.484 381.27 329.114 383.071 330.915 384.138C332.823 385.27 334.953 386.859 336.775 388.124C339.334 389.903 346.359 393.853 352.055 392.088C348.76 391.838 344.458 389.852 342.464 388.285C340.163 386.469 338.04 384.402 335.753 382.564C333.838 381.027 332.016 379.38 330.115 377.828C329.721 377.512 329.328 377.195 328.935 376.887C328.378 376.445 327.863 376.07 327.163 375.953C327.342 375.791 327.585 375.68 327.792 375.555C328.056 375.386 328.321 375.21 328.578 375.041C329.143 374.666 329.693 374.276 330.229 373.864C331.48 372.923 332.666 371.886 333.767 370.76C334.445 370.062 335.096 369.334 335.71 368.576C341.957 360.899 340.342 355.706 338.912 351.132C338.612 350.161 338.269 349.316 337.79 348.433C337.554 347.999 337.211 347.485 336.861 347.146C335.232 345.55 333.516 344.116 331.644 342.815C328.635 340.719 326.777 339.299 326.52 336.461C326.341 334.497 326.913 333.725 328.578 331.769C328.928 331.357 329.293 330.93 329.664 330.467C335.303 323.385 347.574 302.808 350.683 290.438C361.339 248.064 346.302 204.115 312.391 178.478C295.253 165.52 269.968 157.791 244.761 157.791C242.131 157.791 238.901 157.909 235.663 158.129L232.176 158.365L235.399 156.967C255.117 148.392 276.042 144.046 297.583 144.046C305.28 144.046 313.091 144.627 320.781 145.782C321.038 145.848 321.224 145.885 321.381 145.892H321.481C359.087 151.717 393.563 171.271 418.634 200.967C443.955 230.965 457.898 269.339 457.898 309.015C457.898 399.979 385.988 473.976 297.59 473.976L297.561 473.962ZM533.611 364.333C527.079 364.943 520.668 367.407 513.871 370.018C504.402 373.651 494.618 377.409 482.419 377.409C480.117 377.409 477.773 377.269 475.443 376.989C468.161 376.122 460.214 371.783 453.639 365.076L453.374 364.804L453.496 364.443C454.611 361.127 455.64 357.744 456.54 354.383L456.79 353.471L457.491 354.081C464.102 359.847 474.672 361.891 481.725 361.891C483.269 361.891 484.713 361.803 486.006 361.619C492.252 360.766 497.998 358.457 503.566 356.229C510.291 353.53 516.651 350.978 523.541 350.978C526.936 350.978 530.195 351.603 533.432 352.89C524.977 345.734 514.422 342.925 500.921 344.241C497.412 344.58 494.311 344.749 491.438 344.749C478.038 344.749 468.697 341.035 461.15 332.695L460.957 332.482L461 332.195C461.636 327.415 462.086 322.598 462.322 317.884L462.379 316.715L463.272 317.435C474.393 326.385 487.128 327.011 498.356 327.562C500.107 327.65 501.851 327.731 503.587 327.849C515.544 328.636 555.523 334.696 567.994 379.733L568.673 382.182L566.993 380.306C559.468 371.915 550.648 364.149 537.198 364.149C536.033 364.149 534.826 364.208 533.611 364.318V364.333Z" fill="black"/>
<path d="M259.605 598.747C255.895 601.115 253.394 606.131 256.653 611.529C259.912 616.919 265.386 616.824 269.095 614.456C271.104 613.169 272.554 611.279 273.191 609.116C273.905 606.675 273.512 604.101 272.047 601.681C268.781 596.283 263.314 596.379 259.605 598.747ZM266.909 610.837C264.907 612.117 261.956 612.161 260.198 609.256C258.44 606.351 259.798 603.652 261.791 602.373C263.793 601.093 266.744 601.042 268.495 603.946C270.253 606.851 268.902 609.55 266.901 610.837H266.909Z" fill="black"/>
<path d="M17.3242 173.514C15.9163 177.618 14.7872 180.729 13.8724 183.237C11.3067 190.304 10.7707 191.775 12.5574 192.893C13.3507 193.393 14.051 193.378 14.8944 192.834C15.9878 192.142 17.4314 190.502 20.3044 187.237C22.0482 185.259 24.2137 182.803 27.101 179.64C31.0746 181.089 34.0905 182.244 36.5204 183.185C42.3021 185.406 44.053 186.083 45.2251 185.325C45.4967 185.149 45.7254 184.906 45.9326 184.553C47.0189 182.714 45.8826 181.663 40.4368 176.581C38.5143 174.787 36.1273 172.566 33.0614 169.587C34.4693 165.491 35.5984 162.38 36.5061 159.872C39.0718 152.805 39.6006 151.327 37.8282 150.209C37.0278 149.709 36.3274 149.724 35.4841 150.268C34.3978 150.966 32.9542 152.599 30.0812 155.864C28.3374 157.843 26.1791 160.299 23.2846 163.461L7.08298 157.593C6.43977 157.357 5.76798 157.423 5.20339 157.784C4.60306 158.166 4.20284 158.821 4.13138 159.549C4.05991 160.247 4.3029 160.909 4.82461 161.409L17.3242 173.529V173.514ZM18.7679 166.8C22.2912 168.234 23.7492 168.83 25.4001 167.763C26.3434 167.168 27.2725 166.065 28.8233 164.248C29.4523 163.513 30.1741 162.66 31.0245 161.696C30.5386 163.035 30.1026 164.152 29.7238 165.116C27.5012 170.779 27.5512 170.97 32.3181 175.294C33.0256 175.934 33.8475 176.677 34.7837 177.552C33.5688 177.081 32.5325 176.662 31.6392 176.294C28.1087 174.86 26.6507 174.264 24.9927 175.323C24.0565 175.919 23.1203 177.022 21.5766 178.839C20.9476 179.574 20.2258 180.42 19.3682 181.398C19.8256 180.148 20.233 179.081 20.5903 178.162C22.8701 172.242 22.8201 172.051 18.1175 167.815C17.4029 167.168 16.5738 166.425 15.6305 165.542C16.8526 166.013 17.8817 166.432 18.775 166.8H18.7679Z" fill="black"/>
<path d="M140.098 529.155C137.982 527.904 135.195 527.934 133.151 529.243C131.415 530.353 130.421 532.229 130.35 534.531C130.271 537.046 131.35 539.149 133.316 540.318C135.431 541.576 138.225 541.546 140.269 540.237C142.006 539.127 142.992 537.252 143.071 534.95C143.15 532.405 142.092 530.346 140.105 529.162L140.098 529.155Z" fill="black"/>
<path d="M365.54 35.8883C367.656 37.1459 370.45 37.1165 372.494 35.8075C374.224 34.697 375.217 32.8217 375.288 30.5198C375.367 27.9679 374.309 25.9161 372.323 24.7321C370.207 23.4745 367.413 23.5113 365.376 24.813C363.639 25.9234 362.646 27.7988 362.574 30.1006C362.496 32.6525 363.546 34.7043 365.54 35.8883Z" fill="black"/>
<path d="M9.75616 344.543C7.64073 343.285 4.84636 343.322 2.80954 344.624C1.08003 345.734 0.079486 347.617 0.00801867 349.911C-0.0705954 352.456 0.979975 354.515 2.98106 355.699C5.09649 356.957 7.89087 356.927 9.93483 355.618C11.6715 354.508 12.6649 352.632 12.7292 350.338C12.815 347.823 11.7287 345.712 9.76331 344.543H9.75616Z" fill="black"/>
<path d="M186.137 62.4222C188.253 63.6798 191.047 63.6503 193.091 62.3413C194.828 61.2308 195.821 59.3555 195.885 57.061C195.964 54.5459 194.885 52.4352 192.912 51.2659C190.797 50.0084 188.003 50.0451 185.966 51.3542C184.229 52.4573 183.236 54.3473 183.164 56.6418C183.086 59.1864 184.136 61.2455 186.13 62.4296L186.137 62.4222Z" fill="black"/>
<path d="M523.155 149.746C525.27 151.003 528.065 150.966 530.109 149.665C531.845 148.554 532.839 146.679 532.903 144.384C532.982 141.869 531.903 139.759 529.93 138.589C527.815 137.332 525.02 137.369 522.983 138.678C521.247 139.788 520.253 141.671 520.182 143.965C520.103 146.517 521.154 148.569 523.148 149.753L523.155 149.746Z" fill="black"/>
<path d="M629.084 353.294C628.148 352.544 626.99 351.588 625.496 350.323C626.025 348.404 626.447 346.933 626.783 345.756C627.733 342.44 627.94 341.734 627.09 341.278C626.683 341.05 626.139 341.167 625.832 341.55L620.822 347.838C618.95 347.293 617.542 346.859 616.384 346.514C613.704 345.683 612.896 345.44 612.368 345.771C612.239 345.859 612.118 345.999 612.032 346.183C611.582 347.058 612.132 347.507 614.805 349.676C615.741 350.426 616.899 351.382 618.392 352.647C617.863 354.567 617.442 356.023 617.106 357.214C616.134 360.531 615.948 361.222 616.799 361.693C616.963 361.781 617.106 361.81 617.249 361.81C617.428 361.81 617.592 361.766 617.763 361.649C618.264 361.332 618.907 360.501 620.179 358.847C620.908 357.883 621.837 356.692 623.066 355.133C624.924 355.677 626.347 356.111 627.49 356.457C630.17 357.288 630.992 357.53 631.507 357.199C631.65 357.111 631.757 356.971 631.857 356.795C632.314 355.92 631.75 355.464 629.084 353.302V353.294Z" fill="black"/>
<path d="M440.511 575.501L457.084 562.962L438.06 571.022L441.161 550.092L433.243 569.632L421.058 552.585L428.89 572.154L408.551 568.948L427.54 577.104L410.974 589.65L429.991 581.582L426.889 602.505L434.808 582.972L446.993 600.041L439.153 580.45L459.5 583.649L440.511 575.501Z" fill="black"/>
<path d="M70.6821 498.473L69.853 485.964L63.421 496.612L51.6074 493.56L59.4688 503.136L52.9939 513.755L64.2714 509.034L72.0828 518.645L71.2038 506.143L82.4956 501.466L70.6821 498.473Z" fill="black"/>
<path d="M195.677 255.535C200.908 252.307 235.985 237.51 268.724 267.559C268.502 266.721 255.788 245.401 230.489 243.445C209.792 241.842 198.786 251.726 195.67 255.535H195.677Z" fill="black"/>
<path d="M236.256 229.031C259.369 230.208 275.47 241.026 284.239 253.932C290.965 263.838 294.788 278.083 294.631 314.604C294.567 329.482 294.023 345.639 287.062 348.529C283.368 350.059 278.929 348.617 277.064 343.579C275.199 338.542 276.971 333.026 278.765 330.871C272.712 335.946 272.505 341.3 273.398 345.028C275.227 352.625 282.874 355.074 290.886 352.949C294.052 352.11 296.661 349.941 297.99 348.808C304.865 355.074 314.156 352.53 317.936 348.867C319.637 347.227 320.516 344.006 320.502 343.109C317.407 349.279 310.947 349.551 308.839 349.353C304.722 348.955 302.585 346.867 300.127 342.999C297.954 339.586 298.483 315.538 298.905 309.574C299.183 305.595 298.669 282.025 298.29 278.039C296.946 263.713 293.502 252.873 288.913 245.114C283.239 235.51 268.267 219.478 235.156 218.389C211.107 217.603 191.568 228.406 178.018 241.379C201.83 229.163 211.207 227.759 236.263 229.038L236.256 229.031Z" fill="black"/>
<path d="M412.245 282.79C403.833 281.172 400.61 280.209 390.355 276.826C380.099 273.443 378.827 273.641 374.046 271.244C369.644 269.045 373.524 260.08 375.154 259.668C377.312 259.132 398.123 271.722 407.264 275.075C417.727 278.914 428.24 282.29 436.401 282.04C423.651 278.701 414.561 273.627 406.735 269.567C398.902 265.508 393.221 261.757 384.559 256.969C375.897 252.182 374.36 253.616 372.524 254.697C371.123 255.521 369.987 257.933 369.107 261.595C368.228 265.258 368.057 265.993 368.007 269.339C367.978 271.148 367.985 273.149 371.166 275.436C370.194 276.804 369.243 278.583 368.764 281.415C368.278 284.298 368.393 287.004 369.015 289.085C368.471 290.96 367.128 295.542 366.928 296.049C368.679 295.005 373.588 293.858 377.555 293.505C382.944 293.027 386.974 294.086 397.344 293.865C407.707 293.645 413.746 291.556 425.166 287.982C436.58 284.415 439.324 284.246 440.025 283.731C438.295 283.739 420.671 284.408 412.252 282.783L412.245 282.79ZM387.61 288.298C384.387 288.217 381.378 288.181 378.763 288.181C379.37 286.989 379.878 285.636 380.228 284.15C380.599 282.599 380.75 281.135 380.714 279.797C382.879 280.51 385.395 281.253 388.361 282.018C397.366 284.349 408.879 286.188 414.454 286.357C406.671 288.386 397.859 288.57 387.61 288.298Z" fill="black"/>
<path d="M390.054 227.17C406.913 227.016 419.913 236.878 428.603 243.519C420.77 231.156 411.365 221.574 397.451 218.566C394.385 217.897 387.302 217.58 384.265 218.095C376.932 219.323 366.677 221.809 369.242 232.296C375.01 229.31 383.243 227.237 390.054 227.178V227.17Z" fill="black"/>
<path d="M202.187 217.507C204.11 217.507 205.668 215.904 205.668 213.925C205.668 211.947 204.11 210.344 202.187 210.344C200.265 210.344 198.707 211.947 198.707 213.925C198.707 215.904 200.265 217.507 202.187 217.507Z" fill="black"/>
<path d="M287.428 229.443C289.35 229.443 290.908 227.84 290.908 225.861C290.908 223.883 289.35 222.28 287.428 222.28C285.505 222.28 283.947 223.883 283.947 225.861C283.947 227.84 285.505 229.443 287.428 229.443Z" fill="black"/>
<path d="M310.625 462.283C308.703 462.283 307.145 463.886 307.145 465.865C307.145 467.843 308.703 469.446 310.625 469.446C312.547 469.446 314.105 467.843 314.105 465.865C314.105 463.886 312.547 462.283 310.625 462.283Z" fill="black"/>
<path d="M327.477 458.032C325.154 458.032 323.268 459.974 323.268 462.371C323.268 464.769 325.154 466.703 327.477 466.703C329.8 466.703 331.694 464.761 331.694 462.371C331.694 459.981 329.807 458.032 327.477 458.032Z" fill="black"/>
<path d="M346.523 451.436C343.893 451.436 341.764 453.627 341.764 456.334C341.764 459.04 343.893 461.231 346.523 461.231C349.153 461.231 351.29 459.04 351.29 456.334C351.29 453.627 349.161 451.436 346.523 451.436Z" fill="black"/>
<path d="M366.492 442.015C363.462 442.015 360.996 444.552 360.996 447.67C360.996 450.789 363.455 453.326 366.492 453.326C369.529 453.326 371.988 450.796 371.988 447.67C371.988 444.545 369.529 442.015 366.492 442.015Z" fill="black"/>
<path d="M384.995 431.705C382.465 431.705 380.414 433.815 380.414 436.419C380.414 439.022 382.465 441.133 384.995 441.133C387.525 441.133 389.576 439.022 389.576 436.419C389.576 433.815 387.525 431.705 384.995 431.705Z" fill="black"/>
<path d="M400.318 419.703C398.088 419.703 396.287 421.563 396.287 423.85C396.287 426.137 398.088 427.998 400.318 427.998C402.548 427.998 404.349 426.137 404.349 423.85C404.349 421.563 402.548 419.703 400.318 419.703Z" fill="black"/>
<path d="M413.566 406.2C411.644 406.2 410.086 407.803 410.086 409.782C410.086 411.76 411.644 413.363 413.566 413.363C415.489 413.363 417.047 411.76 417.047 409.782C417.047 407.803 415.489 406.2 413.566 406.2Z" fill="black"/>
<path d="M222.642 211.602C225.172 211.602 227.223 209.491 227.223 206.895C227.223 204.299 225.172 202.181 222.642 202.181C220.112 202.181 218.061 204.291 218.061 206.895C218.061 209.498 220.112 211.602 222.642 211.602Z" fill="black"/>
<path d="M271.083 217.933C273.613 217.933 275.664 215.823 275.664 213.219C275.664 210.616 273.613 208.505 271.083 208.505C268.553 208.505 266.502 210.616 266.502 213.219C266.502 215.823 268.553 217.933 271.083 217.933Z" fill="black"/>
<path d="M248.106 211.793C251.55 211.793 254.33 208.925 254.33 205.387C254.33 201.85 251.543 198.974 248.106 198.974C244.668 198.974 241.881 201.843 241.881 205.387C241.881 208.932 244.668 211.793 248.106 211.793Z" fill="black"/>
<path d="M200.802 286.923C197.721 290.622 193.676 295.079 188.702 297.16C195.685 296.285 201.681 292.733 205.69 289.695C208.499 291.078 211.636 292.306 215.117 293.152C213.601 297.476 210.964 304.043 207.805 308.059C214.066 303.367 218.354 297.712 220.677 294.123C222.013 294.277 223.378 294.387 224.793 294.41C227.959 294.468 230.704 294.373 233.126 294.182C233.448 298.329 233.677 304.823 232.505 309.316C235.792 303.448 237.25 297.469 237.908 293.593C242.939 292.74 246.183 291.335 248.885 289.946C249.771 292.858 252.001 300.815 251.651 306.176C254.459 297.704 253.78 289.556 253.545 287.504C254.938 286.849 256.403 286.29 258.161 285.93C266.016 284.327 268.896 287.938 272.098 289.953C272.533 290.232 274.677 290.512 273.798 288.541C271.862 284.187 264.572 280.039 257.118 281.282C251.065 282.29 246.026 289.1 228.238 289.1C218.368 289.1 208.949 285.893 203.303 283.261C197.657 280.62 188.502 272.421 187.609 273.178C186.844 273.818 187.595 275.12 189.603 277.355C187.595 279.672 183.206 283.79 173.744 286.445C180.762 287.217 188.824 284.106 193.483 281.29C195.263 282.922 197.729 284.945 200.809 286.923H200.802Z" fill="black"/>
</g>
<defs>
<clipPath id="clip0_1494_10840">
<rect width="632" height="616" fill="white"/>
</clipPath>
</defs>
</svg>
