<svg width="375" height="812" viewBox="0 0 375 812" fill="none" xmlns="http://www.w3.org/2000/svg">
<g clip-path="url(#clip0_1572_12107)">
<rect width="375" height="812" fill="white"/>
<path d="M-31.8324 164.769H4.63326C4.92773 166.121 5.52486 167.375 6.34284 168.476L-6.39313 180.297C-7.24383 181.087 -7.24383 182.356 -6.39313 183.146C-5.96778 183.541 -5.41156 183.738 -4.85533 183.738C-4.2991 183.738 -3.74287 183.541 -3.3257 183.146L9.47571 171.257C10.5636 171.895 11.7824 172.373 13.0912 172.617V206.483C13.0912 207.592 14.0646 208.496 15.2588 208.496C16.4531 208.496 17.4265 207.592 17.4265 206.483V172.617C18.5798 172.396 19.6596 172.001 20.6493 171.469L33.2135 183.138C33.6389 183.533 34.1951 183.731 34.7513 183.731C35.3076 183.731 35.8638 183.533 36.281 183.138C37.1317 182.348 37.1317 181.079 36.281 180.289L23.9049 168.795C24.8619 167.618 25.549 166.258 25.8762 164.761H62.3419C63.5361 164.761 64.5095 163.857 64.5095 162.748C64.5095 161.639 63.5361 160.735 62.3419 160.735H25.8762C25.5818 159.383 24.9846 158.129 24.1667 157.028L36.9026 145.199C37.7533 144.409 37.7533 143.141 36.9026 142.351C36.0519 141.568 34.6859 141.568 33.8352 142.351L21.0338 154.24C19.9459 153.602 18.7271 153.123 17.4183 152.88V119.013C17.4183 117.904 16.4449 117 15.2507 117C14.0564 117 13.083 117.904 13.083 119.013V152.88C11.627 153.153 10.2773 153.708 9.09126 154.468L-3.94737 142.358C-4.79807 141.576 -6.1641 141.576 -7.0148 142.358C-7.8655 143.148 -7.8655 144.417 -7.0148 145.207L6.09744 157.385C5.41034 158.395 4.89501 159.527 4.63326 160.743H-31.8324C-33.0266 160.743 -34 161.647 -34 162.756C-34 163.865 -33.0266 164.769 -31.8324 164.769ZM15.2588 156.709C18.8498 156.709 21.7618 159.421 21.7618 162.748C21.7618 166.076 18.8416 168.788 15.2588 168.788C11.6761 168.788 8.75588 166.076 8.75588 162.748C8.75588 159.421 11.6761 156.709 15.2588 156.709Z" fill="#231A20"/>
<path d="M347 65.7297C347 66.8388 347.973 67.7429 349.168 67.7429H366.239L360.3 73.2582C359.45 74.0483 359.45 75.317 360.3 76.107C360.726 76.5021 361.282 76.6996 361.838 76.6996C362.394 76.6996 362.951 76.5021 363.368 76.107L369.306 70.5917V86.4463C369.306 87.5555 370.28 88.4595 371.474 88.4595C372.668 88.4595 373.642 87.5555 373.642 86.4463V70.5917L379.58 76.107C380.006 76.5021 380.562 76.6996 381.118 76.6996C381.674 76.6996 382.23 76.5021 382.648 76.107C383.498 75.317 383.498 74.0483 382.648 73.2582L376.709 67.7429H393.78C394.975 67.7429 395.948 66.8388 395.948 65.7297C395.948 64.6206 394.975 63.7165 393.78 63.7165H376.709L382.648 58.2012C383.498 57.4111 383.498 56.1425 382.648 55.3524C381.797 54.5699 380.431 54.5699 379.58 55.3524L373.642 60.8677V45.0131C373.642 43.904 372.668 43 371.474 43C370.28 43 369.306 43.904 369.306 45.0131V60.8677L363.368 55.3524C362.517 54.5699 361.151 54.5699 360.3 55.3524C359.45 56.1425 359.45 57.4111 360.3 58.2012L366.239 63.7165H349.168C347.973 63.7165 347 64.6206 347 65.7297Z" fill="#231A20"/>
<path d="M358.008 212.366C358.008 213.475 358.982 214.379 360.176 214.379H369.035L366.646 216.597C365.795 217.387 365.795 218.656 366.646 219.446C367.071 219.841 367.628 220.038 368.176 220.038C368.724 220.038 369.288 219.841 369.705 219.446L372.895 216.483V225.455C372.895 226.162 373.509 226.731 374.27 226.731C375.03 226.731 375.644 226.162 375.644 225.455V216.483L378.834 219.446C379.259 219.841 379.816 220.038 380.372 220.038C380.928 220.038 381.484 219.841 381.901 219.446C382.752 218.656 382.752 217.387 381.901 216.597L379.513 214.379H388.372C389.566 214.379 390.539 213.475 390.539 212.366C390.539 211.257 389.566 210.352 388.372 210.352H379.513L381.901 208.134C382.752 207.344 382.752 206.075 381.901 205.285C381.051 204.495 379.685 204.495 378.834 205.285L375.644 208.248V199.276C375.644 198.57 375.03 198 374.27 198C373.509 198 372.895 198.57 372.895 199.276V208.248L369.705 205.285C368.855 204.503 367.489 204.495 366.638 205.285C365.787 206.075 365.787 207.344 366.638 208.134L369.026 210.352H360.168C358.973 210.352 358 211.257 358 212.366H358.008Z" fill="#231A20"/>
<path d="M2.49717 217.135C2.49717 215.547 1.1066 214.255 -0.602981 214.255C-2.31256 214.255 -3.70312 215.547 -3.70312 217.135C-3.70312 218.722 -2.31256 220.014 -0.602981 220.014C1.1066 220.014 2.49717 218.722 2.49717 217.135Z" fill="#231A20"/>
<path d="M190.335 180.013C190.335 178.904 189.362 178 188.168 178C186.973 178 186 178.904 186 180.013C186 181.122 186.973 182.026 188.168 182.026C189.362 182.026 190.335 181.122 190.335 180.013Z" fill="#231A20"/>
<path d="M338.335 95.0132C338.335 93.904 337.362 93 336.168 93C334.973 93 334 93.904 334 95.0132C334 96.1223 334.973 97.0263 336.168 97.0263C337.362 97.0263 338.335 96.1223 338.335 95.0132Z" fill="#231A20"/>
<path d="M48.222 628.838C48.222 627.729 47.2486 626.825 46.0544 626.825C44.8601 626.825 43.8867 627.729 43.8867 628.838C43.8867 629.947 44.8601 630.851 46.0544 630.851C47.2486 630.851 48.222 629.947 48.222 628.838Z" fill="#231A20"/>
<path d="M165.554 792.011C165.554 790.902 164.581 789.998 163.386 789.998C162.192 789.998 161.219 790.902 161.219 792.011C161.219 793.12 162.192 794.024 163.386 794.024C164.581 794.024 165.554 793.12 165.554 792.011Z" fill="#231A20"/>
<path d="M233.816 812.158C233.816 811.049 232.842 810.145 231.648 810.145C230.454 810.145 229.48 811.049 229.48 812.158C229.48 813.267 230.454 814.171 231.648 814.171C232.842 814.171 233.816 813.267 233.816 812.158Z" fill="#231A20"/>
<path d="M112.812 720.707C112.812 719.598 111.838 718.694 110.644 718.694C109.45 718.694 108.477 719.598 108.477 720.707C108.477 721.816 109.45 722.72 110.644 722.72C111.838 722.72 112.812 721.816 112.812 720.707Z" fill="#231A20"/>
<path d="M210.37 147.016C210.37 145.907 209.397 145.003 208.203 145.003C207.009 145.003 206.035 145.907 206.035 147.016C206.035 148.125 207.009 149.029 208.203 149.029C209.397 149.029 210.37 148.125 210.37 147.016Z" fill="#231A20"/>
<path d="M79.2259 189.672C79.2259 188.563 78.2525 187.659 77.0583 187.659C75.864 187.659 74.8906 188.563 74.8906 189.672C74.8906 190.781 75.864 191.685 77.0583 191.685C78.2525 191.685 79.2259 190.781 79.2259 189.672Z" fill="#231A20"/>
<path d="M351.335 151.013C351.335 149.904 350.362 149 349.168 149C347.973 149 347 149.904 347 151.013C347 152.122 347.973 153.026 349.168 153.026C350.362 153.026 351.335 152.122 351.335 151.013Z" fill="#231A20"/>
<g clip-path="url(#clip1_1572_12107)">
<path fill-rule="evenodd" clip-rule="evenodd" d="M211.353 86.3101L208.089 83.0997L203.459 87.6527C197.069 93.9378 186.586 93.9378 180.191 87.6527L175.432 82.9727L172.168 86.183L176.927 90.863C185.122 98.9185 198.528 98.9185 206.72 90.863L211.349 86.3101H211.353Z" fill="black"/>
<path fill-rule="evenodd" clip-rule="evenodd" d="M166.264 96.0852L177.517 85.0184L181.337 81.2616C187.728 74.9765 198.211 74.9765 204.601 81.2616L207.28 83.896L210.545 87.1064L213.809 83.896L210.545 80.6856L207.866 78.0513C199.675 69.9958 186.264 69.9915 178.073 78.0513L174.253 81.808L163 92.8748L166.264 96.0852Z" fill="black"/>
<path fill-rule="evenodd" clip-rule="evenodd" d="M221.7 76.086L215.782 70.2667C203.22 57.9124 182.716 57.9124 170.154 70.2667L163.074 77.2296L166.339 80.4399L173.419 73.4771C184.181 62.8931 201.76 62.8931 212.518 73.4771L218.435 79.2964L221.7 76.086Z" fill="black"/>
</g>
<path d="M181.979 763V751.8H185.659L188.299 761.704H188.555V751.8H190.459V763H186.795L184.155 753.096H183.883V763H181.979ZM196.347 763.224C195.557 763.224 194.859 763.059 194.251 762.728C193.653 762.387 193.184 761.912 192.843 761.304C192.512 760.685 192.347 759.965 192.347 759.144V758.952C192.347 758.12 192.512 757.4 192.843 756.792C193.173 756.184 193.637 755.715 194.235 755.384C194.832 755.043 195.52 754.872 196.299 754.872C197.067 754.872 197.739 755.043 198.315 755.384C198.891 755.715 199.339 756.184 199.659 756.792C199.979 757.4 200.139 758.109 200.139 758.92V759.576H194.203C194.224 760.195 194.443 760.691 194.859 761.064C195.275 761.437 195.787 761.624 196.395 761.624C196.992 761.624 197.435 761.496 197.723 761.24C198.011 760.973 198.229 760.675 198.379 760.344L199.899 761.128C199.749 761.416 199.531 761.725 199.243 762.056C198.965 762.376 198.592 762.653 198.123 762.888C197.653 763.112 197.061 763.224 196.347 763.224ZM194.219 758.184H198.267C198.224 757.661 198.021 757.245 197.659 756.936C197.307 756.627 196.848 756.472 196.283 756.472C195.696 756.472 195.227 756.627 194.875 756.936C194.523 757.245 194.304 757.661 194.219 758.184ZM200.824 763L203.768 759.016L200.872 755.096H203.016L204.952 757.832H205.224L207.16 755.096H209.288L206.392 759.016L209.336 763H207.176L205.224 760.216H204.952L203 763H200.824ZM213.989 763C213.477 763 213.066 762.851 212.757 762.552C212.458 762.243 212.309 761.827 212.309 761.304V756.616H210.245V755.096H212.309V752.552H214.149V755.096H216.421V756.616H214.149V761C214.149 761.32 214.298 761.48 214.597 761.48H216.181V763H213.989Z" fill="white"/>
</g>
<defs>
<clipPath id="clip0_1572_12107">
<rect width="375" height="812" fill="white"/>
</clipPath>
<clipPath id="clip1_1572_12107">
<rect width="59" height="36" fill="white" transform="translate(163 61)"/>
</clipPath>
</defs>
</svg>
