<svg width="736" height="850" viewBox="0 0 736 850" fill="none" xmlns="http://www.w3.org/2000/svg">
<path d="M349.808 423.449C278.674 435.025 236.938 480.651 229.289 489.673C228.369 490.76 228.585 492.329 229.777 493.169C230.273 493.519 230.865 493.687 231.441 493.687C232.257 493.687 233.066 493.351 233.602 492.716C241.035 483.943 281.595 439.602 350.761 428.347C352.249 428.106 353.233 426.814 352.969 425.456C352.705 424.099 351.289 423.193 349.8 423.442L349.808 423.449Z" fill="#231A20"/>
<path d="M245.18 488.242L241.195 494.548H249.173H257.15L253.166 488.242L249.173 481.936L245.18 488.242Z" fill="#231A20"/>
<path d="M269.282 472.695L265.297 479.002H273.274H281.252L277.259 472.695L273.274 466.389L269.282 472.695Z" fill="#231A20"/>
<path d="M293.381 459.28L289.389 465.586H297.366H305.344L301.359 459.28L297.366 452.973L293.381 459.28Z" fill="#231A20"/>
<path d="M317.475 449.411L313.49 455.718H321.468H329.445L325.453 449.411L321.468 443.105L317.475 449.411Z" fill="#231A20"/>
<path d="M345.56 434.974L341.575 441.28L337.582 447.587H345.56H353.537L349.552 441.28L345.56 434.974Z" fill="#231A20"/>
<path d="M538.415 562.137C539.399 561.093 539.279 559.524 538.135 558.626C536.991 557.728 535.27 557.838 534.286 558.882C526.341 567.268 483.164 609.5 413.423 617.266C411.926 617.434 410.862 618.675 411.046 620.04C411.214 621.303 412.39 622.23 413.751 622.23C413.863 622.23 413.975 622.23 414.087 622.208C485.821 614.223 530.237 570.764 538.415 562.137Z" fill="#231A20"/>
<path d="M510.889 555.867L514.489 562.363L518.098 568.859L522.459 562.765L526.82 556.67L518.858 556.269L510.889 555.867Z" fill="#231A20"/>
<path d="M489.493 576.677L493.094 583.173L497.463 577.078L501.824 570.983L493.854 570.582L485.893 570.181L489.493 576.677Z" fill="#231A20"/>
<path d="M464.624 588.859L468.225 595.355L472.586 589.26L476.955 583.165L468.985 582.764L461.023 582.363L464.624 588.859Z" fill="#231A20"/>
<path d="M439.962 597.501L443.571 603.997L447.932 597.902L452.292 591.807L444.331 591.406L436.361 591.005L439.962 597.501Z" fill="#231A20"/>
<path d="M415.413 604.413L419.014 610.909L423.383 604.814L427.744 598.72L419.774 598.318L411.812 597.917L415.413 604.413Z" fill="#231A20"/>
<path d="M385.744 631.134V610.902C385.744 609.522 384.52 608.413 383.016 608.413C381.511 608.413 380.287 609.529 380.287 610.902V631.134C380.287 632.514 381.511 633.623 383.016 633.623C384.52 633.623 385.744 632.507 385.744 631.134Z" fill="#231A20"/>
<path d="M385.744 712.102V691.869C385.744 690.49 384.52 689.38 383.016 689.38C381.511 689.38 380.287 690.497 380.287 691.869V712.102C380.287 713.482 381.511 714.591 383.016 714.591C384.52 714.591 385.744 713.474 385.744 712.102Z" fill="#231A20"/>
<path d="M391.359 648.084C391.372 643.871 387.643 640.447 383.029 640.435C378.416 640.423 374.665 643.829 374.652 648.041C374.639 652.254 378.369 655.678 382.983 655.69C387.596 655.702 391.347 652.296 391.359 648.084Z" fill="#231A20"/>
<path d="M383.016 316.205C386.633 316.205 389.561 313.533 389.561 310.234C389.561 306.935 386.633 304.264 383.016 304.264C379.399 304.264 376.471 306.935 376.471 310.234C376.471 313.533 379.399 316.205 383.016 316.205Z" fill="#231A20"/>
<path d="M383.016 300.257C385.449 300.257 387.425 298.454 387.425 296.235C387.425 294.016 385.449 292.213 383.016 292.213C380.584 292.213 378.607 294.016 378.607 296.235C378.607 298.454 380.584 300.257 383.016 300.257Z" fill="#231A20"/>
<path d="M383.016 666.513C371.078 666.513 360.9 659.622 357.003 649.966C355.907 652.688 355.299 655.637 355.299 658.71C355.299 672.68 367.709 684.001 383.016 684.001C398.323 684.001 410.734 672.673 410.734 658.71C410.734 655.637 410.134 652.688 409.029 649.966C405.133 659.63 394.955 666.513 383.016 666.513Z" fill="#231A20"/>
<path d="M383.016 722.124L380.207 725.802L377.398 729.481L380.207 733.16L383.016 736.838L385.816 733.16L388.625 729.481L385.816 725.802L383.016 722.124Z" fill="#231A20"/>
<path d="M383.015 288.739C383.976 288.739 384.744 288.031 384.744 287.162V274.338C384.744 273.462 383.968 272.761 383.015 272.761C382.063 272.761 381.287 273.469 381.287 274.338V287.162C381.287 288.038 382.063 288.739 383.015 288.739Z" fill="#231A20"/>
<path d="M383.015 335.628C392.721 335.628 400.594 328.445 400.594 319.584C400.594 317.636 400.21 315.767 399.514 314.037C397.042 320.161 390.584 324.533 383.015 324.533C375.446 324.533 368.988 320.161 366.516 314.037C365.82 315.767 365.436 317.636 365.436 319.584C365.436 328.445 373.309 335.628 383.015 335.628Z" fill="#231A20"/>
<path d="M237.804 451.141C238.34 451.66 239.068 451.93 239.796 451.93C240.469 451.93 241.141 451.703 241.669 451.251C242.765 450.309 242.821 448.733 241.789 447.733L207.31 414.274C206.278 413.274 204.55 413.223 203.453 414.165C202.357 415.106 202.301 416.683 203.333 417.69L237.812 451.149L237.804 451.141Z" fill="#231A20"/>
<path d="M262.351 443.747C262.887 444.39 263.704 444.726 264.528 444.726C265.104 444.726 265.688 444.558 266.184 444.215C267.384 443.382 267.616 441.813 266.704 440.726L223.328 388.793C222.416 387.698 220.703 387.487 219.503 388.319C218.303 389.151 218.071 390.713 218.983 391.808L262.359 443.74L262.351 443.747Z" fill="#231A20"/>
<path d="M280.187 421.544C280.691 422.339 281.611 422.785 282.547 422.785C283.012 422.785 283.484 422.675 283.916 422.449C285.22 421.756 285.66 420.23 284.908 419.04L259.615 379.334C258.855 378.144 257.19 377.743 255.878 378.429C254.574 379.122 254.134 380.648 254.894 381.837L280.187 421.544Z" fill="#231A20"/>
<path d="M305.713 419.58C306.161 420.515 307.161 421.07 308.209 421.07C308.577 421.07 308.953 421.004 309.305 420.858C310.681 420.303 311.314 418.836 310.706 417.573L281.844 357.824C281.236 356.561 279.627 355.992 278.243 356.546C276.867 357.101 276.235 358.576 276.843 359.831L305.697 419.58H305.713Z" fill="#231A20"/>
<path d="M328.445 402.07C328.781 403.165 329.877 403.88 331.07 403.88C331.318 403.88 331.566 403.851 331.814 403.786C333.262 403.413 334.11 402.034 333.694 400.713L319.996 356.525C319.587 355.203 318.075 354.43 316.627 354.802C315.179 355.174 314.33 356.554 314.746 357.875L328.445 402.063V402.07Z" fill="#231A20"/>
<path d="M353.363 406.085C353.571 407.318 354.731 408.194 356.059 408.194C356.195 408.194 356.339 408.187 356.483 408.165C357.972 407.953 358.996 406.683 358.764 405.318L347.778 340.795C347.546 339.438 346.153 338.503 344.657 338.715C343.169 338.927 342.145 340.197 342.377 341.562L353.363 406.085Z" fill="#231A20"/>
<path d="M382.911 397.092H382.943C384.448 397.078 385.664 395.954 385.648 394.574L385.112 348.649C385.096 347.269 383.871 346.167 382.351 346.182C380.847 346.196 379.631 347.32 379.647 348.7L380.183 394.625C380.199 395.99 381.415 397.092 382.911 397.092Z" fill="#231A20"/>
<path d="M405.596 407.216C405.7 407.223 405.796 407.231 405.892 407.231C407.269 407.231 408.453 406.282 408.605 405.012L416.334 340.094C416.494 338.73 415.414 337.496 413.918 337.35C412.422 337.204 411.069 338.189 410.909 339.554L403.18 404.472C403.02 405.836 404.1 407.07 405.596 407.216Z" fill="#231A20"/>
<path d="M434.258 402.756C434.49 402.807 434.714 402.837 434.946 402.837C436.163 402.837 437.267 402.092 437.587 400.968L450.189 356.51C450.565 355.174 449.693 353.817 448.229 353.474C446.765 353.131 445.276 353.933 444.9 355.262L432.298 399.72C431.922 401.056 432.802 402.413 434.258 402.756Z" fill="#231A20"/>
<path d="M453.125 417.894C453.453 418.011 453.789 418.07 454.125 418.07C455.214 418.07 456.246 417.471 456.67 416.493L482.859 355.729C483.411 354.444 482.723 352.999 481.315 352.495C479.915 351.992 478.33 352.62 477.778 353.904L451.589 414.668C451.037 415.946 451.725 417.398 453.133 417.902L453.125 417.894Z" fill="#231A20"/>
<path d="M482.268 420.493C482.692 420.712 483.148 420.814 483.604 420.814C484.557 420.814 485.485 420.354 485.989 419.544L510.698 379.538C511.442 378.341 510.97 376.823 509.657 376.144C508.345 375.473 506.681 375.889 505.937 377.093L481.228 417.099C480.484 418.296 480.948 419.814 482.268 420.493Z" fill="#231A20"/>
<path d="M496.678 439.689C497.158 440.003 497.719 440.156 498.271 440.156C499.119 440.156 499.959 439.799 500.487 439.12L542.247 386.093C543.127 384.976 542.847 383.421 541.623 382.618C540.399 381.816 538.695 382.071 537.814 383.188L496.054 436.215C495.174 437.332 495.454 438.886 496.678 439.689Z" fill="#231A20"/>
<path d="M524.706 448.864C525.235 449.309 525.899 449.528 526.555 449.528C527.291 449.528 528.019 449.258 528.563 448.725L562.714 414.989C563.738 413.975 563.666 412.406 562.562 411.471C561.458 410.537 559.729 410.603 558.705 411.61L524.554 445.346C523.53 446.36 523.602 447.93 524.706 448.864Z" fill="#231A20"/>
<path d="M337.582 671.082H192.705L259.511 565.495C260.263 564.305 259.815 562.779 258.51 562.093C257.206 561.407 255.534 561.816 254.782 563.006L185.616 672.33C185.128 673.104 185.128 674.052 185.616 674.819C186.104 675.593 187.008 676.067 187.985 676.067H337.582C339.086 676.067 340.31 674.95 340.31 673.578C340.31 672.206 339.086 671.089 337.582 671.089V671.082Z" fill="#231A20"/>
<path d="M529.292 591.53C528.54 590.34 526.867 589.932 525.563 590.618C524.259 591.304 523.811 592.829 524.563 594.019L573.317 671.075H427.752C426.248 671.075 425.023 672.191 425.023 673.563C425.023 674.936 426.248 676.052 427.752 676.052H578.045C579.022 676.052 579.926 675.578 580.414 674.804C580.902 674.031 580.902 673.082 580.414 672.315L529.3 591.523L529.292 591.53Z" fill="#231A20"/>
<path d="M538.023 525.051L536.735 523.525C532.71 518.774 517.635 502.044 492.622 486.337C459.127 465.301 422.248 454.638 383.009 454.638C343.769 454.638 306.898 465.301 273.395 486.337C248.374 502.044 233.307 518.774 229.282 523.525L227.994 525.051L229.282 526.576C233.307 531.328 248.374 548.057 273.395 563.765C306.89 584.8 343.769 595.464 383.009 595.464C422.248 595.464 459.119 584.8 492.622 563.765C517.643 548.05 532.71 531.328 536.735 526.576L538.023 525.051ZM383.009 590.479C298.24 590.479 247.206 539.014 234.924 525.051C247.206 511.081 298.248 459.623 383.009 459.623C467.769 459.623 518.811 511.088 531.094 525.051C518.811 539.021 467.777 590.479 383.009 590.479Z" fill="#231A20"/>
<path d="M605.916 522.825L575.798 508.811C575.021 508.446 574.093 508.446 573.317 508.811L543.199 522.825C542.287 523.248 541.711 524.109 541.711 525.044C541.711 525.978 542.287 526.839 543.199 527.262L573.317 541.277C573.709 541.459 574.133 541.547 574.557 541.547C574.981 541.547 575.406 541.459 575.798 541.277L590.857 534.269L605.916 527.262C606.828 526.839 607.404 525.978 607.404 525.044C607.404 524.109 606.828 523.248 605.916 522.825ZM574.557 536.262L550.449 525.044L574.557 513.825L598.666 525.044L574.557 536.262Z" fill="#231A20"/>
<path d="M192.434 541.554C192.858 541.554 193.282 541.466 193.675 541.284L208.734 534.277L223.792 527.27C224.705 526.846 225.281 525.985 225.281 525.051C225.281 524.117 224.705 523.255 223.792 522.832L193.675 508.818C192.898 508.453 191.97 508.453 191.194 508.818L161.076 522.832C160.164 523.255 159.588 524.117 159.588 525.051C159.588 525.985 160.164 526.846 161.076 527.27L191.194 541.284C191.586 541.466 192.01 541.554 192.434 541.554ZM192.434 536.262L168.326 525.044L192.434 513.825L216.543 525.044L192.434 536.262Z" fill="#231A20"/>
<path d="M257.135 660.279C258.871 660.279 260.271 659.163 260.271 657.79C260.271 656.418 258.863 655.301 257.135 655.301C255.406 655.301 253.998 656.418 253.998 657.79C253.998 659.163 255.406 660.279 257.135 660.279Z" fill="#231A20"/>
<path d="M238.307 660.279C240.043 660.279 241.443 659.163 241.443 657.79C241.443 656.418 240.035 655.301 238.307 655.301C236.578 655.301 235.17 656.418 235.17 657.79C235.17 659.163 236.578 660.279 238.307 660.279Z" fill="#231A20"/>
<path d="M213.199 657.783C213.199 659.849 215.304 661.52 217.904 661.52C220.505 661.52 222.609 659.849 222.609 657.783C222.609 655.717 220.505 654.046 217.904 654.046C215.304 654.046 213.199 655.717 213.199 657.783Z" fill="#231A20"/>
<path d="M312.85 657.783C312.85 659.155 314.258 660.272 315.986 660.272C317.715 660.272 319.123 659.155 319.123 657.783C319.123 656.411 317.715 655.294 315.986 655.294C314.258 655.294 312.85 656.411 312.85 657.783Z" fill="#231A20"/>
<path d="M294.021 657.783C294.021 659.155 295.43 660.272 297.158 660.272C298.886 660.272 300.295 659.155 300.295 657.783C300.295 656.411 298.886 655.294 297.158 655.294C295.43 655.294 294.021 656.411 294.021 657.783Z" fill="#231A20"/>
<path d="M272.051 657.783C272.051 659.849 274.155 661.52 276.756 661.52C279.356 661.52 281.461 659.849 281.461 657.783C281.461 655.717 279.356 654.046 276.756 654.046C274.155 654.046 272.051 655.717 272.051 657.783Z" fill="#231A20"/>
<path d="M252.831 604.493C251.542 603.785 249.942 604.033 249.27 605.055C248.59 606.077 249.094 607.486 250.382 608.194C251.67 608.902 253.271 608.654 253.943 607.632C254.623 606.61 254.119 605.201 252.831 604.493Z" fill="#231A20"/>
<path d="M261.304 596.523C261.984 595.501 261.48 594.092 260.192 593.384C258.903 592.676 257.303 592.924 256.631 593.946C255.951 594.968 256.447 596.377 257.743 597.085C259.031 597.793 260.632 597.544 261.304 596.523Z" fill="#231A20"/>
<path d="M263.433 581.26C262.417 582.793 263.161 584.903 265.098 585.968C267.034 587.034 269.426 586.654 270.443 585.122C271.459 583.589 270.715 581.479 268.778 580.406C266.842 579.341 264.449 579.72 263.433 581.253V581.26Z" fill="#231A20"/>
<path d="M226.274 639.798C225.594 640.82 226.098 642.229 227.386 642.937C228.674 643.645 230.275 643.397 230.947 642.375C231.627 641.353 231.123 639.944 229.835 639.236C228.546 638.528 226.946 638.776 226.274 639.798Z" fill="#231A20"/>
<path d="M238.308 631.259C238.988 630.237 238.492 628.828 237.196 628.12C235.908 627.412 234.307 627.66 233.635 628.682C232.955 629.704 233.459 631.113 234.747 631.821C236.036 632.536 237.636 632.28 238.308 631.259Z" fill="#231A20"/>
<path d="M247.445 619.857C248.461 618.325 247.717 616.215 245.78 615.15C243.844 614.084 241.451 614.463 240.435 615.996C239.419 617.529 240.163 619.638 242.099 620.704C244.036 621.77 246.428 621.39 247.445 619.857Z" fill="#231A20"/>
<path d="M502.879 655.294C501.142 655.294 499.742 656.411 499.742 657.783C499.742 659.155 501.15 660.272 502.879 660.272C504.607 660.272 506.015 659.155 506.015 657.783C506.015 656.411 504.607 655.294 502.879 655.294Z" fill="#231A20"/>
<path d="M521.715 660.279C523.451 660.279 524.851 659.163 524.851 657.79C524.851 656.418 523.443 655.301 521.715 655.301C519.986 655.301 518.578 656.418 518.578 657.79C518.578 659.163 519.986 660.279 521.715 660.279Z" fill="#231A20"/>
<path d="M546.824 657.783C546.824 655.717 544.719 654.046 542.119 654.046C539.518 654.046 537.414 655.717 537.414 657.783C537.414 659.849 539.518 661.52 542.119 661.52C544.719 661.52 546.824 659.849 546.824 657.783Z" fill="#231A20"/>
<path d="M440.891 657.783C440.891 659.155 442.299 660.272 444.027 660.272C445.756 660.272 447.164 659.155 447.164 657.783C447.164 656.411 445.756 655.294 444.027 655.294C442.299 655.294 440.891 656.411 440.891 657.783Z" fill="#231A20"/>
<path d="M459.719 657.783C459.719 659.155 461.127 660.272 462.855 660.272C464.584 660.272 465.992 659.155 465.992 657.783C465.992 656.411 464.584 655.294 462.855 655.294C461.127 655.294 459.719 656.411 459.719 657.783Z" fill="#231A20"/>
<path d="M478.555 657.783C478.555 659.849 480.659 661.52 483.26 661.52C485.86 661.52 487.965 659.849 487.965 657.783C487.965 655.717 485.86 654.046 483.26 654.046C480.659 654.046 478.555 655.717 478.555 657.783Z" fill="#231A20"/>
<path d="M509.64 608.201C510.928 607.493 511.424 606.084 510.752 605.062C510.072 604.041 508.479 603.785 507.191 604.5C505.903 605.208 505.407 606.617 506.079 607.639C506.759 608.661 508.351 608.916 509.64 608.201Z" fill="#231A20"/>
<path d="M532.638 642.937C533.926 642.229 534.422 640.82 533.75 639.798C533.07 638.776 531.477 638.521 530.189 639.236C528.901 639.944 528.405 641.353 529.077 642.375C529.757 643.397 531.349 643.652 532.638 642.937Z" fill="#231A20"/>
<path d="M526.389 628.682C525.708 627.66 524.116 627.405 522.828 628.12C521.54 628.828 521.044 630.237 521.716 631.258C522.396 632.28 523.988 632.536 525.276 631.82C526.565 631.112 527.061 629.704 526.389 628.682Z" fill="#231A20"/>
<path d="M519.587 615.996C518.571 614.463 516.178 614.084 514.242 615.15C512.306 616.215 511.562 618.325 512.578 619.857C513.594 621.39 515.986 621.77 517.923 620.704C519.859 619.638 520.603 617.529 519.587 615.996Z" fill="#231A20"/>
<path d="M399.146 425.369C399.306 424.011 398.258 422.734 396.794 422.653C395.337 422.551 394.057 423.58 393.937 424.953C393.817 426.325 394.873 427.522 396.289 427.617C397.706 427.697 398.978 426.748 399.138 425.369H399.146Z" fill="#231A20"/>
<path d="M378.295 424.31C378.295 425.682 379.439 426.807 380.863 426.828C382.28 426.872 383.472 425.799 383.52 424.427C383.568 423.055 382.424 421.887 380.959 421.85C379.495 421.829 378.303 422.938 378.303 424.318L378.295 424.31Z" fill="#231A20"/>
<path d="M364.196 428.427C366.308 428.303 367.941 426.566 367.845 424.5C367.749 422.442 365.884 420.836 363.668 420.967C361.46 421.099 359.827 422.901 360.019 424.96C360.211 427.018 362.076 428.551 364.188 428.427H364.196Z" fill="#231A20"/>
<path d="M446.868 435.003C447.364 433.704 446.644 432.288 445.251 431.865C443.859 431.463 442.355 432.2 441.907 433.507C441.451 434.821 442.187 436.2 443.539 436.594C444.883 437.01 446.372 436.302 446.868 435.003Z" fill="#231A20"/>
<path d="M428.68 432.668C430.057 432.989 431.489 432.171 431.881 430.843C432.273 429.514 431.433 428.164 430.016 427.836C428.6 427.507 427.168 428.325 426.816 429.66C426.472 430.996 427.304 432.346 428.68 432.668Z" fill="#231A20"/>
<path d="M413.422 423.361C411.238 423.055 409.198 424.464 408.861 426.507C408.533 428.551 409.958 430.441 412.046 430.733C414.126 431.076 416.159 429.733 416.583 427.704C417.007 425.682 415.591 423.719 413.414 423.369L413.422 423.361Z" fill="#231A20"/>
<path d="M490.685 454.689C491.517 453.543 491.197 452.024 489.965 451.295C488.732 450.572 487.092 450.93 486.292 452.105C485.508 453.265 485.828 454.791 487.02 455.491C488.212 456.192 489.853 455.835 490.685 454.689Z" fill="#231A20"/>
<path d="M477.275 447.302C478.003 446.105 477.571 444.58 476.275 443.952C474.97 443.339 473.354 443.828 472.666 445.054C471.978 446.28 472.434 447.755 473.698 448.346C474.954 448.952 476.539 448.506 477.275 447.302Z" fill="#231A20"/>
<path d="M463.271 440.894C464.207 439.01 463.319 436.806 461.27 436.025C459.23 435.222 456.877 436.2 456.053 438.113C455.213 440.047 456.149 442.142 458.086 442.908C460.03 443.653 462.343 442.769 463.271 440.894Z" fill="#231A20"/>
<path d="M527.948 483.534C529.052 482.607 529.164 481.038 528.14 480.082C527.124 479.118 525.427 479.118 524.347 480.082C523.267 481.045 523.195 482.585 524.179 483.52C525.171 484.447 526.828 484.483 527.948 483.542V483.534Z" fill="#231A20"/>
<path d="M516.867 473.425C517.891 472.418 517.851 470.87 516.763 469.973C515.683 469.068 513.986 469.192 512.986 470.235C511.994 471.265 512.058 472.797 513.106 473.673C514.154 474.542 515.843 474.432 516.867 473.425Z" fill="#231A20"/>
<path d="M504.968 464.119C506.377 462.506 506.105 460.192 504.352 458.951C502.592 457.718 500.047 458.134 498.727 459.791C497.391 461.469 497.719 463.717 499.391 464.893C501.064 466.075 503.56 465.725 504.968 464.112V464.119Z" fill="#231A20"/>
<path d="M383.016 472.622C351.337 472.622 325.564 496.14 325.564 525.044C325.564 553.948 351.337 577.472 383.016 577.472C414.694 577.472 440.467 553.955 440.467 525.044C440.467 496.132 414.694 472.622 383.016 472.622ZM383.016 572.487C354.346 572.487 331.03 551.203 331.03 525.044C331.03 498.884 354.354 477.6 383.016 477.6C411.677 477.6 435.002 498.884 435.002 525.044C435.002 551.203 411.677 572.487 383.016 572.487Z" fill="#231A20"/>
<path d="M383.015 506.198C371.605 506.198 362.363 514.635 362.363 525.044C362.363 535.452 371.613 543.89 383.015 543.89C394.418 543.89 403.667 535.452 403.667 525.044C403.667 514.635 394.418 506.198 383.015 506.198Z" fill="#231A20"/>
<path d="M545.495 253.915H581.166C581.454 255.215 582.039 256.419 582.839 257.477L570.38 268.842C569.556 269.601 569.556 270.82 570.38 271.579C570.796 271.958 571.34 272.148 571.885 272.148C572.429 272.148 572.973 271.958 573.381 271.579L585.903 260.156C586.968 260.769 588.16 261.229 589.44 261.462V294.001C589.44 295.067 590.392 295.936 591.56 295.936C592.729 295.936 593.681 295.067 593.681 294.001V261.462C594.809 261.251 595.865 260.871 596.841 260.36L609.132 271.572C609.548 271.951 610.092 272.141 610.636 272.141C611.18 272.141 611.724 271.951 612.132 271.572C612.965 270.812 612.965 269.594 612.132 268.834L600.026 257.791C600.962 256.66 601.634 255.353 601.954 253.915H637.625C638.794 253.915 639.746 253.047 639.746 251.981C639.746 250.915 638.794 250.047 637.625 250.047H601.954C601.666 248.748 601.082 247.543 600.282 246.485L612.733 235.128C613.565 234.369 613.565 233.15 612.733 232.391C611.9 231.639 610.564 231.639 609.732 232.391L597.21 243.814C596.145 243.2 594.953 242.741 593.673 242.507V209.968C593.673 208.902 592.721 208.034 591.552 208.034C590.384 208.034 589.432 208.902 589.432 209.968V242.507C588.008 242.77 586.687 243.303 585.527 244.032L572.773 232.398C571.941 231.646 570.604 231.646 569.772 232.398C568.94 233.157 568.94 234.376 569.772 235.135L582.599 246.835C581.927 247.806 581.422 248.894 581.166 250.061H545.495C544.327 250.061 543.375 250.93 543.375 251.996C543.375 253.061 544.327 253.93 545.495 253.93V253.915ZM591.56 246.171C595.073 246.171 597.922 248.777 597.922 251.974C597.922 255.171 595.065 257.777 591.56 257.777C588.056 257.777 585.199 255.171 585.199 251.974C585.199 248.777 588.056 246.171 591.56 246.171Z" fill="#231A20"/>
<path d="M87.0774 773.136H122.748C123.036 774.436 123.621 775.64 124.421 776.698L111.962 788.063C111.13 788.822 111.13 790.041 111.962 790.8C112.378 791.179 112.923 791.369 113.467 791.369C114.011 791.369 114.555 791.179 114.963 790.8L127.485 779.377C128.55 779.99 129.742 780.45 131.022 780.683V813.222C131.022 814.288 131.974 815.157 133.142 815.157C134.311 815.157 135.263 814.288 135.263 813.222V780.683C136.391 780.472 137.447 780.092 138.416 779.581L150.706 790.793C151.122 791.172 151.666 791.362 152.21 791.362C152.754 791.362 153.298 791.172 153.707 790.793C154.539 790.034 154.539 788.815 153.707 788.055L141.6 777.012C142.536 775.881 143.208 774.574 143.529 773.136H179.2C180.368 773.136 181.32 772.268 181.32 771.202C181.32 770.136 180.368 769.268 179.2 769.268H143.529C143.24 767.969 142.656 766.764 141.856 765.706L154.315 754.341C155.147 753.582 155.147 752.363 154.315 751.604C153.482 750.852 152.146 750.852 151.314 751.604L138.792 763.027C137.727 762.414 136.535 761.954 135.255 761.721V729.182C135.255 728.116 134.303 727.248 133.134 727.248C131.966 727.248 131.014 728.116 131.014 729.182V761.721C129.59 761.983 128.27 762.516 127.109 763.246L114.355 751.612C113.523 750.86 112.186 750.86 111.354 751.612C110.522 752.371 110.522 753.59 111.354 754.349L124.181 766.049C123.509 767.02 123.004 768.107 122.748 769.275H87.0774C85.9092 769.275 84.957 770.144 84.957 771.209C84.957 772.275 85.9092 773.144 87.0774 773.144V773.136ZM133.142 765.392C136.655 765.392 139.504 767.998 139.504 771.195C139.504 774.392 136.647 776.998 133.142 776.998C129.638 776.998 126.781 774.392 126.781 771.195C126.781 767.998 129.638 765.392 133.142 765.392Z" fill="#231A20"/>
<path d="M222.984 260.463C222.984 261.528 223.937 262.397 225.105 262.397H241.804L235.995 267.696C235.163 268.455 235.163 269.674 235.995 270.433C236.411 270.812 236.955 271.002 237.499 271.002C238.043 271.002 238.587 270.812 238.996 270.433L244.805 265.134V280.367C244.805 281.433 245.757 282.301 246.925 282.301C248.093 282.301 249.045 281.433 249.045 280.367V265.134L254.855 270.433C255.271 270.812 255.815 271.002 256.359 271.002C256.903 271.002 257.447 270.812 257.855 270.433C258.687 269.674 258.687 268.455 257.855 267.696L252.046 262.397H268.745C269.914 262.397 270.866 261.528 270.866 260.463C270.866 259.397 269.914 258.528 268.745 258.528H252.046L257.855 253.229C258.687 252.47 258.687 251.251 257.855 250.492C257.023 249.74 255.687 249.74 254.855 250.492L249.045 255.791V240.558C249.045 239.493 248.093 238.624 246.925 238.624C245.757 238.624 244.805 239.493 244.805 240.558V255.791L238.996 250.492C238.163 249.74 236.827 249.74 235.995 250.492C235.163 251.251 235.163 252.47 235.995 253.229L241.804 258.528H225.105C223.937 258.528 222.984 259.397 222.984 260.463Z" fill="#231A20"/>
<path d="M637.865 666.98C637.865 668.045 638.817 668.914 639.986 668.914H656.685L650.876 674.213C650.044 674.972 650.044 676.191 650.876 676.95C651.292 677.33 651.836 677.52 652.38 677.52C652.924 677.52 653.468 677.33 653.876 676.95L659.686 671.651V686.884C659.686 687.95 660.638 688.818 661.806 688.818C662.974 688.818 663.926 687.95 663.926 686.884V671.651L669.735 676.95C670.152 677.33 670.696 677.52 671.24 677.52C671.784 677.52 672.328 677.33 672.736 676.95C673.568 676.191 673.568 674.972 672.736 674.213L666.927 668.914H683.626C684.794 668.914 685.747 668.045 685.747 666.98C685.747 665.914 684.794 665.046 683.626 665.046H666.927L672.736 659.747C673.568 658.987 673.568 657.768 672.736 657.009C671.904 656.258 670.568 656.258 669.735 657.009L663.926 662.308V647.075C663.926 646.01 662.974 645.141 661.806 645.141C660.638 645.141 659.686 646.01 659.686 647.075V662.308L653.876 657.009C653.044 656.258 651.708 656.258 650.876 657.009C650.044 657.768 650.044 658.987 650.876 659.747L656.685 665.046H639.986C638.817 665.046 637.865 665.914 637.865 666.98Z" fill="#231A20"/>
<path d="M97.168 572.487C97.168 573.553 98.1202 574.421 99.2884 574.421H115.988L110.179 579.72C109.346 580.479 109.346 581.698 110.179 582.457C110.595 582.837 111.139 583.027 111.683 583.027C112.227 583.027 112.771 582.837 113.179 582.457L118.988 577.158V592.391C118.988 593.457 119.94 594.326 121.109 594.326C122.277 594.326 123.229 593.457 123.229 592.391V577.158L129.038 582.457C129.454 582.837 129.998 583.027 130.543 583.027C131.087 583.027 131.631 582.837 132.039 582.457C132.871 581.698 132.871 580.479 132.039 579.72L126.23 574.421H142.929C144.097 574.421 145.049 573.553 145.049 572.487C145.049 571.421 144.097 570.553 142.929 570.553H126.23L132.039 565.254C132.871 564.495 132.871 563.276 132.039 562.517C131.207 561.765 129.87 561.765 129.038 562.517L123.229 567.816V552.583C123.229 551.517 122.277 550.648 121.109 550.648C119.94 550.648 118.988 551.517 118.988 552.583V567.816L113.179 562.517C112.347 561.765 111.011 561.765 110.179 562.517C109.346 563.276 109.346 564.495 110.179 565.254L115.988 570.553H99.2884C98.1202 570.553 97.168 571.421 97.168 572.487Z" fill="#231A20"/>
<path d="M516.082 139.007C516.082 139.737 516.73 140.328 517.53 140.328H528.925L524.964 143.941C524.396 144.46 524.396 145.292 524.964 145.81C525.244 146.065 525.62 146.197 525.988 146.197C526.356 146.197 526.732 146.065 527.012 145.81L530.973 142.197V152.591C530.973 153.321 531.621 153.912 532.421 153.912C533.221 153.912 533.87 153.321 533.87 152.591V142.197L537.83 145.81C538.11 146.065 538.486 146.197 538.855 146.197C539.223 146.197 539.599 146.065 539.879 145.81C540.447 145.292 540.447 144.46 539.879 143.941L535.918 140.328H547.312C548.112 140.328 548.76 139.737 548.76 139.007C548.76 138.277 548.112 137.686 547.312 137.686H535.918L539.879 134.073C540.447 133.555 540.447 132.723 539.879 132.205C539.311 131.686 538.398 131.686 537.83 132.205L533.87 135.818V125.424C533.87 124.694 533.221 124.103 532.421 124.103C531.621 124.103 530.973 124.694 530.973 125.424V135.818L527.012 132.205C526.444 131.686 525.532 131.686 524.964 132.205C524.396 132.723 524.396 133.555 524.964 134.073L528.925 137.686H517.53C516.73 137.686 516.082 138.277 516.082 139.007Z" fill="#231A20"/>
<path d="M605.572 817.266C605.572 818.521 606.684 819.536 608.061 819.536H627.673L620.855 825.755C619.879 826.645 619.879 828.083 620.855 828.966C621.343 829.411 621.983 829.63 622.616 829.63C623.248 829.63 623.888 829.411 624.376 828.966L631.193 822.747V840.637C631.193 841.893 632.306 842.907 633.682 842.907C635.058 842.907 636.17 841.893 636.17 840.637V822.747L642.988 828.966C643.476 829.411 644.116 829.63 644.748 829.63C645.38 829.63 646.02 829.411 646.508 828.966C647.484 828.076 647.484 826.638 646.508 825.755L639.691 819.536H659.303C660.679 819.536 661.791 818.521 661.791 817.266C661.791 816.01 660.679 814.996 659.303 814.996H639.691L646.508 808.777C647.484 807.887 647.484 806.449 646.508 805.566C645.532 804.675 643.956 804.675 642.988 805.566L636.17 811.784V793.895C636.17 792.639 635.058 791.625 633.682 791.625C632.306 791.625 631.193 792.639 631.193 793.895V811.784L624.376 805.566C623.4 804.675 621.823 804.675 620.855 805.566C619.879 806.456 619.879 807.894 620.855 808.777L627.673 814.996H608.061C606.684 814.996 605.572 816.01 605.572 817.266Z" fill="#231A20"/>
<path d="M118.436 156.401C118.436 157.656 119.548 158.671 120.924 158.671H140.536L133.719 164.89C132.742 165.78 132.742 167.218 133.719 168.101C134.207 168.546 134.847 168.765 135.479 168.765C136.111 168.765 136.751 168.546 137.239 168.101L144.057 161.882V179.772C144.057 181.028 145.169 182.042 146.545 182.042C147.921 182.042 149.034 181.028 149.034 179.772V161.882L155.851 168.101C156.339 168.546 156.979 168.765 157.611 168.765C158.243 168.765 158.883 168.546 159.372 168.101C160.348 167.211 160.348 165.773 159.372 164.89L152.554 158.671H172.166C173.542 158.671 174.655 157.656 174.655 156.401C174.655 155.145 173.542 154.131 172.166 154.131H152.554L159.372 147.912C160.348 147.022 160.348 145.584 159.372 144.701C158.395 143.81 156.819 143.81 155.851 144.701L149.034 150.919V133.029C149.034 131.774 147.921 130.759 146.545 130.759C145.169 130.759 144.057 131.774 144.057 133.029V150.919L137.239 144.701C136.263 143.81 134.687 143.81 133.719 144.701C132.742 145.591 132.742 147.029 133.719 147.912L140.536 154.131H120.924C119.548 154.131 118.436 155.145 118.436 156.401Z" fill="#231A20"/>
<path d="M380.816 201.917L369.822 218.26C369.278 219.063 369.278 220.077 369.822 220.88L380.816 237.223C380.816 237.223 380.84 237.252 380.848 237.266V258.353C380.848 259.514 381.88 260.462 383.161 260.462C384.441 260.462 385.473 259.521 385.473 258.353V237.266C385.473 237.266 385.497 237.237 385.505 237.223L391.002 229.048L396.499 220.873C397.043 220.07 397.043 219.055 396.499 218.252L385.505 201.91C385.505 201.91 385.481 201.881 385.473 201.866V185.641C385.473 185.641 385.497 185.611 385.505 185.597L391.002 177.422L396.499 169.247C397.043 168.444 397.043 167.43 396.499 166.627L385.505 150.277C385.009 149.532 384.121 149.08 383.161 149.08C382.201 149.08 381.32 149.532 380.816 150.277L369.822 166.627C369.278 167.43 369.278 168.444 369.822 169.247L380.816 185.589C380.816 185.589 380.84 185.619 380.848 185.633V201.859C380.848 201.859 380.824 201.888 380.816 201.903V201.917ZM383.161 179.502L375.391 167.948L383.161 156.394L390.93 167.948L383.161 179.502ZM383.161 231.128L375.391 219.574L383.161 208.019L390.93 219.574L383.161 231.128Z" fill="#231A20"/>
<path d="M512.394 708.423C503.968 714.905 458.151 747.239 383.497 747.239C373.527 747.239 331.871 746.152 291.359 729.335C291.071 729.138 290.735 728.992 290.39 728.934C278.02 723.715 265.778 717.022 254.599 708.423C253.591 707.642 252.079 707.766 251.231 708.686C250.383 709.606 250.511 710.985 251.519 711.766C253.967 713.65 256.496 715.467 259.096 717.219C258.52 726.722 258.608 736.51 259.368 746.334C259.424 747.064 259.88 747.721 260.577 748.079C260.945 748.269 261.353 748.364 261.761 748.364C262.129 748.364 262.497 748.283 262.841 748.13C271.443 744.159 279.828 739.743 287.838 734.97C288.854 743.619 290.406 752.341 292.479 760.954C292.647 761.67 293.207 762.261 293.951 762.523C294.231 762.626 294.527 762.67 294.815 762.67C295.303 762.67 295.783 762.531 296.192 762.268C304.105 757.173 311.699 751.692 318.82 745.94C321.196 754.363 324.133 762.786 327.582 771.027C327.87 771.713 328.51 772.217 329.294 772.377C329.47 772.414 329.646 772.428 329.822 772.428C330.43 772.428 331.022 772.217 331.47 771.822C338.528 765.677 345.153 759.232 351.21 752.626C354.955 760.662 359.236 768.589 363.965 776.246C364.357 776.881 365.077 777.297 365.877 777.348C365.933 777.348 365.997 777.348 366.053 777.348C366.789 777.348 367.486 777.041 367.942 776.501C369.446 774.735 371.038 772.793 372.951 770.392C373.767 769.37 374.567 768.355 375.375 767.304L377.712 764.195C379.056 762.37 380.648 760.195 382.208 757.925C382.913 756.896 383.617 755.852 384.313 754.808C384.993 755.808 385.721 756.874 386.561 758.064C387.769 759.786 389.378 762.049 391.058 764.283C394.523 768.866 397.715 772.837 400.812 776.413C401.268 776.939 401.964 777.246 402.692 777.246C402.756 777.246 402.812 777.246 402.876 777.246C403.669 777.187 404.381 776.771 404.773 776.136C407.317 772.005 409.822 767.596 412.414 762.662C413.703 760.202 414.919 757.721 415.831 755.816L417.407 752.473C423.456 759.005 430.114 765.414 437.251 771.574C437.699 771.961 438.291 772.173 438.892 772.173C439.076 772.173 439.252 772.151 439.436 772.114C440.22 771.946 440.86 771.436 441.132 770.749C442.06 768.479 443.044 766.034 443.941 763.582C444.821 761.202 445.669 758.786 446.477 756.392C447.717 752.641 448.797 749.093 449.758 745.634C456.903 751.356 464.529 756.808 472.458 761.881C472.866 762.144 473.346 762.275 473.834 762.275C474.13 762.275 474.426 762.224 474.707 762.122C475.451 761.852 476.003 761.261 476.171 760.545C478.203 751.925 479.724 743.196 480.708 734.546C488.725 739.291 497.135 743.685 505.745 747.626C506.081 747.78 506.449 747.86 506.817 747.86C507.225 747.86 507.633 747.765 508.001 747.575C508.697 747.21 509.145 746.553 509.201 745.823C509.945 735.773 509.985 725.788 509.329 716.138C512.058 714.306 514.114 712.788 515.467 711.744C516.475 710.963 516.603 709.591 515.755 708.664C514.906 707.745 513.394 707.628 512.386 708.402L512.394 708.423ZM263.913 742.707C263.441 735.13 263.385 727.598 263.721 720.219C270.338 724.35 277.42 728.101 284.957 731.459C278.188 735.488 271.139 739.254 263.913 742.707ZM296.392 756.757C294.743 749.422 293.479 742.021 292.615 734.671C300.016 737.598 307.81 740.167 315.987 742.386C309.794 747.407 303.225 752.225 296.392 756.757ZM330.774 766.355C327.862 759.064 325.349 751.655 323.285 744.247C326.429 744.999 329.622 745.699 332.871 746.349C338.272 747.429 343.449 748.283 348.322 748.969C342.913 754.925 337.04 760.757 330.782 766.355H330.774ZM378.152 755.619C376.631 757.83 375.071 759.969 373.751 761.75L371.446 764.823C370.67 765.83 369.878 766.83 369.086 767.837C368.102 769.063 367.205 770.173 366.365 771.195C362.212 764.246 358.444 757.086 355.115 749.838C366.349 751.137 375.399 751.502 380.856 751.582C379.968 752.933 379.064 754.283 378.152 755.619ZM413.03 750.728L411.446 754.086C410.55 755.947 409.358 758.385 408.101 760.786C406.149 764.502 404.253 767.91 402.348 771.114C400.004 768.304 397.579 765.239 394.995 761.823C393.355 759.648 391.778 757.422 390.586 755.728C389.49 754.166 388.57 752.823 387.737 751.568C396.427 751.429 404.989 750.874 413.407 749.889C413.279 750.166 413.158 750.451 413.03 750.728ZM441.908 755.13C441.116 757.48 440.276 759.852 439.412 762.202C438.932 763.502 438.443 764.779 437.915 766.115C431.65 760.56 425.793 754.809 420.432 748.977C428.866 747.75 437.155 746.093 445.285 744.006C444.309 747.575 443.196 751.247 441.908 755.13ZM472.242 756.385C465.361 751.86 458.751 747.042 452.502 742.028C460.504 739.7 468.337 736.948 475.987 733.78C475.147 741.298 473.89 748.874 472.242 756.392V756.385ZM504.656 742.225C497.223 738.7 489.974 734.838 483.012 730.715C491.95 726.627 499.223 722.554 504.728 719.124C505.136 726.671 505.112 734.415 504.648 742.225H504.656Z" fill="#231A20"/>
<path d="M383.424 796.113C382.632 796.135 381.904 796.515 381.48 797.121C374.063 807.712 358.668 833.849 358.452 847.024C358.292 856.359 362.628 866.498 369.494 872.862C373.759 876.818 378.599 878.906 383.496 878.906C388.393 878.906 393.234 876.818 397.499 872.862C404.365 866.498 408.701 856.359 408.541 847.024C408.325 834.148 396.411 810.763 385.425 797.011C384.961 796.427 384.217 796.092 383.416 796.113H383.424ZM394.091 869.797C391.754 871.957 388.025 874.534 383.496 874.534C378.968 874.534 375.239 871.957 372.902 869.797C366.981 864.308 363.092 855.184 363.228 847.09C363.276 844.309 364.149 840.71 365.573 836.689L381.672 851.381C382.12 851.79 382.728 852.024 383.36 852.024C383.993 852.024 384.601 851.79 385.049 851.381L401.58 836.294C402.9 840.367 403.692 844.075 403.74 847.09C403.876 855.184 399.988 864.308 394.075 869.797H394.091ZM383.376 846.754L367.341 832.127C369.078 827.959 371.23 823.521 373.558 819.156L381.808 826.682C382.272 827.105 382.888 827.324 383.496 827.324C384.105 827.324 384.721 827.112 385.185 826.682L393.906 818.718C396.211 823.039 398.283 827.455 399.924 831.638L383.368 846.747L383.376 846.754ZM383.496 822.054L375.807 815.04C378.415 810.405 381.12 805.996 383.608 802.259C386.329 805.931 389.074 810.179 391.634 814.624L383.488 822.054H383.496Z" fill="#231A20"/>
<path d="M342.625 789.179C341.913 788.873 341.073 788.909 340.393 789.274C332.608 793.457 315.076 804.595 310.611 812.325C307.411 817.864 306.626 825.141 308.619 830.864C309.883 834.506 312.163 837.17 315.204 838.579C316.844 839.338 318.677 839.718 320.637 839.718C322.317 839.718 324.086 839.44 325.918 838.878C332.159 836.973 338.137 832.105 341.153 826.477C345.258 818.821 345.922 801.85 343.97 790.8C343.842 790.084 343.338 789.479 342.625 789.172V789.179ZM339.721 794.778C339.993 797.128 340.161 799.668 340.217 802.259L334.472 803.967L332.736 799.113C335.2 797.493 337.6 796.011 339.721 794.778ZM328.687 801.858L330.663 807.39C330.991 808.31 331.927 808.894 332.936 808.894C333.184 808.894 333.432 808.857 333.68 808.784L340.193 806.843C340.113 809.412 339.921 811.945 339.609 814.317L326.422 818.244L322.277 806.661C324.254 805.047 326.438 803.42 328.679 801.85L328.687 801.858ZM336.856 824.558C334.416 829.119 329.415 833.207 324.406 834.74C322.51 835.324 319.741 835.783 317.381 834.681C315.012 833.586 313.796 831.28 313.188 829.536C311.587 824.944 312.26 818.842 314.852 814.354C315.604 813.054 316.868 811.587 318.469 810.04L322.63 821.682C322.958 822.601 323.894 823.185 324.902 823.185C325.15 823.185 325.398 823.149 325.646 823.076L338.753 819.171C338.257 821.28 337.624 823.12 336.864 824.55L336.856 824.558Z" fill="#231A20"/>
<path d="M426.608 789.274C425.928 788.909 425.088 788.873 424.376 789.179C423.664 789.486 423.16 790.099 423.032 790.807C421.079 801.858 421.743 818.828 425.848 826.484C428.865 832.112 434.842 836.98 441.083 838.885C442.916 839.447 444.684 839.725 446.364 839.725C448.325 839.725 450.157 839.345 451.797 838.586C454.838 837.178 457.118 834.506 458.383 830.871C460.375 825.149 459.591 817.872 456.39 812.332C451.925 804.602 434.394 793.464 426.608 789.282V789.274ZM426.8 806.858L433.314 808.799C433.554 808.872 433.81 808.909 434.058 808.909C434.434 808.909 434.802 808.828 435.138 808.675C435.706 808.412 436.13 807.952 436.33 807.405L438.307 801.865C440.547 803.434 442.732 805.069 444.708 806.675L440.563 818.259L427.377 814.332C427.064 811.96 426.872 809.419 426.792 806.858H426.8ZM427.281 794.778C429.393 796.011 431.793 797.493 434.266 799.113L432.53 803.967L426.784 802.259C426.84 799.668 427.008 797.128 427.281 794.778ZM453.822 829.543C453.214 831.287 451.997 833.594 449.629 834.689C447.26 835.783 444.5 835.324 442.604 834.747C437.595 833.214 432.594 829.127 430.153 824.565C429.385 823.134 428.761 821.295 428.265 819.186L441.371 823.091C441.611 823.164 441.867 823.2 442.115 823.2C442.492 823.2 442.86 823.12 443.196 822.966C443.764 822.704 444.188 822.251 444.388 821.696L448.549 810.054C450.149 811.602 451.413 813.069 452.165 814.368C454.758 818.857 455.43 824.959 453.83 829.55L453.822 829.543Z" fill="#231A20"/>
<path d="M403.612 125.782C405.732 124.22 407.461 122.395 408.805 120.388C399.851 123.242 389.513 120.847 383.216 113.724C376.919 106.6 376.542 96.8703 381.495 89.491C379.063 90.2647 376.734 91.4252 374.622 92.9799C364.692 100.286 363.14 113.548 371.141 122.607C379.151 131.665 393.682 133.088 403.612 125.782Z" fill="#231A20"/>
<path d="M182.944 320.146C182.944 318.621 181.584 317.38 179.912 317.38C178.239 317.38 176.879 318.621 176.879 320.146C176.879 321.672 178.239 322.913 179.912 322.913C181.584 322.913 182.944 321.672 182.944 320.146Z" fill="#231A20"/>
<path d="M659.718 113.475C659.718 111.95 658.357 110.709 656.685 110.709C655.013 110.709 653.652 111.95 653.652 113.475C653.652 115.001 655.013 116.242 656.685 116.242C658.357 116.242 659.718 115.001 659.718 113.475Z" fill="#231A20"/>
<path d="M619.503 588.07C619.503 586.545 618.142 585.304 616.47 585.304C614.798 585.304 613.438 586.545 613.438 588.07C613.438 589.596 614.798 590.837 616.47 590.837C618.142 590.837 619.503 589.596 619.503 588.07Z" fill="#231A20"/>
<path d="M248.942 136.708C248.942 135.183 247.582 133.942 245.91 133.942C244.237 133.942 242.877 135.183 242.877 136.708C242.877 138.234 244.237 139.474 245.91 139.474C247.582 139.474 248.942 138.234 248.942 136.708Z" fill="#231A20"/>
<path d="M520.491 797.274C520.491 795.748 519.131 794.508 517.458 794.508C515.786 794.508 514.426 795.748 514.426 797.274C514.426 798.799 515.786 800.04 517.458 800.04C519.131 800.04 520.491 798.799 520.491 797.274Z" fill="#231A20"/>
<path d="M132.942 637.171C132.942 635.645 131.582 634.404 129.91 634.404C128.237 634.404 126.877 635.645 126.877 637.171C126.877 638.696 128.237 639.937 129.91 639.937C131.582 639.937 132.942 638.696 132.942 637.171Z" fill="#231A20"/>
<path d="M166.077 444.974C166.077 443.448 164.717 442.207 163.044 442.207C161.372 442.207 160.012 443.448 160.012 444.974C160.012 446.499 161.372 447.74 163.044 447.74C164.717 447.74 166.077 446.499 166.077 444.974Z" fill="#231A20"/>
<path d="M616.094 422.748C616.094 421.223 614.734 419.982 613.062 419.982C611.39 419.982 610.029 421.223 610.029 422.748C610.029 424.274 611.39 425.515 613.062 425.515C614.734 425.515 616.094 424.274 616.094 422.748Z" fill="#231A20"/>
<path d="M485.524 285.622C485.524 284.097 484.164 282.856 482.492 282.856C480.819 282.856 479.459 284.097 479.459 285.622C479.459 287.148 480.819 288.388 482.492 288.388C484.164 288.388 485.524 287.148 485.524 285.622Z" fill="#231A20"/>
<path d="M81.5572 424.047C81.5572 422.982 80.6051 422.113 79.4368 422.113C78.2686 422.113 77.3164 422.982 77.3164 424.047C77.3164 425.113 78.2686 425.982 79.4368 425.982C80.6051 425.982 81.5572 425.113 81.5572 424.047Z" fill="#231A20"/>
<path d="M57.5201 638.441C57.5201 637.375 56.5679 636.506 55.3997 636.506C54.2315 636.506 53.2793 637.375 53.2793 638.441C53.2793 639.506 54.2315 640.375 55.3997 640.375C56.5679 640.375 57.5201 639.506 57.5201 638.441Z" fill="#231A20"/>
<path d="M706.448 726.065C706.448 724.999 705.496 724.131 704.327 724.131C703.159 724.131 702.207 724.999 702.207 726.065C702.207 727.131 703.159 727.999 704.327 727.999C705.496 727.999 706.448 727.131 706.448 726.065Z" fill="#231A20"/>
<path d="M627.272 726.145C627.272 725.08 626.32 724.211 625.152 724.211C623.983 724.211 623.031 725.08 623.031 726.145C623.031 727.211 623.983 728.08 625.152 728.08C626.32 728.08 627.272 727.211 627.272 726.145Z" fill="#231A20"/>
<path d="M672.936 366.356C672.936 365.291 671.984 364.422 670.816 364.422C669.647 364.422 668.695 365.291 668.695 366.356C668.695 367.422 669.647 368.29 670.816 368.29C671.984 368.29 672.936 367.422 672.936 366.356Z" fill="#231A20"/>
<path d="M532.741 59.7841C532.741 58.7184 531.789 57.8499 530.62 57.8499C529.452 57.8499 528.5 58.7184 528.5 59.7841C528.5 60.8497 529.452 61.7183 530.62 61.7183C531.789 61.7183 532.741 60.8497 532.741 59.7841Z" fill="#231A20"/>
<path d="M449.428 176.115C449.428 175.05 448.476 174.181 447.308 174.181C446.14 174.181 445.188 175.05 445.188 176.115C445.188 177.181 446.14 178.05 447.308 178.05C448.476 178.05 449.428 177.181 449.428 176.115Z" fill="#231A20"/>
<path d="M320.669 187.436C320.669 186.37 319.716 185.502 318.548 185.502C317.38 185.502 316.428 186.37 316.428 187.436C316.428 188.502 317.38 189.37 318.548 189.37C319.716 189.37 320.669 188.502 320.669 187.436Z" fill="#231A20"/>
<path d="M173.838 73.1704C173.838 72.1048 172.886 71.2362 171.718 71.2362C170.55 71.2362 169.598 72.1048 169.598 73.1704C169.598 74.2361 170.55 75.1047 171.718 75.1047C172.886 75.1047 173.838 74.2361 173.838 73.1704Z" fill="#231A20"/>
<path d="M203.94 577.793C203.94 576.728 202.988 575.859 201.82 575.859C200.651 575.859 199.699 576.728 199.699 577.793C199.699 578.859 200.651 579.728 201.82 579.728C202.988 579.728 203.94 578.859 203.94 577.793Z" fill="#231A20"/>
<path d="M313.731 701.504C313.731 700.438 312.779 699.57 311.611 699.57C310.442 699.57 309.49 700.438 309.49 701.504C309.49 702.57 310.442 703.438 311.611 703.438C312.779 703.438 313.731 702.57 313.731 701.504Z" fill="#231A20"/>
<path d="M332.239 280.279C332.239 279.214 331.287 278.345 330.118 278.345C328.95 278.345 327.998 279.214 327.998 280.279C327.998 281.345 328.95 282.214 330.118 282.214C331.287 282.214 332.239 281.345 332.239 280.279Z" fill="#231A20"/>
<path d="M455.671 701.278C455.671 700.212 454.718 699.343 453.55 699.343C452.382 699.343 451.43 700.212 451.43 701.278C451.43 702.343 452.382 703.212 453.55 703.212C454.718 703.212 455.671 702.343 455.671 701.278Z" fill="#231A20"/>
<path d="M545.735 701.387C545.735 700.321 544.783 699.453 543.615 699.453C542.446 699.453 541.494 700.321 541.494 701.387C541.494 702.453 542.446 703.321 543.615 703.321C544.783 703.321 545.735 702.453 545.735 701.387Z" fill="#231A20"/>
<path d="M190.721 713.066C190.721 712 189.769 711.131 188.601 711.131C187.433 711.131 186.48 712 186.48 713.066C186.48 714.131 187.433 715 188.601 715C189.769 715 190.721 714.131 190.721 713.066Z" fill="#231A20"/>
<path d="M239.956 795.909C239.956 794.843 239.003 793.975 237.835 793.975C236.667 793.975 235.715 794.843 235.715 795.909C235.715 796.975 236.667 797.843 237.835 797.843C239.003 797.843 239.956 796.975 239.956 795.909Z" fill="#231A20"/>
<path d="M275.987 848.111C275.987 847.046 275.035 846.177 273.867 846.177C272.698 846.177 271.746 847.046 271.746 848.111C271.746 849.177 272.698 850.046 273.867 850.046C275.035 850.046 275.987 849.177 275.987 848.111Z" fill="#231A20"/>
<path d="M86.5651 493.651C86.5651 492.585 85.6129 491.716 84.4446 491.716C83.2764 491.716 82.3242 492.585 82.3242 493.651C82.3242 494.716 83.2764 495.585 84.4446 495.585C85.6129 495.585 86.5651 494.716 86.5651 493.651Z" fill="#231A20"/>
<path d="M67.5865 296.089C67.5865 295.023 66.6343 294.155 65.4661 294.155C64.2979 294.155 63.3457 295.023 63.3457 296.089C63.3457 297.155 64.2979 298.023 65.4661 298.023C66.6343 298.023 67.5865 297.155 67.5865 296.089Z" fill="#231A20"/>
<path d="M155.139 233.69C155.139 232.624 154.187 231.756 153.019 231.756C151.851 231.756 150.898 232.624 150.898 233.69C150.898 234.755 151.851 235.624 153.019 235.624C154.187 235.624 155.139 234.755 155.139 233.69Z" fill="#231A20"/>
<path d="M306.809 76.6375C306.809 75.5718 305.857 74.7032 304.689 74.7032C303.521 74.7032 302.568 75.5718 302.568 76.6375C302.568 77.7031 303.521 78.5717 304.689 78.5717C305.857 78.5717 306.809 77.7031 306.809 76.6375Z" fill="#231A20"/>
<path d="M463.415 81.3307C463.415 80.2651 462.462 79.3965 461.294 79.3965C460.126 79.3965 459.174 80.2651 459.174 81.3307C459.174 82.3964 460.126 83.265 461.294 83.265C462.462 83.265 463.415 82.3964 463.415 81.3307Z" fill="#231A20"/>
<path d="M518.794 216.939C518.794 215.873 517.841 215.004 516.673 215.004C515.505 215.004 514.553 215.873 514.553 216.939C514.553 218.004 515.505 218.873 516.673 218.873C517.841 218.873 518.794 218.004 518.794 216.939Z" fill="#231A20"/>
<path d="M647.963 179.035C647.963 177.969 647.011 177.101 645.843 177.101C644.675 177.101 643.723 177.969 643.723 179.035C643.723 180.101 644.675 180.969 645.843 180.969C647.011 180.969 647.963 180.101 647.963 179.035Z" fill="#231A20"/>
<path d="M705.487 234.821C705.487 233.755 704.535 232.887 703.366 232.887C702.198 232.887 701.246 233.755 701.246 234.821C701.246 235.887 702.198 236.755 703.366 236.755C704.535 236.755 705.487 235.887 705.487 234.821Z" fill="#231A20"/>
<path d="M581.231 347.518C581.231 346.452 580.279 345.583 579.111 345.583C577.942 345.583 576.99 346.452 576.99 347.518C576.99 348.583 577.942 349.452 579.111 349.452C580.279 349.452 581.231 348.583 581.231 347.518Z" fill="#231A20"/>
<path d="M650.901 526.985C650.901 525.919 649.949 525.051 648.781 525.051C647.612 525.051 646.66 525.919 646.66 526.985C646.66 528.051 647.612 528.919 648.781 528.919C649.949 528.919 650.901 528.051 650.901 526.985Z" fill="#231A20"/>
<path d="M692.046 562.86C692.046 561.794 691.093 560.925 689.925 560.925C688.757 560.925 687.805 561.794 687.805 562.86C687.805 563.925 688.757 564.794 689.925 564.794C691.093 564.794 692.046 563.925 692.046 562.86Z" fill="#231A20"/>
<path d="M643.956 648.798C643.956 647.732 643.004 646.864 641.835 646.864C640.667 646.864 639.715 647.732 639.715 648.798C639.715 649.864 640.667 650.732 641.835 650.732C643.004 650.732 643.956 649.864 643.956 648.798Z" fill="#231A20"/>
<path d="M566.012 837.929C566.012 836.864 565.06 835.995 563.892 835.995C562.724 835.995 561.771 836.864 561.771 837.929C561.771 838.995 562.724 839.864 563.892 839.864C565.06 839.864 566.012 838.995 566.012 837.929Z" fill="#231A20"/>
</svg>
