<?xml version="1.0" encoding="UTF-8"?><svg id="Layer_1" xmlns="http://www.w3.org/2000/svg" xmlns:xlink="http://www.w3.org/1999/xlink" viewBox="0 0 603 716"><defs><style>.cls-1{fill:#fff;}.cls-2{clip-path:url(#clippath);}.cls-3{fill:none;}.cls-4,.cls-5{fill:#2e2e2e;}.cls-6{mask:url(#mask);}.cls-5{fill-rule:evenodd;}</style><clipPath id="clippath"><rect class="cls-3" width="603" height="716"/></clipPath><mask id="mask" x="92.82" y="45.94" width="429.66" height="406.78" maskUnits="userSpaceOnUse"><g id="mask0_1495_6611"><path class="cls-1" d="m298.69,452.72c113.7,0,205.87-91.06,205.87-203.39S412.39,45.94,298.69,45.94,92.82,137,92.82,249.33s92.17,203.39,205.87,203.39Z"/></g></mask></defs><g class="cls-2"><path class="cls-4" d="m246.12,578.89c.1.27-.23.42-.38.17-2.81-4.96-9.01-15.34-12.68-16.92-3.83-1.65-15.68,1.49-20.04,2.74-.23.07-.4-.3-.2-.43,3.76-2.45,13.77-9.26,14.99-13.42,1.15-3.89-2.7-13.78-4.97-19.05-.12-.27.21-.44.37-.19,3,4.96,8.87,13.98,12.62,15.46,3.74,1.47,13.91-.63,17.53-1.45.23-.05.39.3.2.43-3.05,2.07-11.45,8.09-12.52,12.28-.93,3.63,3.08,15.04,5.08,20.38h0Z"/><path class="cls-4" d="m292.16,624.84c.07.2-.17.3-.27.12-2-3.52-6.43-10.89-9.07-11.99-2.76-1.15-11.36,1.16-14.52,2.08-.17.05-.29-.21-.14-.3,2.74-1.77,10.02-6.69,10.94-9.67.86-2.78-1.87-9.81-3.48-13.56-.08-.19.16-.32.27-.14,2.14,3.52,6.32,9.92,9.03,10.95,2.7,1.02,10.08-.54,12.7-1.15.16-.04.28.21.14.3-2.23,1.5-8.34,5.84-9.14,8.84-.69,2.6,2.13,10.72,3.55,14.51h0Z"/><path class="cls-4" d="m194.69,542.54c.1.1-.02.23-.14.15-2.26-1.63-7.15-4.98-9.11-4.92-2.06.06-6.74,3.93-8.45,5.39-.09.08-.24-.05-.18-.15,1.2-1.88,4.32-7,4.02-9.11-.27-1.98-4-5.59-6.08-7.47-.11-.09,0-.24.13-.16,2.35,1.59,6.81,4.4,8.79,4.28,1.98-.12,6.12-3.17,7.59-4.29.09-.07.23.05.18.15-.95,1.56-3.51,5.99-3.14,8.09.32,1.82,4.42,6.07,6.39,8.04Z"/><path class="cls-4" d="m258.79,638.26c.1.1-.02.23-.14.15-2.26-1.63-7.15-4.98-9.11-4.92-2.06.06-6.74,3.93-8.45,5.39-.09.08-.24-.05-.18-.15,1.2-1.88,4.32-6.99,4.02-9.11-.27-1.98-4-5.59-6.08-7.47-.11-.09,0-.24.13-.16,2.35,1.59,6.81,4.4,8.79,4.28,1.97-.12,6.12-3.17,7.58-4.29.1-.07.23.05.18.15-.95,1.56-3.51,5.99-3.15,8.09.32,1.82,4.42,6.07,6.39,8.04Z"/><path class="cls-4" d="m218.94,597.32c-1.67-3.46-.18-7.59,3.31-9.24,3.5-1.65,7.69-.18,9.35,3.27,1.67,3.45.18,7.59-3.31,9.24-3.49,1.65-7.69.18-9.36-3.27Z"/><path class="cls-4" d="m203.37,582.77c3.66-1.73,8.07-.19,9.82,3.44,1.75,3.63.19,7.97-3.48,9.7-3.66,1.73-8.07.19-9.82-3.44-1.75-3.62-.19-7.97,3.48-9.7Zm6.04,12.51c3.32-1.56,4.72-5.5,3.15-8.78-1.58-3.28-5.57-4.67-8.89-3.11-3.32,1.56-4.73,5.5-3.15,8.78s5.57,4.67,8.89,3.11Z"/><path class="cls-4" d="m201.34,533.52c2.75-1.3,6.05-.14,7.37,2.58,1.31,2.72.14,5.98-2.61,7.28-2.75,1.3-6.05.14-7.37-2.58-1.32-2.72-.14-5.98,2.61-7.28Zm4.54,9.38c2.49-1.17,3.55-4.12,2.35-6.59-1.18-2.46-4.17-3.51-6.66-2.33-2.49,1.17-3.55,4.12-2.36,6.59,1.18,2.46,4.17,3.5,6.67,2.33Z"/><path class="cls-4" d="m145.61,542.04c2.69-1.09,3.98-4.12,2.88-6.78-1.1-2.66-4.17-3.93-6.86-2.84-2.69,1.09-3.98,4.12-2.88,6.78,1.1,2.66,4.17,3.93,6.86,2.85Z"/><path class="cls-4" d="m167,560.46c2.78-1.31,6.18-.03,7.58,2.87,1.4,2.89.27,6.32-2.51,7.63-2.78,1.31-6.18.03-7.58-2.87-1.39-2.89-.27-6.32,2.51-7.63Zm4.83,10.01c2.51-1.18,3.52-4.28,2.25-6.91-1.27-2.62-4.34-3.8-6.85-2.62-2.51,1.18-3.52,4.28-2.25,6.91,1.27,2.62,4.34,3.8,6.85,2.62Z"/><path class="cls-4" d="m168.85,510.74c2.08-4.11.39-9.1-3.77-11.15-4.16-2.05-9.21-.39-11.29,3.72-2.08,4.11-.39,9.1,3.77,11.15,4.16,2.05,9.21.38,11.29-3.72Z"/><path class="cls-4" d="m385.41,594.3c-.28.09-.42-.24-.16-.38,5.13-2.58,15.86-8.32,17.59-11.88,1.81-3.73-.92-15.53-2.02-19.88-.06-.23.31-.39.44-.18,2.33,3.81,8.84,13.94,13,15.3,3.9,1.28,14.04-2.15,19.46-4.19.28-.1.44.23.18.37-5.13,2.78-14.48,8.23-16.12,11.88-1.63,3.63.12,13.76.81,17.36.04.23-.31.37-.44.17-1.98-3.09-7.76-11.61-11.94-12.82-3.64-1.05-15.33,2.47-20.81,4.24Z"/><path class="cls-4" d="m337.2,638.01c-.2.06-.3-.18-.12-.28,3.64-1.84,11.26-5.93,12.47-8.5,1.27-2.69-.75-11.26-1.56-14.42-.04-.17.22-.27.31-.13,1.69,2.78,6.39,10.15,9.37,11.17,2.78.95,9.99-1.47,13.85-2.92.2-.07.31.17.13.27-3.64,1.98-10.28,5.87-11.42,8.51-1.14,2.62.16,9.97.68,12.58.03.17-.22.27-.31.13-1.43-2.25-5.6-8.45-8.59-9.36-2.6-.79-10.91,1.7-14.81,2.95h0Z"/><path class="cls-4" d="m424.13,544.9c-.1.09-.24-.03-.15-.14,1.74-2.17,5.3-6.87,5.32-8.81.01-2.03-3.72-6.81-5.13-8.54-.07-.09.05-.23.16-.17,1.85,1.25,6.91,4.53,9.06,4.32,2.01-.2,5.81-3.73,7.79-5.72.1-.1.24.01.16.13-1.7,2.26-4.71,6.55-4.66,8.52.05,1.95,2.98,6.16,4.05,7.65.07.09-.06.23-.16.17-1.54-1-5.93-3.69-8.05-3.41-1.85.24-6.31,4.13-8.37,6.01h0Z"/><path class="cls-4" d="m324.89,604.56c-.1.1-.24-.03-.15-.14,1.74-2.17,5.3-6.87,5.32-8.81.01-2.03-3.72-6.81-5.13-8.54-.07-.09.05-.24.16-.17,1.85,1.25,6.91,4.53,9.06,4.32,2.01-.2,5.8-3.73,7.79-5.72.1-.1.25.01.16.13-1.7,2.26-4.71,6.55-4.66,8.52.05,1.95,2.98,6.16,4.05,7.65.07.09-.06.23-.16.17-1.54-1-5.93-3.69-8.06-3.41-1.85.24-6.31,4.13-8.37,6.01h0Z"/><path class="cls-4" d="m367.8,566.77c3.55-1.51,7.69.1,9.22,3.62,1.53,3.51-.1,7.59-3.66,9.11-3.56,1.51-7.69-.1-9.22-3.62-1.53-3.51.1-7.59,3.66-9.11Z"/><path class="cls-4" d="m383.1,551.94c1.61,3.69-.12,7.98-3.85,9.57-3.73,1.59-8.08-.11-9.68-3.8-1.61-3.69.12-7.98,3.85-9.57,3.73-1.59,8.08.12,9.68,3.8Zm-12.88,5.49c1.46,3.34,5.39,4.88,8.76,3.44,3.38-1.44,4.94-5.32,3.48-8.66-1.46-3.34-5.39-4.88-8.76-3.44-3.38,1.44-4.94,5.32-3.48,8.66Z"/><path class="cls-4" d="m432.99,551.8c1.21,2.77-.09,5.98-2.89,7.17-2.8,1.19-6.05-.09-7.26-2.85-1.2-2.77.09-5.98,2.89-7.17,2.8-1.19,6.05.09,7.26,2.85Zm-9.66,4.12c1.09,2.5,4.04,3.66,6.57,2.58,2.53-1.08,3.7-3.99,2.61-6.49-1.09-2.5-4.04-3.66-6.57-2.58-2.53,1.08-3.7,3.99-2.61,6.49Z"/><path class="cls-4" d="m429.37,489.95c2.67-1.14,5.77.08,6.92,2.71,1.15,2.64-.08,5.7-2.74,6.83-2.66,1.14-5.77-.08-6.92-2.71-1.15-2.64.08-5.7,2.74-6.83Z"/><path class="cls-4" d="m407.05,516.88c1.22,2.8-.21,6.1-3.19,7.37-2.98,1.27-6.4.03-7.62-2.76-1.22-2.8.21-6.1,3.19-7.37,2.98-1.27,6.4-.03,7.62,2.76Zm-10.31,4.39c1.1,2.52,4.19,3.64,6.9,2.48,2.7-1.16,4-4.14,2.9-6.67-1.1-2.52-4.19-3.64-6.9-2.49-2.7,1.15-4,4.14-2.9,6.67h0Z"/><path class="cls-4" d="m465.62,520.45c4.01-2.33,5.34-7.43,2.98-11.38-2.36-3.96-7.52-5.27-11.52-2.94-4,2.33-5.34,7.43-2.98,11.38s7.52,5.28,11.52,2.94Z"/><path class="cls-4" d="m286.3,165.54c-17.32,0-31.4-13.92-31.4-31.02s14.09-31.02,31.4-31.02,31.4,13.92,31.4,31.02-14.09,31.02-31.4,31.02Zm0-60.06c-16.2,0-29.39,13.03-29.39,29.04s13.19,29.04,29.39,29.04,29.39-13.03,29.39-29.04-13.19-29.04-29.39-29.04Z"/><path class="cls-4" d="m239.42,152.91c-7.06,0-12.78-.98-13.53-4-1.49-5.99,18.02-13.78,29.79-17.89l.67,1.87c-20.47,7.15-29.13,13.07-28.52,15.54.61,2.46,11,3.75,32.36.73,10.08-1.42,21.5-3.65,33.02-6.46,8.03-1.95,15.78-4.09,23.04-6.36,25.42-7.94,38.33-15.48,37.57-18.54-.11-.42-1.18-2.56-12-2.49-7.71.05-18.15,1.2-30.2,3.32l-.35-1.95c9.96-1.75,42.61-6.91,44.49.65,1.87,7.53-29.31,17.9-38.91,20.9-7.3,2.28-15.09,4.44-23.17,6.4-11.59,2.82-23.08,5.06-33.22,6.49-6.06.86-14.2,1.78-21.06,1.78h0Z"/><path class="cls-4" d="m249.93,138.55c.61-3.69-1.93-7.17-5.67-7.77-3.74-.6-7.26,1.91-7.87,5.6-.61,3.69,1.93,7.17,5.67,7.77,3.74.6,7.26-1.91,7.87-5.6Z"/><path class="cls-5" d="m264.93,134.76c0,1.28-1.05,2.31-2.34,2.31s-2.34-1.04-2.34-2.31,1.05-2.31,2.34-2.31,2.34,1.04,2.34,2.31Z"/><path class="cls-4" d="m272.95,134.83c-1.33,0-2.42-1.07-2.42-2.39s1.08-2.39,2.42-2.39,2.42,1.07,2.42,2.39-1.08,2.39-2.42,2.39Zm0-4.63c-1.25,0-2.27,1.01-2.27,2.25s1.02,2.25,2.27,2.25,2.27-1.01,2.27-2.25-1.02-2.25-2.27-2.25Z"/><path class="cls-5" d="m275.68,139.21c0,1.28-1.05,2.31-2.34,2.31s-2.34-1.04-2.34-2.31,1.05-2.31,2.34-2.31,2.34,1.04,2.34,2.31Z"/><path class="cls-4" d="m268.43,123.26c-.74,0-1.35-.6-1.35-1.33s.61-1.33,1.35-1.33,1.35.6,1.35,1.33-.61,1.33-1.35,1.33Zm0-2.52c-.66,0-1.2.53-1.2,1.19s.54,1.19,1.2,1.19,1.21-.53,1.21-1.19-.54-1.19-1.21-1.19Z"/><path class="cls-5" d="m276.56,125.26c0,.69-.57,1.26-1.27,1.26s-1.27-.56-1.27-1.26.57-1.26,1.27-1.26,1.27.57,1.27,1.26Z"/><path class="cls-4" d="m277.84,137.54c-.74,0-1.35-.6-1.35-1.33s.61-1.33,1.35-1.33,1.35.6,1.35,1.33-.61,1.33-1.35,1.33Zm0-2.52c-.66,0-1.2.53-1.2,1.19s.54,1.19,1.2,1.19,1.21-.53,1.21-1.19-.54-1.19-1.21-1.19Z"/><path class="cls-4" d="m269.33,144.92c-.74,0-1.35-.6-1.35-1.33s.61-1.33,1.35-1.33,1.35.6,1.35,1.33-.61,1.33-1.35,1.33Zm0-2.52c-.66,0-1.21.53-1.21,1.19s.54,1.19,1.21,1.19,1.2-.53,1.2-1.19-.54-1.19-1.2-1.19Z"/><path class="cls-4" d="m264.6,129.51c-1.01,0-1.85-1.18-1.85-2.63s.83-2.63,1.85-2.63,1.85,1.18,1.85,2.63-.83,2.63-1.85,2.63Zm0-5.12c-.94,0-1.7,1.12-1.7,2.49s.76,2.49,1.7,2.49,1.7-1.12,1.7-2.49-.76-2.49-1.7-2.49Z"/><path class="cls-4" d="m266.31,142.41c-.2,0-.39-.04-.57-.12-.45-.21-.76-.65-.86-1.26-.1-.59,0-1.26.31-1.9.3-.63.75-1.15,1.27-1.46.53-.31,1.07-.37,1.52-.16.45.21.76.65.86,1.25.1.59,0,1.26-.31,1.9-.5,1.06-1.41,1.74-2.23,1.74h0Zm1.1-4.87c-.28,0-.58.09-.88.26-.5.29-.93.79-1.21,1.39-.29.61-.39,1.25-.29,1.82.09.55.37.96.78,1.15.85.39,2.02-.3,2.6-1.55.29-.61.39-1.25.29-1.82-.1-.55-.37-.96-.78-1.15-.16-.07-.33-.11-.51-.11Z"/><path class="cls-5" d="m268.58,131.79c.62.98.65,2.06.08,2.41-.58.36-1.55-.15-2.17-1.12-.62-.98-.65-2.06-.08-2.42.58-.36,1.55.15,2.17,1.12Z"/><path class="cls-5" d="m271.65,126.23c.62.98.65,2.06.07,2.42-.58.36-1.54-.15-2.16-1.12-.62-.98-.65-2.06-.08-2.42.58-.36,1.55.15,2.17,1.12Z"/><path class="cls-4" d="m336.45,139.21c4.76,0,8.62-3.81,8.62-8.52s-3.86-8.52-8.62-8.52-8.62,3.81-8.62,8.52,3.86,8.52,8.62,8.52Z"/><g class="cls-6"><path class="cls-4" d="m477.8,108.34c-3.13-.6-6.33-.82-9.52-.57-.55.04-1.1.13-1.65.13-3.92-.09-7.83.05-11.72.52-3.61.44-7.06,1.53-10.51,2.64-3.81,1.23-7.54,2.61-10.82,4.99-.59.43-1.33.79-2.27.33.93-3.06,1.35-6.12-.48-9.04-1.01.12-.88.62-.52,1.24.99,1.75.55,5.56-1.4,7.36-.04-.01-.1-.01-.11-.04-.17-.34-.37-.67-.49-1.02-.76-2.09-1.74-4.06-3.28-5.71-.19-.2-.69-.42-.82-.33-.25.19-.47.58-.46.89,0,.28.27.6.51.8.84.72,1,1.74,1.23,2.71.06.26-.1.74-.33.89-1.17.77-2.33,1.62-3.89,1.12-1.35-.43-2.71-.22-4.04.11-2.03.5-3.31-.67-2.97-2.72.69-4.11-.6-7.64-3.38-10.68-.12-.13-.37-.14-.58-.21-.51.8-.16,1.55.08,2.21.56,1.53,1.23,3.02,1.87,4.52.62,1.44.46,2.89.05,4.33-.09.3-.18.61-.29.92-.57-.69-1.48-1.22-2.19-1.45.5.83,1.35,1.77,1.48,2.79-.54.69-1.29,1.24-2.13,1.64-1.24-.32-2.52-1.13-3.28-2.03-.14.38.06.87.39,1.15.12.1.33.21.46.32.2.15.41.34.63.47.39.22.74.32,1.1.38-1.68.58-3.59.59-5.05-.16-1.55-.79-3.09-1.58-4.64-2.38-.35-.18-.74-.42-.99.05-.23.44-.17.8.38,1.13,1.01.6,1.92,1.38,2.9,2.03.81.54,1.61,1.2,2.51,1.45,1.59.44,3.25.61,5.14.94.07.36.29.83.21,1.24-.41,2.36-.63,4.74-.56,7.14.02.67-.35.98-1.03,1.02-.63.04-1.29.07-1.89.23-.94.25-1.06.96-.32,1.57.49.4,1.05.73,1.53,1.15.59.51.54.9-.13,1.29-.94.56-1.9.38-2.81-.09-1.39-.73-2.76-1.5-4.13-2.27-.41-.23-.78-.4-1.11.07-.29.42-.05,1.1.44,1.38.44.24.87.51,1.32.75,1.53.81,3.07,1.63,4.62,2.43.89.46,1.8.87,2.7,1.32.1.05.14.21.19.32.35.64.07,1.12-.39,1.57-1.2,1.2-2.45,2.35-3.57,3.62-2.94,3.34-5.64,6.85-7.86,10.74-1.89,3.3-3.86,6.55-4.85,10.26-.55,2.07-1.25,4.12-1.63,6.22-.45,2.52-.62,5.09-.9,7.65-.07.65.22,1.11.8,1.45.72.44,1.38.97,2.1,1.39,1.1.63,2.21,1.26,3.36,1.76,1.12.48,2.38.68,3.45,1.23,2.44,1.25,5.03,2.14,7.69,2.62,3.4.62,6.88.72,10.31.09,1.03-.19,2.01-.63,3-.99,1.25-.44,2.49-.92,3.85-1.42.12-.19.33-.52.59-.94.27.25.49.36.56.52.39.99,1.21,1.35,2.18,1.51.25.04.52.07.74.2,1.41.8,2.91.75,4.45.56,1.01-.12,2.05-.15,3.06-.07,1.29.1,2.52.21,3.85-.07,2.68-.57,5.11-1.61,7.34-3.11,1.23-.82,2.42-1.73,3.19-3.05.42-.71.83-1.43,1.27-2.17,1.06.88,2.07,1.71,3.06,2.56,2.52,2.18,5.3,3.38,8.77,2.68,1.29-.26,2.1-1,2.63-1.96.52-.93.74-2.06.95-3.12.5-2.46-.27-4.76-1.14-7-.44-1.12-.98-2.21-1.5-3.36.36-.2.6-.4.86-.47,3.23-.83,5.54-3.07,7.93-5.14,1.05-.9,1.9-2.03,2.79-3.09.53-.63,1.04-1.31,1.42-2.03.4-.74.64-1.56.92-2.35.69-1.94.82-3.96.57-5.97-.16-1.3-.58-2.56-.87-3.76.97-.68,1.91-1.14,2.59-1.86,1.39-1.47,2.64-3.07,3.93-4.62.05-.07.1-.13.14-.21,1.23-2.49,2.41-5,2.95-7.76.2-.98.38-1.97.5-2.96.33-2.7.69-4.95.33-7.66-.33-2.5.36-5.9-1.32-7.98-1.7-2.09-5.62-2.27-8.12-2.76h0Zm-17.63,1.6c-.29.42-.51.81-.78,1.16-1.61,2.08-3.25,4.15-5.8,5.19-1.01.41-2.08.7-3.14.99-1.26.34-2.61.45-3.79.96-2.21.96-4.15,2.32-5.42,4.44-.15.26-.31.5-.48.75-.05.07-.13.11-.31.25-2.41-1.78-4.56-3.87-6.59-6.12,5.88-4.45,18.76-8.85,26.31-7.63Zm-24.5,11.91c.08-.08.17-.15.25-.24.57.6,1.2,1.16,1.71,1.8,1.21,1.53,2.93,2.25,4.67,2.95,2.04.82,4.12,1.57,6.13,2.45.7.3,1.27.91,2.11,1.53-1.83.79-3.36,1.5-5.08,1.59-2.23.12-4.42-.07-6.53-.92-1.24-.5-1.97-1.98-1.59-3.24.1-.31.2-.73.07-.97-.78-1.43-.85-3.09-1.61-4.52-.08-.14-.09-.3-.14-.46h0Zm-24.82,8.1c-.16-.93-.92-1.71-.69-2.75.36-1.68.65-3.38,1.05-5.06.43-1.78,1.7-3.19,3.15-3.99,2.25-1.24,4.73-2.15,7.46-.91,1.09.49,2.38.61,3.59.75.85.1,1.33.49,1.51,1.25.38,1.61.24,3.22-.17,4.8-.06.24-.41.51-.66.56-.61.12-.7.5-.5.92.37.78.02,1.36-.45,2.11-.21-.16-.33-.29-.48-.35-.29-.11-.58-.17-.88-.24-.07.3-.13.59-.2.89-.08.34-.14.69-.21,1.03-.32-.13-.64-.26-.96-.4-.15-.07-.29-.16-.51-.28-.19.24-.37.45-.56.69-.32-.13-.65-.28-.97-.42-.63.65,0,1.13.16,1.73-.68-.4-1.24-.93-1.89-1.08-.75-.18-1.66-.23-2.37.03-.64.24-1.67-.34-1.86.59-.62.09-1.12.13-1.61.23-.37.07-.73.28-1.1.28-.29,0-.81-.19-.84-.36Zm2.4,11.71c.53.38.82.83,1.43.34.46-.36.93.04,1.25.5,1.01,1.43,1.93,1.72,3.75,1.19.16.26.28.59.51.8,1.18,1.11.82,2.25.15,3.43-.88,1.55-1.95,2.93-3.32,4.12-1.47,1.27-2.93,2.56-4.26,3.98-.7.75-1.12,1.77-1.62,2.68-1.1,2.02-2.52,3.69-4.77,4.5-2.15.77-4.32,1.51-6.49,2.25-.18.06-.41.02-.78.03.61-1.09,1.26-1.96,2.02-2.81,1.89-2.11,3.64-4.33,5.54-6.42,1.54-1.7,2.55-3.7,3.42-5.74.58-1.37.82-2.91,1.11-4.39.24-1.2.44-2.41,1.18-3.43.25-.33.52-.64.86-1.05h.01Zm-3.23-1.83c1.26.97,1.29,1.09.55,2.35-1.28,2.19-1.93,4.56-2.31,7.04-.1.62-.23,1.27-.53,1.8-1.1,1.94-2.27,3.84-3.46,5.72-.33.52-.79,1.02-1.29,1.39-.33.24-.94.43-1.25.28-1.77-.85-3.49-.47-5.22.04-.2.06-.41.09-.62.12-.03,0-.07-.04-.14-.08,3.49-7.17,8.25-13.38,14.26-18.67h0Zm-16.98,39.27c-.67-.44-1.23-.74-1.72-1.14-.89-.73-1.25-1.68-1.04-2.82.51-2.9.97-5.82,1.99-8.61.48-1.3.95-2.62,1.42-3.93.27-.73.8-1.2,1.52-1.44.93-.32,1.85-.63,2.8-.84.31-.07.78.06,1.01.28.16.15.14.67,0,.91-.88,1.49-1.63,3.08-3.17,4.06-.65.42-.99,1-1.21,1.71-1.05,3.28-1.68,6.13-1.58,11.82h-.02Zm18.37,4.54c-.48.01-.84.03-1.21.04-1.27.02-2.55.12-3.82.02-1.39-.12-2.79-.33-4.13-.67-1.81-.45-3.54-1.06-5.04-2.3-1.32-1.1-1.72-2.43-1.82-3.98-.13-1.81.38-3.5.99-5.17.29-.79.53-1.61.94-2.34.24-.44.71-.94,1.17-1.04,3.51-.79,6.74-2.29,10.23-3.93-.16,3.42.16,6.63.91,9.77.76,3.14.39,6.47,1.79,9.61h0Zm4.62-10.56c1.47,2.5,2.87,5.04,4.3,7.57.44.79-.14,1.53-.17,2.29,0,.18-.78.39-1.21.46-.97.15-1.94.27-2.92.32-.81.05-1.48-.22-1.87-1.03-.44-.91-.84-1.81-.99-2.83-.36-2.55-.5-5.1-.33-7.67.06-.75.35-1.37,1.14-1.99.74,1.02,1.47,1.89,2.04,2.87h0Zm5.3,4.71c0,.36-.15.73-.3,1.36-.59-1-1.06-1.77-1.52-2.55-1.08-1.86-2.12-3.75-3.26-5.58-.46-.74-1.08-1.41-1.72-2-1.7-1.61-2.68-3.51-2.42-5.85.11-1.02.41-2.09.92-2.99,1.27-2.25,2.88-4.21,4.87-5.94,1.64-1.43,3.27-2.96,4.15-5.06.23-.55.65-1.03.97-1.55.09.03.18.06.27.09,0,.4.03.81-.01,1.21-.36,3.39-.65,6.79-1.12,10.16-.37,2.64-.14,5.27-.23,7.91-.02.63-.16,1.24-.24,1.87-.06.42-.19.85-.14,1.25.35,2.57-.27,5.11-.21,7.66h0Zm6.09,3.21c.27.73.57,1.45.93,2.39-2.18-.74-3.7-1.9-4.05-3.82-.19-1.02-.77-1.98-.63-3.1.14-1.08.04-2.19.11-3.28.24-3.82.52-7.63.76-11.45.03-.42-.07-.85-.12-1.26.16,0,.33,0,.5.01.05.33.14.66.15.99.1,2.35.14,4.7.27,7.05.15,2.73.24,5.48.62,8.18.2,1.47.94,2.87,1.46,4.29h0Zm7.39,2.97c-1.43.28-2.76.38-4.14.13-1.46-3.2-2.5-6.52-3.08-9.97-.33-1.9-.7-3.81-.87-5.73-.29-3.18-.49-6.37-.65-9.56-.07-1.33.05-2.67.3-4.06.12.57.31,1.12.35,1.69.17,2.14.16,4.3.48,6.41.37,2.44.95,4.86,1.59,7.25.5,1.86,1.09,3.73,1.89,5.48,1.16,2.57,2.53,5.04,3.81,7.55.11.21.18.44.32.79h0Zm6.51-2.15c-.9.42-1.64.76-2.38,1.1-.07.03-.14.1-.21.14-1.71.93-2.23.85-3.34-.73-.48-.68-.82-1.46-1.17-2.22-.65-1.42-1.27-2.85-1.89-4.29-1.72-3.98-2.77-8.13-3.4-12.39-.41-2.79-.72-5.58-1.08-8.38.1-.04.2-.08.3-.12,2.98,9.6,7.5,18.46,13.19,26.74.05.07-.05.23-.03.13h0Zm1.65-1.04c-1.33-.57-2.04-1.59-2.66-2.62-1.91-3.19-3.88-6.35-5.58-9.65-1.25-2.43-2.13-5.04-3.12-7.6-.88-2.28-1.68-4.59-2.51-6.89-.07-.19-.1-.39-.14-.59.07-.03.16-.07.23-.1.83,1.32,1.72,2.6,2.47,3.96,2.75,4.95,5.56,9.88,8.99,14.41,1.27,1.68,2.82,3.16,4.24,4.73.39.43.78.88,1.25,1.41-1.12,1.03-2.16,2-3.19,2.95h0Zm4.32-4.31c-1.77-.92-2.93-2.4-4.15-3.78-3.47-3.91-6.44-8.15-8.86-12.77-.43-.81-.89-1.61-1.4-2.51,5.07,6.05,10.06,12,15.15,18.08-.24.32-.48.64-.73.97h0Zm5.59-20.53c-.52.12-.92.22-1.32.31-2.43.5-4.51,1.51-5.75,3.79-.34.62-.9,1.14-1.21,1.78-.29.61-.37,1.31-.55,1.96.84.44,1.19.11,1.47-.44.34-.68.71-1.35,1.05-2.02.92-1.79,2.57-2.47,4.41-2.88.82-.18,1.49.09,2.15.54,2.14,1.45,3.65,3.45,5.14,5.64-.99.3-1.92.54-2.81.88-.3.11-.62.42-.71.71-.05.15.35.57.61.65.42.14.89.1,1.33.14,1.22.1,2.48.05,3.65.35,1.11.29,2,1,2.36,2.27.39,1.41,1,2.75,1.58,4.29-.63.14-1.02.31-1.42.3-1.23-.03-2.1.59-2.84,1.47-.46.54-.98,1.06-1.38,1.65-.18.26-.12.67-.16,1.02.3.01.66.15.9.03.87-.43,1.76-.88,2.54-1.43.65-.47,1.28-.61,2.14-.33.13.96-.08,1.69-.9,2.23-.26.18-.46.48-.62.77-.19.34-.21.87-.48,1.03-.45.27-1.04.42-1.56.42-1.98-.03-3.75-.68-5.32-1.89-1.1-.86-2.25-1.67-3.34-2.54-.27-.22-.56-.6-.57-.91-.08-2.03-.1-4.04,1.46-5.7.42-.44.49-1.19.72-1.79-.8-.46-1.28-.3-1.75.2-.94,1-1.72,2.08-2.07,3.44-.12.48-.35.93-.58,1.51-.34-.31-.64-.53-.89-.8-1.97-2.16-3.93-4.32-5.9-6.49-.97-1.07-1.87-2.19-2.87-3.23-.91-.96-1.21-2.08-1.2-3.34.01-1.97.4-3.86,1.24-5.64.55-1.17,1.65-1.76,2.82-2.23.59-.24,1.19-.45,1.74-.75.2-.11.27-.44.41-.67-.25-.12-.54-.38-.74-.32-.82.21-1.67.41-2.41.81-1.95,1.06-3.53,2.5-4.3,4.64-.34.94-.71,1.87-1.07,2.81-1.1-1.38-2.23-2.78-3.34-4.18-.42-.53-.84-1.07-1.23-1.61-1.1-1.53-.95-2.84.45-4.12.1-.08.16-.19.23-.29-.42-1.08-.48-1.1-1.39-.54-1.14.7-1.2.72-1.89-.37-.49-.76-1.33-1.33-1.38-2.17,1.58-.94,3.06-1.8,4.53-2.7.17-.1.28-.32.42-.48.88-1.02,1.69-2.11,2.65-3.05.57-.56.88-1.08.76-1.86-.03-.18.1-.39.2-.77.43.22.86.32,1.11.59.43.46.86.97,1.1,1.53.48,1.2.57,1.42-.59,1.86-1.46.57-2.2,1.8-2.87,3.09-.23.44-.31.95.2,1.22.44.24.75-.07,1.05-.44,1.29-1.58,3.53-1.86,5.43-1.08,1.7.71,2.33,2.27,3.4,3.48,2.58,2.9,5.07,5.89,7.59,8.84.18.21.3.47.52.81v-.02Zm-17.56-22.47c-.71.16-1.25.29-1.25,1.14,0,.64-.39,1.29-.65,1.92-.2.5-.46.99-.61,1.53-.9.69-2.53.69-2.39,2.25-.48.48-.86.83-1.23,1.2-.09.09-.14.24-.25.28-1.14.42-2.28.86-3.44,1.21-.23.07-.61-.2-.87-.39-.71-.51-1.38-1.06-2.16-1.65-.26.52-.43.88-.59,1.19-1.12-.56-2.2-1.09-3.27-1.63-.08-.04-.16-.14-.22-.11-1.16.38-1.82-.57-2.69-.98-.04-.02-.08-.05-.12-.04-1.46.21-2.38-.75-3.43-1.47-.53-.36-1.21-.53-2.11-.91-.58-1.18-.46-2.62-.12-4.13.46.2,1.03.27,1.27.59.94,1.24,1.95.68,3.01.23.24.26.49.52.82.89.38-.38.68-.69,1.03-1.05.27.24.54.48.86.76.55-.44,1.06-.89,1.82-.62.16.06.48-.02.6-.15,1.15-1.18,2.89-1.04,4.19-1.88,1.12-.73,2.32-1.36,2.98-2.63.5-.97,1.15-1.86,1.68-2.81.25-.46.43-.97.55-1.48.22-.93.37-1.88.58-2.81.24-1.12-.44-2.07-.52-3.19.59-.54,1.22-.24,1.8.07.48.26.88.63,1.36.89,1.11.61,1.42,1.75,1.8,2.77.33.88.24,1.89.54,2.78.17.53.24.94.02,1.44-.06.14-.04.35.02.49.41.95.84,1.89,1.2,2.73-.09.48-.16.87-.23,1.26-.03.16,0,.41-.1.47-.91.6-.44,1.18.13,1.84h.01Zm27.93,28.88c.45.75.35,1.01-.49,1.32-.55.2-1.15.25-1.89.39-5.19-8.36-12.23-15.31-17.91-23.36,1.12.88,2.31,1.7,3.36,2.66,2.67,2.48,5.39,4.93,7.88,7.57,2.41,2.55,4.62,5.3,6.84,8.02.85,1.04,1.52,2.23,2.21,3.4Zm5.44-1.59c-1.14.79-2.32,1.53-3.58,2.37-2.42-3.42-4.49-6.77-7.29-9.59-2.77-2.8-5.27-5.88-8.16-8.56-2.87-2.66-6.08-4.98-9.25-7.54,1.12-.08,1.87.54,2.61.99,3.3,2,6.6,4.01,9.82,6.13,1.73,1.14,3.35,2.46,4.96,3.77,2.29,1.87,4.55,3.79,6.8,5.71,1.42,1.2,2.81,2.44,4.21,3.67,1.59,1.4,1.57,1.88-.12,3.04h0Zm4.64-7.4c-.67,1.66-1.35,3.32-2.08,5.1-.48-.3-.78-.44-1.01-.67-1.76-1.65-3.57-3.26-5.26-4.98-2.59-2.66-5.68-4.68-8.69-6.8-2.61-1.83-5.17-3.72-7.82-5.49-1.72-1.15-3.57-2.12-5.35-3.18-.13-.08-.25-.17-.3-.48.61.11,1.25.12,1.81.34,2.14.81,4.25,1.71,6.39,2.54,1.3.5,2.69.8,3.96,1.37,2.52,1.12,4.99,2.33,7.46,3.56,1.25.62,2.51,1.28,3.66,2.05,1.58,1.06,3.08,2.23,4.6,3.37.68.5,1.3,1.09,2,1.57.64.44.95.94.64,1.7h0Zm1.8-7.86c-.35,1.89-.7,3.77-1.07,5.83-7.12-6.32-15.62-9.81-24.02-13.65.49.12.97.23,1.46.34,2.85.65,5.71,1.28,8.56,1.96,2.36.56,4.7,1.21,7.06,1.75,2.6.59,4.98,1.68,7.35,2.85.41.2.75.4.65.93h.01Zm3.53-5.11c-.66.46-1.38.83-2.04,1.29-.52.37-1.03.52-1.67.32-2.23-.73-4.45-1.45-6.69-2.13-1.74-.54-3.5-1.04-5.26-1.53-2.17-.6-4.34-1.22-6.54-1.72-1.82-.42-3.68-.67-5.53-1.02-2.17-.42-4.34-.87-6.51-1.29-.46-.09-.93-.07-1.4-.16-1.66-.33-3.32-.68-4.98-1.03-.58-.12-.7-.42-.29-.96,1.44.45,2.8.93,4.19,1.29,1.91.49,3.72.38,5.56-.57,2.44-1.24,5.02-1.66,7.71-.55,1.39.57,2.89.67,4.4.36,2.29-.48,4.3.09,6.33,1.23,3.21,1.8,6.52,3.48,10.32,3.81,1.01.09,2.01.32,3,.54.35.07.66.28,1.05.46-.33.91-1.05,1.25-1.65,1.67h.01Zm3.84-9.61c.04.29.07.62.22.85,1.25,1.82.46,3.32-.55,4.62-1.69-.14-3.21-.46-4.71-.36-3.71.24-6.81-1.26-9.84-3.05-2.24-1.32-4.53-2.29-7.25-1.71-3.08.65-5.7-.5-8.06-2.34-.78-.61-1.46-1.35-2.19-2.03.03-.09.07-.17.11-.26.53,0,1.07.03,1.6.01,2.89-.1,5.79-.19,8.69-.34,1.01-.05,2.04-.23,3.02-.48.64-.16,1.23-.54,1.84-.84.91-.44,1.78-1,2.74-1.32,1.01-.33,1.98-.09,2.86.62,1.71,1.38,3.76,2.09,5.79,2.86.9.34,1.72.87,2.58,1.31.57.29,1.1.73,1.7.83.99.19,1.36.75,1.47,1.63h-.01Zm1.79-12.61c.43.85,1.25,1.63,1.33,2.5.2,2.11.16,4.25.04,6.36-.08,1.37-.93,1.86-2.3,1.53-.49-.11-.98-.32-1.4-.58-2.61-1.61-5.43-2.81-8.27-3.96-1.25-.51-2.44-1.17-3.26-2.45.73-.57,1.36-1.21,2.12-1.62,2.11-1.15,4.11-2.56,6.55-3.02.46-.09.91-.22,1.36-.34,1.69-.44,3.01-.05,3.83,1.59h0Zm-2.36-4.33c-1.44.61-2.89,1.23-4.39,1.67-3.68,1.1-7.07,2.62-9.74,5.47-.72.78-1.67,1.23-2.59,1.77-2.55,1.48-5.29,1.72-8.11,1.77-.8.01-1.59-.12-2.39-.11-.63,0-1.29.03-1.89.19-2.06.58-4.13,1.1-6.28.97-.83-.05-1.66-.28-2.47-.51-.65-.19-.78-.72-.58-1.32.37-1.06.97-1.96,1.89-2.67.52-.28,1.02-.62,1.57-.82,1.51-.55,3.04-1.04,4.57-1.56.16-.05.33-.08.48-.15,1.37-.67,2.8-1.23,4.07-2.05.98-.63,1.85-1.51,2.58-2.42,3.26-4.05,7.67-5.37,12.66-5.35.84,0,1.67.3,2.51.45,2.13.39,4.27.77,6.4,1.18.5.09,1,.21,1.47.4.56.22,1.27.26,1.32,1.14.05.91-.26,1.61-1.09,1.96h0Z"/><path class="cls-4" d="m471.68,110.7c-.52.52-.79,1.07-.61,1.75.16.61.8,1.03,1.61.98.65-.04,1.41.09,1.77-.71.02-.04.03-.08.03-.12,0-.54.03-1.09-.59-1.41-.71-.38-1.41-.77-2.22-.5h0Z"/><path class="cls-4" d="m465.01,127.43c-.58.42-.56,1.56.04,2.29.73.88,1.87,1.14,2.57.57.76-.6,1.1-1.75.68-2.31-.56-.75-2.57-1.08-3.3-.54Z"/><path class="cls-4" d="m402.8,172.92c-.18.38-.53.95-.71,1.57-.37,1.27.44,2.46,1.75,2.69,1.61.29,2.44-.33,2.57-1.92.03-.37.02-.75-.03-1.12-.09-.67-.16-1.39-.91-1.68-.84-.34-1.66-.13-2.68.46Z"/><path class="cls-4" d="m418.32,164.85c-.44-.52-1.58-.66-2.04-.24-.39.35-.49,1.56-.16,1.99.59.76,1.51.99,2.09.52.61-.5.67-1.61.12-2.27h0Z"/><path class="cls-4" d="m406.59,158.81c-.49.34-.55,1.28-.1,1.82.43.52,1.58.72,2.1.35.53-.38.57-1.2.09-1.81-.44-.56-1.52-.75-2.09-.36Z"/><path class="cls-4" d="m450.38,114.74c.7-.62.7-2,0-2.89-.47-.6-1.67-.44-2.61.35-.6.5-.65,2.02-.08,2.68.5.58,1.97.5,2.7-.14h0Z"/><path class="cls-4" d="m404.85,151.84c.31-.43.2-1.55-.35-2.25-.24-.04-.76-.29-1.16-.17-.69.21-.8.91-.82,1.55-.02.65.33,1.1.98,1.28.53.14,1.01.05,1.35-.42h0Z"/><path class="cls-4" d="m416.15,178.54c-.58.37-.89.83-.78,1.56.23,1.55.72,1.92,2.64,1.69.01-.44.03-.81.03-1.18,0-.42.03-.83-.01-1.24-.14-1.16-.87-1.47-1.87-.82h0Z"/><path class="cls-4" d="m196.08,186.71c-.11-2.43-.52-4.84-1.29-7.16-.13-.4-.31-.79-.4-1.2-.64-2.92-1.44-5.79-2.51-8.59-.98-2.59-2.43-4.96-3.89-7.3-1.62-2.6-3.34-5.12-5.74-7.12-.43-.36-.84-.84-.66-1.62,2.49.14,4.89-.1,6.77-1.99-.28-.73-.63-.54-1.03-.17-1.15,1.05-4.13,1.41-5.84.3,0-.03,0-.07,0-.09.23-.19.44-.39.69-.55,1.45-.93,2.77-2.02,3.74-3.46.12-.18.2-.59.1-.67-.19-.15-.53-.24-.76-.18-.2.05-.4.31-.52.52-.4.75-1.14,1.06-1.84,1.41-.19.09-.59.05-.74-.08-.79-.73-1.65-1.44-1.55-2.68.08-1.08-.32-2.05-.81-2.97-.74-1.41-.08-2.58,1.53-2.69,3.25-.23,5.68-1.82,7.5-4.43.07-.11.04-.3.05-.47-.7-.24-1.21.16-1.66.46-1.06.69-2.08,1.45-3.1,2.2-.98.72-2.11.87-3.28.82-.24,0-.5-.02-.75-.05.42-.54.66-1.32.7-1.88-.54.53-1.1,1.32-1.85,1.59-.62-.28-1.18-.73-1.63-1.28.01-.98.4-2.07.95-2.8-.31-.03-.65.21-.8.49-.06.1-.1.28-.16.4-.08.18-.18.36-.25.55-.1.33-.12.6-.09.88-.75-1.13-1.1-2.56-.8-3.77.32-1.29.65-2.58.97-3.86.07-.29.18-.62-.22-.73-.37-.09-.64.02-.79.48-.27.86-.7,1.67-1.01,2.52-.26.69-.62,1.41-.65,2.12-.05,1.26.12,2.52.21,3.98-.26.11-.57.36-.9.38-1.87.12-3.7.39-5.51.88-.51.13-.81-.08-.96-.58-.14-.46-.28-.94-.52-1.36-.36-.65-.92-.61-1.25.05-.22.44-.37.91-.6,1.34-.28.53-.59.56-1,.14-.59-.6-.63-1.34-.44-2.09.3-1.16.64-2.31.98-3.46.1-.34.16-.65-.25-.81-.37-.14-.85.15-.97.57-.1.37-.23.74-.33,1.11-.34,1.28-.69,2.57-1.01,3.85-.19.74-.33,1.49-.52,2.24-.02.08-.14.13-.2.2-.42.38-.84.26-1.26,0-1.12-.67-2.23-1.39-3.39-1.99-3.07-1.57-6.22-2.94-9.57-3.89-2.85-.81-5.67-1.68-8.67-1.74-1.67-.03-3.35-.19-5.01-.09-1.99.12-3.98.46-5.96.71-.5.07-.8.36-.96.85-.2.61-.49,1.2-.68,1.81-.28.93-.56,1.86-.74,2.81-.17.92-.09,1.88-.31,2.78-.51,2.03-.72,4.11-.61,6.17.14,2.63.69,5.22,1.79,7.65.33.73.84,1.37,1.29,2.04.57.85,1.15,1.68,1.77,2.6.17.05.46.15.82.27-.14.24-.18.42-.3.5-.68.47-.81,1.14-.76,1.9.01.2.03.4-.02.58-.35,1.19-.05,2.29.37,3.4.28.73.48,1.49.61,2.25.16.98.3,1.91.75,2.84.91,1.88,2.15,3.49,3.68,4.88.84.76,1.75,1.49,2.89,1.82.61.17,1.23.36,1.88.54-.48.94-.93,1.84-1.4,2.73-1.21,2.26-1.61,4.53-.46,6.98.43.91,1.14,1.37,1.97,1.6.8.21,1.7.17,2.54.14,1.96-.07,3.56-1.06,5.11-2.11.78-.52,1.5-1.12,2.29-1.72.22.23.41.37.51.56,1.21,2.25,3.33,3.55,5.33,4.95.87.61,1.88,1.04,2.85,1.51.58.27,1.18.54,1.8.69.63.15,1.3.19,1.95.26,1.6.16,3.15-.11,4.63-.66.95-.36,1.84-.9,2.7-1.33.69.59,1.21,1.21,1.88,1.59,1.37.77,2.8,1.4,4.22,2.09.06.03.12.05.18.07,2.11.46,4.24.88,6.42.79.78-.03,1.57-.07,2.34-.16,2.12-.24,3.88-.38,5.88-1.13,1.84-.69,4.55-.79,5.82-2.42,1.29-1.64.71-4.57.63-6.51h.02Zm-4.39-12.78c-.37-.13-.71-.24-1.02-.37-1.87-.81-3.74-1.66-4.98-3.36-.5-.67-.91-1.41-1.31-2.15-.48-.88-.81-1.85-1.41-2.63-1.12-1.46-2.51-2.66-4.35-3.21-.22-.07-.44-.13-.65-.22-.06-.02-.1-.07-.24-.19.92-2.11,2.12-4.08,3.45-5.99,4.44,3.55,10.1,12.3,10.53,18.11h0Zm-13.45-16l.22.15c-.35.53-.67,1.1-1.06,1.59-.95,1.18-1.18,2.58-1.4,3.99-.26,1.66-.46,3.34-.76,4.99-.11.57-.46,1.1-.78,1.84-.93-1.21-1.74-2.23-2.12-3.48-.49-1.63-.75-3.29-.48-5,.16-1.01,1.14-1.81,2.17-1.76.25.01.59.02.75-.13.95-.83,2.2-1.18,3.14-2.01.09-.08.22-.12.32-.18h0Zm-10.62-16.94c.68-.29,1.14-.99,1.96-1.01,1.34-.03,2.69-.13,4.03-.13,1.43,0,2.73.69,3.6,1.61,1.35,1.44,2.49,3.12,2.03,5.36-.18.9-.03,1.87.08,2.79.07.65-.13,1.07-.68,1.35-1.15.57-2.4.76-3.68.74-.19,0-.46-.21-.54-.39-.2-.42-.5-.43-.79-.21-.52.42-1.04.26-1.68.05.08-.19.16-.3.18-.42.03-.23.02-.46.03-.7-.24,0-.48,0-.71.01-.27,0-.55.02-.82.03.05-.26.08-.53.14-.78.03-.12.07-.24.12-.43-.21-.1-.41-.19-.62-.29.05-.26.1-.53.14-.79-.61-.35-.86.2-1.29.42.18-.58.48-1.08.48-1.59,0-.59-.12-1.27-.45-1.75-.3-.43-.05-1.3-.78-1.27-.18-.44-.31-.81-.46-1.15-.12-.26-.35-.49-.41-.77-.05-.21,0-.63.12-.69h0Zm-8.46,3.88c-.2.46-.48.75,0,1.12.35.28.14.69-.16,1.02-.9,1-.96,1.74-.23,2.99-.17.17-.4.32-.52.52-.63,1.08-1.56,1.02-2.57.73-1.34-.38-2.58-.91-3.73-1.72-1.23-.86-2.48-1.72-3.79-2.44-.69-.38-1.54-.51-2.34-.72-1.73-.44-3.25-1.2-4.28-2.72-.97-1.46-1.93-2.93-2.88-4.4-.08-.13-.09-.3-.16-.57.94.26,1.71.58,2.49.99,1.93,1.02,3.94,1.92,5.88,2.95,1.57.83,3.27,1.22,4.97,1.5,1.15.19,2.36.08,3.53.03.96-.04,1.91-.11,2.81.26.29.12.58.27.95.45h.01Zm.8-2.72c-.51,1.1-.59,1.15-1.69.83-1.89-.55-3.81-.6-5.75-.44-.48.04-1.01.06-1.46-.07-1.67-.47-3.32-.99-4.97-1.53-.46-.15-.91-.4-1.28-.71-.24-.2-.5-.62-.43-.88.33-1.47-.27-2.67-.97-3.86-.08-.14-.14-.29-.2-.44,0-.02.01-.06.03-.12,6.07,1.29,11.64,3.7,16.74,7.2Zm-32.87-5.5c.21-.58.34-1.05.55-1.48.39-.79,1.06-1.22,1.95-1.29,2.29-.14,4.6-.33,6.9-.07,1.08.12,2.16.23,3.23.34.6.07,1.06.38,1.37.86.4.63.81,1.26,1.14,1.92.11.22.1.59-.03.79-.09.14-.48.22-.69.15-1.29-.38-2.63-.66-3.66-1.61-.44-.41-.93-.55-1.51-.59-2.68-.19-4.96-.14-9.26.96h0Zm-.14,14.43c-.09-.35-.18-.62-.24-.89-.25-.94-.55-1.87-.7-2.82-.16-1.05-.25-2.12-.24-3.18.01-1.42.16-2.81.84-4.15.59-1.18,1.54-1.71,2.7-2.07,1.35-.42,2.72-.35,4.1-.2.65.07,1.32.1,1.95.28.38.1.84.36,1,.68,1.23,2.46,2.96,4.58,4.83,6.87-2.63.5-5,1.31-7.25,2.44-2.25,1.13-4.84,1.46-6.97,3.06h0Zm8.85,1.51c-1.63,1.54-3.32,3.03-4.98,4.55-.52.47-1.18.17-1.77.29-.13.03-.43-.5-.57-.81-.29-.69-.55-1.39-.77-2.1-.18-.59-.1-1.14.44-1.57.61-.49,1.22-.95,1.97-1.24,1.87-.73,3.78-1.29,5.76-1.62.58-.09,1.1.01,1.72.49-.64.73-1.17,1.43-1.8,2.03h0Zm-2.62,4.78c-.27.07-.58.02-1.09.03.65-.62,1.15-1.1,1.66-1.59,1.22-1.14,2.46-2.25,3.64-3.42.48-.48.87-1.06,1.21-1.64.91-1.55,2.18-2.62,4-2.85.8-.1,1.66-.07,2.43.14,1.93.53,3.72,1.37,5.38,2.54,1.38.96,2.83,1.89,4.59,2.16.46.07.9.29,1.35.44,0,.07-.01.14-.02.21-.31.07-.61.17-.93.21-2.63.34-5.27.74-7.91.99-2.07.2-4.03.85-6.05,1.26-.48.1-.97.11-1.46.16-.33.03-.67.01-.97.13-1.89.73-3.92.72-5.85,1.22h0Zm-1.33,5.09c-.51.33-1,.68-1.65,1.12.17-1.74.78-3.08,2.17-3.69.74-.32,1.36-.93,2.23-1.02.85-.09,1.67-.36,2.51-.51,2.94-.51,5.89-.99,8.83-1.5.32-.05.63-.21.94-.32.03.12.05.25.08.37-.24.09-.48.22-.72.29-1.76.5-3.54.96-5.3,1.47-2.04.6-4.11,1.16-6.09,1.93-1.08.42-2.01,1.21-3,1.85h0Zm-.93,6.01c-.47-1.01-.78-1.98-.84-3.05,2.17-1.66,4.5-3.03,7.01-4.08,1.39-.58,2.76-1.2,4.19-1.68,2.36-.79,4.75-1.51,7.14-2.21,1-.29,2.04-.44,3.13-.5-.41.2-.8.43-1.23.57-1.59.51-3.23.89-4.78,1.51-1.78.72-3.52,1.58-5.22,2.49-1.32.71-2.63,1.48-3.82,2.38-1.74,1.32-3.37,2.79-5.04,4.18-.14.12-.31.21-.54.38h0Zm2.81,4.43c-.48-.59-.87-1.08-1.27-1.57-.04-.05-.1-.08-.14-.13-1.01-1.1-1.05-1.49-.05-2.61.43-.48.96-.87,1.47-1.27.96-.74,1.93-1.45,2.91-2.17,2.7-1.99,5.67-3.52,8.8-4.75,2.04-.8,4.11-1.54,6.16-2.31.05.07.1.13.15.2-6.75,3.93-12.66,8.88-17.92,14.59-.04.05-.18,0-.1,0h-.01Zm1.09,1.04c.19-1.09.84-1.8,1.51-2.44,2.08-1.99,4.12-4.02,6.32-5.87,1.62-1.37,3.45-2.49,5.21-3.68,1.57-1.06,3.19-2.07,4.78-3.1.13-.09.28-.14.42-.21.04.05.08.1.12.15-.85.85-1.67,1.74-2.56,2.54-3.27,2.93-6.5,5.89-9.32,9.26-1.05,1.24-1.89,2.66-2.83,3.99-.26.37-.52.73-.84,1.18-.99-.64-1.91-1.24-2.81-1.83Zm4.04,2.43c.38-1.47,1.29-2.6,2.12-3.75,2.34-3.27,5.03-6.24,8.1-8.87.54-.46,1.06-.96,1.65-1.49-3.68,4.84-7.3,9.61-11,14.48-.28-.12-.57-.24-.87-.37h0Zm16.59.44c-.18-.36-.33-.64-.47-.92-.82-1.72-1.96-3.07-3.91-3.58-.54-.14-1.03-.47-1.57-.58-.52-.11-1.06-.04-1.58-.05-.18.7.13.9.61,1.01.58.13,1.15.28,1.72.42,1.52.36,2.33,1.46,2.98,2.75.29.57.2,1.12-.02,1.69-.71,1.84-1.96,3.32-3.36,4.82-.41-.68-.76-1.32-1.17-1.93-.14-.2-.44-.38-.67-.4-.12,0-.37.36-.39.57-.03.33.08.68.14,1.01.14.92.41,1.85.4,2.76-.01.87-.4,1.66-1.29,2.15-.99.55-1.91,1.24-2.97,1.94-.22-.44-.42-.7-.48-.99-.21-.92-.83-1.45-1.62-1.84-.5-.25-.98-.53-1.5-.72-.23-.08-.53.03-.8.06.04.23,0,.52.14.67.48.57.98,1.14,1.55,1.62.48.4.69.84.64,1.53-.71.27-1.3.25-1.86-.26-.18-.16-.45-.25-.69-.32-.29-.08-.7,0-.87-.17-.29-.28-.5-.69-.6-1.08-.34-1.47-.16-2.9.48-4.28.45-.97.86-1.96,1.33-2.93.12-.24.35-.52.59-.59,1.53-.42,3.05-.8,4.59.06.41.23.99.15,1.49.21.2-.67,0-1-.47-1.26-.93-.52-1.89-.9-2.98-.91-.38,0-.77-.09-1.25-.16.17-.31.29-.57.45-.8,1.29-1.85,2.57-3.69,3.87-5.54.64-.91,1.32-1.78,1.93-2.7.57-.85,1.36-1.27,2.32-1.49,1.5-.34,3-.4,4.51-.1.99.2,1.63.91,2.19,1.69.29.39.55.8.88,1.16.12.13.38.13.59.18.04-.21.19-.47.11-.61-.31-.57-.61-1.17-1.05-1.64-1.15-1.25-2.53-2.16-4.3-2.35-.78-.08-1.55-.19-2.32-.28.84-1.06,1.71-2.15,2.57-3.23.33-.41.66-.81,1.01-1.2.96-1.09,1.99-1.22,3.21-.41.08.05.18.08.26.12.74-.51.75-.55.16-1.12-.74-.72-.76-.76-.06-1.47.49-.5.77-1.23,1.4-1.41.99,1,1.92,1.94,2.86,2.87.11.11.29.15.44.22.93.46,1.91.87,2.79,1.41.52.32.98.46,1.55.23.14-.05.31,0,.62.01-.09.36-.09.69-.24.93-.26.4-.58.81-.97,1.09-.82.58-.97.68-1.52-.1-.69-.98-1.76-1.31-2.86-1.57-.38-.09-.78-.05-.89.37-.1.37.18.54.52.7,1.43.67,2.06,2.28,1.8,3.83-.22,1.39-1.31,2.13-2.03,3.14-1.74,2.44-3.55,4.82-5.34,7.22-.13.17-.3.31-.52.53l-.02.02Zm13.89-17.06c-.25-.5-.44-.88-1.09-.72-.48.11-1.05-.06-1.57-.14-.42-.06-.84-.17-1.27-.18-.68-.54-.97-1.75-2.14-1.37-.45-.28-.79-.48-1.13-.69-.08-.05-.21-.07-.26-.13-.52-.77-1.07-1.53-1.54-2.33-.1-.16.04-.49.14-.72.26-.61.55-1.22.87-1.9-.44-.1-.75-.17-1.01-.22.22-.93.43-1.83.65-2.72.01-.06.07-.15.05-.18-.49-.79.1-1.45.26-2.17,0-.03.02-.07,0-.09-.43-1.04.14-1.9.5-2.81.18-.46.18-.99.31-1.73.79-.65,1.9-.81,3.12-.83-.07.38-.03.81-.22,1.04-.78.92-.16,1.57.37,2.27-.16.22-.31.46-.52.77.35.21.65.38.98.57-.14.24-.26.48-.42.77.44.33.87.63.8,1.24-.01.14.1.35.22.42,1.1.64,1.31,1.96,2.18,2.76.76.7,1.45,1.47,2.53,1.74.82.2,1.61.52,2.44.74.39.11.81.14,1.22.14.75,0,1.49-.07,2.24-.08.89-.02,1.49-.69,2.33-.96.52.34.4.86.27,1.35-.11.4-.32.77-.43,1.16-.26.93-1.08,1.37-1.78,1.84-.61.4-1.39.53-2.01.9-.37.22-.67.34-1.09.28-.12-.02-.27.03-.37.1-.65.47-1.29.96-1.85,1.39-.37.02-.69.03-1,.05-.13,0-.31.07-.37.01-.62-.57-.98-.11-1.37.43h0Zm-16.89,25.9c-.49.46-.71.44-1.09-.12-.25-.37-.4-.81-.64-1.33,5.41-5.35,9.42-11.82,14.5-17.48-.47.99-.87,2.02-1.42,2.97-1.4,2.43-2.77,4.88-4.32,7.2-1.5,2.25-3.19,4.38-4.86,6.51-.64.82-1.42,1.53-2.18,2.25Zm2.19,3.75c-.8-.71-1.58-1.44-2.44-2.23,2.17-2.41,4.33-4.55,5.97-7.13,1.63-2.56,3.51-4.96,5.02-7.58,1.51-2.61,2.68-5.4,4.06-8.21.27.82-.07,1.48-.29,2.11-.92,2.8-1.86,5.61-2.88,8.38-.55,1.49-1.27,2.93-1.97,4.35-1.01,2.04-2.06,4.06-3.1,6.07-.66,1.27-1.35,2.52-2.03,3.78-.78,1.43-1.14,1.51-2.33.46h-.02Zm6.45,2.1c-1.38-.2-2.76-.4-4.25-.63.14-.4.2-.66.32-.87.93-1.6,1.82-3.23,2.83-4.79,1.55-2.4,2.53-5.05,3.6-7.67.92-2.26,1.89-4.5,2.76-6.78.57-1.49.97-3.03,1.45-4.54.03-.12.09-.22.31-.31.03.47.13.94.07,1.4-.23,1.74-.54,3.46-.77,5.19-.14,1.06-.12,2.14-.33,3.18-.39,2.06-.87,4.12-1.35,6.17-.24,1.04-.52,2.08-.89,3.09-.52,1.36-1.14,2.68-1.73,4.01-.27.59-.59,1.16-.83,1.76-.22.56-.54.87-1.18.78Zm6.29-.09c-1.5.08-2.99.17-4.62.26,3.51-6.41,4.63-13.34,6.03-20.25,0,.38,0,.77,0,1.14.02,2.23.05,4.47.05,6.69,0,1.85-.07,3.7-.05,5.55.02,2.03-.38,4-.83,5.96-.08.34-.16.62-.59.65h0Zm4.51,1.7c-.47-.4-.88-.88-1.35-1.27-.37-.32-.58-.67-.54-1.18.15-1.78.29-3.56.41-5.34.1-1.39.16-2.78.21-4.18.06-1.72.14-3.44.13-5.16-.01-1.43-.16-2.85-.23-4.28-.07-1.69-.12-3.37-.2-5.06-.01-.36-.11-.71-.13-1.06-.05-1.29-.08-2.58-.12-3.88-.01-.45.19-.59.68-.38-.08,1.15-.2,2.24-.23,3.34-.02,1.5.39,2.82,1.43,4.02,1.39,1.58,2.16,3.42,1.8,5.62-.18,1.13.01,2.26.52,3.32.78,1.61.7,3.21.2,4.91-.79,2.7-1.46,5.46-1.03,8.33.12.76.12,1.55.14,2.32,0,.27-.09.54-.16.85-.75-.09-1.14-.55-1.57-.92Zm7.99,1.11c-.21.08-.46.16-.6.32-1.16,1.25-2.44.94-3.6.42-.2-1.28-.23-2.46-.57-3.56-.85-2.71-.26-5.27.54-7.84.6-1.9.92-3.77,0-5.68-1.05-2.17-.65-4.31.33-6.4.32-.69.76-1.32,1.15-1.99.07.01.14.02.22.03.09.4.16.79.28,1.19.6,2.12,1.18,4.26,1.82,6.37.23.74.54,1.47.91,2.15.24.44.63.81.97,1.21.5.6,1.08,1.14,1.49,1.79.43.69.42,1.45.05,2.23-.74,1.51-.91,3.17-1.12,4.81-.1.73-.35,1.43-.53,2.15-.12.47-.35.94-.33,1.41.04.77-.33,1.14-.97,1.38h-.01Zm9.89-.95c-.57.47-1.01,1.22-1.65,1.44-1.57.53-3.19.88-4.83,1.18-1.05.19-1.57-.36-1.57-1.43,0-.38.07-.78.19-1.14.76-2.23,1.15-4.53,1.51-6.84.16-1.02.45-2.02,1.27-2.86.56.44,1.16.79,1.61,1.28,1.25,1.36,2.68,2.58,3.47,4.31.15.32.33.63.5.95.64,1.17.58,2.22-.52,3.12h0Zm2.87-2.52c-.72-.96-1.45-1.92-2.06-2.95-1.49-2.52-3.26-4.77-5.9-6.23-.72-.4-1.23-1.02-1.81-1.6-1.58-1.62-2.26-3.61-2.81-5.69-.16-.58-.2-1.2-.34-1.79-.12-.46-.25-.95-.49-1.36-.81-1.42-1.58-2.86-1.87-4.48-.12-.62-.09-1.28-.06-1.92.03-.52.41-.71.9-.67.87.08,1.66.37,2.37.92.31.34.65.65.9,1.02.69,1.02,1.34,2.07,2.01,3.1.07.11.12.24.2.33.76.89,1.44,1.86,2.29,2.65.66.61,1.48,1.1,2.3,1.47,3.66,1.69,5.46,4.71,6.34,8.42.15.62.08,1.29.11,1.94.09,1.65.18,3.3.26,4.95.02.38.02.78-.04,1.16-.07.45.03.99-.63,1.18-.68.2-1.27.1-1.68-.46h0Z"/><path class="cls-4" d="m193.19,182.6c-.49-.29-.95-.39-1.44-.13-.43.23-.63.78-.46,1.37.14.48.19,1.06.85,1.18.03,0,.07.01.1,0,.42-.1.83-.18.97-.69.16-.6.33-1.18-.02-1.74h0Z"/><path class="cls-4" d="m179.28,180.68c-.42-.35-1.29-.13-1.73.44-.54.7-.52,1.59.03,2.01.6.46,1.53.5,1.88.09.46-.55.35-2.1-.18-2.54h0Z"/><path class="cls-4" d="m133.54,142.79c-.33-.06-.82-.22-1.32-.24-1.03-.05-1.78.77-1.73,1.78.07,1.25.7,1.75,1.93,1.55.29-.05.58-.12.85-.22.48-.19,1.03-.37,1.12-.97.1-.69-.2-1.26-.84-1.9h0Z"/><path class="cls-4" d="m142.47,152.83c.32-.42.22-1.29-.18-1.56-.34-.22-1.27-.08-1.54.24-.47.57-.48,1.3-.01,1.64.49.36,1.34.21,1.74-.32h0Z"/><path class="cls-4" d="m144.94,143.05c-.34-.3-1.07-.17-1.4.26-.32.42-.26,1.3.12,1.62.38.32,1.01.21,1.39-.26.35-.42.29-1.26-.1-1.62Z"/><path class="cls-4" d="m186.28,167.56c.6.4,1.64.15,2.19-.52.37-.46.03-1.32-.74-1.87-.49-.36-1.65-.12-2.05.42-.35.48-.03,1.55.59,1.97h0Z"/><path class="cls-4" d="m149.92,140.5c.38.15,1.21-.13,1.64-.67-.01-.19.08-.62-.08-.89-.28-.47-.84-.42-1.32-.32-.5.1-.78.44-.79.96-.01.42.15.76.56.92h0Z"/><path class="cls-4" d="m131.68,153.69c-.39-.36-.79-.5-1.33-.3-1.14.44-1.33.88-.81,2.25.34-.07.63-.13.91-.19.31-.07.64-.13.95-.24.86-.32.95-.91.29-1.53Z"/><path class="cls-4" d="m287.98,432.09l-4.34,2.16h-.01l-.82.42s-.1.04-.15.05h0s-.07.03-.11.03c-.06,0-.11,0-.16,0-.05,0-.09,0-.14-.01-.05,0-.09-.03-.14-.05h-.02c-.08-.03-.16-.07-.22-.12-.05-.04-.1-.09-.15-.14-.05-.08-.11-.17-.13-.26-.03-.05-.03-.11-.04-.16-.01-.07-.01-.13-.01-.21-.25-.05-.44-.2-.52-.3-.04-.05-.08-.09-.1-.14-.05-.09-.1-.2-.12-.32l-.04-.32s0-.18.11-.41l1.75-3.58-2.57,3.3s-.01.01-.01.03c-.09.12-.17.24-.25.37-.03.04-.05.08-.07.13-.11.2-.18.42-.22.64-.03.09-.04.17-.05.27-.03.27-.03.53,0,.8.05.35.16.69.33,1,.05.11.11.2.18.28.05.07.1.13.16.2.18.21.38.4.61.55.05.04.12.08.18.11.18.11.37.2.57.27.03,0,.05.01.07.03.09.03.18.05.27.07.22.05.45.07.68.07.12,0,.25,0,.38-.03.11-.01.21-.04.33-.07.2-.05.41-.13.61-.23l6.77-3.38,3.49-1.74.87-.44h.02s4.34-2.17,4.34-2.17l-11.27,3.28-.02-.03Zm226.76-191.6c-.03-.08-.05-.16-.1-.24-.04-.09-.09-.17-.14-.26-.05-.08-.09-.15-.16-.23-.05-.07-.11-.15-.17-.22-.07-.08-.15-.16-.23-.24h0c-.08-.07-.14-.13-.21-.19-.09-.07-.18-.12-.27-.18-.09-.05-.19-.11-.29-.15-.2-.09-.4-.16-.61-.2-.28-.07-.57-.08-.86-.05h-.01c-.05,0-.12,0-.17.01-.35.04-.7.15-1.03.33l-1.33.71,2.08-.23c.15-.03.32.01.53.07l.45.38.08.15.09.32c.01.05.01.21-.01.43v.03h0s.04.02.05.04c.03.01.04.03.05.04.04.03.08.05.11.1h0s.07.09.11.15c0,0,0,.01,0,.03.08.12.11.27.11.4,0,.09-.01.19-.04.28-.03.08-.08.16-.13.24l-1.06,1.45-1.67,5.9,1.15-1.59.33-.46h0l1.48-2.05,1.48-2.04c.18-.25.32-.52.42-.81,0-.04.03-.08.03-.13.08-.26.11-.52.11-.79,0-.35-.07-.69-.19-1.03h0Z"/><path class="cls-4" d="m367.34,255.43s-.04.05-.05.09l-.28.57-.08-.6.42-.05Z"/><path class="cls-4" d="m475.24,377.95l-.61,2-.74-.21h0l-1.39-.4-1.55-.45,1.83-.53c.35-.1.61-.36.72-.73l.05-.16.84.24.85.25h0,0Z"/><path class="cls-4" d="m489.96,198.66l-9.32,1.2c-1.39.18-2.78-.33-3.71-1.37l-6.26-6.93,1.22,9.21c.18,1.38-.33,2.75-1.39,3.67l-7.01,6.18,9.31-1.2c1.39-.18,2.79.33,3.72,1.37l6.26,6.93-1.22-9.21c-.18-1.37.33-2.74,1.38-3.67l7.01-6.18h0Zm-9.65,10.01l.68,5.19-3.53-3.91c-1.21-1.35-3.01-2-4.82-1.78l-5.26.68,3.96-3.48c1.35-1.2,2.03-2.97,1.8-4.76l-.69-5.19,3.53,3.91c1.22,1.35,3.02,2,4.82,1.77l5.26-.68-3.96,3.48c-1.36,1.2-2.03,2.98-1.8,4.76h0Z"/><path class="cls-4" d="m235.37,108.25l-11.06-8.89c-1.65-1.33-2.53-3.37-2.35-5.46l1.21-14.03-8.99,10.92c-1.35,1.63-3.42,2.5-5.54,2.32l-14.2-1.18,11.05,8.88c1.65,1.33,2.53,3.37,2.35,5.46l-1.21,14.03,8.99-10.92c1.33-1.63,3.4-2.5,5.52-2.32l14.2,1.19h.01Zm-21.22-.07l-5.07,6.15.68-7.9c.24-2.72-.91-5.37-3.04-7.09l-6.24-5,8.01.67c2.75.23,5.43-.89,7.18-3.01l5.07-6.16-.68,7.9c-.23,2.72.91,5.37,3.05,7.1l6.24,5-8-.67c-2.76-.23-5.44.9-7.18,3.01Z"/><path class="cls-4" d="m515.86,318.66l6.62-.85-4.99,4.39c-1.1.96-1.63,2.39-1.44,3.83l.87,6.55-4.45-4.93c-.97-1.08-2.43-1.61-3.88-1.43l-6.62.85,4.99-4.39c1.1-.96,1.63-2.4,1.44-3.83l-.86-6.55,4.45,4.93c.97,1.08,2.43,1.61,3.88,1.43Z"/><path class="cls-4" d="m364.15,348.85l-.04.04-78.06,100.12s-.05.07-.06.1c-.01.03-.03.06-.04.09,0,.01,0,.03-.01.04,0,.03-.01.06-.02.09v.08s.07.02.11.02l.65-.1,4.62-1.35,112.68-56.17s.07-.04.1-.07l-39.9-42.89h0Zm6.1,17.36l-4.97-4.93-31.99,36.96-1.34-1.13,33.24-38.39,6.31,6.27-1.25,1.23Zm21.3,22.56l-17.77-18.67,1.29-1.19,17.77,18.67-1.29,1.19Zm-27.4-39.92l-.04.04-78.06,100.12s-.05.07-.06.1c-.01.03-.03.06-.04.09,0,.01,0,.03-.01.04,0,.03-.01.06-.02.09v.08s.07.02.11.02l.65-.1,4.62-1.35,112.68-56.17s.07-.04.1-.07l-39.9-42.89h0Zm6.1,17.36l-4.97-4.93-31.99,36.96-1.34-1.13,33.24-38.39,6.31,6.27-1.25,1.23Zm21.3,22.56l-17.77-18.67,1.29-1.19,17.77,18.67-1.29,1.19Zm-27.4-39.92l-.04.04-78.06,100.12s-.05.07-.06.1c-.01.03-.03.06-.04.09,0,.01,0,.03-.01.04,0,.03-.01.06-.02.09v.08s.07.02.11.02l.65-.1,4.62-1.35,112.68-56.17s.07-.04.1-.07l-39.9-42.89h0Zm6.1,17.36l-4.97-4.93-31.99,36.96-1.34-1.13,33.24-38.39,6.31,6.27-1.25,1.23Zm21.3,22.56l-17.77-18.67,1.29-1.19,17.77,18.67-1.29,1.19Zm-27.4-39.92l-.04.04-78.06,100.12s-.05.07-.06.1c-.01.03-.03.06-.04.09,0,.01,0,.03-.01.04,0,.03-.01.06-.02.09v.08s.07.02.11.02l.65-.1,4.62-1.35,112.68-56.17s.07-.04.1-.07l-39.9-42.89h0Zm6.1,17.36l-4.97-4.93-31.99,36.96-1.34-1.13,33.24-38.39,6.31,6.27-1.25,1.23Zm21.3,22.56l-17.77-18.67,1.29-1.19,17.77,18.67-1.29,1.19Zm-27.4-39.92l-.04.04-78.06,100.12s-.05.07-.06.1c-.01.03-.03.06-.04.09,0,.01,0,.03-.01.04,0,.03-.01.06-.02.09v.08s.07.02.11.02l.65-.1,4.62-1.35,112.68-56.17s.07-.04.1-.07l-39.9-42.89h0Zm6.1,17.36l-4.97-4.93-31.99,36.96-1.34-1.13,33.24-38.39,6.31,6.27-1.25,1.23Zm21.3,22.56l-17.77-18.67,1.29-1.19,17.77,18.67-1.29,1.19Zm-27.4-39.92l-.04.04-78.06,100.12s-.05.07-.06.1c-.01.03-.03.06-.04.09,0,.01,0,.03-.01.04,0,.03-.01.06-.02.09v.08s.07.02.11.02l.65-.1,4.62-1.35,112.68-56.17s.07-.04.1-.07l-39.9-42.89h0Zm6.1,17.36l-4.97-4.93-31.99,36.96-1.34-1.13,33.24-38.39,6.31,6.27-1.25,1.23Zm21.3,22.56l-17.77-18.67,1.29-1.19,17.77,18.67-1.29,1.19Zm-27.4-39.92l-.04.04-78.06,100.12s-.05.07-.06.1c-.01.03-.03.06-.04.09,0,.01,0,.03-.01.04,0,.03-.01.06-.02.09v.08s.07.02.11.02l.65-.1,4.62-1.35,112.68-56.17s.07-.04.1-.07l-39.9-42.89h0Zm6.1,17.36l-4.97-4.93-31.99,36.96-1.34-1.13,33.24-38.39,6.31,6.27-1.25,1.23Zm21.3,22.56l-17.77-18.67,1.29-1.19,17.77,18.67-1.29,1.19Zm-27.4-39.92l-.04.04-78.06,100.12s-.05.07-.06.1c-.01.03-.03.06-.04.09,0,.01,0,.03-.01.04,0,.03-.01.06-.02.09v.08s.07.02.11.02l.65-.1,4.62-1.35,112.68-56.17s.07-.04.1-.07l-39.9-42.89h0Zm6.1,17.36l-4.97-4.93-31.99,36.96-1.34-1.13,33.24-38.39,6.31,6.27-1.25,1.23Zm21.3,22.56l-17.77-18.67,1.29-1.19,17.77,18.67-1.29,1.19Zm-27.4-39.92l-.04.04-78.06,100.12s-.05.07-.06.1c-.01.03-.03.06-.04.09,0,.01,0,.03-.01.04,0,.03-.01.06-.02.09v.08s.07.02.11.02l.65-.1,4.62-1.35,112.68-56.17s.07-.04.1-.07l-39.9-42.89h0Zm6.1,17.36l-4.97-4.93-31.99,36.96-1.34-1.13,33.24-38.39,6.31,6.27-1.25,1.23Zm21.3,22.56l-17.77-18.67,1.29-1.19,17.77,18.67-1.29,1.19Zm-27.4-39.92l-.04.04-78.06,100.12s-.05.07-.06.1c-.01.03-.03.06-.04.09,0,.01,0,.03-.01.04,0,.03-.01.06-.02.09v.08s.07.02.11.02l.65-.1,4.62-1.35,112.68-56.17s.07-.04.1-.07l-39.9-42.89h0Zm6.1,17.36l-4.97-4.93-31.99,36.96-1.34-1.13,33.24-38.39,6.31,6.27-1.25,1.23Zm21.3,22.56l-17.77-18.67,1.29-1.19,17.77,18.67-1.29,1.19Zm86.93-100.45c-.01-.14-.05-.26-.12-.38-.01-.02-.03-.04-.03-.04-.05-.09-.1-.2-.17-.28h-.03c-.08-.1-.18-.19-.31-.26-.07-.07-.15-.11-.25-.15-.11-.05-.22-.09-.35-.12h0c-.16-.04-.33-.05-.49-.02h-.08s-118.8,12.92-118.8,12.92c-.18.01-.41.07-.56.15-.32.14-.57.42-.74.73l-71.88,146.97s-.03.07-.04.11c-.06.18-.11.37-.12.54,0,.11,0,.25.05.39.03.15.08.3.14.42.06.11.11.2.19.3.27.3.64.5,1.05.52.1.03.19.04.29.01.04,0,.08,0,.12,0,0,0,0,0,.01,0h0c.06,0,.13-.01.2-.03h.03s.29-.11.29-.11l.76-.22h.01l9.34-2.73h.01s147.62-42.93,147.62-42.93l.44-.13c.54-.15.94-.56,1.1-1.09v-.03l.03-.11,30.74-108.35,1.5-5.31c.03-.1.05-.22.05-.31,0-.17,0-.33-.05-.47h.02Zm-81.86,16.82l-24.07,22.12-3.45-18.26,77.68-12.58-50.16,8.7h0Zm10.91,13.16l-22.47,8.41-.62-1.63,22.46-8.41.63,1.63Zm-54.95,4.02l1.75-.21,2.88,23.25-12.3,15.88-1.4-1.06,11.85-15.32-2.8-22.54h0Zm123.15-26.21l-69.09,95.1,38.88,11.36-.04.13c-.09.3-.31.52-.6.61l-1.52.44-37.82-11.04c-.21.26-.49.49-.8.65l-104.1,51.9-9.36,2.72,112.67-56.17s.07-.04.1-.07l-39.9-42.89s-.03.03-.04.04l-78.06,100.12s-.05.07-.06.1c-.01.03-.03.06-.04.09,0,.01,0,.03-.01.04,0,.03-.01.06-.02.09v.08c-.21-.04-.37-.17-.43-.25-.04-.04-.06-.07-.08-.11-.04-.07-.08-.16-.1-.26l-.03-.26s0-.15.09-.34l1.46-2.97,2.94-3.78,72.98-93.59c.18-.22.4-.42.64-.57l-6.39-45.57.23-.47s.03-.05.05-.07l1.4-.2,6.36,45.42,107.49-57.01,2.61-1.39,1.73-.19c.12-.02.27.01.44.06l.38.32.07.12.08.27s.01.17-.01.36v.03h0c-.07-.04-.14-.07-.22-.09,0,0-.05-.01-.07,0-.14-.02-.29,0-.43.08l-111.33,59.04,39.41,42.36,71.99-99.12-1.4,4.9h-.02Zm-26.13,72.38l-7.66,26.09-19.77-5.51,27.43-20.58Zm-117.66,28.61l33.24-38.39,6.31,6.27-1.25,1.23-4.97-4.93-31.99,36.96-1.34-1.13Zm41.83-27l1.29-1.19,17.77,18.67-1.29,1.19-17.77-18.67Zm24.83-1.37l-1.32,1.15-17.82-19.89,73.32-45.01.93,1.48-71.54,43.93,16.44,18.35h0Zm-34.46-19.88s-.03.03-.04.04l-78.06,100.12s-.05.07-.06.1c-.01.03-.03.06-.04.09,0,.01,0,.03-.01.04,0,.03-.01.06-.02.09v.08s.07.02.11.02l.65-.1,4.62-1.35,112.68-56.17s.07-.04.1-.07l-39.9-42.89h0Zm6.1,17.36l-4.97-4.93-31.99,36.96-1.34-1.13,33.24-38.39,6.31,6.27-1.25,1.23Zm21.3,22.56l-17.77-18.67,1.29-1.19,17.77,18.67-1.29,1.19Zm-27.4-39.92s-.03.03-.04.04l-78.06,100.12s-.05.07-.06.1c-.01.03-.03.06-.04.09,0,.01,0,.03-.01.04,0,.03-.01.06-.02.09v.08s.07.02.11.02l.65-.1,4.62-1.35,112.68-56.17s.07-.04.1-.07l-39.9-42.89h0Zm6.1,17.36l-4.97-4.93-31.99,36.96-1.34-1.13,33.24-38.39,6.31,6.27-1.25,1.23Zm21.3,22.56l-17.77-18.67,1.29-1.19,17.77,18.67-1.29,1.19Zm-27.4-39.92s-.03.03-.04.04l-78.06,100.12s-.05.07-.06.1c-.01.03-.03.06-.04.09,0,.01,0,.03-.01.04,0,.03-.01.06-.02.09v.08s.07.02.11.02l.65-.1,4.62-1.35,112.68-56.17s.07-.04.1-.07l-39.9-42.89h0Zm6.1,17.36l-4.97-4.93-31.99,36.96-1.34-1.13,33.24-38.39,6.31,6.27-1.25,1.23Zm21.3,22.56l-17.77-18.67,1.29-1.19,17.77,18.67-1.29,1.19Zm-27.4-39.92s-.03.03-.04.04l-78.06,100.12s-.05.07-.06.1c-.01.03-.03.06-.04.09,0,.01,0,.03-.01.04,0,.03-.01.06-.02.09v.08s.07.02.11.02l.65-.1,4.62-1.35,112.68-56.17s.07-.04.1-.07l-39.9-42.89h0Zm6.1,17.36l-4.97-4.93-31.99,36.96-1.34-1.13,33.24-38.39,6.31,6.27-1.25,1.23Zm21.3,22.56l-17.77-18.67,1.29-1.19,17.77,18.67-1.29,1.19Zm-27.4-39.92s-.03.03-.04.04l-78.06,100.12s-.05.07-.06.1c-.01.03-.03.06-.04.09,0,.01,0,.03-.01.04,0,.03-.01.06-.02.09v.08s.07.02.11.02l.65-.1,4.62-1.35,112.68-56.17s.07-.04.1-.07l-39.9-42.89h0Zm6.1,17.36l-4.97-4.93-31.99,36.96-1.34-1.13,33.24-38.39,6.31,6.27-1.25,1.23Zm21.3,22.56l-17.77-18.67,1.29-1.19,17.77,18.67-1.29,1.19Zm-27.4-39.92s-.03.03-.04.04l-78.06,100.12s-.05.07-.06.1c-.01.03-.03.06-.04.09,0,.01,0,.03-.01.04,0,.03-.01.06-.02.09v.08s.07.02.11.02l.65-.1,4.62-1.35,112.68-56.17s.07-.04.1-.07l-39.9-42.89h0Zm6.1,17.36l-4.97-4.93-31.99,36.96-1.34-1.13,33.24-38.39,6.31,6.27-1.25,1.23Zm21.3,22.56l-17.77-18.67,1.29-1.19,17.77,18.67-1.29,1.19Zm-27.4-39.92s-.03.03-.04.04l-78.06,100.12s-.05.07-.06.1c-.01.03-.03.06-.04.09,0,.01,0,.03-.01.04,0,.03-.01.06-.02.09v.08s.07.02.11.02l.65-.1,4.62-1.35,112.68-56.17s.07-.04.1-.07l-39.9-42.89h0Zm6.1,17.36l-4.97-4.93-31.99,36.96-1.34-1.13,33.24-38.39,6.31,6.27-1.25,1.23Zm21.3,22.56l-17.77-18.67,1.29-1.19,17.77,18.67-1.29,1.19Zm-27.4-39.92s-.03.03-.04.04l-78.06,100.12s-.05.07-.06.1c-.01.03-.03.06-.04.09,0,.01,0,.03-.01.04,0,.03-.01.06-.02.09v.08s.07.02.11.02l.65-.1,4.62-1.35,112.68-56.17s.07-.04.1-.07l-39.9-42.89h0Zm6.1,17.36l-4.97-4.93-31.99,36.96-1.34-1.13,33.24-38.39,6.31,6.27-1.25,1.23Zm21.3,22.56l-17.77-18.67,1.29-1.19,17.77,18.67-1.29,1.19Zm-27.4-39.92s-.03.03-.04.04l-78.06,100.12s-.05.07-.06.1c-.01.03-.03.06-.04.09,0,.01,0,.03-.01.04,0,.03-.01.06-.02.09v.08s.07.02.11.02l.65-.1,4.62-1.35,112.68-56.17s.07-.04.1-.07l-39.9-42.89h0Zm6.1,17.36l-4.97-4.93-31.99,36.96-1.34-1.13,33.24-38.39,6.31,6.27-1.25,1.23Zm21.3,22.56l-17.77-18.67,1.29-1.19,17.77,18.67-1.29,1.19Zm-27.4-39.92s-.03.03-.04.04l-78.06,100.12s-.05.07-.06.1c-.01.03-.03.06-.04.09,0,.01,0,.03-.01.04,0,.03-.01.06-.02.09v.08s.07.02.11.02l.65-.1,4.62-1.35,112.68-56.17s.07-.04.1-.07l-39.9-42.89h0Zm6.1,17.36l-4.97-4.93-31.99,36.96-1.34-1.13,33.24-38.39,6.31,6.27-1.25,1.23Zm21.3,22.56l-17.77-18.67,1.29-1.19,17.77,18.67-1.29,1.19Z"/><path class="cls-4" d="m479.21,288.24c-.02-.16-.04-.32-.11-.49h0c-.07-.19-.18-.38-.4-.61l-.16-.14c-.07-.07-.16-.14-.25-.2-.14-.12-.29-.21-.41-.24-.42-.19-.85-.26-1.29-.19l-118.77,12.91c-.29.03-.61.11-.8.22-.44.19-.82.56-1.09,1.07l-71.9,147.02c-.14.34-.2.62-.2.98,0,.12,0,.33.05.44.03.23.11.44.22.65l.08.14c.05.09.12.18.21.3.41.44.95.71,1.38.73.25.07.46.07.52.04.14,0,.32,0,.58-.09l6.56-1.91,151.89-44.18c.19-.05.36-.12.52-.22.51-.29.9-.77,1.08-1.39l.03-.1,31.28-110.27.97-3.4c.06-.2.08-.39.09-.54,0-.2-.01-.44-.06-.54h0Zm-3.46,7.88l-30.2,106.45-.04.13c-.09.3-.31.52-.6.61l-1.52.44-142.73,41.5-9.36,2.73-4.62,1.35-.65.1s-.08,0-.11-.02c-.21-.04-.37-.17-.43-.25-.03-.04-.06-.07-.08-.11-.04-.07-.08-.16-.1-.26l-.03-.26s0-.15.09-.34l1.46-2.97,70.17-143.51.23-.47s.03-.05.05-.07c.1-.16.22-.28.39-.36.05-.03.18-.07.3-.07l117.17-12.74,1.73-.19c.12-.02.26.01.44.06l.38.32.07.12.08.27s.01.17-.01.36v.03h0s-.65,2.28-.65,2.28l-1.4,4.9h0Z"/><path class="cls-4" d="m267.73,198.06l-1.46-1.87s-.05.01-.07.03c-.07.03-.12.07-.18.13-.04.04-.08.09-.1.14-.01.01-.03.03-.03.05-.03.07-.05.13-.07.21l-18.85,123.43,57.95-5.79-37.19-116.34h0Zm-3.42,27.5l1.75.16-7.26,82.91,24.72-2.01.14,1.74-26.79,2.18,7.45-84.96h0Zm3.42-27.5l-1.46-1.87s-.05.01-.07.03c-.07.03-.12.07-.18.13-.04.04-.08.09-.1.14-.01.01-.03.03-.03.05-.03.07-.05.13-.07.21l-18.85,123.43,57.95-5.79-37.19-116.34h0Zm-3.42,27.5l1.75.16-7.26,82.91,24.72-2.01.14,1.74-26.79,2.18,7.45-84.96h0Zm-17.56,96.39s0,.04.01.06l34.37,121.73s.03.08.05.11c.02.04.04.08.07.11.03.03.05.06.08.08l.03.03h0s.05-.04.07-.07l.31-.57,1.67-4.43,21.98-122.81s.01-.08.01-.12l-58.67,5.87h0Zm19.81,54.39l-11.2-49.29,8.86-1.24.24,1.73-6.97.98,10.79,47.45-1.72.38h0Zm3.18-49.27l-.2-1.74,25.77-2.87.2,1.74-25.77,2.87Zm-2.02-129.02l-1.46-1.87s-.05.01-.08.03c-.07.03-.12.07-.18.13-.04.04-.07.09-.1.14-.01.01-.03.03-.03.05-.04.07-.05.13-.07.21l-18.85,123.43,57.95-5.79-37.19-116.34h0Zm-3.42,27.5l1.75.16-7.27,82.91,24.72-2.01.14,1.74-26.79,2.18,7.45-84.96h0Zm-17.56,96.39s0,.04.01.06l34.37,121.73s.03.08.05.11c.02.04.04.08.07.11.03.03.05.06.08.08l.03.03h0s.06-.04.08-.07l.31-.57,1.68-4.43,21.98-122.81s.01-.08.01-.12l-58.67,5.87h0Zm19.81,54.39l-11.2-49.29,8.86-1.24.25,1.73-6.97.98,10.78,47.45-1.72.38h0Zm3.18-49.27l-.2-1.74,25.77-2.87.2,1.74-25.77,2.87Zm-2.02-129.02l-1.46-1.87s-.05.01-.07.03c-.07.03-.12.07-.18.13-.04.04-.08.09-.1.14-.01.01-.03.03-.03.05-.03.07-.05.13-.07.21l-18.85,123.43,57.95-5.79-37.19-116.34h0Zm-3.42,27.5l1.75.16-7.26,82.91,24.72-2.01.14,1.74-26.79,2.18,7.45-84.96h0Zm-17.56,96.39s0,.04.01.06l34.37,121.73s.03.08.05.11c.02.04.04.08.07.11.03.03.05.06.08.08l.03.03h0s.05-.04.08-.07l.31-.57,1.67-4.43,21.98-122.81s.01-.08.01-.12l-58.67,5.87h0Zm19.81,54.39l-11.2-49.29,8.86-1.24.24,1.73-6.97.98,10.79,47.45-1.72.38h0Zm3.18-49.27l-.2-1.74,25.77-2.87.2,1.74-25.77,2.87Zm-2.02-129.02l-1.46-1.87s-.05.01-.08.03c-.07.03-.12.07-.18.13-.04.04-.07.09-.1.14-.01.01-.03.03-.03.05-.03.07-.05.13-.07.21l-18.85,123.43,57.95-5.79-37.19-116.34h0Zm-3.42,27.5l1.75.16-7.27,82.91,24.72-2.01.14,1.74-26.79,2.18,7.45-84.96h0Zm-17.56,96.39s0,.04.01.06l34.37,121.73s.03.08.05.11c.02.04.04.08.07.11.03.03.05.06.08.08l.03.03h0s.05-.04.07-.07l.31-.57,1.68-4.43,21.98-122.81s.01-.08.01-.12l-58.67,5.87h0Zm19.81,54.39l-11.2-49.29,8.86-1.24.25,1.73-6.97.98,10.79,47.45-1.72.38h0Zm3.18-49.27l-.2-1.74,25.77-2.87.2,1.74-25.77,2.87Zm-2.02-129.02l-1.46-1.87s-.05.01-.08.03c-.07.03-.12.07-.18.13-.04.04-.07.09-.1.14-.01.01-.03.03-.03.05-.03.07-.05.13-.07.21l-18.85,123.43,57.95-5.79-37.19-116.34h0Zm-3.42,27.5l1.75.16-7.26,82.91,24.72-2.01.14,1.74-26.79,2.18,7.45-84.96h0Zm-17.56,96.39s0,.04.01.06l34.37,121.73s.03.08.05.11c.02.04.04.08.07.11.03.03.06.06.08.08l.03.03h0s.05-.04.08-.07l.31-.57,1.67-4.43,21.98-122.81s.01-.08.01-.12l-58.67,5.87h0Zm19.81,54.39l-11.2-49.29,8.86-1.24.24,1.73-6.97.98,10.79,47.45-1.72.38h0Zm3.18-49.27l-.2-1.74,25.77-2.87.2,1.74-25.77,2.87Zm-2.02-129.02l-1.46-1.87s-.05.01-.08.03c-.07.03-.12.07-.18.13-.04.04-.07.09-.1.14-.01.01-.03.03-.03.05-.03.07-.05.13-.07.21l-18.85,123.43,57.95-5.79-37.19-116.34h0Zm-3.42,27.5l1.75.16-7.27,82.91,24.72-2.01.14,1.74-26.79,2.18,7.45-84.96h0Zm-17.56,96.39s0,.04.01.06l34.37,121.73s.03.08.05.11c.02.04.04.08.07.11.03.03.05.06.08.08l.03.03h0s.05-.04.07-.07l.31-.57,1.67-4.43,21.98-122.81s.01-.08.01-.12l-58.67,5.87h0Zm19.81,54.39l-11.2-49.29,8.86-1.24.24,1.73-6.97.98,10.79,47.45-1.72.38h0Zm3.18-49.27l-.2-1.74,25.77-2.87.2,1.74-25.77,2.87Zm-2.02-129.02l-1.46-1.87s-.06.01-.08.03c-.07.03-.12.07-.18.13-.04.04-.07.09-.1.14-.01.01-.03.03-.03.05-.03.07-.05.13-.07.21l-18.85,123.43,57.95-5.79-37.19-116.34h0Zm-3.42,27.5l1.75.16-7.27,82.91,24.72-2.01.14,1.74-26.79,2.18,7.45-84.96h0Zm-17.56,96.39s0,.04.01.06l34.37,121.73s.03.08.05.11c.02.04.04.08.07.11.03.03.05.06.08.08l.03.03h0s.05-.04.08-.07l.31-.57,1.68-4.43,21.98-122.81s.01-.08.01-.12l-58.67,5.87h0Zm19.81,54.39l-11.2-49.29,8.86-1.24.24,1.73-6.97.98,10.78,47.45-1.72.38h0Zm3.18-49.27l-.2-1.74,25.77-2.87.2,1.74-25.77,2.87Zm-2.02-129.02l-1.46-1.87s-.05.01-.07.03c-.07.03-.12.07-.18.13-.04.04-.08.09-.1.14-.01.01-.03.03-.03.05-.03.07-.06.13-.07.21l-18.85,123.43,57.95-5.79-37.19-116.34h0Zm-3.42,27.5l1.75.16-7.26,82.91,24.72-2.01.14,1.74-26.79,2.18,7.45-84.96h0Zm75.7,64.53c-.05-.23-.15-.45-.3-.65l-.02-.03-.07-.09-69.4-89.25-3.39-4.36c-.07-.09-.15-.18-.22-.23-.14-.09-.27-.2-.42-.24-.12-.07-.23-.12-.38-.13h-.05c-.1-.01-.23-.03-.32-.02l-.03.02c-.12,0-.25.03-.39.09-.1.01-.18.05-.27.11-.11.06-.21.13-.31.21h0c-.12.1-.22.22-.3.36l-.03.07-60.71,101.7c-.1.16-.18.38-.21.55-.07.34,0,.69.15,1.02l.09.17,75.96,144.74s.04.07.06.1c.11.16.23.31.36.41.1.06.21.15.35.2.14.07.29.11.43.13.12.02.22.03.35.03.41-.04.78-.21,1.06-.51.08-.07.14-.13.18-.22.02-.03.04-.06.06-.09h0c.04-.07.08-.14.1-.21v-.02l.1-.28.29-.76,3.4-9.05,53.64-142.46.16-.42c.11-.29.14-.58.07-.87h0Zm-73.96-64.38l-7.27,82.91,24.72-2.01.14,1.74-26.79,2.18,7.45-84.96,1.75.15h0Zm-35.28,44.37l3.51,32.29-16.86-8.21,36.34-68.97-23,44.89h0Zm17.21-.74l-6.65,22.81-1.69-.48,6.65-22.81,1.69.49Zm-29.66,45.87l.87-1.51,20.56,11.64,5.51,19.24-1.7.48-5.31-18.57-19.94-11.29Zm51.42,11.87l-.2-1.74,25.77-2.87.2,1.73-25.77,2.87Zm37.39-10.58l-20.3,113.44-3.4,9.06,21.98-122.81s.01-.08.01-.12l-58.67,5.87s0,.04.01.06l34.37,121.73s.03.08.05.11l-3.98-7.59-32.13-113.79c-.07-.28-.1-.57-.08-.86l-39.18-21.4-.65-1.25c-.12-.22-.12-.49.01-.71l.17-.28,39.93,21.81,18.19-119.16,2.45-4.09c-.03.07-.05.13-.07.21l-18.85,123.43,57.95-5.79-37.19-116.34,3.13,4.03,35.69,111.64,32.49-23.97.09.11c.19.26.24.56.13.83l-.56,1.48-31.59,23.29c.08.34.1.69.03,1.03h-.02Zm-38.86,59.46l-1.72.38-11.2-49.29,8.86-1.24.24,1.73-6.97.97,10.79,47.45h0Zm62.14-88.14l-16.31,12.34-.24-34.02,16.55,21.68Zm-62.7-89.77l-1.46-1.87s-.05.01-.08.03c-.07.03-.12.07-.18.13-.04.04-.07.09-.1.14-.01.01-.03.03-.03.05-.03.07-.05.13-.07.21l-18.85,123.43,57.95-5.79-37.19-116.34h0Zm-3.42,27.5l1.75.16-7.27,82.91,24.72-2.01.14,1.74-26.79,2.18,7.45-84.96h0Zm-17.56,96.39s0,.04.01.06l34.37,121.73s.03.08.05.11c.02.04.04.08.07.11.03.03.05.06.08.08l.03.03h0s.05-.04.07-.07l.31-.57,1.68-4.43,21.98-122.81s.01-.08.01-.12l-58.67,5.87h0Zm19.81,54.39l-11.2-49.29,8.86-1.24.24,1.73-6.97.98,10.79,47.45-1.72.38h0Zm3.18-49.27l-.2-1.74,25.77-2.87.2,1.74-25.77,2.87Zm-2.02-129.02l-1.46-1.87s-.05.01-.08.03c-.07.03-.12.07-.18.13-.04.04-.07.09-.1.14-.01.01-.03.03-.03.05-.03.07-.05.13-.07.21l-18.85,123.43,57.95-5.79-37.19-116.34h0Zm-3.42,27.5l1.75.16-7.26,82.91,24.72-2.01.14,1.74-26.79,2.18,7.45-84.96h0Zm-17.56,96.39s0,.04.01.06l34.37,121.73s.03.08.05.11c.02.04.04.08.07.11.03.03.06.06.08.08l.03.03h0s.05-.04.07-.07l.31-.57,1.67-4.43,21.98-122.81s.01-.08.01-.12l-58.67,5.87h0Zm19.81,54.39l-11.2-49.29,8.86-1.24.24,1.73-6.97.98,10.78,47.45-1.72.38h0Zm3.18-49.27l-.2-1.74,25.77-2.87.2,1.74-25.77,2.87Zm-2.02-129.02l-1.46-1.87s-.05.01-.08.03c-.07.03-.12.07-.18.13-.04.04-.07.09-.1.14-.01.01-.03.03-.03.05-.03.07-.05.13-.07.21l-18.85,123.43,57.95-5.79-37.19-116.34h0Zm-3.42,27.5l1.75.16-7.26,82.91,24.72-2.01.14,1.74-26.79,2.18,7.45-84.96h0Zm-17.56,96.39s0,.04.01.06l34.37,121.73s.03.08.05.11c.02.04.04.08.07.11.03.03.05.06.08.08l.03.03h0s.05-.04.08-.07l.31-.57,1.68-4.43,21.98-122.81s.01-.08.01-.12l-58.67,5.87h0Zm19.81,54.39l-11.2-49.29,8.86-1.24.24,1.73-6.97.98,10.79,47.45-1.72.38h0Zm3.18-49.27l-.2-1.74,25.77-2.87.2,1.74-25.77,2.87Zm-2.02-129.02l-1.46-1.87s-.06.01-.08.03c-.07.03-.12.07-.18.13-.04.04-.08.09-.1.14-.01.01-.03.03-.03.05-.03.07-.05.13-.07.21l-18.85,123.43,57.95-5.79-37.19-116.34h0Zm-3.42,27.5l1.75.16-7.26,82.91,24.72-2.01.14,1.74-26.79,2.18,7.45-84.96h0Zm-17.56,96.39s0,.04.01.06l34.37,121.73s.03.08.05.11c.02.04.04.08.07.11.03.03.05.06.08.08l.03.03h0s.05-.04.08-.07l.31-.57,1.67-4.43,21.98-122.81s.01-.08.01-.12l-58.67,5.87h0Zm19.81,54.39l-11.2-49.29,8.86-1.24.24,1.73-6.97.98,10.79,47.45-1.72.38h0Zm3.18-49.27l-.2-1.74,25.77-2.87.2,1.74-25.77,2.87Zm-2.02-129.02l-1.46-1.87s-.05.01-.07.03c-.07.03-.12.07-.18.13-.04.04-.08.09-.1.14-.01.01-.03.03-.03.05-.03.07-.06.13-.07.21l-18.85,123.43,57.95-5.79-37.19-116.34h0Zm-3.42,27.5l1.75.16-7.26,82.91,24.72-2.01.14,1.74-26.79,2.18,7.45-84.96h0Zm-17.56,96.39s0,.04.01.06l34.37,121.73s.03.08.05.11c.02.04.04.08.07.11.03.03.05.06.08.08l.03.03h0s.05-.04.07-.07l.31-.57,1.67-4.43,21.98-122.81s.01-.08.01-.12l-58.67,5.87h0Zm19.81,54.39l-11.2-49.29,8.86-1.24.24,1.73-6.97.98,10.78,47.45-1.72.38h0Zm3.18-49.27l-.2-1.74,25.77-2.87.2,1.74-25.77,2.87Zm-2.02-129.02l-1.46-1.87s-.05.01-.08.03c-.07.03-.12.07-.18.13-.04.04-.07.09-.1.14-.01.01-.03.03-.03.05-.03.07-.05.13-.07.21l-18.85,123.43,57.95-5.79-37.19-116.34h0Zm-3.42,27.5l1.75.16-7.27,82.91,24.72-2.01.14,1.74-26.79,2.18,7.45-84.96h0Zm-17.56,96.39s0,.04.01.06l34.37,121.73s.03.08.05.11c.02.04.04.08.07.11.03.03.05.06.08.08l.03.03h0s.06-.04.08-.07l.31-.57,1.67-4.43,21.98-122.81s.01-.08.01-.12l-58.67,5.87h0Zm19.81,54.39l-11.2-49.29,8.86-1.24.24,1.73-6.97.98,10.79,47.45-1.72.38h0Zm3.18-49.27l-.2-1.74,25.77-2.87.2,1.74-25.77,2.87Zm-2.02-129.02l-1.46-1.87s-.05.01-.07.03c-.07.03-.12.07-.18.13-.04.04-.08.09-.1.14-.01.01-.03.03-.03.05-.03.07-.05.13-.07.21l-18.85,123.43,57.95-5.79-37.19-116.34h0Zm-3.42,27.5l1.75.16-7.26,82.91,24.72-2.01.14,1.74-26.79,2.18,7.45-84.96h0Zm3.42-27.5l-1.46-1.87s-.05.01-.07.03c-.07.03-.12.07-.18.13-.04.04-.08.09-.1.14-.01.01-.03.03-.03.05-.03.07-.05.13-.07.21l-18.85,123.43,57.95-5.79-37.19-116.34h0Zm-3.42,27.5l1.75.16-7.26,82.91,24.72-2.01.14,1.74-26.79,2.18,7.45-84.96h0Zm3.42-27.5l-1.46-1.87s-.05.01-.07.03c-.07.03-.12.07-.18.13-.04.04-.08.09-.1.14-.01.01-.03.03-.03.05-.03.07-.05.13-.07.21l-18.85,123.43,57.95-5.79-37.19-116.34h0Zm-3.42,27.5l1.75.16-7.26,82.91,24.72-2.01.14,1.74-26.79,2.18,7.45-84.96h0Z"/><path class="cls-4" d="m340.28,289l-.07-.09-70.63-90.81-2.17-2.78c-.12-.16-.27-.3-.39-.39-.16-.11-.36-.25-.47-.27-.14-.08-.27-.15-.44-.21-.18-.05-.41-.08-.75-.04l-.22.04c-.11.02-.21.05-.31.08-.18.04-.33.1-.44.18-.4.23-.71.52-.92.92l-60.71,101.68c-.15.24-.26.55-.3.77-.1.46-.03.98.21,1.5l76.08,144.96c.2.31.39.54.67.75.1.07.27.2.38.21.21.11.43.18.66.21.06,0,.1.01.15.02.01,0,.02,0,.03,0,.1,0,.2.01.34,0,.61-.06,1.16-.33,1.42-.65.2-.15.34-.32.35-.39.07-.11.18-.25.27-.51l2.39-6.33,55.19-146.62c.07-.17.12-.36.14-.55.07-.57-.1-1.17-.48-1.69h0Zm-53.44,140.96l-3.4,9.06-1.68,4.43-.31.57s-.05.05-.08.07h0c-.16.15-.35.2-.46.2-.05,0-.09,0-.14,0-.08,0-.18-.03-.28-.07l-.23-.13s-.12-.09-.23-.28l-1.53-2.91-74.27-141.52-.24-.45s-.03-.06-.04-.09c-.07-.18-.09-.34-.05-.52,0-.07.06-.19.12-.28l59.87-100.31.89-1.49c.05-.11.17-.21.31-.32l.48-.11.14.02.26.1s.15.09.28.22l.02.02,1.46,1.88,3.13,4.03,68.18,87.67.09.11c.19.26.24.56.13.83l-.56,1.48-51.87,137.77h0Z"/><path class="cls-4" d="m205.15,298.99l.65,1.25-1.57-.86-.44-.24.16-.3.69-1.22.7.38-.17.28c-.13.22-.14.49-.01.71Z"/><path class="cls-4" d="m341.27,290.3l-.51.38-.78.57-.19.15-1.08.79.56-1.48c.11-.27.06-.58-.13-.83l-.09-.11.45-.33.14-.1.59-.43.07.09.99,1.31Z"/><path class="cls-4" d="m320.5,232.68l2.72-4.78.48,5.47c.1,1.2.8,2.27,1.87,2.86l4.84,2.69-5.54.47c-1.21.1-2.29.79-2.89,1.84l-2.72,4.78-.48-5.47c-.1-1.2-.8-2.27-1.87-2.86l-4.84-2.69,5.54-.47c1.21-.1,2.29-.79,2.89-1.84Z"/><path class="cls-4" d="m163.44,373.33h-1.3s-.01.05,0,.06c-.01.05,0,.09,0,.13,0,.03,0,.05.02.07.02.05.05.09.09.13l48.7,48.77,16.48-27.06-63.98-22.1Zm46.46,41.7l-35.34-31.17.65-.71,34.49,30.42,7.24-11.4.82.51-7.85,12.35Zm-46.46-41.7h-1.3s-.01.05,0,.06c-.01.05,0,.09,0,.13,0,.03,0,.05.02.07.02.05.05.09.09.13l48.7,48.77,16.48-27.06-63.98-22.1Zm46.46,41.7l-35.34-31.17.65-.71,34.49,30.42,7.24-11.4.82.51-7.85,12.35Zm-46.46-41.7h-1.3s-.01.05,0,.06c-.01.05,0,.09,0,.13,0,.03,0,.05.02.07.02.05.05.09.09.13l48.7,48.77,16.48-27.06-63.98-22.1Zm46.46,41.7l-35.34-31.17.65-.71,34.49,30.42,7.24-11.4.82.51-7.85,12.35Zm-46.46-41.7h-1.3s-.01.05,0,.06c-.01.05,0,.09,0,.13,0,.03,0,.05.02.07.02.05.05.09.09.13l48.7,48.77,16.48-27.06-63.98-22.1Zm46.46,41.7l-35.34-31.17.65-.71,34.49,30.42,7.24-11.4.82.51-7.85,12.35Zm-46.46-41.7h-1.3s-.01.05,0,.06c-.01.05,0,.09,0,.13,0,.03,0,.05.02.07.02.05.05.09.09.13l48.7,48.77,16.48-27.06-63.98-22.1Zm46.46,41.7l-35.34-31.17.65-.71,34.49,30.42,7.24-11.4.82.51-7.85,12.35Zm-46.46-41.7h-1.3s-.01.05,0,.06c-.01.05,0,.09,0,.13,0,.03,0,.05.02.07.02.05.05.09.09.13l48.7,48.77,16.48-27.06-63.98-22.1Zm46.46,41.7l-35.34-31.17.65-.71,34.49,30.42,7.24-11.4.82.51-7.85,12.35Zm-46.46-41.7h-1.3s-.01.05,0,.06c-.01.05,0,.09,0,.13,0,.03,0,.05.02.07.02.05.05.09.09.13l48.7,48.77,16.48-27.06-63.98-22.1Zm46.46,41.7l-35.34-31.17.65-.71,34.49,30.42,7.24-11.4.82.51-7.85,12.35Zm67.86,33.14c0-.06-.01-.11-.04-.15,0-.02-.01-.04-.02-.06-.01-.04-.03-.07-.05-.11h0s-.1-.15-.1-.15l-.23-.36-2.89-4.44h-.01s-45.74-70.16-45.74-70.16l-.14-.21c-.1-.15-.22-.26-.37-.32-.12-.05-.24-.08-.38-.08h-.07l-62.5.79h-.03l-3.05.04c-.06,0-.12,0-.17.01-.09.03-.18.06-.24.11-.07.03-.12.07-.18.12l-.02.02s-.09.09-.12.14v.02c-.04.05-.07.12-.09.2-.03.05-.04.1-.04.15,0,.07-.01.14,0,.21,0,.09.02.17.05.25l.02.04,25.27,59.8c.04.09.1.2.17.27.13.14.31.23.5.27h.1s0,.02.01.02l89.36,14.61h.05s0,0,.01,0c.11,0,.21,0,.3-.03.05-.01.14-.03.2-.08.07-.04.14-.09.2-.14.05-.05.09-.09.12-.15.12-.19.17-.4.12-.63Zm-49.57-75.43l.48.66v.07l-.03,21.38c.18.07.34.18.47.32l43.79,46.13,2.91,4.45-47.39-49.92s-.03-.03-.06-.04l-16.68,27.39s.02.01.03.02l65.44,25.1s.05.02.08.02l-4.68-.77-61.2-23.47c-.15-.05-.29-.14-.4-.24l-22.41,9.98-.77-.13c-.14-.02-.26-.11-.31-.24l-.07-.16,22.83-10.16-47.03-47.09-1.03-2.43s.05.09.09.13l48.7,48.77,16.48-27.06-63.98-22.1,2.81-.04,61.41,21.21.03-21.99h.07c.18,0,.33.08.42.22h0Zm14.58,58.85l-.4.87-25.61-11.34,2.36-4.26.85.46-1.86,3.34,24.65,10.92h0Zm-22.09-17.2l7.2-12.14.84.48-7.2,12.13-.84-.48Zm-21.73,18.03l11.94-5.1,10.37,3.93-.35.89-10-3.79-11.58,4.94-.38-.88Zm-.07-10.27l-9.19,4.61-18.74-38.46,12.41,24.75,15.52,9.09Zm-10.96-16.23l.77-.58,7.97,10.39-.78.57-7.96-10.38Zm-13.35-22.06l.65-.71,34.49,30.42,7.24-11.4.82.51-7.85,12.35-35.34-31.17Zm49.56,2.91l-15.21-11.09,15.09-.06.12,11.15Zm-60.68-13.44h-1.3s-.01.05,0,.06c-.01.05,0,.09,0,.13,0,.03,0,.05.02.07.02.05.05.1.09.14l48.7,48.77,16.48-27.06-63.98-22.1Zm46.46,41.7l-35.34-31.17.65-.71,34.49,30.42,7.24-11.39.82.51-7.85,12.35Zm-46.46-41.7h-1.3s-.01.05,0,.06c-.01.05,0,.09,0,.13,0,.03,0,.05.02.07.02.05.05.1.09.14l48.7,48.77,16.48-27.06-63.98-22.1Zm46.46,41.7l-35.34-31.17.65-.71,34.49,30.42,7.24-11.39.82.51-7.85,12.35Zm-46.46-41.7h-1.3s-.01.05,0,.06c-.01.05,0,.09,0,.13,0,.03,0,.05.02.07.02.05.05.1.09.14l48.7,48.77,16.48-27.06-63.98-22.1Zm46.46,41.7l-35.34-31.17.65-.71,34.49,30.42,7.24-11.39.82.51-7.85,12.35Zm-46.46-41.7h-1.3s-.01.05,0,.06c-.01.05,0,.09,0,.13,0,.03,0,.05.02.07.02.05.05.1.09.14l48.7,48.77,16.48-27.06-63.98-22.1Zm46.46,41.7l-35.34-31.17.65-.71,34.49,30.42,7.24-11.39.82.51-7.85,12.35Zm-46.46-41.7h-1.3s-.01.05,0,.06c-.01.05,0,.09,0,.13,0,.03,0,.05.02.07.02.05.05.1.09.14l48.7,48.77,16.48-27.06-63.98-22.1Zm46.46,41.7l-35.34-31.17.65-.71,34.49,30.42,7.24-11.39.82.51-7.85,12.35Zm-46.46-41.7h-1.3s-.01.05,0,.06c-.01.05,0,.09,0,.13,0,.03,0,.05.02.07.02.05.05.1.09.14l48.7,48.77,16.48-27.06-63.98-22.1Zm46.46,41.7l-35.34-31.17.65-.71,34.49,30.42,7.24-11.39.82.51-7.85,12.35Z"/><path class="cls-4" d="m278.15,448.18c0-.13-.03-.25-.05-.28-.02-.07-.05-.16-.14-.29l-2.04-3.11-47.07-72.17c-.06-.09-.12-.17-.2-.24-.23-.22-.55-.34-.91-.35h-.06l-63.64.8-1.94.03c-.11,0-.22.02-.3.04-.11.03-.24.07-.28.11-.08.03-.16.07-.24.13-.09.06-.18.15-.27.31l-.05.11c-.03.05-.05.11-.07.16-.04.09-.06.18-.06.25-.03.25,0,.48.1.7l25.27,59.79c.06.15.16.3.24.38.17.2.42.34.74.4l89.5,14.63c.2.02.37,0,.56-.04.06-.02.17-.05.22-.1.11-.05.22-.13.31-.22.02-.02.04-.04.06-.06.04-.05.08-.09.12-.15.18-.28.24-.61.18-.83h.01Zm-90.85-14.01c-.1-.03-.18-.07-.24-.15-.03-.03-.06-.09-.09-.14l-24.95-59-.36-.85c-.03-.06-.03-.15-.03-.24l.11-.24.05-.05.14-.08s.09-.04.19-.05h1.32s2.81-.05,2.81-.05l61.44-.77h.07c.18,0,.33.08.42.22l.48.66v.07l44.22,67.83,2.91,4.45,1.42,2.19.15.32s0,.03,0,.05c.01.12-.03.22-.06.27-.01.03-.03.04-.05.06-.03.03-.08.07-.13.09l-.13.06s-.08.01-.2,0l-1.8-.3-87.38-14.28-.27-.05s-.03,0-.05-.01h0,0Z"/><path class="cls-4" d="m188.53,433.82l-.91.4-.24.11-.08-.17h0l-.32-.7.4-.18.07.16c.06.13.18.22.31.24l.77.13Z"/><path class="cls-4" d="m228.66,371.74v1.67l-.48-.66c-.09-.14-.24-.22-.42-.22h-.08v-.79h.97Z"/><path class="cls-4" d="m155.33,392.22l3.79-6.03-6.58,2.86c-.98.43-2.11.35-3.02-.21l-6.1-3.75,2.9,6.5c.43.97.35,2.09-.22,2.98l-3.79,6.03,6.57-2.86c.99-.42,2.12-.35,3.02.21l6.1,3.75-2.9-6.49c-.44-.98-.35-2.09.22-2.99Zm-2.9,4.92c-1.18-.73-2.65-.83-3.92-.28l-3.7,1.62,2.15-3.4c.74-1.17.84-2.62.28-3.87l-1.64-3.66,3.44,2.12c1.18.73,2.66.83,3.92.27l3.7-1.62-2.14,3.4c-.74,1.17-.85,2.62-.28,3.88l1.64,3.66-3.44-2.12Z"/><path class="cls-4" d="m196.2,361.8l-1.23-2.76,2.59,1.59c.57.35,1.27.4,1.89.13l2.79-1.22-1.61,2.56c-.35.56-.4,1.26-.14,1.86l1.23,2.76-2.59-1.59c-.57-.35-1.27-.4-1.89-.13l-2.79,1.22,1.61-2.56c.35-.56.4-1.26.14-1.86Z"/><path class="cls-4" d="m508.39,248.3l-4.93-4.53-6.57,1.45,2.83-6.03-3.42-5.72,6.69.8,4.45-4.98,1.29,6.52,6.18,2.64-5.88,3.24-.64,6.62Z"/></g><path class="cls-4" d="m298.67,498.67c-139.16,0-252.37-111.85-252.37-249.33S159.51,0,298.67,0s252.37,111.85,252.37,249.33-113.21,249.33-252.37,249.33h0Zm0-495.38C161.35,3.29,49.63,113.67,49.63,249.33s111.72,246.04,249.04,246.04,249.04-110.38,249.04-246.04S436,3.29,298.67,3.29Z"/><path class="cls-4" d="m298.67,465c-120.37,0-218.3-96.75-218.3-215.67S178.31,33.67,298.67,33.67s218.3,96.75,218.3,215.67-97.93,215.67-218.3,215.67h0Zm0-421.46c-114.86,0-208.31,92.32-208.31,205.8s93.45,205.8,208.31,205.8,208.31-92.32,208.31-205.8S413.53,43.54,298.67,43.54h0Z"/><path class="cls-4" d="m318.86,81.73l-9.13-5.72-9.93,4.19,2.68-10.34-7.11-8.04,10.79-.68,5.55-9.15,3.98,9.92,10.53,2.38-8.32,6.81.96,10.63Z"/><path class="cls-4" d="m124.86,262.37c2.31,0,4.18,1.85,4.18,4.13s-1.87,4.13-4.18,4.13-4.18-1.85-4.18-4.13,1.87-4.13,4.18-4.13Zm10.68,38.77l-8.25,6.13.09-10.2-8.46-5.85,9.85-3.07,3.02-9.75,6,8.3,10.32-.18-6.14,8.2,3.36,9.65-9.79-3.23Zm15.92,24.65c-2.51,0-4.53-2-4.53-4.48s2.03-4.48,4.53-4.48,4.54,2,4.54,4.48-2.03,4.48-4.54,4.48Z"/><path class="cls-4" d="m486.48,268.07c0,3.32-2.73,6.02-6.09,6.02s-6.09-2.7-6.09-6.02,2.73-6.02,6.09-6.02,6.09,2.7,6.09,6.02Z"/><path class="cls-4" d="m357.92,76.16c0,3.08-2.53,5.58-5.64,5.58s-5.64-2.5-5.64-5.58,2.53-5.58,5.64-5.58,5.64,2.5,5.64,5.58Z"/><path class="cls-4" d="m265.28,71.76c0,2.7-2.22,4.9-4.96,4.9s-4.96-2.19-4.96-4.9,2.22-4.9,4.96-4.9,4.96,2.19,4.96,4.9Z"/><path class="cls-4" d="m143.33,199.4c0,4.01-3.29,7.26-7.35,7.26s-7.35-3.25-7.35-7.26,3.29-7.26,7.35-7.26,7.35,3.25,7.35,7.26Z"/><path class="cls-4" d="m300.34,1.64h-3.33v36.96h3.33V1.64Z"/><path class="cls-4" d="m300.34,460.07h-3.33v36.95h3.33v-36.95Z"/><path class="cls-4" d="m256.78,5.12l-3.28.57,6.5,36.4,3.28-.57-6.5-36.4Z"/><path class="cls-4" d="m337.35,456.59l-3.28.57,6.5,36.39,3.28-.57-6.5-36.39Z"/><path class="cls-4" d="m214.49,16.02l-3.13,1.12,12.79,34.73,3.13-1.12-12.79-34.73Z"/><path class="cls-4" d="m373.2,446.79l-3.13,1.12,12.8,34.73,3.13-1.12-12.8-34.73Z"/><path class="cls-4" d="m174.76,34.01l-2.88,1.64,18.71,32.01,2.88-1.64-18.71-32.01Z"/><path class="cls-4" d="m406.77,431l-2.88,1.65,18.71,32.01,2.88-1.64-18.71-32.01Z"/><path class="cls-4" d="m138.8,58.53l-2.55,2.11,24.05,28.31,2.55-2.11-24.05-28.31Z"/><path class="cls-4" d="m437.05,409.71l-2.55,2.11,24.05,28.32,2.55-2.11-24.05-28.32Z"/><path class="cls-4" d="m107.69,88.86l-2.14,2.52,28.66,23.76,2.14-2.52-28.66-23.76Z"/><path class="cls-4" d="m463.14,383.54l-2.14,2.52,28.66,23.76,2.14-2.52-28.66-23.76Z"/><path class="cls-4" d="m82.38,124.06l-1.66,2.85,32.4,18.48,1.67-2.85-32.4-18.48Z"/><path class="cls-4" d="m484.23,353.27l-1.66,2.85,32.4,18.48,1.66-2.85-32.4-18.48Z"/><path class="cls-4" d="m63.65,163.07l-1.14,3.09,35.16,12.64,1.14-3.09-35.16-12.64Z"/><path class="cls-4" d="m499.69,319.87l-1.14,3.09,35.16,12.64,1.14-3.09-35.16-12.64Z"/><path class="cls-4" d="m52.06,204.71l-.58,3.24,36.84,6.42.58-3.24-36.84-6.42Z"/><path class="cls-4" d="m509.03,284.31l-.58,3.24,36.85,6.42.58-3.24-36.85-6.42Z"/><path class="cls-4" d="m85.38,247.69h-37.41v3.29h37.41v-3.29Z"/><path class="cls-4" d="m549.39,247.69h-37.41v3.29h37.41v-3.29Z"/><path class="cls-4" d="m88.34,284.3l-36.84,6.42.58,3.24,36.84-6.43-.58-3.24Z"/><path class="cls-4" d="m545.29,204.69l-36.84,6.43.58,3.24,36.84-6.43-.58-3.24Z"/><path class="cls-4" d="m97.7,319.85l-35.16,12.64,1.14,3.09,35.16-12.64-1.14-3.09Z"/><path class="cls-4" d="m533.69,163.1l-35.15,12.65,1.14,3.09,35.15-12.65-1.14-3.09Z"/><path class="cls-4" d="m113.1,353.3l-32.4,18.48,1.66,2.85,32.4-18.48-1.66-2.85Z"/><path class="cls-4" d="m514.96,124.02l-32.4,18.48,1.66,2.85,32.4-18.48-1.66-2.85Z"/><path class="cls-4" d="m134.22,383.5l-28.66,23.76,2.14,2.52,28.66-23.76-2.14-2.52Z"/><path class="cls-4" d="m489.67,88.87l-28.66,23.76,2.14,2.52,28.66-23.76-2.14-2.52Z"/><path class="cls-4" d="m160.3,409.67l-24.05,28.31,2.55,2.11,24.05-28.31-2.55-2.11Z"/><path class="cls-4" d="m458.58,58.56l-24.05,28.31,2.55,2.11,24.05-28.31-2.55-2.11Z"/><path class="cls-4" d="m190.59,431.05l-18.72,32,2.88,1.65,18.72-32-2.88-1.65Z"/><path class="cls-4" d="m422.61,34.02l-18.72,32,2.88,1.65,18.72-32-2.88-1.65Z"/><path class="cls-4" d="m224.15,446.78l-12.78,34.74,3.13,1.12,12.78-34.74-3.13-1.12Z"/><path class="cls-4" d="m382.87,16.02l-12.78,34.74,3.13,1.12,12.78-34.74-3.13-1.12Z"/><path class="cls-4" d="m259.97,456.54l-6.48,36.4,3.28.57,6.48-36.4-3.28-.57Z"/><path class="cls-4" d="m340.53,5.12l-6.48,36.4,3.28.57,6.48-36.4-3.28-.57Z"/><path class="cls-4" d="m425.03,716l-4.16-2.31c8.38-14.69,30.65-29.22,47.85-38.82,20.46-11.42,57.27-39.85,72.16-51.55,3.42-2.68,6.11-6.22,7.8-10.22l32.08-76.22c.73-1.76,1.33-3.59,1.76-5.43l12.88-55.27c-4.98-.29-9.61,1.18-14.09,4.44-23.48,17.12-31.49,76.36-31.56,76.96l-.4,3.03-2.87-1.16c-5.9-2.38-8.75-1.7-8.78-1.69l-3.64,1.37.61-3.9,11.03-101.89h-.16c-13.73,0-16.5,17.58-16.61,18.37l-.33,2.23-2.27-.23c-6.78-.69-12.28.88-16.35,4.65-9.26,8.57-8.73,25.82-8.72,25.98l.12,3.28-3.19-.93c-2.54-.75-4.65-.56-6.45.58-7.06,4.44-9.74,22.2-12.58,41.01-3.78,25.02-8.06,53.38-24.49,62.99-30.92,18.1-55.71,36.71-55.96,36.89l-.21.16-.24.11c-25.11,11.27-30.3,30.86-35.8,51.59-.94,3.55-1.91,7.22-2.99,10.81l-4.58-1.33c1.05-3.52,2.02-7.16,2.95-10.67,5.52-20.83,11.23-42.36,38.2-54.58,2.52-1.88,26.59-19.7,56.2-37.04,14.47-8.47,18.58-35.65,22.2-59.63,3.14-20.77,5.84-38.7,14.74-44.29,2.19-1.38,4.65-1.95,7.33-1.71.24-5.83,1.77-18.86,10.19-26.65,4.66-4.33,10.7-6.36,17.92-6.07,2-8.89,8.94-22.16,24.07-20.02l2.28.32-11.23,103.78c1.44.07,3.35.36,5.72,1.09,1.95-12.53,10.78-61.02,33.04-77.25,6.24-4.55,13.05-6.23,20.26-5l2.48.42-14.04,60.27c-.49,2.11-1.16,4.19-2.01,6.19l-32.08,76.22c-1.99,4.74-5.19,8.92-9.23,12.1-14.97,11.77-52.02,40.37-72.78,51.96-16.68,9.31-38.2,23.29-46.04,37.03h0Z"/><path class="cls-4" d="m398.16,648.49l-1.85-4.35c57.78-24.01,63.19-29.41,85.99-52.14,4.77-4.76,10.19-10.16,17-16.65,16.8-16,30.51-22.82,40.75-20.26,8.55,2.14,11.16,9.97,11.27,10.3l.39,1.21-54.57,66.34-3.7-2.97,52.85-64.26c-.88-1.74-3.07-5-7.47-6.07-5.86-1.43-16.91.72-36.2,19.1-6.77,6.46-12.17,11.83-16.93,16.57-22.76,22.7-28.88,28.8-87.52,53.17Z"/><path class="cls-4" d="m510.33,567.06c-.07-2.72-1.53-67.12,14.16-95.58l4.19,2.26c-15.09,27.37-13.6,92.55-13.58,93.21l-4.77.12h0Z"/><path class="cls-4" d="m496.71,505.95l-9.57,80.28,4.74.55,9.57-80.28-4.74-.55Z"/><path class="cls-4" d="m532.83,587.77l-6.6-7.84c-1.06-1.27-1.31-3.02-.58-4.49,3.8-7.77,16.73-30.48,32.3-16.59l-24.97,28.94s-.11.05-.15,0h0Z"/><path class="cls-4" d="m592.44,504.45s-14.35-12.41,10.56-39.18l-10.56,39.18Z"/><path class="cls-4" d="m547,482.47s-15.4-13.82,4.96-42.46l-4.96,42.46Z"/><path class="cls-4" d="m520.49,469.49c2.68-4.51,6.77-9.46,12.85-14.74l-6.97,18.69-5.88-3.95Z"/><path class="cls-4" d="m492.05,503.13c2.08-3.5,5.26-7.35,9.97-11.44l-5.41,14.51-4.56-3.07Z"/><path class="cls-4" d="m177.97,716c-7.84-13.74-29.37-27.73-46.04-37.03-20.76-11.58-57.81-40.2-72.78-51.95-4.04-3.18-7.24-7.37-9.23-12.1l-32.08-76.23c-.84-2-1.52-4.08-2.01-6.19l-14.04-60.27,2.49-.42c7.2-1.22,14.02.46,20.26,5.01,22.26,16.23,31.1,64.73,33.04,77.25,2.37-.73,4.28-1.02,5.72-1.09l-11.23-103.78,2.28-.32c15.14-2.14,22.07,11.13,24.07,20.02,7.23-.3,13.25,1.74,17.92,6.07,8.42,7.8,9.94,20.83,10.19,26.65,2.68-.24,5.14.33,7.33,1.71,8.89,5.6,11.6,23.52,14.74,44.29,3.62,23.98,7.73,51.16,22.2,59.63,29.62,17.34,53.69,35.16,56.21,37.04,26.97,12.22,32.67,33.75,38.2,54.58.93,3.52,1.9,7.15,2.95,10.67l-4.58,1.33c-1.07-3.59-2.04-7.27-2.99-10.81-5.49-20.73-10.69-40.31-35.8-51.59l-.24-.11-.21-.16c-.24-.19-25.05-18.8-55.96-36.9-16.42-9.61-20.71-37.97-24.49-62.99-2.84-18.81-5.52-36.57-12.58-41-1.8-1.13-3.91-1.32-6.45-.58l-3.19.93.13-3.29c0-.17.54-17.42-8.72-25.98-4.08-3.77-9.58-5.34-16.35-4.65l-2.27.23-.33-2.23c-.12-.79-2.94-18.37-16.63-18.37h-.15l11.45,105.71-3.51-1.33s-2.87-.65-8.71,1.7l-2.87,1.16-.39-3.03c-.08-.6-8.1-59.85-31.57-76.96-4.47-3.26-9.12-4.72-14.09-4.43l12.88,55.27c.43,1.85,1.02,3.68,1.76,5.44l32.08,76.22c1.68,4,4.38,7.53,7.8,10.22,14.88,11.69,51.7,40.12,72.16,51.55,17.21,9.6,39.48,24.14,47.85,38.83l-4.16,2.31h0Z"/><path class="cls-4" d="m204.84,648.49c-58.65-24.37-64.76-30.47-87.52-53.17-4.76-4.74-10.15-10.12-16.93-16.57-19.35-18.43-30.4-20.55-36.26-19.08-4.35,1.09-6.53,4.33-7.41,6.05l52.85,64.26-3.7,2.97-54.57-66.34.39-1.21c.11-.33,2.72-8.17,11.27-10.3,10.23-2.56,23.95,4.26,40.75,20.26,6.82,6.49,12.23,11.89,17,16.65,22.79,22.73,28.21,28.13,85.99,52.14l-1.85,4.35h0Z"/><path class="cls-4" d="m92.67,567.06l-4.77-.12c.01-.65,1.5-65.85-13.58-93.21l4.19-2.26c15.69,28.47,14.23,92.86,14.16,95.58h0Z"/><path class="cls-4" d="m106.28,505.94l-4.74.55,9.56,80.28,4.74-.55-9.56-80.28Z"/><path class="cls-4" d="m70.17,587.77l6.6-7.84c1.06-1.27,1.31-3.02.58-4.49-3.8-7.77-16.74-30.48-32.3-16.59l24.97,28.94s.11.05.15,0h0Z"/><path class="cls-4" d="m10.56,504.45s14.35-12.41-10.56-39.18l10.56,39.18Z"/><path class="cls-4" d="m56,482.47s15.4-13.82-4.96-42.46l4.96,42.46Z"/><path class="cls-4" d="m82.51,469.49c-2.68-4.51-6.77-9.46-12.85-14.74l6.97,18.69,5.88-3.95Z"/><path class="cls-4" d="m110.95,503.13c-2.08-3.5-5.26-7.35-9.97-11.44l5.41,14.51,4.56-3.07Z"/></g></svg>