<svg width="375" height="812" viewBox="0 0 375 812" fill="none" xmlns="http://www.w3.org/2000/svg">
<g clip-path="url(#clip0_1572_9157)">
<rect width="375" height="812" fill="white"/>
<path d="M-31.8324 164.769H4.63326C4.92773 166.121 5.52486 167.375 6.34284 168.476L-6.39313 180.297C-7.24383 181.087 -7.24383 182.356 -6.39313 183.146C-5.96778 183.541 -5.41156 183.738 -4.85533 183.738C-4.2991 183.738 -3.74287 183.541 -3.3257 183.146L9.47571 171.257C10.5636 171.895 11.7824 172.373 13.0912 172.617V206.483C13.0912 207.592 14.0646 208.496 15.2588 208.496C16.4531 208.496 17.4265 207.592 17.4265 206.483V172.617C18.5798 172.396 19.6596 172.001 20.6493 171.469L33.2135 183.138C33.6389 183.533 34.1951 183.731 34.7513 183.731C35.3076 183.731 35.8638 183.533 36.281 183.138C37.1317 182.348 37.1317 181.079 36.281 180.289L23.9049 168.795C24.8619 167.618 25.549 166.258 25.8762 164.761H62.3419C63.5361 164.761 64.5095 163.857 64.5095 162.748C64.5095 161.639 63.5361 160.735 62.3419 160.735H25.8762C25.5818 159.383 24.9846 158.129 24.1667 157.028L36.9026 145.199C37.7533 144.409 37.7533 143.141 36.9026 142.351C36.0519 141.568 34.6859 141.568 33.8352 142.351L21.0338 154.24C19.9459 153.602 18.7271 153.123 17.4183 152.88V119.013C17.4183 117.904 16.4449 117 15.2507 117C14.0564 117 13.083 117.904 13.083 119.013V152.88C11.627 153.153 10.2773 153.708 9.09126 154.468L-3.94737 142.358C-4.79807 141.576 -6.1641 141.576 -7.0148 142.358C-7.8655 143.148 -7.8655 144.417 -7.0148 145.207L6.09744 157.385C5.41034 158.395 4.89501 159.527 4.63326 160.743H-31.8324C-33.0266 160.743 -34 161.647 -34 162.756C-34 163.865 -33.0266 164.769 -31.8324 164.769ZM15.2588 156.709C18.8498 156.709 21.7618 159.421 21.7618 162.748C21.7618 166.076 18.8416 168.788 15.2588 168.788C11.6761 168.788 8.75588 166.076 8.75588 162.748C8.75588 159.421 11.6761 156.709 15.2588 156.709Z" fill="#231A20"/>
<path d="M347 65.7297C347 66.8388 347.973 67.7429 349.168 67.7429H366.239L360.3 73.2582C359.45 74.0483 359.45 75.317 360.3 76.107C360.726 76.5021 361.282 76.6996 361.838 76.6996C362.394 76.6996 362.951 76.5021 363.368 76.107L369.306 70.5917V86.4463C369.306 87.5555 370.28 88.4595 371.474 88.4595C372.668 88.4595 373.642 87.5555 373.642 86.4463V70.5917L379.58 76.107C380.006 76.5021 380.562 76.6996 381.118 76.6996C381.674 76.6996 382.23 76.5021 382.648 76.107C383.498 75.317 383.498 74.0483 382.648 73.2582L376.709 67.7429H393.78C394.975 67.7429 395.948 66.8388 395.948 65.7297C395.948 64.6206 394.975 63.7165 393.78 63.7165H376.709L382.648 58.2012C383.498 57.4111 383.498 56.1425 382.648 55.3524C381.797 54.5699 380.431 54.5699 379.58 55.3524L373.642 60.8677V45.0131C373.642 43.904 372.668 43 371.474 43C370.28 43 369.306 43.904 369.306 45.0131V60.8677L363.368 55.3524C362.517 54.5699 361.151 54.5699 360.3 55.3524C359.45 56.1425 359.45 57.4111 360.3 58.2012L366.239 63.7165H349.168C347.973 63.7165 347 64.6206 347 65.7297Z" fill="#231A20"/>
<path d="M358.008 212.366C358.008 213.475 358.982 214.379 360.176 214.379H369.035L366.646 216.597C365.795 217.387 365.795 218.656 366.646 219.446C367.071 219.841 367.628 220.038 368.176 220.038C368.724 220.038 369.288 219.841 369.705 219.446L372.895 216.483V225.455C372.895 226.162 373.509 226.731 374.27 226.731C375.03 226.731 375.644 226.162 375.644 225.455V216.483L378.834 219.446C379.259 219.841 379.816 220.038 380.372 220.038C380.928 220.038 381.484 219.841 381.901 219.446C382.752 218.656 382.752 217.387 381.901 216.597L379.513 214.379H388.372C389.566 214.379 390.539 213.475 390.539 212.366C390.539 211.257 389.566 210.352 388.372 210.352H379.513L381.901 208.134C382.752 207.344 382.752 206.075 381.901 205.285C381.051 204.495 379.685 204.495 378.834 205.285L375.644 208.248V199.276C375.644 198.57 375.03 198 374.27 198C373.509 198 372.895 198.57 372.895 199.276V208.248L369.705 205.285C368.855 204.503 367.489 204.495 366.638 205.285C365.787 206.075 365.787 207.344 366.638 208.134L369.026 210.352H360.168C358.973 210.352 358 211.257 358 212.366H358.008Z" fill="#231A20"/>
<path d="M14.6534 545.767C14.6534 544.179 13.2629 542.887 11.5533 542.887C9.84369 542.887 8.45312 544.179 8.45312 545.767C8.45312 547.354 9.84369 548.646 11.5533 548.646C13.2629 548.646 14.6534 547.354 14.6534 545.767Z" fill="#231A20"/>
<path d="M251.2 329.879C251.2 328.291 249.81 327 248.1 327C246.391 327 245 328.291 245 329.879C245 331.467 246.391 332.758 248.1 332.758C249.81 332.758 251.2 331.467 251.2 329.879Z" fill="#231A20"/>
<path d="M2.49912 217.135C2.49912 215.547 1.10855 214.255 -0.601028 214.255C-2.31061 214.255 -3.70117 215.547 -3.70117 217.135C-3.70117 218.722 -2.31061 220.014 -0.601028 220.014C1.10855 220.014 2.49912 218.722 2.49912 217.135Z" fill="#231A20"/>
<path d="M190.335 180.013C190.335 178.904 189.362 178 188.168 178C186.973 178 186 178.904 186 180.013C186 181.122 186.973 182.026 188.168 182.026C189.362 182.026 190.335 181.122 190.335 180.013Z" fill="#231A20"/>
<path d="M338.335 95.0132C338.335 93.904 337.362 93 336.168 93C334.973 93 334 93.904 334 95.0132C334 96.1223 334.973 97.0263 336.168 97.0263C337.362 97.0263 338.335 96.1223 338.335 95.0132Z" fill="#231A20"/>
<path d="M48.224 628.838C48.224 627.729 47.2506 626.825 46.0563 626.825C44.8621 626.825 43.8887 627.729 43.8887 628.838C43.8887 629.947 44.8621 630.851 46.0563 630.851C47.2506 630.851 48.224 629.947 48.224 628.838Z" fill="#231A20"/>
<path d="M165.554 792.011C165.554 790.902 164.581 789.998 163.386 789.998C162.192 789.998 161.219 790.902 161.219 792.011C161.219 793.12 162.192 794.024 163.386 794.024C164.581 794.024 165.554 793.12 165.554 792.011Z" fill="#231A20"/>
<path d="M233.816 812.158C233.816 811.049 232.842 810.145 231.648 810.145C230.454 810.145 229.48 811.049 229.48 812.158C229.48 813.267 230.454 814.171 231.648 814.171C232.842 814.171 233.816 813.267 233.816 812.158Z" fill="#231A20"/>
<path d="M112.812 720.707C112.812 719.598 111.838 718.694 110.644 718.694C109.45 718.694 108.477 719.598 108.477 720.707C108.477 721.816 109.45 722.72 110.644 722.72C111.838 722.72 112.812 721.816 112.812 720.707Z" fill="#231A20"/>
<path d="M210.372 147.016C210.372 145.907 209.399 145.003 208.205 145.003C207.011 145.003 206.037 145.907 206.037 147.016C206.037 148.125 207.011 149.029 208.205 149.029C209.399 149.029 210.372 148.125 210.372 147.016Z" fill="#231A20"/>
<path d="M79.224 189.672C79.224 188.563 78.2506 187.659 77.0563 187.659C75.8621 187.659 74.8887 188.563 74.8887 189.672C74.8887 190.781 75.8621 191.685 77.0563 191.685C78.2506 191.685 79.224 190.781 79.224 189.672Z" fill="#231A20"/>
<path d="M351.335 151.013C351.335 149.904 350.362 149 349.168 149C347.973 149 347 149.904 347 151.013C347 152.122 347.973 153.026 349.168 153.026C350.362 153.026 351.335 152.122 351.335 151.013Z" fill="#231A20"/>
<path d="M8.33529 468.013C8.33529 466.904 7.3619 466 6.16765 466C4.97339 466 4 466.904 4 468.013C4 469.122 4.97339 470.026 6.16765 470.026C7.3619 470.026 8.33529 469.122 8.33529 468.013Z" fill="#231A20"/>
<path d="M319.602 386.63C284.973 392.517 264.656 415.719 260.932 420.307C260.484 420.86 260.589 421.658 261.169 422.085C261.411 422.263 261.699 422.349 261.98 422.349C262.377 422.349 262.77 422.178 263.031 421.855C266.65 417.393 286.395 394.844 320.065 389.121C320.79 388.998 321.269 388.341 321.14 387.651C321.012 386.96 320.322 386.5 319.598 386.626L319.602 386.63Z" fill="#231A20"/>
<path d="M268.666 419.58L266.727 422.787H270.61H274.494L272.554 419.58L270.61 416.373L268.666 419.58Z" fill="#231A20"/>
<path d="M280.399 411.674L278.459 414.881H282.343H286.226L284.282 411.674L282.343 408.467L280.399 411.674Z" fill="#231A20"/>
<path d="M292.131 404.851L290.188 408.058H294.071H297.955L296.015 404.851L294.071 401.644L292.131 404.851Z" fill="#231A20"/>
<path d="M303.86 399.833L301.92 403.04H305.803H309.687L307.743 399.833L305.803 396.626L303.86 399.833Z" fill="#231A20"/>
<path d="M317.532 392.491L315.592 395.698L313.648 398.905H317.532H321.416L319.476 395.698L317.532 392.491Z" fill="#231A20"/>
<path d="M411.415 457.158C411.894 456.627 411.835 455.829 411.278 455.373C410.721 454.916 409.884 454.972 409.405 455.503C405.537 459.768 384.518 481.244 350.567 485.193C349.839 485.279 349.321 485.91 349.41 486.604C349.492 487.246 350.065 487.717 350.727 487.717C350.782 487.717 350.836 487.717 350.891 487.706C385.811 483.646 407.434 461.545 411.415 457.158Z" fill="#231A20"/>
<path d="M375.493 470.747L377.246 474.05L379.369 470.951L381.496 467.852L377.616 467.648L373.74 467.443L375.493 470.747Z" fill="#231A20"/>
<path d="M363.489 475.142L365.246 478.445L367.369 475.346L369.492 472.246L365.616 472.042L361.736 471.838L363.489 475.142Z" fill="#231A20"/>
<path d="M351.538 478.657L353.291 481.96L355.418 478.861L357.541 475.762L353.661 475.557L349.785 475.353L351.538 478.657Z" fill="#231A20"/>
<path d="M337.094 492.246V481.957C337.094 481.255 336.498 480.691 335.766 480.691C335.033 480.691 334.438 481.259 334.438 481.957V492.246C334.438 492.947 335.033 493.511 335.766 493.511C336.498 493.511 337.094 492.944 337.094 492.246Z" fill="#231A20"/>
<path d="M337.094 533.421V523.132C337.094 522.43 336.498 521.866 335.766 521.866C335.033 521.866 334.438 522.434 334.438 523.132V533.421C334.438 534.122 335.033 534.687 335.766 534.687C336.498 534.687 337.094 534.119 337.094 533.421Z" fill="#231A20"/>
<path d="M339.828 500.865C339.834 498.723 338.019 496.982 335.773 496.976C333.527 496.97 331.701 498.701 331.695 500.844C331.689 502.986 333.504 504.727 335.75 504.733C337.996 504.739 339.822 503.007 339.828 500.865Z" fill="#231A20"/>
<path d="M335.766 332.093C337.527 332.093 338.953 330.734 338.953 329.057C338.953 327.379 337.527 326.02 335.766 326.02C334.006 326.02 332.58 327.379 332.58 329.057C332.58 330.734 334.006 332.093 335.766 332.093Z" fill="#231A20"/>
<path d="M335.767 323.982C336.952 323.982 337.914 323.065 337.914 321.937C337.914 320.809 336.952 319.892 335.767 319.892C334.583 319.892 333.621 320.809 333.621 321.937C333.621 323.065 334.583 323.982 335.767 323.982Z" fill="#231A20"/>
<path d="M335.766 510.237C329.955 510.237 325 506.733 323.103 501.822C322.569 503.207 322.273 504.706 322.273 506.269C322.273 513.373 328.315 519.13 335.766 519.13C343.218 519.13 349.26 513.37 349.26 506.269C349.26 504.706 348.967 503.207 348.43 501.822C346.533 506.737 341.578 510.237 335.766 510.237Z" fill="#231A20"/>
<path d="M335.766 538.517L334.398 540.388L333.031 542.259L334.398 544.129L335.766 546L337.129 544.129L338.496 542.259L337.129 540.388L335.766 538.517Z" fill="#231A20"/>
<path d="M335.767 318.125C336.235 318.125 336.609 317.765 336.609 317.323V310.802C336.609 310.356 336.231 310 335.767 310C335.304 310 334.926 310.36 334.926 310.802V317.323C334.926 317.769 335.304 318.125 335.767 318.125Z" fill="#231A20"/>
<path d="M335.767 341.97C340.492 341.97 344.325 338.317 344.325 333.811C344.325 332.82 344.138 331.87 343.799 330.99C342.595 334.104 339.452 336.328 335.767 336.328C332.082 336.328 328.938 334.104 327.735 330.99C327.396 331.87 327.209 332.82 327.209 333.811C327.209 338.317 331.042 341.97 335.767 341.97Z" fill="#231A20"/>
<path d="M265.076 400.713C265.337 400.976 265.692 401.114 266.046 401.114C266.373 401.114 266.7 400.999 266.958 400.768C267.491 400.29 267.518 399.488 267.016 398.979L250.231 381.964C249.729 381.456 248.888 381.43 248.354 381.909C247.82 382.388 247.793 383.189 248.296 383.702L265.08 400.716L265.076 400.713Z" fill="#231A20"/>
<path d="M277.026 396.953C277.287 397.279 277.684 397.45 278.085 397.45C278.366 397.45 278.65 397.365 278.892 397.19C279.476 396.767 279.589 395.969 279.145 395.416L258.029 369.007C257.585 368.45 256.751 368.342 256.167 368.765C255.583 369.188 255.47 369.983 255.914 370.539L277.03 396.949L277.026 396.953Z" fill="#231A20"/>
<path d="M285.709 385.661C285.954 386.066 286.402 386.292 286.858 386.292C287.084 386.292 287.314 386.237 287.524 386.122C288.159 385.769 288.373 384.993 288.007 384.388L275.694 364.196C275.324 363.591 274.514 363.387 273.875 363.736C273.24 364.088 273.026 364.864 273.396 365.469L285.709 385.661Z" fill="#231A20"/>
<path d="M298.135 384.663C298.354 385.138 298.84 385.42 299.351 385.42C299.53 385.42 299.713 385.387 299.884 385.312C300.554 385.03 300.862 384.284 300.566 383.642L286.516 353.257C286.22 352.615 285.437 352.326 284.763 352.608C284.093 352.89 283.785 353.64 284.081 354.278L298.128 384.663H298.135Z" fill="#231A20"/>
<path d="M309.201 375.758C309.364 376.315 309.898 376.679 310.478 376.679C310.599 376.679 310.72 376.664 310.841 376.631C311.546 376.441 311.958 375.74 311.756 375.068L305.087 352.597C304.889 351.925 304.152 351.531 303.447 351.721C302.742 351.91 302.329 352.611 302.532 353.283L309.201 375.755V375.758Z" fill="#231A20"/>
<path d="M321.331 377.8C321.432 378.427 321.997 378.873 322.644 378.873C322.71 378.873 322.78 378.869 322.85 378.858C323.575 378.75 324.073 378.104 323.96 377.41L318.612 344.598C318.499 343.907 317.821 343.432 317.093 343.54C316.368 343.648 315.87 344.293 315.983 344.987L321.331 377.8Z" fill="#231A20"/>
<path d="M335.716 373.227H335.732C336.464 373.219 337.056 372.648 337.048 371.946L336.787 348.592C336.78 347.89 336.184 347.33 335.444 347.337C334.711 347.344 334.119 347.916 334.127 348.618L334.388 371.972C334.396 372.666 334.988 373.227 335.716 373.227Z" fill="#231A20"/>
<path d="M346.758 378.375C346.809 378.379 346.856 378.382 346.902 378.382C347.572 378.382 348.149 377.9 348.223 377.254L351.986 344.241C352.064 343.547 351.538 342.92 350.809 342.846C350.081 342.771 349.423 343.273 349.345 343.967L345.582 376.979C345.504 377.674 346.03 378.301 346.758 378.375Z" fill="#231A20"/>
<path d="M360.711 376.107C360.824 376.133 360.933 376.148 361.046 376.148C361.639 376.148 362.176 375.769 362.332 375.198L368.467 352.589C368.65 351.91 368.225 351.22 367.513 351.045C366.8 350.871 366.075 351.279 365.892 351.955L359.757 374.563C359.574 375.242 360.003 375.933 360.711 376.107Z" fill="#231A20"/>
<path d="M369.895 383.805C370.055 383.865 370.219 383.894 370.382 383.894C370.912 383.894 371.414 383.59 371.621 383.093L384.37 352.192C384.639 351.539 384.304 350.804 383.618 350.548C382.937 350.291 382.165 350.611 381.896 351.264L369.147 382.165C368.879 382.814 369.214 383.553 369.899 383.809L369.895 383.805Z" fill="#231A20"/>
<path d="M313.648 512.56H243.122L275.643 458.866C276.009 458.261 275.791 457.485 275.156 457.136C274.521 456.787 273.707 456.995 273.341 457.6L239.67 513.195C239.433 513.589 239.433 514.071 239.67 514.461C239.908 514.854 240.348 515.096 240.823 515.096H313.648C314.381 515.096 314.977 514.528 314.977 513.83C314.977 513.132 314.381 512.564 313.648 512.564V512.56Z" fill="#231A20"/>
<path d="M406.975 472.105C406.609 471.5 405.795 471.293 405.16 471.641C404.525 471.99 404.307 472.766 404.673 473.371L428.407 512.557H357.545C356.813 512.557 356.217 513.125 356.217 513.822C356.217 514.52 356.813 515.088 357.545 515.088H430.709C431.184 515.088 431.624 514.847 431.862 514.453C432.1 514.06 432.1 513.577 431.862 513.188L406.979 472.102L406.975 472.105Z" fill="#231A20"/>
<path d="M411.225 438.298L410.598 437.523C408.639 435.106 401.3 426.599 389.124 418.611C372.818 407.914 354.865 402.491 335.763 402.491C316.661 402.491 298.712 407.914 282.402 418.611C270.222 426.599 262.887 435.106 260.928 437.523L260.301 438.298L260.928 439.074C262.887 441.491 270.222 449.998 282.402 457.986C298.708 468.683 316.661 474.106 335.763 474.106C354.865 474.106 372.814 468.683 389.124 457.986C401.304 449.994 408.639 441.491 410.598 439.074L411.225 438.298ZM335.763 471.571C294.497 471.571 269.653 445.399 263.674 438.298C269.653 431.194 294.501 405.026 335.763 405.026C377.025 405.026 401.873 431.198 407.852 438.298C401.873 445.403 377.029 471.571 335.763 471.571Z" fill="#231A20"/>
<path d="M242.99 446.691C243.196 446.691 243.403 446.646 243.594 446.554L250.924 442.99L258.255 439.427C258.699 439.212 258.98 438.774 258.98 438.299C258.98 437.823 258.699 437.385 258.255 437.17L243.594 430.043C243.216 429.858 242.764 429.858 242.386 430.043L227.725 437.17C227.28 437.385 227 437.823 227 438.299C227 438.774 227.28 439.212 227.725 439.427L242.386 446.554C242.577 446.646 242.783 446.691 242.99 446.691ZM242.99 444L231.254 438.295L242.99 432.59L254.726 438.295L242.99 444Z" fill="#231A20"/>
<path d="M274.486 507.067C275.331 507.067 276.013 506.499 276.013 505.801C276.013 505.103 275.327 504.535 274.486 504.535C273.645 504.535 272.959 505.103 272.959 505.801C272.959 506.499 273.645 507.067 274.486 507.067Z" fill="#231A20"/>
<path d="M265.322 507.067C266.167 507.067 266.849 506.499 266.849 505.801C266.849 505.103 266.163 504.535 265.322 504.535C264.48 504.535 263.795 505.103 263.795 505.801C263.795 506.499 264.48 507.067 265.322 507.067Z" fill="#231A20"/>
<path d="M253.098 505.797C253.098 506.848 254.122 507.698 255.388 507.698C256.654 507.698 257.678 506.848 257.678 505.797C257.678 504.747 256.654 503.897 255.388 503.897C254.122 503.897 253.098 504.747 253.098 505.797Z" fill="#231A20"/>
<path d="M301.609 505.797C301.609 506.495 302.295 507.063 303.136 507.063C303.978 507.063 304.663 506.495 304.663 505.797C304.663 505.1 303.978 504.532 303.136 504.532C302.295 504.532 301.609 505.1 301.609 505.797Z" fill="#231A20"/>
<path d="M292.443 505.797C292.443 506.495 293.129 507.063 293.97 507.063C294.812 507.063 295.497 506.495 295.497 505.797C295.497 505.1 294.812 504.532 293.97 504.532C293.129 504.532 292.443 505.1 292.443 505.797Z" fill="#231A20"/>
<path d="M281.748 505.797C281.748 506.848 282.772 507.698 284.038 507.698C285.304 507.698 286.329 506.848 286.329 505.797C286.329 504.747 285.304 503.897 284.038 503.897C282.772 503.897 281.748 504.747 281.748 505.797Z" fill="#231A20"/>
<path d="M272.391 478.698C271.764 478.338 270.985 478.464 270.657 478.983C270.326 479.503 270.572 480.219 271.199 480.579C271.826 480.94 272.605 480.813 272.932 480.294C273.263 479.774 273.018 479.058 272.391 478.698Z" fill="#231A20"/>
<path d="M276.517 474.644C276.848 474.125 276.603 473.408 275.975 473.048C275.348 472.688 274.569 472.814 274.242 473.334C273.911 473.854 274.153 474.57 274.784 474.93C275.411 475.29 276.19 475.164 276.517 474.644Z" fill="#231A20"/>
<path d="M277.551 466.883C277.057 467.662 277.419 468.735 278.362 469.277C279.304 469.819 280.469 469.626 280.964 468.847C281.458 468.067 281.096 466.994 280.153 466.449C279.211 465.907 278.046 466.1 277.551 466.879V466.883Z" fill="#231A20"/>
<path d="M259.462 496.652C259.131 497.171 259.376 497.888 260.003 498.248C260.631 498.608 261.41 498.482 261.737 497.962C262.068 497.442 261.823 496.726 261.195 496.366C260.568 496.006 259.789 496.132 259.462 496.652Z" fill="#231A20"/>
<path d="M265.321 492.309C265.652 491.789 265.41 491.073 264.779 490.713C264.152 490.353 263.373 490.479 263.046 490.999C262.715 491.518 262.96 492.235 263.587 492.595C264.215 492.958 264.994 492.828 265.321 492.309Z" fill="#231A20"/>
<path d="M269.77 486.511C270.265 485.732 269.903 484.659 268.96 484.117C268.017 483.575 266.853 483.768 266.358 484.547C265.863 485.327 266.226 486.4 267.168 486.942C268.111 487.484 269.276 487.291 269.77 486.511Z" fill="#231A20"/>
<path d="M363.941 505.797C363.941 506.495 364.627 507.063 365.468 507.063C366.31 507.063 366.995 506.495 366.995 505.797C366.995 505.1 366.31 504.532 365.468 504.532C364.627 504.532 363.941 505.1 363.941 505.797Z" fill="#231A20"/>
<path d="M373.105 505.797C373.105 506.495 373.791 507.063 374.632 507.063C375.474 507.063 376.159 506.495 376.159 505.797C376.159 505.1 375.474 504.532 374.632 504.532C373.791 504.532 373.105 505.1 373.105 505.797Z" fill="#231A20"/>
<path d="M343.618 387.606C343.696 386.916 343.186 386.266 342.473 386.225C341.764 386.174 341.141 386.697 341.083 387.395C341.024 388.093 341.538 388.701 342.228 388.75C342.917 388.79 343.537 388.308 343.615 387.606H343.618Z" fill="#231A20"/>
<path d="M333.469 387.068C333.469 387.766 334.026 388.338 334.719 388.349C335.409 388.371 335.989 387.825 336.012 387.128C336.036 386.43 335.479 385.836 334.766 385.817C334.053 385.806 333.473 386.37 333.473 387.072L333.469 387.068Z" fill="#231A20"/>
<path d="M326.605 389.162C327.634 389.098 328.428 388.215 328.381 387.165C328.335 386.118 327.427 385.301 326.348 385.368C325.273 385.435 324.478 386.352 324.572 387.398C324.665 388.445 325.573 389.225 326.601 389.162H326.605Z" fill="#231A20"/>
<path d="M366.85 392.506C367.091 391.845 366.741 391.125 366.063 390.91C365.385 390.706 364.653 391.08 364.435 391.745C364.213 392.413 364.571 393.114 365.23 393.315C365.884 393.526 366.608 393.166 366.85 392.506Z" fill="#231A20"/>
<path d="M357.996 391.318C358.666 391.481 359.363 391.066 359.554 390.39C359.745 389.715 359.336 389.028 358.647 388.861C357.957 388.694 357.26 389.11 357.089 389.789C356.921 390.468 357.326 391.155 357.996 391.318Z" fill="#231A20"/>
<path d="M350.567 386.586C349.504 386.43 348.511 387.146 348.347 388.185C348.187 389.225 348.881 390.186 349.897 390.334C350.91 390.509 351.9 389.826 352.106 388.794C352.312 387.766 351.623 386.767 350.563 386.589L350.567 386.586Z" fill="#231A20"/>
<path d="M374.836 395.501C375.292 394.544 374.859 393.423 373.862 393.026C372.869 392.617 371.724 393.115 371.322 394.087C370.913 395.071 371.369 396.136 372.312 396.526C373.258 396.904 374.384 396.455 374.836 395.501Z" fill="#231A20"/>
<path d="M335.767 411.636C320.345 411.636 307.799 423.596 307.799 438.295C307.799 452.993 320.345 464.956 335.767 464.956C351.188 464.956 363.734 452.997 363.734 438.295C363.734 423.592 351.188 411.636 335.767 411.636ZM335.767 462.421C321.81 462.421 310.459 451.598 310.459 438.295C310.459 424.992 321.814 414.168 335.767 414.168C349.719 414.168 361.074 424.992 361.074 438.295C361.074 451.598 349.719 462.421 335.767 462.421Z" fill="#231A20"/>
<path d="M335.766 428.711C330.212 428.711 325.713 433.002 325.713 438.295C325.713 443.588 330.216 447.879 335.766 447.879C341.317 447.879 345.82 443.588 345.82 438.295C345.82 433.002 341.317 428.711 335.766 428.711Z" fill="#231A20"/>
<g clip-path="url(#clip1_1572_9157)">
<path fill-rule="evenodd" clip-rule="evenodd" d="M211.353 86.3101L208.089 83.0997L203.459 87.6527C197.069 93.9378 186.586 93.9378 180.191 87.6527L175.432 82.9727L172.168 86.183L176.927 90.863C185.122 98.9185 198.528 98.9185 206.72 90.863L211.349 86.3101H211.353Z" fill="black"/>
<path fill-rule="evenodd" clip-rule="evenodd" d="M166.264 96.0852L177.517 85.0184L181.337 81.2616C187.728 74.9765 198.211 74.9765 204.601 81.2616L207.28 83.896L210.545 87.1064L213.809 83.896L210.545 80.6856L207.866 78.0513C199.675 69.9958 186.264 69.9915 178.073 78.0513L174.253 81.808L163 92.8748L166.264 96.0852Z" fill="black"/>
<path fill-rule="evenodd" clip-rule="evenodd" d="M221.698 76.086L215.78 70.2667C203.218 57.9124 182.715 57.9124 170.152 70.2667L163.072 77.2296L166.337 80.4399L173.417 73.4771C184.179 62.8931 201.758 62.8931 212.516 73.4771L218.433 79.2964L221.698 76.086Z" fill="black"/>
</g>
</g>
<defs>
<clipPath id="clip0_1572_9157">
<rect width="375" height="812" fill="white"/>
</clipPath>
<clipPath id="clip1_1572_9157">
<rect width="59" height="36" fill="white" transform="translate(163 61)"/>
</clipPath>
</defs>
</svg>
