<svg width="426" height="643" viewBox="0 0 426 643" fill="none" xmlns="http://www.w3.org/2000/svg">
<g clip-path="url(#clip0_1494_9711)">
<path d="M242.781 299.067C200.939 302.495 190.078 241.808 230.53 230.736C207.166 230.213 189.056 250.347 192.816 272.325C196.599 294.469 220.756 307.614 242.781 299.067Z" fill="black"/>
<path d="M86.2055 299.284C89.968 301.449 95.8305 299.709 96.0396 294.108C96.2496 288.235 89.9559 286.168 86.0794 288.543C82.3408 290.835 82.1377 296.936 86.2131 299.284L86.2055 299.284Z" fill="black"/>
<path d="M270.099 237.548C276.68 233.514 270.783 222.08 262.969 226.876C256.381 230.91 262.285 242.336 270.099 237.548Z" fill="black"/>
<path d="M268.28 297.004C268.39 293.859 265.022 292.749 262.938 294.023C260.954 295.237 260.805 298.503 263.011 299.776C265.034 300.942 268.171 299.997 268.28 297.004Z" fill="black"/>
<path d="M152.761 281.246C150.785 282.46 150.629 285.726 152.834 286.999C154.857 288.158 157.995 287.22 158.104 284.227C158.213 281.082 154.845 279.972 152.769 281.246L152.761 281.246Z" fill="black"/>
<path d="M348.712 303.5C350.696 302.286 350.829 299.012 348.638 297.747C346.624 296.581 343.478 297.511 343.369 300.519C343.252 303.672 346.635 304.767 348.712 303.5Z" fill="black"/>
<path d="M301.21 266.92C298.394 276.946 297.289 278.383 298.914 279.229C300.456 280.038 300.997 278.486 307.82 270.345C317.98 273.174 319.445 274.21 320.238 272.636C321.107 271.024 319.358 270.45 311.289 263.807C314.097 253.773 315.21 252.336 313.585 251.482C312.111 250.704 311.787 251.84 304.679 260.367C294.221 257.423 293.115 256.54 292.246 258.076C291.377 259.68 293.157 260.277 301.21 266.92Z" fill="black"/>
<path d="M375.414 559.858C369.854 560.356 365.747 565.231 366.25 570.751C366.752 576.27 371.678 580.334 377.238 579.836C382.806 579.339 386.905 574.463 386.403 568.944C385.9 563.432 380.982 559.361 375.414 559.858Z" fill="black"/>
<path d="M415.98 532.096C412.279 532.432 409.546 535.691 409.886 539.36C410.218 543.03 413.497 545.746 417.199 545.417C420.909 545.073 423.641 541.837 423.309 538.153C422.969 534.483 419.697 531.767 415.988 532.096L415.98 532.096Z" fill="black"/>
<path d="M334.498 576.713C317.628 579.978 318.299 604.28 335.358 606.602C339.462 607.16 343.403 606.044 346.492 603.78C330.326 606.934 321.584 586.123 334.498 576.713Z" fill="black"/>
<path d="M213.094 595.726C213.026 595.726 212.957 595.733 212.888 595.733C212.827 595.733 212.758 595.725 212.689 595.725C199.89 595.691 189.489 605.966 189.463 618.654C189.43 631.35 199.788 641.654 212.587 641.687C212.656 641.687 212.725 641.672 212.794 641.673C212.863 641.673 212.924 641.688 212.993 641.688C225.8 641.714 236.201 631.455 236.226 618.767C236.252 606.071 225.901 595.76 213.094 595.734L213.094 595.726Z" fill="black"/>
<path d="M288.041 586.614C261.678 584.187 256.53 622.948 282.596 627.427C288.809 628.501 294.847 626.701 299.363 623.009C280.971 621.427 273.721 598.331 288.049 586.614L288.041 586.614Z" fill="black"/>
<path d="M49.8338 558.812C44.2692 558.279 39.3322 562.311 38.7869 567.827C38.2492 573.343 42.3165 578.245 47.8811 578.778C53.4381 579.312 58.3903 575.288 58.928 569.764C59.4656 564.255 55.3908 559.346 49.8338 558.812Z" fill="black"/>
<path d="M6.873 531.547C3.59385 531.233 0.680714 533.612 0.364431 536.862C0.0481473 540.113 2.44735 543.008 5.7265 543.322C8.998 543.636 11.9111 541.258 12.2351 538.007C12.5513 534.764 10.1521 531.868 6.88064 531.547L6.873 531.547Z" fill="black"/>
<path d="M90.6392 575.929C103.561 585.476 94.4722 606.146 78.4718 602.919C81.5458 605.203 85.4798 606.345 89.5875 605.812C106.661 603.601 107.488 579.303 90.6392 575.929Z" fill="black"/>
<path d="M137.032 586.129C151.269 597.93 143.893 620.987 125.484 622.451C129.976 626.172 136.003 628.01 142.222 626.977C168.317 622.664 163.41 583.871 137.032 586.129Z" fill="black"/>
<path d="M137.011 247.474L141.182 260.441L145.437 247.501L159.161 247.576L148.062 239.566L152.378 226.649L141.265 234.633L130.204 226.578L134.429 239.522L123.286 247.46L137.011 247.474Z" fill="black"/>
<path d="M91.6634 328.377C46.5292 332.999 39.9282 338.519 39.0454 339.615C39.9212 340.724 46.4865 346.286 91.5901 351.198C160.335 358.696 268.678 359.051 337.53 351.988C382.664 347.358 389.265 341.846 390.156 340.743C389.28 339.641 382.707 334.079 337.604 329.167C268.867 321.669 160.516 321.314 91.6634 328.377ZM119.594 345.103C125.066 345.947 128.773 346.232 139.926 347.23C135.567 347.542 126.97 348.174 119.311 347.604C115.045 347.454 103.864 345.879 100.746 342.974C99.3273 341.855 99.1512 339.55 101.076 337.813C103.698 335.555 109.552 333.967 112.95 333.19C122.407 331.06 135.332 330.253 137.557 330.176C155.796 329.181 174.726 329.674 191.037 331.318C191.037 331.318 158.1 333.016 137.826 334.399C136.006 334.484 122.133 335.577 113.892 337.324C111.497 337.854 105.743 339.155 103.774 340.626C106.467 342.537 115.414 344.491 119.594 345.111L119.594 345.103ZM273.694 346.97C285.755 346.145 303.833 345.24 315.073 342.859C317.483 342.321 323.222 341.02 325.184 339.556C324.07 338.764 322.611 338.305 321.358 337.899C311.643 334.715 302.989 334.194 289.031 332.944C305.306 331.776 310.824 332.408 319.758 333.93C323.837 334.989 326.359 335.482 328.219 337.209C329.638 338.327 329.814 340.632 327.889 342.369C325.267 344.635 319.42 346.223 316.015 346.993C302.793 349.967 288.158 350.231 273.866 350.571C265.349 350.453 253.788 350.461 237.928 348.864C242.692 348.493 272.218 347.049 273.694 346.978L273.694 346.97Z" fill="black"/>
<path d="M215.806 468.057C233.521 468.114 247.055 451.505 244.085 433.297C227.077 427.422 208.431 426.422 187.82 432.669C184.427 451.115 198.006 468 215.806 468.057Z" fill="black"/>
<path d="M216.212 482.111C192.426 482.035 172.989 463.183 171.277 439.324C157.805 446.118 147.922 454.636 142.115 460.476C162.741 471.085 183.125 494.883 216.293 494.989C249.462 495.096 268.089 470.825 288.422 460.62C282.605 455.273 273.18 447.549 261.296 441.016C258.782 464.201 239.54 482.194 216.212 482.119L216.212 482.111Z" fill="black"/>
<path d="M264.609 64.0038C258.651 54.9498 234.872 19.3253 220.848 0.702774C226.697 19.625 238.648 62.3742 241.976 76.1266C251.168 71.0551 255.294 69.4312 264.609 64.0114L264.609 64.0038Z" fill="black"/>
<path d="M201.497 78.801C204.862 78.592 232.959 79.1067 237.856 77.9552C233.669 60.4709 223.588 18.6372 218.261 1.52064C216.125 14.1413 201.239 78.0347 201.489 78.8086L201.497 78.801Z" fill="black"/>
<path d="M215.593 1.5045C212.497 6.07261 177.695 55.2734 169.972 64.9277C175.104 69.0826 192.98 76.2573 196.973 78.0513C196.784 72.745 213.935 12.8306 215.593 1.5045Z" fill="black"/>
<path d="M315.607 185.85C342.614 199.921 354.59 234.901 362.776 247.669C370.186 259.236 389.192 269.408 401.626 259.284C404.639 256.838 400.9 252.309 397.879 254.762C388.71 262.229 373.477 253.456 367.756 244.532C360.856 233.762 349.995 203.674 327.357 186.464C360.054 192.92 358.951 234.013 383.609 234.092C395.254 234.13 397.632 226.861 399.258 223.084C400.791 219.534 395.369 217.22 393.836 220.785C393.205 222.246 392.954 226.573 386.726 227.925C362.738 233.169 364.056 177.554 316.773 179.919C294.596 169.085 275.772 176.194 267.51 186.916C266.903 180.729 267.029 179.66 267.453 123.755C274.157 121.806 276.191 119.637 276.999 117.73C280.636 109.207 279.608 103.087 278.618 97.1715C278.468 96.269 278.23 94.1763 277.727 93.4319C276.921 92.2166 276 90.8417 259.126 88.1498C257.641 91.2072 255.554 95.7179 253.977 98.8432C252.401 99.1337 250.741 99.424 249.027 99.7065C254.986 86.848 260.367 75.7006 263.85 69.4814C256.045 73.8525 251.191 75.9743 242.703 80.7297C242.543 80.8202 242.367 80.8878 242.198 80.9328C240.996 83.9077 238.723 91.7604 236.084 101.507C234.646 101.669 233.216 101.816 231.778 101.955C233.878 93.2304 235.736 86.0434 236.902 82.5681C231.241 83.4443 204.627 82.9647 201.422 83.1894C201.653 87.6545 202.87 94.3966 204.588 102.232C203.281 102.121 201.966 102.004 200.643 101.863C198.562 92.8365 197.087 85.6615 196.981 82.9022C192.255 80.7117 174.394 73.5296 169.687 70.2325C174.342 77.9104 179.944 87.994 186.076 99.906C184.074 99.5737 182.095 99.2338 180.2 98.8715C178.984 96.4876 176.553 91.7502 174.478 87.7036C174.295 87.6954 174.104 87.7024 173.912 87.7321C152.554 90.9454 154.256 91.9438 153.423 96.7693C152.394 102.686 151.327 108.799 154.909 117.337C155.66 119.129 157.488 121.166 163.255 123.057C163.315 180.464 163.322 178.463 163.11 182.396C160.434 182.555 158.724 186.24 162.587 188.284C162.25 190.807 161.807 192.897 161.26 194.45C157.089 193.155 155.778 196.66 157.125 198.635C153.387 200.738 147.276 203.659 141.096 206.724C71.729 235.85 26.7536 302.905 26.5138 377.578C26.1841 480.205 110.144 563.971 213.67 564.303C317.197 564.636 401.693 481.411 402.022 378.785C402.256 305.938 359.225 239.252 292.511 208.946C282.297 203.729 271.265 198.54 269.94 196.875C269.879 196.784 269.834 196.686 269.773 196.594C269.827 196.504 269.896 196.421 269.934 196.322C291.941 198.363 297.26 187.231 315.584 185.842L315.607 185.85ZM305.084 181.731C294.324 184.872 287.161 191.527 272.071 190.614C276.739 184.406 288.889 177.282 305.084 181.731ZM160.375 115.104C157.757 108.865 158.154 104.364 158.957 99.5082C170.321 103.85 198.542 108.572 215.998 108.628C235.48 108.69 262.157 104.061 273.096 99.8975C273.868 104.751 274.228 109.247 271.578 115.453C268.67 121.129 225.746 123.098 215.653 123.066C187.602 122.528 162.29 118.885 160.383 115.104L160.375 115.104ZM168.899 184.696C169.282 179.566 169.227 180.066 169.176 124.629C178.329 126.607 190.59 127.669 199.985 128.238C205.18 139.351 210.524 151.321 215.813 163.943C215.091 160.007 211.21 144.865 207.156 128.617C208.578 128.682 209.855 128.732 210.971 128.773C211.054 129.099 211.129 129.433 211.22 129.759C213.983 140.804 216.254 154.94 217.94 163.305C218.429 161.132 221.774 145.65 225.614 128.638C226.692 128.596 227.831 128.547 229.032 128.483C224.417 146.492 220.389 162.843 220.156 163.949C224.314 154.64 230.075 141.629 236.152 128.081C244.12 127.561 253.796 126.682 261.561 125.161C261.16 178.596 260.863 182.976 262.084 190.832C231.1 198.79 184.669 190.614 168.914 184.689L168.899 184.696ZM245.839 199.405C227.059 204.719 199.394 205.229 166.92 196.128C167.445 194.568 167.879 192.72 168.222 190.599C183.337 195.794 216.868 201.935 245.839 199.405ZM153.336 530.722C141.649 524.817 131.495 517.652 122.674 509.832C115.357 509.763 107.732 507.768 100.567 505.623C94.2501 503.73 83.0631 496.865 79.0769 488.159C78.2721 486.383 80.052 484.509 81.8925 485.197C96.8987 490.892 101.858 494.235 112.612 500.06C103.24 490.063 95.7656 479.443 89.9339 469.222C84.4085 468.386 77.4935 466.931 72.49 463.087C67.1968 459.007 60.7216 449.156 61.7488 441.208C62.0856 438.716 64.7237 438.656 65.4355 440.811C68.3436 449.514 79.6645 455.182 84.3709 458.669C77.2997 443.957 73.679 430.961 72.6106 423.166C70.8183 419.401 65.3586 410 66.6554 396.656C67.2328 390.663 68.5493 380.715 69.8399 374.057C70.3297 371.542 74.0908 371.781 74.2201 374.359C74.4716 379.377 82.0169 401.238 76.6997 418.904C76.7514 421.83 78.1855 430.036 81.9506 440.909C83.2718 431.879 82.4935 431.399 85.1662 422.926C85.9696 420.382 86.6965 417.83 87.0873 415.193C87.2512 414.133 87.4977 408.82 89.6824 409.456C90.8665 409.794 91.6468 412.032 91.8881 413.079C97.6737 437.648 89.9513 440.003 85.3551 449.826C88.9136 458.372 93.7459 467.908 100.191 477.562C97.7964 458.954 101.478 457.738 102.492 444.326C102.66 442.151 105.583 441.539 106.639 443.444C111.862 452.921 111.745 465.358 108.85 476.529C107.952 479.929 106.938 483.761 106.677 486.565C118.335 501.541 134.123 516.092 155.337 526.802C157.94 528.106 155.932 532.026 153.321 530.714L153.336 530.722ZM146.481 412.959C144.868 410.551 148.538 408.114 150.167 410.53L160.318 425.676C164.455 423.006 169.273 420.323 174.763 417.923L165.517 397.353C164.325 394.696 168.367 392.928 169.559 395.569L178.859 416.254C183.69 414.389 188.986 412.769 194.725 411.567L187.434 386.615C186.617 383.83 190.865 382.609 191.681 385.393L199.085 410.755C203.699 409.997 208.571 409.512 213.717 409.392L213.976 378.817C214 375.907 218.42 375.929 218.395 378.854L218.136 409.391C223.435 409.499 228.54 410.099 233.415 411.078L240.889 386.309C241.723 383.538 245.963 384.787 245.128 387.566L237.74 412.047C243.378 413.459 248.663 415.349 253.565 417.502L262.441 398.862C263.695 396.236 267.688 398.121 266.441 400.732L257.573 419.356C262.703 421.859 267.336 424.595 271.402 427.299L280.295 415.101C282.008 412.757 285.594 415.316 283.881 417.667L275.034 429.804C281.037 434.098 285.459 438.061 288.02 440.51L293.633 435.526C295.819 433.592 298.76 436.869 296.582 438.794L289.957 444.67C289.172 446.085 287.429 446.132 286.469 445.151C244.278 402.305 183.869 406.242 148.787 440.343C141.569 447.407 144.663 448.13 131.54 434.528C129.506 432.429 132.719 429.408 134.739 431.491L142.992 440.044C144.403 438.586 148.287 434.073 156.663 428.15L146.481 412.959ZM293.162 463.235C272.39 472.089 252.506 499.471 215.767 499.353C179.029 499.235 158.31 472.481 137.497 463.099C136.138 462.488 135.708 460.622 136.927 459.482C147.108 448.668 174.989 423.904 216.675 424.038C252.916 424.154 282.519 448.8 293.557 459.386C293.595 459.416 293.602 459.462 293.64 459.5C294.998 460.543 294.678 462.588 293.162 463.235ZM293.89 481.777L282.998 476.035L287.382 472.721L293.89 481.777ZM146.097 475.595L135.167 481.267L141.734 472.253L146.097 475.595ZM149.046 495.334L155.396 482.249L160.658 486.473L149.053 495.334L149.046 495.334ZM167.655 510.037L171.515 495.952L177.354 499.397L167.655 510.045L167.655 510.037ZM188.773 522.035L189.093 505.604L196.058 508.264L188.781 522.036L188.773 522.035ZM213.965 527.361L209.748 509.627L218.235 509.654L213.965 527.361ZM232.827 508.39L239.809 505.775L240.024 522.208L232.827 508.39ZM251.581 499.627L257.441 496.22L261.211 510.33L251.581 499.62L251.581 499.627ZM273.656 482.637L279.922 495.762L268.367 486.826L273.656 482.637ZM355.406 464.003C350.386 467.823 343.461 469.225 337.931 470.026C332.034 480.209 324.491 490.781 315.055 500.718C327.402 493.989 332.657 490.974 345.877 486.052C347.745 485.376 349.482 487.276 348.666 489.032C342.114 503.124 320.552 510.377 304.938 510.418C296.067 518.181 285.867 525.281 274.142 531.11C271.477 532.42 269.579 528.45 272.152 527.185C293.434 516.611 309.315 502.163 321.069 487.261C320.635 482.174 317.741 473.683 317.348 469.763C316.334 459.542 317.716 450.694 321.384 444.142C322.453 442.235 325.364 442.881 325.525 445.05C325.781 448.719 326.442 452.268 327.081 455.719C328.69 464.251 329.148 466.936 327.613 478.293C334.112 468.687 339.013 459.176 342.626 450.668C341.495 448.125 335.013 440.388 333.944 430.675C333.602 427.605 335.812 415.469 336.286 413.114C336.512 412 337.463 408.638 339.293 410.031C339.934 410.518 340.418 412.195 340.622 412.946C341.023 414.41 341.921 420.287 342.988 423.769C345.591 432.229 344.825 432.734 346.088 441.773C349.931 430.924 351.417 422.728 351.48 419.802C346.277 402.095 353.962 380.298 354.254 375.273C354.4 372.674 358.162 372.504 358.628 374.999C359.876 381.666 361.128 391.622 361.667 397.619C362.546 407.324 360.088 415.509 355.534 424.09C354.416 431.878 350.719 444.85 343.554 459.516C345.447 458.135 347.47 456.838 349.393 455.616C351.814 454.085 354.105 452.645 355.362 451.436C358.054 448.845 361.306 445.703 362.649 441.773C363.406 439.547 366.02 439.844 366.288 441.959C367.264 449.921 360.733 459.958 355.414 464.004L355.406 464.003ZM289.948 214.214C344.476 238.977 382.639 288.708 393.19 345.944C388.331 349.468 375.441 353.808 341.152 357.495C271.105 365.032 157.914 364.668 87.9175 356.682C52.7662 352.673 40.1419 348.123 35.5964 344.523C46.7719 285.946 86.6998 235.898 143.487 212.083C143.548 212.061 143.602 212.03 143.655 212.008C154.117 206.819 160.809 203.725 163.73 201.309C182.3 206.66 199.474 208.943 214.529 208.991C235.999 209.06 253.155 204.598 263.934 198.039C265.968 202.782 268.116 203.092 289.94 214.221L289.948 214.214Z" fill="black"/>
</g>
<defs>
<clipPath id="clip0_1494_9711">
<rect width="423" height="641" fill="white" transform="translate(2.05859) rotate(0.18404)"/>
</clipPath>
</defs>
</svg>
