<svg width="375" height="812" viewBox="0 0 375 812" fill="none" xmlns="http://www.w3.org/2000/svg">
<g clip-path="url(#clip0_1572_11038)">
<rect width="375" height="812" fill="white"/>
<path d="M-31.8324 164.769H4.63326C4.92773 166.121 5.52486 167.375 6.34284 168.476L-6.39313 180.297C-7.24383 181.087 -7.24383 182.356 -6.39313 183.146C-5.96778 183.541 -5.41156 183.738 -4.85533 183.738C-4.2991 183.738 -3.74287 183.541 -3.3257 183.146L9.47571 171.257C10.5636 171.895 11.7824 172.373 13.0912 172.617V206.483C13.0912 207.592 14.0646 208.496 15.2588 208.496C16.4531 208.496 17.4265 207.592 17.4265 206.483V172.617C18.5798 172.396 19.6596 172.001 20.6493 171.469L33.2135 183.138C33.6389 183.533 34.1951 183.731 34.7513 183.731C35.3076 183.731 35.8638 183.533 36.281 183.138C37.1317 182.348 37.1317 181.079 36.281 180.289L23.9049 168.795C24.8619 167.618 25.549 166.258 25.8762 164.761H62.3419C63.5361 164.761 64.5095 163.857 64.5095 162.748C64.5095 161.639 63.5361 160.735 62.3419 160.735H25.8762C25.5818 159.383 24.9846 158.129 24.1667 157.028L36.9026 145.199C37.7533 144.409 37.7533 143.141 36.9026 142.351C36.0519 141.568 34.6859 141.568 33.8352 142.351L21.0338 154.24C19.9459 153.602 18.7271 153.123 17.4183 152.88V119.013C17.4183 117.904 16.4449 117 15.2507 117C14.0564 117 13.083 117.904 13.083 119.013V152.88C11.627 153.153 10.2773 153.708 9.09126 154.468L-3.94737 142.358C-4.79807 141.576 -6.1641 141.576 -7.0148 142.358C-7.8655 143.148 -7.8655 144.417 -7.0148 145.207L6.09744 157.385C5.41034 158.395 4.89501 159.527 4.63326 160.743H-31.8324C-33.0266 160.743 -34 161.647 -34 162.756C-34 163.865 -33.0266 164.769 -31.8324 164.769ZM15.2588 156.709C18.8498 156.709 21.7618 159.421 21.7618 162.748C21.7618 166.076 18.8416 168.788 15.2588 168.788C11.6761 168.788 8.75588 166.076 8.75588 162.748C8.75588 159.421 11.6761 156.709 15.2588 156.709Z" fill="#231A20"/>
<path d="M347 65.7297C347 66.8388 347.973 67.7429 349.168 67.7429H366.239L360.3 73.2582C359.45 74.0483 359.45 75.317 360.3 76.107C360.726 76.5021 361.282 76.6996 361.838 76.6996C362.394 76.6996 362.951 76.5021 363.368 76.107L369.306 70.5917V86.4463C369.306 87.5555 370.28 88.4595 371.474 88.4595C372.668 88.4595 373.642 87.5555 373.642 86.4463V70.5917L379.58 76.107C380.006 76.5021 380.562 76.6996 381.118 76.6996C381.674 76.6996 382.23 76.5021 382.648 76.107C383.498 75.317 383.498 74.0483 382.648 73.2582L376.709 67.7429H393.78C394.975 67.7429 395.948 66.8388 395.948 65.7297C395.948 64.6206 394.975 63.7165 393.78 63.7165H376.709L382.648 58.2012C383.498 57.4111 383.498 56.1425 382.648 55.3524C381.797 54.5699 380.431 54.5699 379.58 55.3524L373.642 60.8677V45.0131C373.642 43.904 372.668 43 371.474 43C370.28 43 369.306 43.904 369.306 45.0131V60.8677L363.368 55.3524C362.517 54.5699 361.151 54.5699 360.3 55.3524C359.45 56.1425 359.45 57.4111 360.3 58.2012L366.239 63.7165H349.168C347.973 63.7165 347 64.6206 347 65.7297Z" fill="#231A20"/>
<path d="M358.008 212.366C358.008 213.475 358.982 214.379 360.176 214.379H369.035L366.646 216.597C365.795 217.387 365.795 218.656 366.646 219.446C367.071 219.841 367.628 220.038 368.176 220.038C368.724 220.038 369.288 219.841 369.705 219.446L372.895 216.483V225.455C372.895 226.162 373.509 226.731 374.27 226.731C375.03 226.731 375.644 226.162 375.644 225.455V216.483L378.834 219.446C379.259 219.841 379.816 220.038 380.372 220.038C380.928 220.038 381.484 219.841 381.901 219.446C382.752 218.656 382.752 217.387 381.901 216.597L379.513 214.379H388.372C389.566 214.379 390.539 213.475 390.539 212.366C390.539 211.257 389.566 210.352 388.372 210.352H379.513L381.901 208.134C382.752 207.344 382.752 206.075 381.901 205.285C381.051 204.495 379.685 204.495 378.834 205.285L375.644 208.248V199.276C375.644 198.57 375.03 198 374.27 198C373.509 198 372.895 198.57 372.895 199.276V208.248L369.705 205.285C368.855 204.503 367.489 204.495 366.638 205.285C365.787 206.075 365.787 207.344 366.638 208.134L369.026 210.352H360.168C358.973 210.352 358 211.257 358 212.366H358.008Z" fill="#231A20"/>
<path d="M14.6534 545.767C14.6534 544.179 13.2629 542.887 11.5533 542.887C9.84369 542.887 8.45312 544.179 8.45312 545.767C8.45312 547.354 9.84369 548.646 11.5533 548.646C13.2629 548.646 14.6534 547.354 14.6534 545.767Z" fill="#231A20"/>
<path d="M251.2 329.879C251.2 328.291 249.81 327 248.1 327C246.391 327 245 328.291 245 329.879C245 331.467 246.391 332.758 248.1 332.758C249.81 332.758 251.2 331.467 251.2 329.879Z" fill="#231A20"/>
<path d="M2.49912 217.135C2.49912 215.547 1.10855 214.255 -0.601028 214.255C-2.31061 214.255 -3.70117 215.547 -3.70117 217.135C-3.70117 218.722 -2.31061 220.014 -0.601028 220.014C1.10855 220.014 2.49912 218.722 2.49912 217.135Z" fill="#231A20"/>
<path d="M190.335 180.013C190.335 178.904 189.362 178 188.168 178C186.973 178 186 178.904 186 180.013C186 181.122 186.973 182.026 188.168 182.026C189.362 182.026 190.335 181.122 190.335 180.013Z" fill="#231A20"/>
<path d="M338.335 95.0132C338.335 93.904 337.362 93 336.168 93C334.973 93 334 93.904 334 95.0132C334 96.1223 334.973 97.0263 336.168 97.0263C337.362 97.0263 338.335 96.1223 338.335 95.0132Z" fill="#231A20"/>
<path d="M48.224 628.838C48.224 627.729 47.2506 626.825 46.0563 626.825C44.8621 626.825 43.8887 627.729 43.8887 628.838C43.8887 629.947 44.8621 630.851 46.0563 630.851C47.2506 630.851 48.224 629.947 48.224 628.838Z" fill="#231A20"/>
<path d="M165.554 792.011C165.554 790.902 164.581 789.998 163.386 789.998C162.192 789.998 161.219 790.902 161.219 792.011C161.219 793.12 162.192 794.024 163.386 794.024C164.581 794.024 165.554 793.12 165.554 792.011Z" fill="#231A20"/>
<path d="M233.816 812.158C233.816 811.049 232.842 810.145 231.648 810.145C230.454 810.145 229.48 811.049 229.48 812.158C229.48 813.267 230.454 814.171 231.648 814.171C232.842 814.171 233.816 813.267 233.816 812.158Z" fill="#231A20"/>
<path d="M112.812 720.707C112.812 719.598 111.838 718.694 110.644 718.694C109.45 718.694 108.477 719.598 108.477 720.707C108.477 721.816 109.45 722.72 110.644 722.72C111.838 722.72 112.812 721.816 112.812 720.707Z" fill="#231A20"/>
<path d="M210.372 147.016C210.372 145.907 209.399 145.003 208.205 145.003C207.011 145.003 206.037 145.907 206.037 147.016C206.037 148.125 207.011 149.029 208.205 149.029C209.399 149.029 210.372 148.125 210.372 147.016Z" fill="#231A20"/>
<path d="M79.224 189.672C79.224 188.563 78.2506 187.659 77.0563 187.659C75.8621 187.659 74.8887 188.563 74.8887 189.672C74.8887 190.781 75.8621 191.685 77.0563 191.685C78.2506 191.685 79.224 190.781 79.224 189.672Z" fill="#231A20"/>
<path d="M351.335 151.013C351.335 149.904 350.362 149 349.168 149C347.973 149 347 149.904 347 151.013C347 152.122 347.973 153.026 349.168 153.026C350.362 153.026 351.335 152.122 351.335 151.013Z" fill="#231A20"/>
<path d="M8.33529 468.013C8.33529 466.904 7.3619 466 6.16765 466C4.97339 466 4 466.904 4 468.013C4 469.122 4.97339 470.026 6.16765 470.026C7.3619 470.026 8.33529 469.122 8.33529 468.013Z" fill="#231A20"/>
<g clip-path="url(#clip1_1572_11038)">
<path d="M353.454 441.895C332.869 443.619 327.527 413.13 347.429 407.566C335.934 407.304 327.024 417.42 328.873 428.462C330.734 439.587 342.618 446.19 353.454 441.895Z" fill="black"/>
<path d="M276.423 442.009C278.274 443.097 281.159 442.222 281.262 439.409C281.365 436.458 278.269 435.42 276.362 436.613C274.522 437.765 274.422 440.83 276.427 442.009L276.423 442.009Z" fill="black"/>
<path d="M366.896 410.987C370.134 408.96 367.233 403.216 363.389 405.626C360.147 407.653 363.051 413.393 366.896 410.987Z" fill="black"/>
<path d="M365.999 440.858C366.053 439.277 364.396 438.72 363.371 439.36C362.394 439.97 362.322 441.611 363.407 442.251C364.402 442.836 365.945 442.362 365.999 440.858Z" fill="black"/>
<path d="M309.168 432.945C308.196 433.555 308.119 435.196 309.204 435.835C310.199 436.417 311.743 435.946 311.797 434.442C311.85 432.862 310.193 432.305 309.172 432.945L309.168 432.945Z" fill="black"/>
<path d="M338.84 590.936C338.806 590.936 338.772 590.94 338.738 590.94C338.708 590.94 338.674 590.936 338.64 590.936C332.343 590.919 327.226 596.082 327.213 602.456C327.196 608.834 332.292 614.01 338.589 614.027C338.622 614.027 338.656 614.02 338.69 614.02C338.724 614.02 338.754 614.027 338.788 614.028C345.089 614.04 350.206 608.885 350.219 602.511C350.232 596.133 345.14 590.953 338.84 590.94L338.84 590.936Z" fill="black"/>
<path d="M375.712 586.356C362.742 585.137 360.208 604.611 373.032 606.861C376.088 607.4 379.059 606.495 381.281 604.64C372.233 603.846 368.666 592.243 375.716 586.356L375.712 586.356Z" fill="black"/>
<path d="M278.596 580.994C284.953 585.79 280.48 596.175 272.609 594.554C274.121 595.702 276.056 596.275 278.077 596.007C286.477 594.896 286.885 582.689 278.596 580.994Z" fill="black"/>
<path d="M301.42 415.979L303.471 422.493L305.565 415.992L312.317 416.029L306.857 412.005L308.98 405.516L303.513 409.527L298.072 405.481L300.15 411.984L294.667 415.972L301.42 415.979Z" fill="black"/>
<path d="M279.108 456.625C256.903 458.949 253.655 461.722 253.221 462.273C253.652 462.83 256.881 465.624 279.071 468.091C312.891 471.855 366.194 472.03 400.068 468.48C422.273 466.152 425.521 463.382 425.959 462.828C425.528 462.274 422.294 459.48 400.105 457.014C366.288 453.25 312.982 453.075 279.108 456.625ZM292.849 465.028C295.541 465.452 297.365 465.594 302.851 466.096C300.707 466.253 296.477 466.57 292.709 466.284C290.61 466.209 285.11 465.418 283.576 463.958C282.878 463.396 282.791 462.239 283.738 461.366C285.029 460.231 287.909 459.433 289.58 459.043C294.233 457.972 300.592 457.566 301.686 457.528C310.66 457.027 319.973 457.274 327.997 458.1C327.997 458.1 311.793 458.954 301.819 459.649C300.923 459.692 294.098 460.241 290.044 461.12C288.865 461.386 286.035 462.04 285.065 462.779C286.39 463.739 290.792 464.72 292.849 465.032L292.849 465.028ZM368.662 465.961C374.596 465.546 383.49 465.091 389.019 463.894C390.205 463.623 393.029 462.97 393.994 462.234C393.446 461.836 392.728 461.605 392.112 461.402C387.332 459.802 383.075 459.541 376.208 458.913C384.215 458.326 386.93 458.643 391.325 459.408C393.332 459.94 394.572 460.187 395.487 461.055C396.185 461.617 396.272 462.774 395.325 463.647C394.035 464.785 391.158 465.584 389.483 465.97C382.978 467.465 375.778 467.598 368.747 467.77C364.556 467.71 358.869 467.715 351.066 466.913C353.41 466.726 367.936 466 368.662 465.964L368.662 465.961Z" fill="black"/>
<path d="M340.178 526.796C348.894 526.824 355.552 518.479 354.092 509.332C345.724 506.38 336.551 505.879 326.411 509.018C324.741 518.285 331.421 526.768 340.178 526.796Z" fill="black"/>
<path d="M340.378 533.857C328.676 533.819 319.114 524.348 318.272 512.362C311.644 515.776 306.782 520.055 303.925 522.99C314.072 528.319 324.099 540.274 340.417 540.326C356.735 540.379 365.9 528.185 375.904 523.057C373.042 520.371 368.406 516.491 362.559 513.209C361.322 524.857 351.855 533.897 340.378 533.86L340.378 533.857Z" fill="black"/>
<path d="M364.201 323.8C361.27 319.251 349.573 301.354 342.674 291.999C345.551 301.505 351.429 322.982 353.066 329.891C357.588 327.343 359.618 326.527 364.201 323.803L364.201 323.8Z" fill="black"/>
<path d="M333.152 331.236C334.808 331.131 348.631 331.389 351.04 330.81C348.981 322.026 344.023 301.009 341.402 292.41C340.351 298.751 333.025 330.851 333.148 331.24L333.152 331.236Z" fill="black"/>
<path d="M340.088 292.402C338.565 294.697 321.441 319.417 317.642 324.267C320.166 326.354 328.961 329.958 330.925 330.859C330.832 328.194 339.272 298.092 340.088 292.402Z" fill="black"/>
<path d="M389.288 385.013C402.574 392.081 408.465 409.655 412.492 416.069C416.137 421.88 425.487 426.99 431.605 421.903C433.087 420.674 431.247 418.399 429.761 419.631C425.25 423.383 417.756 418.976 414.942 414.493C411.547 409.082 406.205 393.966 395.068 385.321C411.154 388.564 410.61 409.209 422.741 409.247C428.47 409.266 429.641 405.614 430.44 403.716C431.195 401.933 428.528 400.771 427.773 402.562C427.463 403.296 427.339 405.47 424.275 406.149C412.474 408.784 413.124 380.844 389.862 382.033C378.951 376.591 369.69 380.163 365.625 385.55C365.327 382.442 365.389 381.905 365.599 353.818C368.898 352.839 369.898 351.749 370.296 350.791C372.085 346.509 371.58 343.434 371.093 340.463C371.019 340.009 370.902 338.958 370.655 338.584C370.258 337.973 369.805 337.283 361.504 335.931C360.773 337.467 359.746 339.733 358.97 341.303C358.195 341.449 357.378 341.595 356.535 341.737C359.467 335.277 362.114 329.676 363.828 326.552C359.988 328.748 357.6 329.814 353.424 332.204C353.345 332.249 353.259 332.283 353.176 332.306C352.584 333.8 351.466 337.745 350.167 342.642C349.46 342.724 348.756 342.797 348.049 342.868C349.082 338.484 349.996 334.873 350.57 333.127C347.785 333.568 334.691 333.328 333.115 333.441C333.228 335.684 333.827 339.071 334.672 343.007C334.029 342.952 333.382 342.893 332.731 342.822C331.707 338.287 330.982 334.683 330.93 333.297C328.605 332.196 319.818 328.588 317.502 326.932C319.792 330.789 322.548 335.855 325.565 341.84C324.58 341.673 323.606 341.502 322.674 341.32C322.075 340.122 320.879 337.742 319.859 335.709C319.769 335.705 319.675 335.709 319.581 335.724C309.073 337.339 309.91 337.84 309.5 340.265C308.994 343.237 308.468 346.308 310.23 350.598C310.6 351.498 311.499 352.521 314.336 353.471C314.364 382.312 314.367 381.307 314.263 383.283C312.946 383.363 312.105 385.214 314.005 386.241C313.839 387.508 313.622 388.559 313.352 389.339C311.3 388.688 310.655 390.449 311.318 391.442C309.479 392.498 306.472 393.966 303.432 395.506C269.304 410.141 247.175 443.831 247.054 481.346C246.889 532.905 288.192 574.986 339.125 575.15C390.057 575.313 431.63 533.498 431.795 481.94C431.913 445.342 410.745 411.84 377.924 396.617C372.899 393.997 367.472 391.39 366.82 390.554C366.79 390.508 366.768 390.458 366.738 390.413C366.764 390.367 366.798 390.325 366.817 390.276C377.644 391.301 380.261 385.707 389.276 385.009L389.288 385.013ZM384.111 382.944C378.817 384.522 375.293 387.866 367.869 387.408C370.166 384.289 376.143 380.71 384.111 382.944ZM312.92 349.476C311.632 346.341 311.827 344.08 312.223 341.641C317.813 343.821 331.697 346.193 340.285 346.22C349.87 346.251 362.994 343.925 368.376 341.832C368.756 344.271 368.933 346.529 367.629 349.648C366.198 352.499 345.08 353.49 340.115 353.474C326.314 353.205 313.861 351.375 312.923 349.476L312.92 349.476ZM317.111 384.438C317.3 381.861 317.272 382.112 317.249 354.261C321.752 355.254 327.784 355.788 332.406 356.073C334.962 361.656 337.59 367.669 340.192 374.01C339.837 372.033 337.928 364.426 335.934 356.263C336.634 356.296 337.262 356.321 337.811 356.341C337.852 356.505 337.889 356.673 337.934 356.837C339.293 362.386 340.41 369.487 341.239 373.69C341.479 372.598 343.125 364.82 345.015 356.273C345.545 356.252 346.106 356.227 346.697 356.195C344.426 365.243 342.443 373.458 342.329 374.013C344.375 369.336 347.21 362.799 350.199 355.993C354.12 355.731 358.88 355.29 362.7 354.525C362.501 381.37 362.355 383.571 362.956 387.518C347.712 391.517 324.869 387.411 317.118 384.435L317.111 384.438ZM354.963 391.826C345.723 394.496 332.113 394.753 316.137 390.181C316.395 389.398 316.609 388.469 316.778 387.404C324.214 390.013 340.71 393.097 354.963 391.826ZM309.443 558.28C303.693 555.314 298.698 551.715 294.358 547.787C290.758 547.752 287.008 546.75 283.483 545.673C280.375 544.722 274.871 541.273 272.91 536.899C272.515 536.007 273.39 535.066 274.296 535.411C281.678 538.272 284.118 539.951 289.409 542.878C284.798 537.855 281.121 532.52 278.252 527.385C275.534 526.965 272.132 526.235 269.671 524.304C267.067 522.254 263.881 517.305 264.387 513.312C264.553 512.06 265.851 512.03 266.201 513.113C267.631 517.485 273.201 520.332 275.516 522.083C272.038 514.693 270.257 508.164 269.731 504.248C268.85 502.356 266.164 497.633 266.802 490.929C267.087 487.918 267.735 482.921 268.37 479.575C268.611 478.312 270.461 478.432 270.525 479.727C270.648 482.248 274.36 493.231 271.743 502.106C271.769 503.576 272.474 507.699 274.326 513.161C274.976 508.624 274.593 508.383 275.908 504.127C276.304 502.848 276.661 501.566 276.854 500.242C276.934 499.709 277.056 497.04 278.131 497.359C278.713 497.529 279.097 498.653 279.216 499.179C282.061 511.522 278.262 512.706 276 517.641C277.751 521.935 280.128 526.725 283.298 531.575C282.121 522.227 283.932 521.615 284.432 514.877C284.514 513.784 285.952 513.477 286.472 514.434C289.041 519.195 288.983 525.443 287.558 531.056C287.116 532.764 286.617 534.689 286.489 536.098C292.224 543.622 299.991 550.931 310.427 556.311C311.708 556.966 310.72 558.935 309.435 558.276L309.443 558.28ZM306.074 499.117C305.281 497.907 307.086 496.683 307.888 497.897L312.881 505.506C314.917 504.164 317.287 502.816 319.988 501.61L315.44 491.276C314.853 489.941 316.842 489.053 317.429 490.38L322.003 500.771C324.38 499.835 326.986 499.02 329.809 498.416L326.223 485.881C325.821 484.482 327.911 483.868 328.313 485.267L331.954 498.008C334.224 497.627 336.621 497.383 339.153 497.323L339.281 481.962C339.293 480.5 341.467 480.511 341.455 481.981L341.327 497.322C343.933 497.377 346.445 497.678 348.844 498.169L352.521 485.725C352.932 484.333 355.018 484.96 354.607 486.356L350.971 498.656C353.745 499.365 356.345 500.314 358.757 501.396L363.124 492.031C363.741 490.712 365.706 491.658 365.092 492.97L360.728 502.327C363.252 503.585 365.531 504.959 367.532 506.317L371.908 500.189C372.75 499.011 374.514 500.296 373.671 501.478L369.318 507.576C372.272 509.733 374.447 511.724 375.707 512.954L378.469 510.45C379.544 509.478 380.991 511.124 379.919 512.092L376.66 515.044C376.274 515.755 375.416 515.779 374.944 515.286C354.188 493.761 324.468 495.741 307.207 512.875C303.656 516.424 305.179 516.787 298.723 509.954C297.722 508.899 299.303 507.381 300.296 508.428L304.357 512.725C305.051 511.992 306.962 509.725 311.083 506.749L306.074 499.117ZM378.236 524.371C368.016 528.82 358.233 542.577 340.158 542.519C322.084 542.461 311.892 529.02 301.652 524.307C300.984 524.001 300.772 523.063 301.372 522.49C306.381 517.057 320.099 504.615 340.607 504.681C358.437 504.738 373 517.119 378.43 522.437C378.449 522.452 378.453 522.475 378.471 522.494C379.139 523.018 378.982 524.046 378.236 524.371ZM378.593 533.686L373.235 530.801L375.392 529.137L378.593 533.686ZM305.883 530.585L300.506 533.435L303.737 528.907L305.883 530.585ZM307.333 540.502L310.458 533.928L313.046 536.05L307.337 540.502L307.333 540.502ZM316.488 547.888L318.388 540.812L321.26 542.542L316.488 547.892L316.488 547.888ZM326.877 553.915L327.035 545.66L330.462 546.996L326.881 553.915L326.877 553.915ZM339.271 556.59L337.197 547.681L341.372 547.694L339.271 556.59ZM348.551 547.058L351.986 545.744L352.091 554L348.551 547.058ZM357.778 542.655L360.661 540.943L362.515 548.032L357.778 542.652L357.778 542.655ZM368.639 534.119L371.721 540.712L366.036 536.224L368.639 534.119ZM408.858 524.755C406.388 526.674 402.982 527.378 400.261 527.781C397.359 532.897 393.648 538.209 389.005 543.201C395.08 539.82 397.665 538.305 404.17 535.832C405.089 535.492 405.943 536.447 405.542 537.329C402.318 544.409 391.709 548.054 384.028 548.075C379.663 551.975 374.645 555.542 368.876 558.471C367.565 559.13 366.631 557.135 367.897 556.499C378.368 551.187 386.182 543.927 391.965 536.44C391.751 533.884 390.328 529.619 390.135 527.649C389.636 522.515 390.316 518.069 392.121 514.777C392.647 513.819 394.079 514.144 394.158 515.233C394.284 517.077 394.609 518.86 394.924 520.594C395.715 524.88 395.94 526.229 395.184 531.934C398.382 527.109 400.794 522.33 402.572 518.055C402.015 516.778 398.827 512.891 398.301 508.012C398.133 506.469 399.22 500.372 399.454 499.188C399.565 498.629 400.033 496.94 400.933 497.64C401.248 497.884 401.486 498.727 401.587 499.104C401.784 499.839 402.226 502.792 402.751 504.542C404.031 508.792 403.654 509.045 404.275 513.586C406.166 508.136 406.898 504.018 406.929 502.548C404.369 493.652 408.151 482.701 408.294 480.177C408.366 478.871 410.217 478.786 410.447 480.039C411.06 483.389 411.676 488.39 411.941 491.403C412.373 496.279 411.164 500.391 408.923 504.702C408.372 508.615 406.553 515.132 403.028 522.501C403.959 521.807 404.954 521.155 405.9 520.541C407.091 519.772 408.219 519.048 408.837 518.441C410.162 517.139 411.762 515.56 412.423 513.586C412.795 512.468 414.081 512.617 414.213 513.679C414.693 517.679 411.479 522.722 408.862 524.755L408.858 524.755ZM376.663 399.264C403.489 411.703 422.262 436.686 427.451 465.441C425.06 467.212 418.719 469.392 401.849 471.246C367.388 475.035 311.701 474.856 277.264 470.846C259.971 468.833 253.76 466.547 251.524 464.739C257.024 435.31 276.669 410.164 304.608 398.198C304.638 398.187 304.664 398.172 304.691 398.16C309.838 395.553 313.13 393.999 314.567 392.785C323.703 395.472 332.152 396.619 339.559 396.643C350.121 396.676 358.562 394.434 363.866 391.138C364.866 393.521 365.923 393.677 376.659 399.267L376.663 399.264Z" fill="black"/>
</g>
<g clip-path="url(#clip2_1572_11038)">
<path fill-rule="evenodd" clip-rule="evenodd" d="M211.353 86.3101L208.089 83.0997L203.459 87.6527C197.069 93.9378 186.586 93.9378 180.191 87.6527L175.432 82.9727L172.168 86.183L176.927 90.863C185.122 98.9185 198.528 98.9185 206.72 90.863L211.349 86.3101H211.353Z" fill="black"/>
<path fill-rule="evenodd" clip-rule="evenodd" d="M166.264 96.0852L177.517 85.0184L181.337 81.2616C187.728 74.9765 198.211 74.9765 204.601 81.2616L207.28 83.896L210.545 87.1064L213.809 83.896L210.545 80.6856L207.866 78.0513C199.675 69.9958 186.264 69.9915 178.073 78.0513L174.253 81.808L163 92.8748L166.264 96.0852Z" fill="black"/>
<path fill-rule="evenodd" clip-rule="evenodd" d="M221.698 76.086L215.78 70.2667C203.218 57.9124 182.715 57.9124 170.152 70.2667L163.072 77.2296L166.337 80.4399L173.417 73.4771C184.179 62.8931 201.758 62.8931 212.516 73.4771L218.433 79.2964L221.698 76.086Z" fill="black"/>
</g>
</g>
<defs>
<clipPath id="clip0_1572_11038">
<rect width="375" height="812" fill="white"/>
</clipPath>
<clipPath id="clip1_1572_11038">
<rect width="208.106" height="322.035" fill="white" transform="translate(235.035 291.653) rotate(0.18404)"/>
</clipPath>
<clipPath id="clip2_1572_11038">
<rect width="59" height="36" fill="white" transform="translate(163 61)"/>
</clipPath>
</defs>
</svg>
