<svg width="375" height="812" viewBox="0 0 375 812" fill="none" xmlns="http://www.w3.org/2000/svg">
<g clip-path="url(#clip0_1572_11635)">
<rect width="375" height="812" fill="white"/>
<path d="M-31.8324 164.769H4.63326C4.92773 166.121 5.52486 167.375 6.34284 168.476L-6.39313 180.297C-7.24383 181.087 -7.24383 182.356 -6.39313 183.146C-5.96778 183.541 -5.41156 183.738 -4.85533 183.738C-4.2991 183.738 -3.74287 183.541 -3.3257 183.146L9.47571 171.257C10.5636 171.895 11.7824 172.373 13.0912 172.617V206.483C13.0912 207.592 14.0646 208.496 15.2588 208.496C16.4531 208.496 17.4265 207.592 17.4265 206.483V172.617C18.5798 172.396 19.6596 172.001 20.6493 171.469L33.2135 183.138C33.6389 183.533 34.1951 183.731 34.7513 183.731C35.3076 183.731 35.8638 183.533 36.281 183.138C37.1317 182.348 37.1317 181.079 36.281 180.289L23.9049 168.795C24.8619 167.618 25.549 166.258 25.8762 164.761H62.3419C63.5361 164.761 64.5095 163.857 64.5095 162.748C64.5095 161.639 63.5361 160.735 62.3419 160.735H25.8762C25.5818 159.383 24.9846 158.129 24.1667 157.028L36.9026 145.199C37.7533 144.409 37.7533 143.141 36.9026 142.351C36.0519 141.568 34.6859 141.568 33.8352 142.351L21.0338 154.24C19.9459 153.602 18.7271 153.123 17.4183 152.88V119.013C17.4183 117.904 16.4449 117 15.2507 117C14.0564 117 13.083 117.904 13.083 119.013V152.88C11.627 153.153 10.2773 153.708 9.09126 154.468L-3.94737 142.358C-4.79807 141.576 -6.1641 141.576 -7.0148 142.358C-7.8655 143.148 -7.8655 144.417 -7.0148 145.207L6.09744 157.385C5.41034 158.395 4.89501 159.527 4.63326 160.743H-31.8324C-33.0266 160.743 -34 161.647 -34 162.756C-34 163.865 -33.0266 164.769 -31.8324 164.769ZM15.2588 156.709C18.8498 156.709 21.7618 159.421 21.7618 162.748C21.7618 166.076 18.8416 168.788 15.2588 168.788C11.6761 168.788 8.75588 166.076 8.75588 162.748C8.75588 159.421 11.6761 156.709 15.2588 156.709Z" fill="#231A20"/>
<path d="M347 65.7297C347 66.8388 347.973 67.7429 349.168 67.7429H366.239L360.3 73.2582C359.45 74.0483 359.45 75.317 360.3 76.107C360.726 76.5021 361.282 76.6996 361.838 76.6996C362.394 76.6996 362.951 76.5021 363.368 76.107L369.306 70.5917V86.4463C369.306 87.5555 370.28 88.4595 371.474 88.4595C372.668 88.4595 373.642 87.5555 373.642 86.4463V70.5917L379.58 76.107C380.006 76.5021 380.562 76.6996 381.118 76.6996C381.674 76.6996 382.23 76.5021 382.648 76.107C383.498 75.317 383.498 74.0483 382.648 73.2582L376.709 67.7429H393.78C394.975 67.7429 395.948 66.8388 395.948 65.7297C395.948 64.6206 394.975 63.7165 393.78 63.7165H376.709L382.648 58.2012C383.498 57.4111 383.498 56.1425 382.648 55.3524C381.797 54.5699 380.431 54.5699 379.58 55.3524L373.642 60.8677V45.0131C373.642 43.904 372.668 43 371.474 43C370.28 43 369.306 43.904 369.306 45.0131V60.8677L363.368 55.3524C362.517 54.5699 361.151 54.5699 360.3 55.3524C359.45 56.1425 359.45 57.4111 360.3 58.2012L366.239 63.7165H349.168C347.973 63.7165 347 64.6206 347 65.7297Z" fill="#231A20"/>
<path d="M358.008 212.366C358.008 213.475 358.982 214.379 360.176 214.379H369.035L366.646 216.597C365.795 217.387 365.795 218.656 366.646 219.446C367.071 219.841 367.628 220.038 368.176 220.038C368.724 220.038 369.288 219.841 369.705 219.446L372.895 216.483V225.455C372.895 226.162 373.509 226.731 374.27 226.731C375.03 226.731 375.644 226.162 375.644 225.455V216.483L378.834 219.446C379.259 219.841 379.816 220.038 380.372 220.038C380.928 220.038 381.484 219.841 381.901 219.446C382.752 218.656 382.752 217.387 381.901 216.597L379.513 214.379H388.372C389.566 214.379 390.539 213.475 390.539 212.366C390.539 211.257 389.566 210.352 388.372 210.352H379.513L381.901 208.134C382.752 207.344 382.752 206.075 381.901 205.285C381.051 204.495 379.685 204.495 378.834 205.285L375.644 208.248V199.276C375.644 198.57 375.03 198 374.27 198C373.509 198 372.895 198.57 372.895 199.276V208.248L369.705 205.285C368.855 204.503 367.489 204.495 366.638 205.285C365.787 206.075 365.787 207.344 366.638 208.134L369.026 210.352H360.168C358.973 210.352 358 211.257 358 212.366H358.008Z" fill="#231A20"/>
<path d="M14.6534 545.767C14.6534 544.179 13.2629 542.887 11.5533 542.887C9.84369 542.887 8.45312 544.179 8.45312 545.767C8.45312 547.354 9.84369 548.646 11.5533 548.646C13.2629 548.646 14.6534 547.354 14.6534 545.767Z" fill="#231A20"/>
<path d="M251.2 329.879C251.2 328.291 249.81 327 248.1 327C246.391 327 245 328.291 245 329.879C245 331.467 246.391 332.758 248.1 332.758C249.81 332.758 251.2 331.467 251.2 329.879Z" fill="#231A20"/>
<path d="M2.49912 217.135C2.49912 215.547 1.10855 214.255 -0.601028 214.255C-2.31061 214.255 -3.70117 215.547 -3.70117 217.135C-3.70117 218.722 -2.31061 220.014 -0.601028 220.014C1.10855 220.014 2.49912 218.722 2.49912 217.135Z" fill="#231A20"/>
<path d="M190.335 180.013C190.335 178.904 189.362 178 188.168 178C186.973 178 186 178.904 186 180.013C186 181.122 186.973 182.026 188.168 182.026C189.362 182.026 190.335 181.122 190.335 180.013Z" fill="#231A20"/>
<path d="M338.335 95.0132C338.335 93.904 337.362 93 336.168 93C334.973 93 334 93.904 334 95.0132C334 96.1223 334.973 97.0263 336.168 97.0263C337.362 97.0263 338.335 96.1223 338.335 95.0132Z" fill="#231A20"/>
<path d="M48.224 628.838C48.224 627.729 47.2506 626.825 46.0563 626.825C44.8621 626.825 43.8887 627.729 43.8887 628.838C43.8887 629.947 44.8621 630.851 46.0563 630.851C47.2506 630.851 48.224 629.947 48.224 628.838Z" fill="#231A20"/>
<path d="M165.554 792.011C165.554 790.902 164.581 789.998 163.386 789.998C162.192 789.998 161.219 790.902 161.219 792.011C161.219 793.12 162.192 794.024 163.386 794.024C164.581 794.024 165.554 793.12 165.554 792.011Z" fill="#231A20"/>
<path d="M233.816 812.158C233.816 811.049 232.842 810.145 231.648 810.145C230.454 810.145 229.48 811.049 229.48 812.158C229.48 813.267 230.454 814.171 231.648 814.171C232.842 814.171 233.816 813.267 233.816 812.158Z" fill="#231A20"/>
<path d="M112.812 720.707C112.812 719.598 111.838 718.694 110.644 718.694C109.45 718.694 108.477 719.598 108.477 720.707C108.477 721.816 109.45 722.72 110.644 722.72C111.838 722.72 112.812 721.816 112.812 720.707Z" fill="#231A20"/>
<path d="M210.372 147.016C210.372 145.907 209.399 145.003 208.205 145.003C207.011 145.003 206.037 145.907 206.037 147.016C206.037 148.125 207.011 149.029 208.205 149.029C209.399 149.029 210.372 148.125 210.372 147.016Z" fill="#231A20"/>
<path d="M79.224 189.672C79.224 188.563 78.2506 187.659 77.0563 187.659C75.8621 187.659 74.8887 188.563 74.8887 189.672C74.8887 190.781 75.8621 191.685 77.0563 191.685C78.2506 191.685 79.224 190.781 79.224 189.672Z" fill="#231A20"/>
<path d="M351.335 151.013C351.335 149.904 350.362 149 349.168 149C347.973 149 347 149.904 347 151.013C347 152.122 347.973 153.026 349.168 153.026C350.362 153.026 351.335 152.122 351.335 151.013Z" fill="#231A20"/>
<path d="M8.33529 468.013C8.33529 466.904 7.3619 466 6.16765 466C4.97339 466 4 466.904 4 468.013C4 469.122 4.97339 470.026 6.16765 470.026C7.3619 470.026 8.33529 469.122 8.33529 468.013Z" fill="#231A20"/>
<g clip-path="url(#clip1_1572_11635)">
<path fill-rule="evenodd" clip-rule="evenodd" d="M211.353 86.3101L208.089 83.0997L203.459 87.6527C197.069 93.9378 186.586 93.9378 180.191 87.6527L175.432 82.9727L172.168 86.183L176.927 90.863C185.122 98.9185 198.528 98.9185 206.72 90.863L211.349 86.3101H211.353Z" fill="black"/>
<path fill-rule="evenodd" clip-rule="evenodd" d="M166.264 96.0852L177.517 85.0184L181.337 81.2616C187.728 74.9765 198.211 74.9765 204.601 81.2616L207.28 83.896L210.545 87.1064L213.809 83.896L210.545 80.6856L207.866 78.0513C199.675 69.9958 186.264 69.9915 178.073 78.0513L174.253 81.808L163 92.8748L166.264 96.0852Z" fill="black"/>
<path fill-rule="evenodd" clip-rule="evenodd" d="M221.698 76.086L215.78 70.2667C203.218 57.9124 182.715 57.9124 170.152 70.2667L163.072 77.2296L166.337 80.4399L173.417 73.4771C184.179 62.8931 201.758 62.8931 212.516 73.4771L218.433 79.2964L221.698 76.086Z" fill="black"/>
</g>
<g clip-path="url(#clip2_1572_11635)">
<path d="M493.234 558.826C493.443 559.094 493.752 559.249 494.089 559.249C494.708 559.249 495.203 558.731 495.203 558.097C495.203 557.977 495.187 557.868 495.156 557.758C491.76 535.44 475.624 526.507 461.657 525.573C460.829 525.517 459.997 525.474 459.159 525.432C453.389 525.143 447.939 524.872 443.095 520.38L441.825 519.203L443.388 519.894C448.033 521.946 453.248 519.527 458.856 512.946C459.26 512.473 459.664 511.98 460.078 511.479L460.189 511.342C462.515 508.511 464.919 505.582 468.067 504.295C470.231 503.41 471.773 503.258 474.416 503.258C474.958 503.258 475.537 503.266 476.173 503.273L477.503 503.287C478.132 503.287 478.624 502.768 478.624 502.134C478.624 501.736 478.432 501.372 478.112 501.157C473.49 497.287 467.848 495.334 461.32 495.334C457.981 495.334 454.372 495.848 450.592 496.86C448.683 497.371 446.626 497.639 444.475 497.576L442.405 497.53L444.179 496.998C449.986 495.26 454.227 492.26 456.789 488.086C457.335 487.198 457.836 486.214 458.365 485.174C460.159 481.645 462.017 477.997 466.134 476.541C467.605 476.019 469.016 475.578 470.383 475.155C475.988 473.407 480.768 471.919 485.387 466.596C490.531 460.67 492.864 449.978 492.567 444.539C492.541 444.01 492.174 443.57 491.675 443.471C491.174 443.372 490.676 443.647 490.467 444.119C486.464 453.151 477.355 456.355 470.77 456.355C469.996 456.355 469.228 456.313 468.484 456.232C460.799 455.386 454.705 456.912 450.477 460.755C444.249 466.413 438.557 469.05 432.554 469.05C431.336 469.05 430.067 468.941 428.784 468.725L427.855 468.57L428.717 468.172C435.806 464.908 438.419 456.556 438.499 449.827C438.553 444.934 438.6 440.711 441.967 437.214C444.95 434.115 446.182 432.835 451.814 431.097C452.309 430.946 452.638 430.445 452.601 429.906C452.561 429.366 452.164 428.922 451.652 428.848C449.864 428.591 448.239 428.464 446.68 428.464C443.829 428.464 441.189 428.901 438.611 429.797C432.676 431.859 429.949 436.36 427.316 440.711C425.438 443.813 423.667 446.732 420.809 448.716C416.796 451.498 415.036 452.28 412.622 452.361L411.437 452.4L412.484 451.811C416.51 449.548 419.738 446.228 421.341 442.695C424.714 435.257 424.525 428.542 424.361 422.619C424.266 419.2 424.175 415.971 424.832 413.136C426.461 406.104 430.989 403.248 440.526 399.504C440.991 399.325 441.283 398.835 441.236 398.316C441.189 397.798 440.819 397.375 440.331 397.283C437.749 396.808 435.2 396.568 432.756 396.568C418.237 396.568 406.098 405.36 400.287 420.092C397.254 427.784 393.666 435.617 386.185 439.494L385.209 440.002L385.835 439.068C386.31 438.359 386.68 437.591 386.933 436.783C388.098 433.068 387.081 428.203 383.913 422.323C383.59 421.72 383.243 421.107 382.893 420.486C381.082 417.268 379.21 413.944 379.062 410.408C378.924 407.203 379.22 404.362 381.102 400.925C381.341 400.488 381.284 399.945 380.961 399.575C380.644 399.212 380.116 399.099 379.688 399.3C370.343 403.752 366.095 412.315 366.704 425.478C366.849 428.612 366.573 431.693 365.883 434.644L365.32 437.044L365.334 434.573C365.371 427.741 363.132 421.897 358.678 417.204C357.965 416.45 357.265 415.749 356.585 415.068L356.51 414.994C353.417 411.895 350.969 409.445 349.481 404.715C348.562 401.796 348.199 398.88 347.845 396.06C347.256 391.375 346.65 386.535 343.455 381.984C339.029 375.646 331.875 371.44 324.334 370.721C324.307 370.721 324.277 370.721 324.247 370.721C323.809 370.721 323.412 370.985 323.233 371.394C322.924 372.099 322.917 372.113 327.165 377.285L327.344 377.503C327.987 378.286 328.485 378.892 328.616 379.058C333.208 384.861 333.828 390.152 330.899 398.574C328.882 404.38 330.256 407.898 332.161 412.77L332.367 413.299C335.416 421.107 335.804 428.193 333.548 434.954C333.104 436.279 332.777 437.725 332.575 439.251L332.414 440.464L332.037 439.308C330.121 433.435 324.59 428.94 317.241 427.28C312.673 426.254 308.728 425.365 306.135 421.237C304.927 419.316 304.429 417.176 303.903 414.913C303.489 413.122 303.058 411.272 302.244 409.502C302.032 409.04 301.537 408.772 301.042 408.871C300.551 408.97 300.184 409.403 300.153 409.928C300.046 411.659 299.719 413.454 299.369 415.357C298.901 417.927 298.416 420.578 298.51 423.102C298.763 430.015 302.759 433.974 306.624 437.799C309.02 440.175 311.276 442.41 312.744 445.322C313.966 447.747 314.477 450.482 314.306 453.683L314.222 455.22L313.764 453.761C312.407 449.45 310.003 445.702 307.169 443.478C300.87 438.543 294.552 437.404 288.973 436.399C285.755 435.818 282.719 435.271 280.19 434.034C274.215 431.108 271.064 424.995 270.556 415.343C270.525 414.804 270.138 414.353 269.63 414.268C269.115 414.187 268.613 414.49 268.428 414.987C260.52 436.114 270.172 452.404 281.84 460.607C282.658 461.185 283.506 461.749 284.365 462.32L284.449 462.377C289.128 465.489 293.969 468.704 296.073 474.962L296.356 475.808L295.652 475.3C293.841 473.992 291.592 473.333 288.963 473.333C286.752 473.333 284.331 473.777 281.769 474.651C281.197 474.845 280.615 475.057 280.022 475.268L279.844 475.332C277.026 476.351 274.131 477.394 271.306 477.394C270.738 477.394 270.182 477.352 269.654 477.264C268.351 477.052 267.125 476.185 265.833 475.272C264.237 474.144 262.443 472.868 260.386 473.005C260.012 473.03 259.679 473.248 259.494 473.59C259.312 473.932 259.305 474.341 259.477 474.69C264.086 483.965 271.185 489.923 281.177 492.901C283.399 493.564 285.486 494.329 287.381 495.172L288.694 495.757L287.031 495.725C284.476 495.725 282.342 496.123 280.514 496.945C279.019 497.615 277.743 498.341 276.619 498.982C274.212 500.357 272.31 501.439 269.435 501.439C268.819 501.439 268.162 501.39 267.486 501.291C265.176 500.957 262.88 500.396 260.662 499.85L260.591 499.832C257.077 498.968 253.441 498.073 249.718 498.073C247.758 498.073 245.934 498.313 244.136 498.803C236.777 500.816 228.943 509.093 226.627 513.161C226.382 513.587 226.429 514.13 226.742 514.507C227.048 514.874 227.57 515.005 228.001 514.814C230.839 513.57 235.181 511.916 240.073 511.916C244.964 511.916 249.691 513.679 253.767 517.148C258.103 520.842 261.463 521.128 265.732 521.128C266.247 521.128 266.782 521.124 267.341 521.117H267.802C272.283 521.117 278.76 521.815 284.173 525.139L284.836 525.545L284.079 525.675C279.12 526.535 274.484 529.997 271.017 535.423C268.418 539.491 266.173 543.002 261.554 544.003C257.534 544.874 254.313 544.733 250.074 543.499C249.6 543.361 249.078 543.583 248.829 544.021C248.576 544.468 248.64 545.043 248.99 545.413C252.34 549.002 255.895 551.078 260.52 552.15C261.951 552.481 263.375 552.65 264.749 552.65C269.176 552.65 272.623 550.976 275.955 549.354C278.992 547.877 281.853 546.492 285.257 546.46H285.439C286.509 546.46 287.435 546.534 288.266 546.686L290.121 547.024L288.253 547.26C285.493 547.609 282.978 548.469 280.985 549.753C274.286 554.057 270.94 559.785 267.991 564.844C266.284 567.77 264.678 570.527 262.648 572.525C259.83 575.303 256.764 576.544 252.707 576.544C249.559 576.544 245.89 575.79 242.392 574.975C241.918 574.863 241.406 575.109 241.177 575.564C240.945 576.022 241.039 576.59 241.399 576.946C248.785 584.173 257.033 587.835 265.917 587.835C274.801 587.835 282.325 583.968 286.836 580.722C287.519 580.232 288.199 579.727 288.883 579.216C291.428 577.323 294.057 575.37 296.962 574.133L297.925 573.724L297.288 574.584C295.141 577.475 293.872 581.874 293.521 587.659C293.481 588.35 293.447 589.059 293.417 589.785C293.255 593.515 293.091 597.375 291.374 600.417C289.872 603.082 287.25 605.751 284.695 607.21C284.237 607.474 284.015 608.042 284.17 608.567C284.324 609.089 284.799 609.434 285.331 609.375C295.272 608.31 303.176 603.6 309.505 594.974C310.774 593.243 311.717 591.438 312.629 589.693L313.272 588.463L313.151 589.859C312.952 592.143 313.047 594.265 313.434 596.338C313.74 597.967 314.168 599.37 314.541 600.607C315.447 603.586 316.093 605.722 314.942 609.301C314.252 611.437 313.37 613.513 312.515 615.519C310.512 620.236 308.441 625.111 308.812 630.871C309.29 638.317 312.895 645.614 318.217 649.911C318.669 650.274 319.362 650.197 319.732 649.742C319.966 649.455 319.948 648.467 319.678 646.777C319.409 645.081 319.005 642.547 318.914 641.468C318.228 633.272 321.106 629.243 326.31 625.055C330.616 621.586 331.205 618.149 332.02 613.39L332.107 612.879C332.885 608.349 334.598 604.055 337.056 600.459L337.595 599.67L337.561 600.639C337.382 605.525 339.332 610.668 341.466 615.498C344.078 621.413 346.038 628.802 340.752 638.778C340.537 639.187 340.577 639.691 340.857 640.058C341.129 640.418 341.587 640.58 342.025 640.449C356.864 635.951 356.308 623.595 355.901 614.578C355.743 611.035 355.591 607.689 356.349 605.447C356.416 605.246 356.487 605.049 356.558 604.862L357.268 602.93L357.096 604.993C356.766 608.951 357.339 612.738 358.709 615.649C362.186 623.038 367.327 627.05 371.865 630.593C374.484 632.637 376.955 634.569 378.672 636.868C382.927 642.571 382.253 648.064 379.136 658.213C378.985 658.706 379.17 659.249 379.584 659.535C379.988 659.81 380.557 659.767 380.917 659.429C397.106 644.348 395.547 625.245 388.693 612.396C387.653 610.446 386.465 608.109 385.539 605.567L384.994 604.066L386.01 605.271C388.239 607.919 391.033 609.988 392.986 611.253L393.134 611.345C396.54 613.555 404.499 618.723 405.28 628.717C405.32 629.221 405.663 629.637 406.135 629.75C406.616 629.853 407.094 629.63 407.33 629.207C411.592 621.572 411.598 609.819 407.347 599.955C406.852 598.802 406.391 597.681 405.98 596.617L405.499 595.372L406.428 596.296C408.747 598.594 411.326 600.156 414.096 600.932C415.658 601.369 417.089 601.623 418.351 601.845C421.674 602.43 424.064 602.849 426.909 605.934C428.528 607.689 430.003 609.621 431.43 611.486C434.83 615.935 438.304 620.479 443.812 622.985C447.299 624.572 451.221 625.407 455.16 625.407C459.099 625.407 462.869 624.565 466.118 622.975C466.555 622.76 466.804 622.28 466.744 621.78C466.68 621.279 466.32 620.881 465.845 620.793C453.948 618.558 448.34 609.812 447.057 602.373C446.01 596.296 443.132 593.98 439.146 590.775L438.712 590.426C432.854 585.713 428.686 579.111 427.276 572.314L427.091 571.404L427.713 571.961C430.565 574.514 434.207 575.804 438.533 575.804C441.021 575.804 443.593 575.356 446.168 574.475C448.76 573.587 451.416 572.677 453.965 572.677C455.624 572.677 457.166 573.058 458.668 573.84C462.536 575.853 464.821 577.898 467.393 581.649C467.673 582.054 468.201 582.227 468.649 582.065C469.107 581.899 469.41 581.43 469.39 580.926C468.743 565.239 457.708 562.126 449.652 559.856C446.387 558.936 443.303 558.065 441.469 556.581C437.782 553.595 437.311 551.586 436.974 548.632L436.89 547.877L437.436 548.378C440.667 551.353 444.519 553.302 448.003 553.725C449.174 553.87 450.366 553.941 451.538 553.941C457.681 553.941 462.694 551.984 467.117 550.257C470.184 549.058 473.069 547.93 475.853 547.666C482.775 547.021 486.791 550.602 493.234 558.834V558.826ZM466.666 502.412C463.303 504.009 460.758 507.104 458.513 509.84L458.449 509.918C458.028 510.429 457.614 510.929 457.207 511.412C453.312 515.981 449.764 518.294 446.656 518.294C445.084 518.294 443.637 517.698 442.236 516.471L442.139 516.386V516.256C442.075 514.254 441.947 512.258 441.755 510.33L441.718 509.96L442.071 510.013C442.67 510.101 443.283 510.147 443.892 510.147C448.629 510.147 452.84 507.559 456.227 505.483C457.072 504.965 457.944 504.425 458.681 504.038C460.873 502.878 463.512 502.145 466.522 501.859L468.154 501.704L466.66 502.412H466.666ZM444.845 499.895C447.04 499.895 449.154 499.628 451.134 499.099C457.947 497.273 464.088 497.185 469.245 498.838L470.985 499.395L469.168 499.409C464.714 499.437 460.852 500.301 457.691 501.975C456.89 502.402 455.988 502.955 455.116 503.491C451.965 505.426 448.043 507.834 443.903 507.834C443.128 507.834 442.357 507.75 441.617 507.58L441.428 507.538L441.401 507.337C441.061 504.831 440.607 502.324 440.048 499.885L439.95 499.465L440.358 499.529C441.943 499.776 443.451 499.899 444.845 499.899V499.895ZM432.655 471.376C439.132 471.376 445.256 468.556 451.925 462.496C455.675 459.084 461.203 457.744 468.255 458.527C469.06 458.615 469.895 458.661 470.736 458.661C478.085 458.661 485.081 455.442 489.443 450.049L490.113 449.22L489.928 450.289C488.901 456.257 486.592 461.77 483.754 465.042C479.55 469.885 475.254 471.225 469.817 472.92C468.491 473.333 466.986 473.802 465.427 474.352C460.479 476.1 458.227 480.528 456.416 484.088C455.897 485.107 455.422 486.038 454.931 486.838C451.342 492.683 444.421 494.921 439.247 495.771L439.008 495.81L438.937 495.566C438.335 493.458 437.651 491.364 436.897 489.344L436.793 489.062L437.069 488.964C446.192 485.706 449.548 480.895 452.793 476.241C456.106 471.496 459.243 466.998 468.309 465.193C467.41 465.116 466.532 465.073 465.683 465.073C457.328 465.073 452.739 468.948 449.39 471.778L448.653 472.399C446.724 474.01 437.907 479.185 432.265 478.825L432.113 478.815L432.039 478.677C430.673 476.167 429.161 473.7 427.535 471.341L427.131 470.752L427.811 470.886C429.464 471.207 431.093 471.369 432.649 471.369L432.655 471.376ZM440.402 435.585C436.409 439.734 436.352 444.849 436.294 449.795C436.207 457.173 433.076 465.581 424.552 467.051L424.394 467.079L424.293 466.949C423.391 465.81 422.415 464.647 421.398 463.501L421.146 463.216L421.479 463.043C425.724 460.829 429.178 455.978 432.043 448.216C434.268 442.184 437.032 437.711 440.257 434.919L440.63 435.349L440.405 435.585H440.402ZM412.972 454.649C415.716 454.505 417.746 453.606 422.028 450.634C425.283 448.378 427.262 445.107 429.178 441.941C431.716 437.746 434.116 433.787 439.304 431.982L441.112 431.4L439.752 432.433C435.827 435.419 432.541 440.45 429.982 447.384C427.178 454.977 423.711 459.68 419.668 461.358L419.499 461.428L419.372 461.294C417.325 459.151 415.116 457.089 412.814 455.167L412.238 454.688L412.972 454.649ZM388.323 440.869C396.409 435.987 400.116 426.589 402.334 420.973C407.791 407.136 419.166 398.873 432.763 398.873C433.356 398.873 433.955 398.887 434.564 398.919L435.736 398.979L434.662 399.476C428.656 402.254 424.324 405.55 422.694 412.586C421.967 415.72 422.061 419.097 422.159 422.672C422.317 428.344 422.496 434.767 419.351 441.701C417.18 446.488 412.06 449.964 407.946 451.283L407.818 451.325L407.707 451.247C406.771 450.588 405.828 449.957 404.913 449.372L404.472 449.09L404.936 448.861C408.619 447.038 410.306 444.779 411.834 441.722C414.534 436.311 414.611 430.135 414.675 424.685C414.739 419.496 414.793 414.931 416.907 411.754C413.443 413.968 411.056 417.617 409.969 422.394C409.885 422.757 409.801 423.187 409.703 423.666C408.68 428.714 406.29 440.534 393.423 443.27L393.342 443.288L393.265 443.256C391.686 442.593 390.043 441.969 388.374 441.405L387.778 441.204L388.32 440.876L388.323 440.869ZM376.891 406.911L376.847 408.328C376.827 409.022 376.83 409.735 376.864 410.499C377.035 414.606 379.139 418.347 380.998 421.65C381.341 422.26 381.681 422.862 381.998 423.451C384.849 428.739 385.805 432.98 384.842 436.054C384.408 437.439 383.587 438.574 382.334 439.519L382.233 439.597L382.109 439.565C380.594 439.195 379.015 438.867 377.423 438.585L377.136 438.536L377.197 438.236C377.975 434.485 377.062 430.664 376.096 426.617C374.726 420.878 373.309 414.941 376.318 408.194L376.891 406.907V406.911ZM367.498 437.15C368.626 433.41 369.101 429.44 368.912 425.358C368.508 416.665 370.289 410.302 374.349 405.906L375.672 404.475L374.797 406.241C370.858 414.19 372.575 421.389 373.955 427.177C374.911 431.178 375.736 434.637 374.995 437.933L374.938 438.19L374.689 438.155C372.427 437.841 370.091 437.63 367.748 437.527L367.384 437.513L367.495 437.15H367.498ZM335.629 435.715C338.032 428.499 337.621 420.663 334.407 412.424L334.201 411.899C332.292 407.02 331.242 404.334 332.969 399.367C336.127 390.275 335.359 383.965 330.313 377.588C330.168 377.408 329.576 376.686 328.835 375.783L326.947 373.478L327.768 373.672C333.316 375.117 338.389 378.642 341.688 383.345C344.543 387.413 345.088 391.756 345.664 396.353C346.031 399.279 346.411 402.303 347.394 405.43C349.057 410.711 351.808 413.468 354.992 416.658C355.682 417.345 356.393 418.061 357.12 418.826C361.708 423.663 363.688 429.849 363.004 437.217L362.981 437.474L362.735 437.481C360.213 437.538 357.648 437.728 355.11 438.049L354.81 438.088L354.797 437.771C354.494 429.775 352.346 426.317 349.572 422.63C347.795 420.268 344.166 414.758 342.984 412.28C342.055 410.33 339.941 404.105 340.103 396.748C338.588 402.265 337.608 407.348 339.47 413.626C339.635 414.18 339.991 415.086 340.446 416.231C342.614 421.71 347.128 433.103 343.728 440.298L343.674 440.414L343.556 440.45C340.655 441.299 337.756 442.346 334.938 443.559L334.572 443.718L334.555 443.302C334.46 440.76 334.837 438.07 335.622 435.722L335.629 435.715ZM302.772 419.235C303.197 420.483 303.691 421.555 304.291 422.503C307.381 427.421 312.155 428.496 316.77 429.532C323.819 431.122 331.144 436.131 330.586 445.434L330.576 445.604L330.431 445.678C328.727 446.552 327.024 447.507 325.371 448.519L324.981 448.759L324.954 448.286C324.482 440.467 318.426 436.149 309.923 430.903C305.728 428.316 303.069 424.329 302.24 419.383L302.776 419.235H302.772ZM308.132 436.117C304.701 432.719 301.463 429.511 300.816 424.308L300.554 422.193L301.348 424.156C302.833 427.819 305.341 430.759 308.798 432.895C319.379 439.42 323.079 442.995 322.762 450.038L322.755 450.19L322.634 450.271C320.715 451.558 318.796 452.978 316.925 454.498L316.43 454.9L316.477 454.247C316.753 450.391 316.184 447.211 314.686 444.243C313.043 440.986 310.545 438.511 308.132 436.121V436.117ZM327.085 450.144L327.159 450.112C331.165 449.146 335.346 448.653 339.581 448.653C351 448.653 362.422 452.192 370.134 458.125C385.377 469.85 392.134 489.958 387.343 509.35C386.027 514.677 380.412 524.41 377.874 527.656C377.736 527.829 377.601 527.995 377.47 528.15L377.413 528.221C376.584 529.208 375.729 530.23 375.904 532.208C376.127 534.725 377.874 535.958 379.277 536.952C380.186 537.594 381.045 538.2 381.499 539.064C381.644 539.339 381.796 539.646 381.87 539.952C381.934 540.203 382.085 540.45 382.122 540.703C382.23 541.437 382.425 542.078 382.311 542.836C382.186 543.668 381.789 544.429 381.328 545.11C381.143 545.385 380.944 545.653 380.735 545.91C379.378 547.606 378.059 548.445 376.998 549.118C376.45 549.467 375.888 549.816 375.416 550.281C374.992 550.697 374.689 551.201 374.477 551.765C374.396 551.988 374.322 552.203 374.282 552.439C374.083 552.404 373.885 552.337 373.686 552.294C372.551 552.047 370.814 551.565 369.804 550.757C368.215 549.492 367.377 549.238 365.98 549.7C364.283 550.257 361.196 553.979 360.055 554.988C359.365 555.597 357.955 556.359 356.571 556.383C356.719 556.507 359.13 557.092 360.718 555.908C362.307 554.72 363.607 553.588 364.745 552.714C365.526 552.114 366.758 551.388 369.205 552.728C370.36 553.359 371.585 553.902 372.868 554.177C373.174 554.244 373.511 554.332 373.824 554.356C373.891 554.364 373.986 554.356 374.046 554.392C374.144 554.452 374.107 554.72 374.117 554.825C374.14 555.058 374.167 555.294 374.187 555.527C374.312 556.891 374.538 557.825 374.706 558.509C374.77 558.763 374.837 559.052 374.867 559.242C374.867 559.26 374.464 559.348 374.426 559.352C374.161 559.373 373.871 559.316 373.605 559.278C373.329 559.239 373.056 559.186 372.787 559.119C372.316 559.003 371.855 558.851 371.4 558.675C369.963 558.118 369.586 557.963 367.014 558.756C364.442 559.546 364.142 559.729 361.567 559.708C358.793 559.683 354.292 557.547 352.04 556.225C355.474 558.964 357.106 561.135 359.675 564.065C360.399 564.89 361.092 565.746 361.833 566.561C362.617 567.424 363.452 568.235 364.388 568.916C365.428 569.674 366.576 570.255 367.791 570.629C368.226 570.763 368.667 570.872 369.111 570.957C369.32 570.995 369.525 571.034 369.734 571.066C369.815 571.077 370.074 571.045 370.124 571.112C370.185 571.189 370.01 571.493 369.976 571.574C369.858 571.87 369.751 572.166 369.626 572.458C369.347 573.107 369.03 573.735 368.697 574.355C368.401 574.905 368.088 575.444 367.754 575.97C367.623 576.174 367.458 576.347 367.36 576.565C367.239 576.83 367.162 577.091 366.983 577.323C366.761 577.616 366.522 577.901 366.283 578.18C365.782 578.765 365.253 579.326 364.704 579.865C362.779 581.751 360.591 583.337 358.251 584.603C355.8 585.928 353.181 586.908 350.495 587.56C347.643 588.255 344.711 588.583 341.786 588.583C334.598 588.583 327.202 586.633 320.399 582.946C320.348 582.918 320.295 582.9 320.244 582.883L320.167 582.84C300.618 567.964 288.946 544.038 288.946 518.836C288.946 490.557 303.56 464.238 327.085 450.144ZM378.685 561.396C380.045 561.499 380.937 562.172 382.176 562.711C383.411 563.247 386.34 563.649 387.145 563.462C386.997 563.497 386.832 563.621 386.694 563.695C386.542 563.776 386.391 563.857 386.239 563.938C385.946 564.097 385.66 564.259 385.371 564.421C384.829 564.731 384.293 565.048 383.755 565.369C382.758 565.961 381.762 566.554 380.715 567.047C379.641 567.551 378.52 567.936 377.362 568.158C376.699 568.285 376.029 568.362 375.356 568.397C374.585 568.44 373.824 568.376 373.053 568.38C372.949 568.38 372.669 568.429 372.588 568.355C372.521 568.295 372.551 568.105 372.555 568.02C372.565 567.823 372.555 567.629 372.555 567.435C372.555 567.051 372.558 566.667 372.578 566.282C372.605 565.768 372.612 565.133 372.868 564.671C373.356 563.793 374.255 563.018 375.049 562.331C375.315 562.101 375.568 561.855 375.834 561.625C375.945 561.53 376.063 561.555 376.207 561.537C377.035 561.428 377.84 561.333 378.682 561.396H378.685ZM370.343 567.802C369.714 567.826 369.027 567.481 368.461 567.216C367.889 566.949 367.337 566.628 366.808 566.275C365.994 565.729 365.263 565.073 364.492 564.467C363.587 563.755 361.796 562.662 360.055 561.611C360.84 561.886 363.789 561.812 365.075 561.417C366.361 561.023 367.317 560.448 368.677 560.501C369.417 560.529 370.158 560.635 370.875 560.85C371.164 560.935 371.447 561.04 371.727 561.157C371.851 561.21 371.969 561.273 372.094 561.326C372.178 561.361 372.245 561.428 372.329 561.47C372.349 561.481 372.558 561.559 372.565 561.551L372.481 561.633C371.794 562.306 371.316 562.905 370.976 563.515C370.949 563.561 370.925 563.61 370.902 563.656C370.279 564.911 370.397 566.427 370.35 567.809L370.343 567.802ZM285.631 460.417L285.432 460.283C284.631 459.747 283.836 459.221 283.069 458.682C278.474 455.453 263.853 443.259 268.637 421.963L268.913 420.73L269.179 421.967C270.663 428.898 273.959 433.526 279.258 436.121C282.049 437.489 285.23 438.063 288.6 438.669C293.936 439.632 299.978 440.721 305.849 445.322C309.896 448.498 311.949 454.258 312.478 458.224L312.498 458.375L312.387 458.478C311.165 459.634 309.929 460.885 308.714 462.193L308.394 462.539L308.25 462.084C304.604 450.518 295.885 448.47 291.697 447.483C290.599 447.225 289.478 447.021 288.394 446.823C284.254 446.069 279.982 445.29 276.12 441.32C277.396 446.562 281.827 449.238 286.502 452.062C287.923 452.918 289.391 453.807 290.815 454.787C296.908 458.985 300.436 464.248 301.601 470.879L301.621 471.003L301.55 471.105C300.618 472.448 299.732 473.809 298.911 475.152L298.585 475.688L298.409 475.078C296.242 467.485 290.599 463.734 285.62 460.42L285.631 460.417ZM269.886 479.604C270.418 479.664 270.869 479.692 271.303 479.692C274.518 479.692 277.726 478.529 280.561 477.503C281.204 477.271 281.833 477.041 282.449 476.833C284.762 476.047 287.014 475.628 288.96 475.628C292.431 475.628 294.858 476.826 296.383 479.294L296.474 479.439L296.393 479.59C295.568 481.155 294.777 482.781 294.04 484.423L293.895 484.748L293.622 484.536C292.229 483.45 289.526 482.107 284.557 481.882C283.486 481.832 282.389 481.815 281.328 481.797H281.2C277.13 481.734 273.286 481.674 269.748 480.161L267.923 479.382L269.882 479.604H269.886ZM281.779 490.673C275.935 488.932 271.229 486.154 267.395 482.185L266.156 480.905L267.711 481.719C272.013 483.968 276.878 484.043 281.17 484.11C282.352 484.127 283.415 484.145 284.462 484.194C289.926 484.444 292.124 486.126 292.814 486.842L292.949 486.983L292.875 487.166C292.017 489.288 291.222 491.52 290.519 493.793L290.421 494.111L290.135 493.966C287.607 492.686 284.796 491.583 281.779 490.684V490.673ZM267.805 518.801L266.937 518.808C266.391 518.815 265.87 518.819 265.368 518.819C261.776 518.819 258.942 518.568 255.165 515.35C248.523 509.692 240.574 508.19 231.697 510.954L230.724 511.257L231.414 510.478C234.693 506.77 239.905 502.338 244.698 501.027C246.314 500.586 247.96 500.371 249.724 500.371C253.192 500.371 256.545 501.196 260.093 502.067C262.379 502.631 264.739 503.213 267.189 503.565C267.974 503.678 268.731 503.734 269.438 503.734C272.875 503.734 275.205 502.405 277.672 500.999C278.84 500.333 280.002 499.673 281.386 499.053C282.934 498.358 284.786 498.02 287.038 498.02C287.597 498.02 288.189 498.045 288.97 498.105L289.303 498.129L289.219 498.468C288.596 500.992 288.081 503.593 287.694 506.199L287.647 506.505L287.361 506.438C285.294 505.973 282.123 506.308 278.268 507.429C274.646 508.479 271.865 508.969 269.516 508.969C267.368 508.969 265.772 508.56 264.082 508.127C262.045 507.605 259.736 507.013 255.946 507.013C255.333 507.013 254.69 507.027 254.023 507.059C255.898 507.672 257.501 508.546 259.174 509.463C263.19 511.659 267.765 514.151 277.898 513.82C281.618 513.675 285.008 516.002 286.664 517.363L286.772 517.451L286.765 517.945C286.758 518.237 286.755 518.533 286.755 518.829C286.755 520.377 286.802 522.002 286.896 523.655L286.93 524.241L286.465 523.916C280.413 519.686 272.983 518.798 267.815 518.798L267.805 518.801ZM262.83 546.048C267.792 544.623 270.364 540.598 272.848 536.702C276.477 531.023 281.443 527.766 286.469 527.766C286.63 527.766 286.789 527.773 286.947 527.783L287.182 527.794L287.246 528.041C287.435 529.796 287.671 531.51 287.947 533.128L288.001 533.448L287.691 533.47C284.988 533.653 281.783 535.155 278.164 537.936C277.026 538.81 275.949 539.72 274.999 540.524C271.367 543.594 268.233 546.245 262.917 546.612L260.17 546.802L262.826 546.04L262.83 546.048ZM285.439 544.155H285.237C281.355 544.186 278.14 545.748 275.033 547.26C271.764 548.847 268.687 550.345 264.749 550.345C263.513 550.345 262.288 550.2 260.995 549.901C260.393 549.763 259.8 549.601 259.228 549.418L256.612 548.589L259.332 548.847C260.143 548.924 260.914 548.963 261.628 548.963C268.536 548.963 272.35 545.741 276.386 542.328C277.369 541.496 278.383 540.64 279.47 539.804C283.789 536.484 286.61 535.779 288.219 535.768H288.445L288.492 535.997C289.081 538.867 289.828 541.729 290.71 544.507L290.886 545.06L290.357 544.874C288.984 544.391 287.374 544.155 285.435 544.155H285.439ZM287.613 577.334C286.933 577.838 286.263 578.339 285.59 578.821C281.335 581.881 274.468 585.526 265.917 585.526C259.241 585.526 252.899 583.284 247.062 578.86L246.116 578.145L247.267 578.339C249.361 578.688 251.142 578.857 252.704 578.857C257.302 578.857 260.941 577.38 264.156 574.21C266.405 571.993 268.085 569.11 269.866 566.057C272.687 561.22 275.885 555.738 282.133 551.723C284.469 550.225 287.634 549.396 291.047 549.396C291.461 549.396 291.875 549.411 292.283 549.435L292.458 549.446L292.525 549.615C293.134 551.177 293.777 552.689 294.43 554.103L294.622 554.522H294.114C293.989 554.519 293.872 554.515 293.754 554.515C284.523 554.515 280.658 560.452 277.837 564.784C276.992 566.081 276.292 567.403 275.552 568.806C273.384 572.903 271.148 577.126 265.267 580.436C272.252 579.452 277.911 575.011 282.944 571.066C287.751 567.298 292.293 563.734 297.201 563.734C298.069 563.734 298.945 563.846 299.803 564.068L299.908 564.097L299.968 564.188C301.231 566.152 302.611 568.101 304.072 569.987L304.449 570.477L303.685 570.456C303.617 570.453 303.547 570.449 303.479 570.449C296.864 570.449 292.161 573.946 287.613 577.33V577.334ZM292.784 603.382L291.38 604.453L292.394 602.976C292.747 602.458 293.037 602.007 293.269 601.591C295.262 598.055 295.45 593.715 295.615 589.891C295.646 589.157 295.676 588.474 295.716 587.804C296.05 582.322 297.639 573.132 304.557 573.132C305.051 573.132 305.563 573.174 306.082 573.262L306.832 573.382L306.9 573.46C307.495 574.147 308.138 574.859 308.862 575.635L309.071 575.857L308.845 576.058C306.543 578.113 304.641 580.753 303.193 583.908C302.389 585.664 301.756 587.525 301.086 589.496C299.382 594.512 297.622 599.694 292.788 603.382H292.784ZM314.676 582.255C312.969 584.226 311.825 586.418 310.717 588.54C309.828 590.243 308.919 591.978 307.755 593.567C304.57 597.911 301.035 601.126 296.952 603.403L295.386 604.274L296.622 602.941C300.147 599.137 301.746 594.428 303.159 590.271C303.816 588.347 304.425 586.545 305.179 584.91C306.526 581.98 308.3 579.544 310.461 577.665L310.653 577.5L310.832 577.679C312.094 578.941 313.424 580.182 314.787 581.37L314.932 581.497L314.676 582.255ZM337.931 595.771C333.878 600.131 331.04 606.064 329.936 612.473L329.848 612.981C329.04 617.705 328.596 620.303 324.964 623.229C319.46 627.66 315.948 632.493 316.716 641.673C316.77 642.311 316.915 643.393 317.157 644.986L317.312 645.994L316.672 645.222C313.41 641.281 311.343 635.997 311.003 630.723C310.667 625.534 312.538 621.128 314.521 616.467C315.396 614.409 316.302 612.279 317.019 610.048C318.406 605.754 317.548 602.927 316.642 599.938C316.262 598.693 315.874 597.41 315.588 595.898C314.713 591.241 315.699 586.81 316.655 583.471L316.699 583.38L316.871 583.2L317.093 583.323C319.143 584.98 321.308 586.549 323.516 587.991L323.698 588.11L323.634 588.325C322.24 592.961 321.82 600.019 322.22 604.161C322.267 604.64 323.247 615.523 317.999 622.404C322.829 620.193 324.294 613.013 325.714 606.054C326.916 600.163 328.051 594.604 331.205 592.538L331.333 592.453L331.471 592.52C333.562 593.553 335.696 594.488 337.82 595.302L338.224 595.457L337.924 595.778L337.931 595.771ZM344.92 634.855L345.358 633.254C347.515 625.337 345.482 619.09 343.469 614.532C340.729 608.328 338.49 601.859 340.655 596.585L340.752 596.342L340.991 596.423C342.499 596.923 344.055 597.385 345.613 597.794L345.889 597.865L345.815 598.15C345.337 599.976 344.836 603.865 346.812 609.385C347.361 610.915 351.989 624.582 345.849 633.501L344.92 634.851V634.855ZM356.42 600.227C355.591 601.404 354.888 602.863 354.272 604.682C353.366 607.351 353.528 610.915 353.699 614.691C354.013 621.635 354.366 629.507 348.478 634.562L347.098 635.747L348.067 634.178C352.727 626.648 351.538 616.02 348.875 608.581C347.017 603.399 347.623 599.909 347.97 598.651L348.041 598.39L348.293 598.446C350.905 599.028 353.572 599.472 356.221 599.765L356.702 599.818L356.416 600.227H356.42ZM386.768 613.524C389.518 618.681 397.399 636.822 383.27 653.694L382.499 654.617L382.792 653.429C384.442 646.763 384.667 641.154 380.409 635.447C378.51 632.905 375.921 630.882 373.184 628.746C368.845 625.358 363.927 621.519 360.688 614.631C358.52 610.03 359.096 604.048 360.251 600.322L360.318 600.11L360.53 600.121C362.102 600.202 363.678 600.241 365.219 600.216L365.862 600.205L365.812 600.547C364.263 610.901 371.353 616.27 375.16 619.153C375.645 619.52 376.076 619.848 376.436 620.144C376.662 620.327 377.056 620.578 377.554 620.891C379.628 622.199 383.711 624.773 384.906 628.989C385.566 623.056 381.917 618.297 379.883 615.646C379.533 615.191 379.24 614.807 379.035 614.5C376.669 610.989 374.255 604.989 375.231 599.645L375.268 599.44L375.463 599.412C377.46 599.116 379.459 598.732 381.412 598.277L381.725 598.203L381.748 598.538C382.169 604.228 384.411 609.107 386.771 613.531L386.768 613.524ZM404.664 619.453C401.577 614.119 396.84 611.045 394.295 609.392L394.15 609.297C391.639 607.665 385.697 603.318 384.792 598.224C384.765 598.083 384.755 597.942 384.745 597.798L384.708 597.421L384.933 597.357C387.465 596.634 389.989 595.764 392.437 594.773L392.77 594.639L392.814 595.009C393.41 600.107 396.143 603.533 398.789 606.847C401.482 610.221 404.27 613.711 405.179 619.256L405.428 620.772L404.667 619.457L404.664 619.453ZM408.04 619.834L407.747 621.938L407.488 619.83C406.667 613.125 403.378 609.001 400.476 605.363C397.655 601.831 395.221 598.781 394.921 593.92L394.908 593.716L395.086 593.634C397.204 592.679 399.298 591.618 401.314 590.476L401.627 590.3L401.718 590.659C402.694 594.593 404.25 598.393 405.334 600.91C407.899 606.861 408.885 613.756 408.04 619.834ZM437.368 592.256L437.803 592.605C441.795 595.813 443.993 597.583 444.889 602.779C445.461 606.103 448.309 617.303 460.964 621.854L461.876 622.182L460.937 622.411C459.082 622.866 457.136 623.098 455.16 623.098C451.521 623.098 447.902 622.326 444.69 620.867C439.681 618.589 436.527 614.461 433.187 610.09C431.716 608.165 430.198 606.177 428.494 604.333C425.145 600.702 422.176 600.181 418.735 599.574C417.443 599.345 416.126 599.113 414.669 598.707C410.437 597.523 406.815 594.354 403.903 589.288L403.758 589.038L404 588.889C405.751 587.8 407.471 586.637 409.114 585.424L409.377 585.23L409.521 585.53C411.844 590.285 416.21 592.027 420.833 593.871C423.381 594.886 426.02 595.94 428.41 597.544C431.326 599.5 434.722 602.617 441.661 611.25C439.796 604.136 436.274 598.118 431.181 593.352C430.41 592.63 429.447 591.84 428.427 591.008C426.539 589.461 424.401 587.709 423.125 586.045C421.28 583.637 419.297 579.498 419.173 576.735L419.166 576.608L419.254 576.516C421.014 574.679 422.704 572.744 424.28 570.756L424.66 570.276L424.764 570.893C424.869 571.489 424.98 572.127 425.121 572.815C426.64 580.136 431.103 587.229 437.368 592.267V592.256ZM461.017 572.525C460.58 572.272 460.129 572.021 459.651 571.771C457.836 570.826 455.978 570.368 453.965 570.368C451.056 570.368 448.222 571.337 445.481 572.279C443.125 573.086 440.785 573.495 438.533 573.495C435.651 573.495 430.309 572.723 426.912 567.562L426.801 567.389L426.919 567.224C427.939 565.782 428.922 564.294 429.838 562.81L430.03 562.496L430.272 562.764C431.578 564.209 433.534 565.553 436.082 566.762C438.072 567.703 440.344 567.83 442.3 567.83C443.287 567.83 444.28 567.791 445.333 567.752C446.464 567.71 447.616 567.664 448.76 567.664C452.962 567.664 457.392 568.196 461.337 572.06L462.983 573.671L461.014 572.525H461.017ZM440.125 558.407C442.307 560.17 445.596 561.097 449.077 562.08C454.931 563.73 461.559 565.602 464.939 571.863L464.485 572.194C459.657 566.173 453.783 565.359 448.676 565.359C447.511 565.359 446.374 565.401 445.276 565.443C444.249 565.482 443.276 565.521 442.327 565.521C440.694 565.521 438.611 565.422 436.995 564.657C434.305 563.385 432.413 562.006 431.373 560.557L431.262 560.402L431.356 560.233C432.733 557.801 433.999 555.277 435.116 552.738L435.386 552.125L435.628 552.753C436.395 554.748 437.826 556.546 440.129 558.41L440.125 558.407ZM364.465 597.914C353.363 597.914 342.654 595.432 332.636 590.532L330.512 589.496L332.808 589.986C338.258 591.146 343.688 591.265 348.707 590.367C351.508 589.862 354.255 589.045 356.874 587.885C359.372 586.774 361.745 585.354 363.903 583.63C366 581.952 367.886 579.985 369.481 577.782C370.158 576.844 370.478 575.793 370.996 574.775C371.289 574.196 371.568 573.611 371.814 573.008C371.935 572.709 372.05 572.402 372.154 572.092C372.205 571.94 372.245 571.789 372.296 571.637C372.329 571.538 372.38 571.45 372.386 571.348C373.777 571.538 375.201 571.454 376.578 571.211C378.066 570.95 379.517 570.495 380.917 569.906C382.196 569.367 383.435 568.715 384.613 567.96C385.546 567.365 386.451 566.705 387.276 565.947C390.131 563.321 391.976 561.343 395.669 559.006C393.292 560.071 388.599 561.692 385.839 561.407C383.277 561.143 382.997 560.927 380.52 559.852C379.503 559.412 378.449 558.943 377.328 559.013C377.237 559.02 377.157 559.038 377.062 559.038C377.025 558.685 376.941 558.322 376.85 557.949C376.692 557.304 376.497 556.507 376.389 555.308C376.291 554.237 376.285 553.722 376.359 553.295C376.45 553.324 376.541 553.327 376.635 553.324C378.089 553.482 379.328 554.346 380.176 554.857C381.075 555.4 382.078 556.161 382.937 556.768C384.142 557.621 387.451 559.514 390.134 558.668C388.582 558.548 386.556 557.596 385.616 556.845C384.532 555.975 383.533 554.984 382.455 554.103C381.553 553.366 380.695 552.576 379.799 551.832C379.614 551.681 379.429 551.529 379.244 551.381C378.981 551.17 378.739 550.99 378.409 550.934C378.493 550.856 378.608 550.803 378.705 550.743C378.83 550.662 378.954 550.577 379.076 550.496C379.341 550.317 379.601 550.13 379.853 549.932C380.442 549.481 381.001 548.984 381.52 548.445C381.839 548.11 382.146 547.761 382.435 547.398C385.377 543.717 384.617 541.229 383.943 539.036C383.802 538.571 383.64 538.165 383.415 537.742C383.304 537.534 383.142 537.287 382.977 537.125C382.21 536.36 381.402 535.673 380.52 535.049C379.102 534.044 378.227 533.364 378.106 532.003C378.022 531.062 378.291 530.692 379.076 529.754C379.24 529.557 379.412 529.352 379.587 529.13C382.243 525.735 388.023 515.872 389.488 509.942C394.507 489.63 387.424 468.563 371.451 456.274C363.378 450.063 351.468 446.358 339.594 446.358C338.355 446.358 336.834 446.414 335.309 446.52L333.666 446.633L335.184 445.963C344.472 441.853 354.329 439.769 364.475 439.769C368.101 439.769 371.781 440.048 375.403 440.601C375.524 440.633 375.611 440.651 375.686 440.654H375.733C393.447 443.446 409.686 452.82 421.496 467.055C433.423 481.434 439.991 499.828 439.991 518.847C439.991 562.45 406.118 597.921 364.479 597.921L364.465 597.914ZM475.655 545.364C472.578 545.656 469.558 546.837 466.357 548.089C461.896 549.83 457.287 551.631 451.541 551.631C450.457 551.631 449.353 551.565 448.255 551.431C444.825 551.015 441.082 548.935 437.984 545.72L437.86 545.589L437.917 545.417C438.442 543.827 438.927 542.205 439.351 540.594L439.469 540.157L439.799 540.45C442.913 543.213 447.892 544.193 451.214 544.193C451.942 544.193 452.622 544.151 453.231 544.063C456.173 543.654 458.88 542.547 461.502 541.479C464.67 540.185 467.666 538.962 470.911 538.962C472.51 538.962 474.045 539.262 475.57 539.878C471.588 536.448 466.616 535.102 460.257 535.733C458.604 535.895 457.143 535.976 455.789 535.976C449.477 535.976 445.077 534.196 441.523 530.198L441.432 530.096L441.452 529.958C441.751 527.667 441.964 525.358 442.075 523.098L442.102 522.538L442.522 522.883C447.76 527.174 453.759 527.473 459.048 527.738C459.873 527.78 460.694 527.819 461.512 527.875C467.144 528.252 485.976 531.157 491.85 552.745L492.17 553.919L491.379 553.02C487.834 548.998 483.68 545.276 477.345 545.276C476.796 545.276 476.227 545.304 475.655 545.357V545.364Z" fill="black"/>
<path d="M346.585 657.73C344.838 658.865 343.66 661.269 345.195 663.857C346.73 666.441 349.309 666.395 351.056 665.26C352.002 664.643 352.685 663.737 352.985 662.7C353.321 661.53 353.136 660.296 352.446 659.136C350.908 656.549 348.332 656.595 346.585 657.73ZM350.026 663.525C349.083 664.139 347.693 664.16 346.865 662.767C346.037 661.375 346.676 660.081 347.615 659.468C348.558 658.854 349.948 658.83 350.773 660.222C351.601 661.615 350.965 662.908 350.022 663.525H350.026Z" fill="black"/>
<path d="M232.46 453.895C231.797 455.862 231.265 457.353 230.834 458.555C229.626 461.943 229.373 462.648 230.215 463.184C230.589 463.423 230.919 463.416 231.316 463.156C231.831 462.824 232.511 462.038 233.864 460.473C234.686 459.525 235.706 458.347 237.066 456.831C238.937 457.526 240.358 458.079 241.503 458.53C244.226 459.595 245.051 459.919 245.603 459.556C245.731 459.472 245.839 459.355 245.936 459.186C246.448 458.305 245.913 457.801 243.347 455.365C242.442 454.505 241.317 453.44 239.873 452.012C240.536 450.049 241.068 448.558 241.496 447.356C242.704 443.968 242.954 443.259 242.119 442.723C241.742 442.484 241.412 442.491 241.014 442.752C240.503 443.087 239.823 443.869 238.469 445.434C237.648 446.383 236.631 447.56 235.268 449.076L227.636 446.263C227.333 446.15 227.017 446.182 226.751 446.354C226.468 446.538 226.28 446.851 226.246 447.2C226.212 447.535 226.327 447.853 226.573 448.092L232.46 453.902V453.895ZM233.14 450.676C234.8 451.364 235.487 451.649 236.264 451.138C236.709 450.853 237.146 450.324 237.877 449.453C238.173 449.101 238.513 448.692 238.914 448.23C238.685 448.871 238.48 449.407 238.301 449.869C237.254 452.583 237.278 452.675 239.523 454.748C239.856 455.055 240.244 455.411 240.685 455.83C240.112 455.605 239.624 455.404 239.203 455.227C237.54 454.54 236.854 454.254 236.073 454.762C235.632 455.048 235.191 455.576 234.463 456.447C234.167 456.8 233.827 457.205 233.423 457.674C233.639 457.075 233.831 456.563 233.999 456.123C235.073 453.285 235.049 453.193 232.834 451.163C232.497 450.853 232.107 450.497 231.663 450.073C232.238 450.299 232.723 450.5 233.144 450.676H233.14Z" fill="black"/>
<path d="M290.293 624.371C289.296 623.771 287.984 623.786 287.021 624.413C286.203 624.945 285.735 625.844 285.701 626.948C285.664 628.153 286.172 629.162 287.098 629.722C288.095 630.325 289.411 630.311 290.374 629.683C291.192 629.151 291.656 628.252 291.693 627.149C291.73 625.929 291.232 624.942 290.296 624.374L290.293 624.371Z" fill="black"/>
<path d="M228.896 535.877C227.9 535.275 226.584 535.292 225.624 535.916C224.81 536.449 224.338 537.351 224.305 538.451C224.268 539.671 224.763 540.658 225.705 541.225C226.702 541.828 228.018 541.814 228.981 541.186C229.799 540.654 230.267 539.755 230.297 538.655C230.337 537.45 229.826 536.438 228.9 535.877H228.896Z" fill="black"/>
<path d="M311.98 400.643C312.977 401.246 314.293 401.232 315.256 400.604C316.074 400.072 316.542 399.173 316.572 398.073C316.609 396.867 316.101 395.856 315.172 395.295C314.175 394.692 312.859 394.71 311.9 395.338C311.082 395.866 310.614 396.772 310.58 397.872C310.543 399.092 311.038 400.079 311.977 400.646L311.98 400.643Z" fill="black"/>
<path d="M257.594 609.664L257.204 603.667L254.174 608.772L248.609 607.309L252.312 611.899L249.262 616.989L254.575 614.726L258.254 619.333L257.84 613.34L263.159 611.098L257.594 609.664Z" fill="black"/>
<path d="M316.472 493.212C318.936 491.664 335.459 484.571 350.88 498.975C350.776 498.573 344.787 488.354 332.87 487.416C323.121 486.648 317.937 491.385 316.469 493.212H316.472Z" fill="black"/>
<path d="M335.589 480.507C346.476 481.071 354.061 486.256 358.191 492.443C361.359 497.192 363.16 504.02 363.086 521.526C363.056 528.658 362.8 536.403 359.521 537.788C357.781 538.521 355.69 537.83 354.811 535.416C353.933 533.001 354.768 530.357 355.613 529.324C352.761 531.756 352.664 534.323 353.084 536.11C353.946 539.752 357.548 540.926 361.322 539.907C362.813 539.505 364.042 538.465 364.668 537.922C367.907 540.926 372.283 539.706 374.064 537.95C374.865 537.164 375.279 535.62 375.272 535.19C373.815 538.148 370.772 538.278 369.778 538.183C367.839 537.993 366.833 536.991 365.675 535.137C364.651 533.501 364.901 521.974 365.099 519.115C365.23 517.208 364.988 505.91 364.81 503.999C364.177 497.132 362.554 491.936 360.393 488.216C357.72 483.613 350.667 475.928 335.071 475.406C323.743 475.029 314.539 480.207 308.156 486.426C319.373 480.57 323.79 479.897 335.593 480.51L335.589 480.507Z" fill="black"/>
<path d="M319.542 474.983C320.447 474.983 321.181 474.214 321.181 473.266C321.181 472.318 320.447 471.549 319.542 471.549C318.636 471.549 317.902 472.318 317.902 473.266C317.902 474.214 318.636 474.983 319.542 474.983Z" fill="black"/>
<path d="M359.69 480.704C360.596 480.704 361.33 479.936 361.33 478.987C361.33 478.039 360.596 477.271 359.69 477.271C358.785 477.271 358.051 478.039 358.051 478.987C358.051 479.936 358.785 480.704 359.69 480.704Z" fill="black"/>
<path d="M370.62 592.316C369.714 592.316 368.98 593.084 368.98 594.033C368.98 594.981 369.714 595.749 370.62 595.749C371.525 595.749 372.259 594.981 372.259 594.033C372.259 593.084 371.525 592.316 370.62 592.316Z" fill="black"/>
<path d="M329.173 472.152C330.365 472.152 331.331 471.14 331.331 469.896C331.331 468.651 330.365 467.636 329.173 467.636C327.982 467.636 327.016 468.648 327.016 469.896C327.016 471.144 327.982 472.152 329.173 472.152Z" fill="black"/>
<path d="M351.994 475.187C353.186 475.187 354.152 474.176 354.152 472.928C354.152 471.68 353.186 470.668 351.994 470.668C350.802 470.668 349.836 471.68 349.836 472.928C349.836 474.176 350.802 475.187 351.994 475.187Z" fill="black"/>
<path d="M341.17 472.244C342.793 472.244 344.103 470.869 344.103 469.173C344.103 467.477 342.79 466.099 341.17 466.099C339.551 466.099 338.238 467.474 338.238 469.173C338.238 470.872 339.551 472.244 341.17 472.244Z" fill="black"/>
<path d="M318.886 508.257C317.435 510.03 315.53 512.167 313.187 513.164C316.476 512.745 319.3 511.042 321.189 509.586C322.512 510.249 323.989 510.838 325.629 511.243C324.915 513.316 323.673 516.464 322.185 518.389C325.134 516.14 327.154 513.429 328.248 511.708C328.877 511.782 329.52 511.835 330.187 511.846C331.678 511.874 332.971 511.828 334.112 511.737C334.264 513.725 334.371 516.838 333.819 518.992C335.368 516.178 336.055 513.312 336.364 511.455C338.734 511.046 340.263 510.372 341.535 509.706C341.953 511.102 343.003 514.916 342.838 517.486C344.161 513.425 343.841 509.519 343.73 508.536C344.386 508.222 345.077 507.954 345.905 507.781C349.604 507.013 350.961 508.744 352.469 509.71C352.675 509.844 353.685 509.978 353.27 509.033C352.358 506.946 348.924 504.958 345.413 505.553C342.562 506.036 340.189 509.301 331.81 509.301C327.161 509.301 322.724 507.764 320.064 506.502C317.405 505.236 313.092 501.306 312.671 501.669C312.311 501.975 312.665 502.599 313.611 503.671C312.665 504.781 310.598 506.755 306.141 508.028C309.446 508.398 313.244 506.907 315.439 505.557C316.277 506.34 317.438 507.309 318.889 508.257H318.886Z" fill="black"/>
</g>
</g>
<defs>
<clipPath id="clip0_1572_11635">
<rect width="375" height="812" fill="white"/>
</clipPath>
<clipPath id="clip1_1572_11635">
<rect width="59" height="36" fill="white" transform="translate(163 61)"/>
</clipPath>
<clipPath id="clip2_1572_11635">
<rect width="297.699" height="295.279" fill="white" transform="translate(224.301 370.721)"/>
</clipPath>
</defs>
</svg>
