<svg width="24" height="24" viewBox="0 0 24 24" fill="none" xmlns="http://www.w3.org/2000/svg">
<path d="M17.2873 0.75L13.0498 7.0875H15.1498L19.8748 0.75H17.2873Z" fill="#428BC1"/>
<path d="M15.1502 0.75L10.9502 7.0875H13.0502L17.2877 0.75H15.1502Z" fill="#E8E8E8"/>
<path d="M13.0496 0.75L8.84961 7.0875H10.9496L15.1496 0.75H13.0496Z" fill="#ED4C5C"/>
<path d="M12.0004 23.2498C16.2668 23.2498 19.7254 19.7912 19.7254 15.5248C19.7254 11.2584 16.2668 7.7998 12.0004 7.7998C7.73399 7.7998 4.27539 11.2584 4.27539 15.5248C4.27539 19.7912 7.73399 23.2498 12.0004 23.2498Z" fill="#B2C1C0"/>
<path d="M8.13828 5.6626C7.95078 5.6626 7.80078 5.8126 7.80078 6.0001V9.1501C7.80078 9.3376 7.95078 9.4876 8.13828 9.4876H15.8633C16.0508 9.4876 16.2008 9.3376 16.2008 9.1501V6.0001C16.2008 5.8126 16.0508 5.6626 15.8633 5.6626H8.13828ZM15.5258 8.1376C15.5258 8.3251 15.3758 8.4751 15.1883 8.4751H8.85078C8.66328 8.4751 8.51328 8.3251 8.51328 8.1376V6.7126C8.51328 6.5251 8.66328 6.3751 8.85078 6.3751H15.1883C15.3758 6.3751 15.5258 6.5251 15.5258 6.7126V8.1376Z" fill="#B2C1C0"/>
<path opacity="0.5" d="M5.3623 16.4251C5.3623 12.2251 8.58731 8.8126 12.7123 8.5126C12.5248 8.5126 12.2998 8.4751 12.1123 8.4751C8.1748 8.4751 4.9873 11.6626 4.9873 15.6376C4.9873 16.8001 5.2873 17.9251 5.7748 18.9001C5.5123 18.1126 5.3623 17.2876 5.3623 16.4251Z" fill="#3E4347"/>
<path opacity="0.33" d="M14.9623 21.4876C18.4498 19.1626 19.4998 14.6251 17.4748 11.1001C17.5873 11.2501 17.6998 11.4001 17.8123 11.5876C19.9873 14.8126 19.0873 19.2001 15.8248 21.4126C14.8498 22.0876 13.7623 22.4626 12.6748 22.5751C13.4998 22.3126 14.2498 21.9751 14.9623 21.4876Z" fill="white"/>
<path d="M8.85 7.0875H10.95L6.7125 0.75H4.125L8.85 7.0875Z" fill="#ED4C5C"/>
<path d="M10.9504 7.0875H13.0504L8.85039 0.75H6.71289L10.9504 7.0875Z" fill="#E8E8E8"/>
<path opacity="0.5" d="M12.3371 1.80029L11.2871 3.37529L13.7621 7.08779H15.1496L15.5246 6.56279L12.3371 1.80029Z" fill="#3E4347"/>
<path d="M13.0496 7.0875H15.1496L10.9496 0.75H8.84961L13.0496 7.0875Z" fill="#428BC1"/>
<path opacity="0.5" d="M11.8129 11.8125C11.0254 11.8125 10.3879 12.45 10.3879 13.2H9.37539C9.37539 13.3125 9.33789 13.425 9.33789 13.5375H10.7629C10.7629 12.75 11.4004 12.1125 12.1879 12.1125C12.4879 12.1125 12.7504 12.225 12.9754 12.375C12.7129 12.075 12.3004 11.8125 11.8129 11.8125Z" fill="#3E4347"/>
<path opacity="0.5" d="M14.625 20.2497H9.375V20.6247H15V19.1997H14.625V20.2497Z" fill="#3E4347"/>
<path opacity="0.5" d="M11.8127 16.05C11.0252 16.05 10.3877 16.6875 10.3877 17.475V18.9H10.7252V17.85C10.7252 17.0625 11.3627 16.425 12.1502 16.425C13.6877 16.425 14.9627 15.15 14.9627 13.6125C14.9627 12.75 14.5877 11.9625 13.9502 11.4375C14.3627 11.925 14.6252 12.5625 14.6252 13.2375C14.6252 14.775 13.3877 16.05 11.8127 16.05Z" fill="#3E4347"/>
<path opacity="0.33" d="M10.7627 18.8628H14.6252V19.2003H10.7627V18.8628Z" fill="white"/>
<path opacity="0.33" d="M12.1871 15.0006C12.9746 15.0006 13.6121 14.3631 13.6121 13.5756C13.6121 13.0881 13.3871 12.6756 13.0121 12.4131C13.1621 12.6381 13.2746 12.9006 13.2746 13.2006C13.2746 13.9881 12.6371 14.6256 11.8496 14.6256C10.3121 14.6256 9.03711 15.9006 9.03711 17.4381V20.2506H9.37461V17.7756C9.37461 16.2381 10.6121 15.0006 12.1871 15.0006Z" fill="white"/>
<path opacity="0.33" d="M12.1875 10.7628C12.8625 10.7628 13.5 11.0253 13.9875 11.4378C13.4625 10.8378 12.7125 10.4253 11.8125 10.4253C10.275 10.4253 9 11.7003 9 13.2378H9.375C9.5625 11.8503 10.725 10.7628 12.1875 10.7628Z" fill="white"/>
</svg>
