<svg width="14" height="10" viewBox="0 0 14 10" fill="none" xmlns="http://www.w3.org/2000/svg">
<path fill-rule="evenodd" clip-rule="evenodd" d="M4.19196 9.40015L1.02295 6.21118C0.531418 5.71191 0.531418 4.91064 1.02295 4.41138C1.26006 4.17261 1.58275 4.03809 1.9194 4.03809C2.25604 4.03809 2.57878 4.17236 2.81595 4.41138L5.08795 6.69824L11.164 0.585205C11.4008 0.345703 11.7236 0.210938 12.0605 0.210938C12.3973 0.210938 12.7201 0.345703 12.957 0.585205C13.4496 1.08398 13.4496 1.88623 12.957 2.38501L5.98495 9.40137C5.74756 9.63965 5.42494 9.77368 5.08846 9.77368C4.75197 9.77368 4.42935 9.63965 4.19196 9.40137V9.40015Z" fill="#217EFD"/>
</svg>
