<svg width="20" height="23" viewBox="0 0 20 23" fill="none" xmlns="http://www.w3.org/2000/svg">
<path fill-rule="evenodd" clip-rule="evenodd" d="M7.69324 21.2908L6.64929 19.8987C6.46021 19.6277 6.16113 19.4541 5.83215 19.4246C5.50134 19.4224 5.1853 19.5613 4.96326 19.8064L4.39429 19.2795L4.96326 19.8066C3.47424 21.3945 2.32727 21.2708 1.7793 21.0537C1.23132 20.8367 0.279297 20.1257 0.279297 17.8357V6.22681C0.279297 1.64893 1.60229 0.257812 5.93433 0.257812H13.7504C18.0824 0.257812 19.4064 1.64893 19.4064 6.22681V17.8357C19.4064 20.1147 18.4653 20.8267 17.9064 21.0537C17.3474 21.2808 16.2213 21.3938 14.7224 19.8066C14.504 19.551 14.1803 19.4099 13.8445 19.4243C13.5125 19.4534 13.2101 19.627 13.0173 19.8987L11.9723 21.2908C11.4705 21.9819 10.676 22.4009 9.82226 22.4248C8.97314 22.4048 8.18347 21.9844 7.69324 21.2908ZM5.90527 17.8667C6.69263 17.9214 7.41541 18.3215 7.87939 18.96L8.92432 20.3518C9.1145 20.6636 9.45325 20.854 9.81836 20.854C10.1835 20.854 10.5222 20.6636 10.7124 20.3518L11.7562 18.9597C12.2156 18.311 12.9465 17.9082 13.7405 17.866C14.5343 17.824 15.3038 18.1472 15.8292 18.7439C16.6152 19.5786 17.1212 19.6816 17.3082 19.6096C17.5563 19.5095 17.8252 18.9097 17.8252 17.8357V6.22681C17.8252 2.50488 17.1742 1.80371 13.7252 1.80371H5.90027C2.44727 1.80371 1.80029 2.50366 1.80029 6.22681V17.8357C1.80029 18.9197 2.06934 19.5166 2.31726 19.6096C2.49329 19.6816 3.00928 19.5786 3.79529 18.7437C4.30969 18.1987 5.02112 17.8831 5.77026 17.8667H5.90527ZM6.98132 12.5137C6.6239 12.5251 6.28857 12.3411 6.10645 12.0332C5.92432 11.7256 5.92432 11.343 6.10645 11.0352C6.28857 10.7273 6.6239 10.5432 6.98132 10.5547H12.6674C13.0248 10.5432 13.3601 10.7273 13.5422 11.0352C13.7244 11.3428 13.7244 11.7253 13.5422 12.0332C13.3601 12.3411 13.0248 12.5251 12.6674 12.5137H6.98132ZM6.98132 8.00171C6.6239 8.01318 6.28857 7.8291 6.10645 7.52124C5.92432 7.21362 5.92432 6.83105 6.10645 6.52319C6.28857 6.21533 6.6239 6.03125 6.98132 6.04272H12.6674C13.0248 6.03125 13.3601 6.21533 13.5422 6.52319C13.7244 6.83081 13.7244 7.21338 13.5422 7.52124C13.3601 7.8291 13.0248 8.01318 12.6674 8.00171H6.98132Z" fill="#809FB8"/>
</svg>
