<svg width="16" height="20" viewBox="0 0 16 20" fill="none" xmlns="http://www.w3.org/2000/svg">
<path d="M15.3848 3.20605e-05H3.07668C1.37841 0.00182494 0.00168046 1.31772 0 2.94097V15.4895C0 15.5307 0.00468866 15.5729 0.0140663 15.6132C0.00562659 15.701 0 15.7907 0 15.8803V17.0591C0.00187563 18.6824 1.3785 19.9984 3.07668 20H15.3848C15.7243 20 16 19.7365 16 19.412V0.588026C16 0.263527 15.7243 3.20605e-05 15.3848 3.20605e-05ZM3.69197 1.17608H14.7688V12.9412H3.69197V1.17608ZM2.46163 1.28455V13.0003C2.01432 13.0882 1.5942 13.271 1.23036 13.5346V2.94114C1.23317 2.19535 1.72549 1.53197 2.46163 1.28455ZM3.0768 18.8241C2.05746 18.8232 1.2313 18.0335 1.23036 17.0592V15.8804C1.23223 14.9078 2.05652 14.119 3.07493 14.1181H14.7697V14.9025H3.07685C2.73737 14.9025 2.46168 15.166 2.46168 15.4905C2.46168 15.815 2.73737 16.0785 3.07685 16.0785H14.7697V16.8629H3.07685C2.73737 16.8629 2.46168 17.1264 2.46168 17.4509C2.46168 17.7763 2.73737 18.0398 3.07685 18.0398H14.7697V18.8242L3.0768 18.8241Z" fill="#777E90"/>
<path d="M12.4032 7.0594L13.4562 5.31593C13.566 5.13396 13.566 4.90987 13.4562 4.7279C13.3465 4.54504 13.143 4.43298 12.9236 4.43298H10.8174L9.76431 2.68951C9.65459 2.50754 9.45109 2.39551 9.23071 2.39551C9.01128 2.39551 8.80779 2.50756 8.69806 2.68951L7.64496 4.43298H5.53877C5.31934 4.43298 5.11585 4.54503 5.00612 4.7279C4.8964 4.90987 4.8964 5.13395 5.00612 5.31593L6.05921 7.0594L5.00612 8.80287C4.8964 8.98484 4.8964 9.20892 5.00612 9.3909C5.11583 9.57286 5.31933 9.6849 5.53877 9.6849H7.64496L8.69806 11.4284V11.4293C8.80777 11.6112 9.01127 11.7233 9.23165 11.7233C9.45109 11.7233 9.65457 11.6112 9.76431 11.4293L10.8174 9.68579L12.9236 9.6849C13.143 9.6849 13.3465 9.57285 13.4562 9.3909C13.566 9.20893 13.566 8.98484 13.4562 8.80287L12.4032 7.0594ZM10.462 8.50885C10.2426 8.50885 10.0391 8.62089 9.92935 8.80285L9.23071 9.95829L8.53304 8.80285C8.42332 8.62088 8.21982 8.50885 8.00038 8.50885H6.605L7.30268 7.3534C7.41239 7.17143 7.41239 6.94735 7.30268 6.76537L6.605 5.60993H8.00038C8.21981 5.60993 8.4233 5.49788 8.53304 5.31593L9.23071 4.16048L9.92839 5.31593H9.92933C10.039 5.49789 10.2425 5.60993 10.462 5.60993H11.8574L11.1597 6.76537C11.05 6.94734 11.05 7.17143 11.1597 7.3534L11.8574 8.50885H10.462Z" fill="#777E90"/>
</svg>
