<svg width="16" height="16" viewBox="0 0 16 16" fill="none" xmlns="http://www.w3.org/2000/svg">
<path d="M11.765 6.58842C12.0246 6.58842 12.2354 6.3776 12.2354 6.118C12.2383 4.9943 11.7908 3.91652 10.9941 3.12401C10.8098 2.94043 10.5122 2.94043 10.3286 3.12401C10.1444 3.30831 10.1444 3.60591 10.3286 3.78949C10.9482 4.40549 11.296 5.24378 11.2946 6.118C11.2946 6.3776 11.5054 6.58842 11.765 6.58842Z" fill="#777E90"/>
<path d="M13.4596 14.3628C13.076 13.9813 12.8609 13.4622 12.8623 12.9214V12.8469C13.6066 12.7658 14.1574 12.1161 14.1158 11.3689C14.0735 10.621 13.4546 10.0372 12.7052 10.0394H12.6909H12.6916C13.6167 8.94221 14.1222 7.55244 14.1172 6.11759C14.1172 2.74432 11.3729 0 7.99969 0C4.62646 0 1.88217 2.74432 1.88217 6.11759C1.87715 7.55252 2.38271 8.94232 3.30776 10.0394H3.29413C2.54477 10.0372 1.92592 10.621 1.8836 11.3689C1.84201 12.1161 2.39273 12.7658 3.13708 12.8469V12.9214C3.13852 13.4621 2.92338 13.9813 2.53974 14.3628L1.70647 15.1968C1.57165 15.3316 1.5315 15.5339 1.60393 15.7096C1.67707 15.8853 1.84845 16 2.0392 16H13.9609H13.9602C14.1509 16 14.3223 15.8853 14.3954 15.7096C14.4679 15.5339 14.4277 15.3317 14.2929 15.1968L13.4596 14.3628ZM4.44565 9.88167C3.40513 8.9064 2.81712 7.54324 2.82286 6.11756C2.82286 3.26346 5.14548 0.940815 7.99955 0.940815C10.8536 0.940815 13.1762 3.26346 13.1762 6.11756C13.182 7.54316 12.5939 8.90631 11.5534 9.88167C11.5068 9.92613 11.4695 9.97991 11.4444 10.0394H4.55463C4.52953 9.97991 4.49226 9.92613 4.44565 9.88167ZM2.82286 11.4507C2.82358 11.1911 3.03368 10.981 3.29399 10.9803H12.706H12.7053C12.9656 10.9803 13.1764 11.1911 13.1764 11.4507C13.1764 11.711 12.9656 11.9218 12.7053 11.9218H3.29401C3.0337 11.9211 2.82358 11.711 2.82286 11.4507ZM3.17425 15.0584L3.20436 15.0283H3.20508C3.76585 14.4711 4.07994 13.7124 4.07779 12.9213V12.8625H11.9215V12.9213C11.9193 13.7123 12.2334 14.471 12.7942 15.0283L12.8243 15.0584H3.17425Z" fill="#777E90"/>
<path d="M1.72534 10.0396C1.98493 10.0396 2.19575 9.82881 2.19575 9.56921C2.19575 9.30889 1.98493 9.09807 1.72534 9.09807H1.56829V8.62765C1.56829 8.36805 1.35747 8.15723 1.09788 8.15723C0.83828 8.15723 0.62746 8.36805 0.62746 8.62765V9.09807H0.470416C0.21082 9.09807 0 9.30889 0 9.56921C0 9.82881 0.21082 10.0396 0.470416 10.0396H0.62746V10.51C0.62746 10.7696 0.83828 10.9805 1.09788 10.9805C1.35747 10.9805 1.56829 10.7696 1.56829 10.51V10.0396H1.72534Z" fill="#777E90"/>
<path d="M15.5296 1.25493H15.2156V0.470421C15.2156 0.210822 15.0055 0 14.7451 0C14.4856 0 14.2747 0.210822 14.2747 0.470421V1.25493H13.9607C13.7011 1.25493 13.4902 1.46575 13.4902 1.72535C13.4902 1.98495 13.7011 2.19577 13.9607 2.19577H14.2747V2.98028C14.2747 3.23988 14.4856 3.4507 14.7451 3.4507C15.0055 3.4507 15.2156 3.23988 15.2156 2.98028V2.19577H15.5296C15.7892 2.19577 16.0001 1.98495 16.0001 1.72535C16.0001 1.46575 15.7892 1.25493 15.5296 1.25493Z" fill="#777E90"/>
</svg>
