<svg width="21" height="20" viewBox="0 0 21 20" fill="none" xmlns="http://www.w3.org/2000/svg">
<path fill-rule="evenodd" clip-rule="evenodd" d="M2.18531 15.3311L2.78918 12.6137C2.9267 11.9949 3.23785 11.4281 3.68612 10.9798L11.8927 2.77319C13.1945 1.47144 15.305 1.47144 16.6068 2.77318L17.7261 3.89247C19.0278 5.19422 19.0278 7.30477 17.7261 8.60652L9.51945 16.8131C9.07118 17.2614 8.50438 17.5725 7.88553 17.7101L5.1681 18.3139C3.38186 18.7109 1.78837 17.1174 2.18531 15.3311ZM4.41616 12.9753L3.81229 15.6927C3.67997 16.2881 4.21114 16.8193 4.80655 16.687L7.52398 16.0831C7.82156 16.017 8.09508 15.8705 8.31495 15.66L4.8392 12.1843C4.62871 12.4042 4.48229 12.6777 4.41616 12.9753ZM6.01743 11.0055L9.49374 14.4818L14.1486 9.82699L10.6723 6.35068L6.01743 11.0055ZM16.5476 7.42801L15.3271 8.64848L11.8508 5.17217L13.0712 3.9517C13.7221 3.30082 14.7774 3.30082 15.4283 3.9517L16.5476 5.07099C17.1984 5.72186 17.1984 6.77713 16.5476 7.42801Z" fill="#777E91"/>
</svg>
