<svg width="20" height="20" viewBox="0 0 20 20" fill="none" xmlns="http://www.w3.org/2000/svg">
<path fill-rule="evenodd" clip-rule="evenodd" d="M9.9928 3.47604L9.99978 3.47242L10.0071 3.4762L13.7183 5.70292L14.9998 6.47502V15.6667C14.9998 16.161 14.9985 16.4314 14.9826 16.6257L14.9807 16.6477L14.9587 16.6496C14.7644 16.6655 14.494 16.6667 13.9998 16.6667H5.99978C5.50556 16.6667 5.23514 16.6655 5.04083 16.6496L5.01886 16.6477L5.01695 16.6257C5.00107 16.4314 4.99978 16.161 4.99978 15.6667V6.47504L6.27658 5.70577L9.9928 3.47604ZM5.41785 4.27736L1.23772 6.78544C0.84307 7.02223 0.715099 7.53411 0.95189 7.92876C1.18868 8.32341 1.70056 8.45138 2.09521 8.21459L3.33311 7.47186V15.6667C3.33311 16.6002 3.33311 17.0669 3.51477 17.4234C3.67455 17.737 3.92952 17.992 4.24313 18.1518C4.59965 18.3334 5.06636 18.3334 5.99978 18.3334H13.9998C14.9332 18.3334 15.3999 18.3334 15.7564 18.1518C16.07 17.992 16.325 17.737 16.4848 17.4234C16.6664 17.0669 16.6664 16.6002 16.6664 15.6667V7.47183L17.9044 8.21459C18.299 8.45138 18.8109 8.32341 19.0477 7.92876C19.2845 7.53411 19.1565 7.02223 18.7619 6.78544L14.5769 4.27448L11.376 2.34591C11.1432 2.20569 10.9646 2.09809 10.8133 2.01718C10.778 1.99742 10.7421 1.97904 10.7058 1.96205C10.5798 1.90058 10.4706 1.85967 10.3584 1.83495C10.1222 1.78288 9.87739 1.78288 9.6411 1.83495C9.52864 1.85973 9.41918 1.9008 9.29281 1.96253C9.25714 1.97925 9.22192 1.9973 9.18722 2.01668C9.03567 2.09764 8.85682 2.2054 8.62361 2.34591L5.41785 4.27736Z" fill="#777E91"/>
<path fill-rule="evenodd" clip-rule="evenodd" d="M10.8333 16.6663V13.333C10.8333 12.8728 10.4602 12.4997 10 12.4997C9.53976 12.4997 9.16667 12.8728 9.16667 13.333V16.6663H10.8333ZM10 10.833C8.61929 10.833 7.5 11.9523 7.5 13.333V18.333H12.5V13.333C12.5 11.9523 11.3807 10.833 10 10.833Z" fill="#777E91"/>
</svg>
