<svg width="20" height="20" viewBox="0 0 20 20" fill="none" xmlns="http://www.w3.org/2000/svg">
<path fill-rule="evenodd" clip-rule="evenodd" d="M13.3337 3.33366H6.66699C4.82604 3.33366 3.33366 4.82604 3.33366 6.66699V13.3337C3.33366 15.1746 4.82604 16.667 6.66699 16.667H13.3337C15.1746 16.667 16.667 15.1746 16.667 13.3337V6.66699C16.667 4.82604 15.1746 3.33366 13.3337 3.33366ZM6.66699 1.66699C3.90557 1.66699 1.66699 3.90557 1.66699 6.66699V13.3337C1.66699 16.0951 3.90557 18.3337 6.66699 18.3337H13.3337C16.0951 18.3337 18.3337 16.0951 18.3337 13.3337V6.66699C18.3337 3.90557 16.0951 1.66699 13.3337 1.66699H6.66699Z" fill="#777E91"/>
<path d="M14.1663 6.66667C14.6266 6.66667 14.9997 6.29357 14.9997 5.83333C14.9997 5.3731 14.6266 5 14.1663 5C13.7061 5 13.333 5.3731 13.333 5.83333C13.333 6.29357 13.7061 6.66667 14.1663 6.66667Z" fill="#777E91"/>
<path fill-rule="evenodd" clip-rule="evenodd" d="M14.1663 9.99967C14.1663 12.3008 12.3008 14.1663 9.99967 14.1663C7.69849 14.1663 5.83301 12.3008 5.83301 9.99967C5.83301 7.69849 7.69849 5.83301 9.99967 5.83301C12.3008 5.83301 14.1663 7.69849 14.1663 9.99967ZM12.4997 9.99967C12.4997 11.3804 11.3804 12.4997 9.99967 12.4997C8.61892 12.4997 7.49967 11.3804 7.49967 9.99967C7.49967 8.61892 8.61892 7.49967 9.99967 7.49967C11.3804 7.49967 12.4997 8.61892 12.4997 9.99967Z" fill="#777E91"/>
</svg>
