<svg width="20" height="20" viewBox="0 0 20 20" fill="none" xmlns="http://www.w3.org/2000/svg">
<path fill-rule="evenodd" clip-rule="evenodd" d="M15.833 16.6663C16.2932 16.6663 16.6663 16.2932 16.6663 15.833C16.6663 15.3728 16.2932 14.9997 15.833 14.9997C15.3728 14.9997 14.9997 15.3728 14.9997 15.833C14.9997 16.2932 15.3728 16.6663 15.833 16.6663ZM15.833 18.333C17.2137 18.333 18.333 17.2137 18.333 15.833C18.333 14.4523 17.2137 13.333 15.833 13.333C14.4523 13.333 13.333 14.4523 13.333 15.833C13.333 17.2137 14.4523 18.333 15.833 18.333Z" fill="#777E91"/>
<path fill-rule="evenodd" clip-rule="evenodd" d="M12.9163 3.33366C11.7657 3.33366 10.833 4.2664 10.833 5.41699V14.5837C10.833 16.6547 9.15408 18.3337 7.08301 18.3337C5.01194 18.3337 3.33301 16.6547 3.33301 14.5837V8.33366C3.33301 7.87342 3.7061 7.50033 4.16634 7.50033C4.62658 7.50033 4.99967 7.87342 4.99967 8.33366V14.5837C4.99967 15.7343 5.93241 16.667 7.08301 16.667C8.2336 16.667 9.16634 15.7343 9.16634 14.5837V5.41699C9.16634 3.34592 10.8453 1.66699 12.9163 1.66699C14.9874 1.66699 16.6663 3.34592 16.6663 5.41699V10.8337C16.6663 11.2939 16.2932 11.667 15.833 11.667C15.3728 11.667 14.9997 11.2939 14.9997 10.8337V5.41699C14.9997 4.2664 14.0669 3.33366 12.9163 3.33366Z" fill="#777E91"/>
<path d="M3.44679 2.06774C3.76835 1.51648 4.56485 1.51648 4.88642 2.06774L6.35222 4.58054C6.67629 5.13609 6.27556 5.83377 5.6324 5.83377H2.7008C2.05764 5.83377 1.65691 5.13609 1.98098 4.58054L3.44679 2.06774Z" fill="#777E91"/>
</svg>
