<svg width="20" height="20" viewBox="0 0 20 20" fill="none" xmlns="http://www.w3.org/2000/svg">
<path fill-rule="evenodd" clip-rule="evenodd" d="M7.49882 8.36614C7.52332 8.82573 7.17061 9.21815 6.71103 9.24265C6.08379 9.27609 5.587 9.31699 5.19878 9.35794C4.67743 9.41292 4.36065 9.73316 4.30799 10.1938C4.23238 10.8552 4.16667 11.8561 4.16667 13.3329C4.16667 14.8098 4.23238 15.8107 4.30799 16.472C4.36074 16.9335 4.67672 17.2528 5.19729 17.3078C6.10898 17.404 7.61604 17.4996 10 17.4996C12.384 17.4996 13.891 17.404 14.8027 17.3078C15.3233 17.2528 15.6393 16.9335 15.692 16.472C15.7676 15.8107 15.8333 14.8098 15.8333 13.3329C15.8333 11.8561 15.7676 10.8552 15.692 10.1938C15.6394 9.73316 15.3226 9.41292 14.8012 9.35794C14.413 9.31699 13.9162 9.27609 13.289 9.24265C12.8294 9.21815 12.4767 8.82573 12.5012 8.36614C12.5257 7.90656 12.9181 7.55385 13.3777 7.57835C14.0301 7.61313 14.5558 7.65614 14.976 7.70046C16.213 7.83092 17.1997 8.7085 17.3479 10.0045C17.4323 10.7432 17.5 11.8092 17.5 13.3329C17.5 14.8567 17.4323 15.9227 17.3479 16.6613C17.1998 17.9566 16.2154 18.8346 14.9776 18.9652C13.9933 19.0691 12.4257 19.1663 10 19.1663C7.57435 19.1663 6.00672 19.0691 5.02236 18.9652C3.78459 18.8346 2.80017 17.9566 2.65211 16.6613C2.56767 15.9227 2.5 14.8567 2.5 13.3329C2.5 11.8092 2.56767 10.7432 2.65211 10.0045C2.80026 8.7085 3.78697 7.83092 5.02397 7.70046C5.44422 7.65614 5.96994 7.61313 6.6223 7.57835C7.08189 7.55385 7.47432 7.90656 7.49882 8.36614Z" fill="#777E91"/>
<path fill-rule="evenodd" clip-rule="evenodd" d="M7.67259 5.17226C7.34715 5.4977 6.81951 5.4977 6.49408 5.17226C6.16864 4.84683 6.16864 4.31919 6.49408 3.99375L9.41074 1.07709C9.73618 0.751649 10.2638 0.751649 10.5893 1.07709L13.5059 3.99375C13.8314 4.31919 13.8314 4.84683 13.5059 5.17226C13.1805 5.4977 12.6528 5.4977 12.3274 5.17226L10.8333 3.67819V11.6663C10.8333 12.1266 10.4602 12.4997 10 12.4997C9.53976 12.4997 9.16667 12.1266 9.16667 11.6663V3.67819L7.67259 5.17226Z" fill="#777E91"/>
</svg>
