<svg width="20" height="16" viewBox="0 0 20 16" fill="none" xmlns="http://www.w3.org/2000/svg">
<path fill-rule="evenodd" clip-rule="evenodd" d="M2.65018 9.6665C1.27208 9.67042 0.38248 11.2403 1.23148 12.4298C2.44733 14.133 4.65212 15.5 8.33297 15.5C14.0372 15.5 18.6161 10.8514 17.9751 5.35925L18.9141 3.48108C19.5654 2.17857 18.4337 0.69685 17.0057 0.98245L15.7651 1.23057C15.4361 1.05702 15.0957 0.926058 14.8048 0.831175C14.2378 0.646267 13.5516 0.5 12.9163 0.5C11.7752 0.5 10.7904 0.792758 10.0077 1.37994C9.23397 1.96053 8.79814 2.72354 8.55897 3.42421C8.44872 3.74717 8.3753 4.07112 8.3282 4.38202C7.88547 4.24269 7.43405 4.05522 6.9921 3.82629C5.98943 3.30693 5.17864 2.64852 4.72126 2.07126C3.9539 1.10275 2.3277 1.17456 1.75705 2.43351C0.952769 4.20789 1.17339 6.31122 1.89634 8.01075C2.13866 8.58033 2.45387 9.14342 2.83896 9.66525C2.77304 9.666 2.70997 9.66633 2.65018 9.6665ZM8.33289 13.8333C5.11344 13.8333 3.44871 12.6672 2.58792 11.4614C2.54924 11.4072 2.58824 11.3333 2.6548 11.3332C3.5305 11.3307 5.328 11.2892 6.5135 10.5954C6.57481 10.5595 6.56132 10.4691 6.49399 10.4465C3.73051 9.51733 2.15965 5.58216 3.27497 3.12158C3.30054 3.06517 3.37638 3.05773 3.41485 3.10628C4.68891 4.71432 7.47458 6.28933 9.89822 6.33242C9.9508 6.33333 9.99055 6.28558 9.98255 6.23361C9.88489 5.60044 9.51197 2.16667 12.9162 2.16667C13.7291 2.16667 14.9386 2.56319 15.3841 2.96942C15.4047 2.98819 15.4326 2.99672 15.46 2.99125L17.3325 2.61675C17.4005 2.60315 17.4544 2.67371 17.4234 2.73573L16.262 5.05849C16.2539 5.07462 16.2514 5.09312 16.2545 5.11088C17.0679 9.68333 13.3229 13.8333 8.33289 13.8333Z" fill="#777E91"/>
</svg>
