<svg width="17" height="16" viewBox="0 0 17 16" fill="none" xmlns="http://www.w3.org/2000/svg">
<path fill-rule="evenodd" clip-rule="evenodd" d="M8.4987 13.332C11.4442 13.332 13.832 10.9442 13.832 7.9987C13.832 5.05318 11.4442 2.66536 8.4987 2.66536C5.55318 2.66536 3.16536 5.05318 3.16536 7.9987C3.16536 10.9442 5.55318 13.332 8.4987 13.332ZM8.4987 14.6654C12.1806 14.6654 15.1654 11.6806 15.1654 7.9987C15.1654 4.3168 12.1806 1.33203 8.4987 1.33203C4.8168 1.33203 1.83203 4.3168 1.83203 7.9987C1.83203 11.6806 4.8168 14.6654 8.4987 14.6654Z" fill="#777E91"/>
<path fill-rule="evenodd" clip-rule="evenodd" d="M9.66575 12.1165C10.1582 11.1315 10.5013 9.67754 10.5013 7.9987C10.5013 6.31986 10.1582 4.86588 9.66575 3.88094C9.13341 2.81625 8.64467 2.66536 8.5013 2.66536C8.35793 2.66536 7.86919 2.81625 7.33685 3.88094C6.84438 4.86588 6.5013 6.31986 6.5013 7.9987C6.5013 9.67754 6.84438 11.1315 7.33685 12.1165C7.86919 13.1811 8.35793 13.332 8.5013 13.332C8.64467 13.332 9.13341 13.1811 9.66575 12.1165ZM8.5013 14.6654C10.3423 14.6654 11.8346 11.6806 11.8346 7.9987C11.8346 4.3168 10.3423 1.33203 8.5013 1.33203C6.66035 1.33203 5.16797 4.3168 5.16797 7.9987C5.16797 11.6806 6.66035 14.6654 8.5013 14.6654Z" fill="#777E91"/>
<path fill-rule="evenodd" clip-rule="evenodd" d="M15.1324 8.66536C15.1542 8.44609 15.1654 8.2237 15.1654 7.9987C15.1654 7.7737 15.1542 7.5513 15.1324 7.33203H1.86495C1.84318 7.5513 1.83203 7.7737 1.83203 7.9987C1.83203 8.2237 1.84318 8.44609 1.86495 8.66536H15.1324Z" fill="#777E91"/>
</svg>
