<?xml version="1.0" encoding="UTF-8"?>
<svg width="1200pt" height="1200pt" version="1.1" viewBox="0 0 1200 1200" xmlns="http://www.w3.org/2000/svg">
 <g>
  <path d="m287.25 1087.5c0 20.711 16.789 37.5 37.5 37.5h562.5c103.38 0 187.5-84.117 187.5-187.5v-562.5c0-20.711-16.789-37.5-37.5-37.5-20.711 0-37.5 16.789-37.5 37.5v36.383h-36.383c-20.711 0-37.5 16.789-37.5 37.5 0 20.711 16.789 37.5 37.5 37.5h36.383v451.12c0 62.035-50.465 112.5-112.5 112.5h-562.5c-20.707 0-37.5 16.789-37.5 37.5z"/>
  <path d="m406.79 572.57h-0.38281c-20.711 0-37.297 16.789-37.297 37.5 0 20.711 16.973 37.5 37.684 37.5 20.711 0 37.5-16.789 37.5-37.5-0.003906-20.707-16.793-37.5-37.504-37.5z"/>
  <path d="m794.71 805.61c20.711 0 37.5-16.789 37.5-37.5s-16.789-37.5-37.5-37.5h-0.38281c-20.711 0-37.297 16.789-37.297 37.5-0.003906 20.711 16.969 37.5 37.68 37.5z"/>
  <path d="m638.25 926.15c0-20.711-16.789-37.5-37.5-37.5h-0.38281c-20.711 0-37.297 16.789-37.297 37.5 0 20.711 16.973 37.5 37.684 37.5 20.707 0 37.496-16.793 37.496-37.5z"/>
  <path d="m794.71 963.65c20.711 0 37.5-16.789 37.5-37.5 0-20.711-16.789-37.5-37.5-37.5h-0.38281c-20.711 0-37.297 16.789-37.297 37.5-0.003906 20.707 16.969 37.5 37.68 37.5z"/>
  <path d="m1061 85.988-103.71 103.71c-22.035-8.9297-45.727-13.828-70.016-13.828h-55.793v-63.375c0-20.711-16.789-37.5-37.5-37.5-20.711 0-37.5 16.789-37.5 37.5v63.371h-312.93l-0.003906-63.371c0-20.711-16.789-37.5-37.5-37.5-20.711 0-37.5 16.789-37.5 37.5v63.371h-55.793c-103.38 0-187.5 84.117-187.5 187.5v574.13c0 24.66 4.8867 48.105 14.043 70.184l-53.301 53.301c-14.648 14.648-14.648 38.379 0 53.027 7.3242 7.3281 16.922 10.988 26.516 10.988s19.191-3.6602 26.512-10.988l638.61-638.61c0.007812-0.007812 0.015624-0.015625 0.023437-0.023438l336.37-336.37c14.648-14.648 14.648-38.379 0-53.027-14.645-14.648-38.375-14.645-53.023 0.003906zm-748.24 164.88h574.51c2.6641 0 5.1484 0.875 7.7852 1.0586l-159.45 159.45h-535.34v-48.012c0-62.035 50.461-112.5 112.5-112.5zm-112.5 686.63v-451.12h460.34l-459.23 459.23c-0.19922-2.7539-1.1094-5.3125-1.1094-8.1172z"/>
 </g>
</svg>
