<?xml version="1.0" encoding="UTF-8"?>
<svg id="Layer_1" data-name="Layer 1" xmlns="http://www.w3.org/2000/svg" viewBox="0 0 174.32 185.87">
  <defs>
    <style>
      .cls-1 {
        fill: #231f20;
      }
    </style>
  </defs>
  <path class="cls-1" d="m87.09,185.87c-23.26,0-45.13-9.06-61.58-25.51C9.06,143.91,0,122.04,0,98.78,0,64.33,20.36,33.05,51.87,19.1c11.12-4.92,22.97-7.42,35.22-7.42v2.54c-11.9,0-23.41,2.42-34.2,7.2C22.31,34.97,2.54,65.33,2.54,98.78c0,46.62,37.93,84.55,84.55,84.55v2.54Z"/>
  <g>
    <path class="cls-1" d="m87.23,185.87v-2.54c1.43,0,2.87-.04,4.29-.11l.13,2.54c-1.46.07-2.94.11-4.42.11Z"/>
    <path class="cls-1" d="m100.34,184.89l-.38-2.51c2.79-.42,5.59-.99,8.32-1.69l.63,2.46c-2.81.72-5.69,1.31-8.57,1.74Zm16.92-4.34l-.88-2.38c2.65-.97,5.27-2.09,7.81-3.33l1.11,2.28c-2.61,1.27-5.32,2.43-8.05,3.43Zm15.71-7.65l-1.34-2.16c2.4-1.48,4.75-3.11,6.99-4.82l1.54,2.01c-2.31,1.77-4.73,3.44-7.2,4.97Zm13.86-10.62l-1.74-1.85c2.06-1.93,4.04-3.99,5.89-6.11l1.91,1.67c-1.91,2.19-3.95,4.31-6.07,6.29Zm11.47-13.16l-2.07-1.47c1.63-2.3,3.17-4.71,4.56-7.16l2.21,1.25c-1.43,2.52-3.01,5-4.69,7.37Zm8.62-15.18l-2.32-1.03c1.14-2.58,2.16-5.25,3.03-7.93l2.41.79c-.9,2.76-1.95,5.51-3.12,8.17Zm5.41-16.61l-2.48-.54c.6-2.75,1.06-5.57,1.38-8.37l2.52.29c-.33,2.89-.81,5.79-1.42,8.63Zm1.97-17.35l-2.54-.03c0-.39,0-.78,0-1.17,0-2.44-.11-4.9-.31-7.32l2.53-.22c.21,2.49.32,5.02.32,7.53,0,.4,0,.81,0,1.21Zm-3.99-16.93c-.52-2.77-1.19-5.55-1.99-8.25l2.44-.72c.82,2.79,1.51,5.65,2.05,8.5l-2.5.47Zm-4.8-16.26c-1.07-2.61-2.28-5.19-3.61-7.69l2.24-1.19c1.37,2.57,2.62,5.23,3.72,7.92l-2.35.96Zm-7.97-14.97c-1.57-2.34-3.27-4.63-5.07-6.81l1.96-1.62c1.85,2.24,3.61,4.6,5.22,7.01l-2.11,1.41Z"/>
    <path class="cls-1" d="m146.73,38.71c-1.01-1-2.06-1.99-3.12-2.94l1.69-1.89c1.09.98,2.17,2,3.21,3.03l-1.79,1.8Z"/>
  </g>
  <polygon class="cls-1" points="90.14 12.28 57.36 0 69.17 14.82 63.06 34.15 90.14 12.28"/>
  <polygon class="cls-1" points="119.1 97.98 85.82 97.98 85.82 39.1 88.36 39.1 88.36 95.44 119.1 95.44 119.1 97.98"/>
</svg>