<?xml version="1.0" encoding="utf-8"?>
<!-- Generator: Adobe Illustrator 27.3.1, SVG Export Plug-In . SVG Version: 6.00 Build 0)  -->
<svg version="1.1" id="Layer_1" xmlns="http://www.w3.org/2000/svg" xmlns:xlink="http://www.w3.org/1999/xlink" x="0px" y="0px"
	 viewBox="0 0 1080 1080" style="enable-background:new 0 0 1080 1080;" xml:space="preserve">
<style type="text/css">
	.st0{fill:#FFFFFF;stroke:#000000;stroke-width:7;stroke-miterlimit:10;}
	.st1{fill:none;stroke:#000000;stroke-width:7;stroke-miterlimit:10;}
	.st2{fill:#FFFFFF;stroke:#000000;stroke-width:7;stroke-linejoin:round;stroke-miterlimit:10;}
	.st3{fill:#FFFFFF;stroke:#000000;stroke-width:16;stroke-miterlimit:10;}
	.st4{fill:none;stroke:#000000;stroke-width:16;stroke-miterlimit:10;}
	.st5{stroke:#000000;stroke-width:7;stroke-miterlimit:10;}
	.st6{fill:none;}
	.st7{fill:none;stroke:#000000;stroke-width:7;stroke-miterlimit:10;stroke-dasharray:23.7688,23.7688;}
</style>
<g>
	<path class="st1" d="M539.82,745.78c-130.69,0-236.63-105.94-236.63-236.63c0-96.63,57.92-179.73,140.93-216.48
		c29.26-12.96,61.64-20.15,95.71-20.15"/>
	<g>
		<g>
			<path class="st1" d="M540.18,745.78c4.02,0,8.02-0.1,12-0.3"/>
			<path class="st7" d="M575.83,743.11c113.78-17.19,200.99-115.39,200.99-233.97c0-61.47-23.44-117.46-61.86-159.53"/>
			<path class="st1" d="M706.72,341.03c-2.84-2.82-5.75-5.56-8.73-8.23"/>
		</g>
	</g>
	<polygon points="548.23,270.64 457.83,236.79 490.41,277.66 473.55,330.93 	"/>
	<polyline class="st1" points="539.82,344.58 539.82,503.45 628.06,503.45 	"/>
</g>
</svg>
