<?xml version="1.0" encoding="utf-8"?>
<!-- Generator: Adobe Illustrator 27.3.1, SVG Export Plug-In . SVG Version: 6.00 Build 0)  -->
<svg version="1.1" id="Layer_1" xmlns="http://www.w3.org/2000/svg" xmlns:xlink="http://www.w3.org/1999/xlink" x="0px" y="0px"
	 viewBox="0 0 1080 1080" style="enable-background:new 0 0 1080 1080;" xml:space="preserve">
<style type="text/css">
	.st0{fill:#FFFFFF;stroke:#000000;stroke-width:7;stroke-miterlimit:10;}
	.st1{fill:none;stroke:#000000;stroke-width:7;stroke-miterlimit:10;}
	.st2{fill:#FFFFFF;stroke:#000000;stroke-width:7;stroke-linejoin:round;stroke-miterlimit:10;}
	.st3{fill:#FFFFFF;stroke:#000000;stroke-width:16;stroke-miterlimit:10;}
	.st4{fill:none;stroke:#000000;stroke-width:16;stroke-miterlimit:10;}
	.st5{stroke:#000000;stroke-width:7;stroke-miterlimit:10;}
	.st6{fill:none;}
	.st7{fill:none;stroke:#000000;stroke-width:7;stroke-miterlimit:10;stroke-dasharray:23.7688,23.7688;}
</style>
<g>
	<path class="st0" d="M780.2,491.28H471.52c-19.71,0-35.83,16.12-35.83,35.83v180.91c0,19.71,16.12,35.83,35.83,35.83h8.3
		l-30.33,53.96l78.52-53.96H780.2c19.71,0,35.83-16.12,35.83-35.83V527.11C816.03,507.41,799.91,491.28,780.2,491.28z"/>
	<path class="st0" d="M656.09,270.27H301.18c-20.47,0-37.22,16.75-37.22,37.22v210.69c0,20.47,16.75,37.22,37.22,37.22h30.09
		l71.47,68.2l-22.73-68.2h276.08c20.47,0,37.22-16.75,37.22-37.22V307.48C693.31,287.01,676.56,270.27,656.09,270.27z"/>
	<g>
		<line class="st1" x1="367.42" y1="334.27" x2="589.86" y2="334.27"/>
		<line class="st1" x1="367.42" y1="373.75" x2="589.86" y2="373.75"/>
		<line class="st1" x1="367.42" y1="413.22" x2="589.86" y2="413.22"/>
		<line class="st1" x1="367.42" y1="452.7" x2="589.86" y2="452.7"/>
		<line class="st1" x1="367.42" y1="489.22" x2="589.86" y2="489.22"/>
	</g>
</g>
<g>
	<circle class="st3" cx="739.36" cy="745.2" r="96.8"/>
	<line class="st4" x1="698.26" y1="704.1" x2="780.46" y2="786.3"/>
	<line class="st4" x1="780.46" y1="704.1" x2="698.26" y2="786.3"/>
</g>
</svg>
