<?xml version="1.0" encoding="utf-8"?>
<!-- Generator: Adobe Illustrator 27.3.1, SVG Export Plug-In . SVG Version: 6.00 Build 0)  -->
<svg version="1.1" id="Layer_1" xmlns="http://www.w3.org/2000/svg" xmlns:xlink="http://www.w3.org/1999/xlink" x="0px" y="0px"
	 viewBox="0 0 200 200" style="enable-background:new 0 0 200 200;" xml:space="preserve">
<style type="text/css">
	.st0{fill:#FFFFFF;}
</style>
<g>
	<g>
		<g>
			<g>
				<path class="st0" d="M139.84,109.57V90.41c0-12.92-10.57-23.5-23.5-23.5H63.08c-12.92,0-23.5,10.57-23.5,23.5v19.16H139.84z"/>
				<path d="M141.02,110.75H38.4V90.41c0-13.61,11.07-24.68,24.68-24.68h53.26c13.61,0,24.68,11.07,24.68,24.68V110.75z
					 M40.76,108.39h97.89V90.41c0-12.3-10.01-22.31-22.31-22.31H63.08c-12.3,0-22.31,10.01-22.31,22.31V108.39z"/>
			</g>
			<g>
				<g>
					<path class="st0" d="M160.74,90.32v70.71H19.76V90.32c0-2.07,1.81-3.75,4.05-3.75H156.7
						C158.93,86.57,160.74,88.25,160.74,90.32z"/>
					<path d="M161.92,162.21H18.58V90.32c0-2.72,2.35-4.93,5.23-4.93H156.7c2.88,0,5.23,2.21,5.23,4.93V162.21z M20.94,159.84
						h138.62V90.32c0-1.42-1.28-2.57-2.86-2.57H23.81c-1.58,0-2.86,1.15-2.86,2.57V159.84z"/>
				</g>
				<rect x="8.38" y="159.84" width="11.38" height="2.36"/>
				<rect x="160.05" y="159.84" width="11.38" height="2.36"/>
			</g>
			<g>
				<g>
					<g>
						<circle class="st0" cx="89.71" cy="30.38" r="28.25"/>
						<path d="M89.71,59.81c-16.23,0-29.43-13.2-29.43-29.43S73.48,0.95,89.71,0.95s29.43,13.2,29.43,29.43
							S105.93,59.81,89.71,59.81z M89.71,3.32c-14.92,0-27.07,12.14-27.07,27.07s12.14,27.07,27.07,27.07s27.07-12.14,27.07-27.07
							S104.63,3.32,89.71,3.32z"/>
					</g>
				</g>
				<g>
					<path d="M62.9,34.1l7.01-16c0.67-1.53,2.68-1.89,3.85-0.7c4.68,4.76,16.09,13.78,32.39,9.76c0.07-0.02,0.14-0.04,0.2-0.06
						l3.42-1.14c1.01-0.34,2.12,0.04,2.71,0.93l0,0c1.44,2.16,4.82,0.75,4.28-1.79c-1.73-8.11-7.59-19.22-26.42-22.27
						C90.18,2.8,90,2.79,89.83,2.8C86.8,2.97,59.4,5.27,62.9,34.1L62.9,34.1z"/>
					<path d="M62.25,38.53l-0.52-4.29c-1.11-9.17,0.71-16.67,5.42-22.28C74.76,2.88,87.32,1.76,89.77,1.62
						c0.26-0.01,0.52,0,0.77,0.04c8.67,1.4,15.49,4.62,20.28,9.58c3.58,3.7,5.97,8.28,7.1,13.61c0.36,1.71-0.48,3.31-2.09,3.99
						c-1.62,0.68-3.35,0.16-4.33-1.3c-0.29-0.44-0.85-0.63-1.35-0.46l-3.42,1.14c-0.1,0.03-0.2,0.06-0.29,0.09
						c-2.92,0.72-5.69,1.03-8.29,1.03c-12.72,0-21.6-7.42-25.23-11.11c-0.28-0.29-0.67-0.41-1.07-0.34
						c-0.39,0.07-0.7,0.32-0.86,0.68L62.25,38.53z M89.96,3.98c-0.02,0-0.04,0-0.07,0c-1.39,0.08-13.81,0.99-20.94,9.5
						c-3.44,4.1-5.17,9.36-5.18,15.68l5.05-11.53c0.47-1.08,1.44-1.85,2.6-2.06c1.16-0.21,2.35,0.16,3.18,1.01
						c5.07,5.16,15.88,13.24,31.27,9.44c0.04-0.01,0.08-0.02,0.11-0.03l3.42-1.14c1.51-0.5,3.18,0.07,4.07,1.39
						c0.4,0.6,1.01,0.61,1.44,0.43c0.21-0.09,0.88-0.45,0.69-1.32C113.88,17.2,108.06,6.89,90.16,4
						C90.09,3.99,90.03,3.98,89.96,3.98z"/>
				</g>
			</g>
		</g>
		<g>
			<circle class="st0" cx="89.9" cy="125.67" r="11.64"/>
			<path d="M89.9,138.49c-7.07,0-12.82-5.75-12.82-12.82s5.75-12.82,12.82-12.82c7.07,0,12.82,5.75,12.82,12.82
				S96.97,138.49,89.9,138.49z M89.9,115.21c-5.77,0-10.46,4.69-10.46,10.46s4.69,10.46,10.46,10.46s10.46-4.69,10.46-10.46
				S95.67,115.21,89.9,115.21z"/>
		</g>
	</g>
	<g>
		<g>
			<circle class="st0" cx="157.23" cy="163.65" r="32.69"/>
			<path d="M157.23,199.05c-19.52,0-35.39-15.88-35.39-35.39s15.88-35.39,35.39-35.39s35.39,15.88,35.39,35.39
				S176.75,199.05,157.23,199.05z M157.23,133.67c-16.54,0-29.99,13.45-29.99,29.99s13.45,29.99,29.99,29.99
				s29.99-13.45,29.99-29.99S173.77,133.67,157.23,133.67z"/>
		</g>
		<rect x="154.53" y="144.02" transform="matrix(0.7071 -0.7071 0.7071 0.7071 -69.6692 159.1121)" width="5.4" height="39.26"/>
		<rect x="137.6" y="160.95" transform="matrix(0.7071 -0.7071 0.7071 0.7071 -69.6692 159.1121)" width="39.26" height="5.4"/>
	</g>
</g>
</svg>
