<?xml version="1.0" encoding="UTF-8"?>
<svg id="Layer_1" data-name="Layer 1" xmlns="http://www.w3.org/2000/svg" viewBox="0 0 186.44 186.29">
  <defs>
    <style>
      .cls-1 {
        fill: #fff;
      }

      .cls-2 {
        fill: #231f20;
      }
    </style>
  </defs>
  <g>
    <g>
      <path class="cls-1" d="m166.01,71.71h-98.6c-6.29,0-11.45,5.15-11.45,11.45v57.79c0,6.29,5.15,11.45,11.45,11.45h2.65l-9.69,17.23,25.08-17.23h80.55c6.29,0,11.45-5.15,11.45-11.45v-57.79c0-6.29-5.15-11.45-11.45-11.45Z"/>
      <path class="cls-2" d="m57.04,173.27l11.11-19.76h-.74c-6.93,0-12.56-5.64-12.56-12.56v-57.79c0-6.93,5.64-12.56,12.56-12.56h98.6c6.93,0,12.56,5.64,12.56,12.56v57.79c0,6.93-5.64,12.56-12.56,12.56h-80.21l-28.76,19.76Zm10.37-100.44c-5.69,0-10.33,4.63-10.33,10.33v57.79c0,5.69,4.63,10.33,10.33,10.33h4.56l-8.27,14.71,21.4-14.71h80.9c5.69,0,10.33-4.63,10.33-10.33v-57.79c0-5.69-4.63-10.33-10.33-10.33h-98.6Z"/>
    </g>
    <g>
      <path class="cls-1" d="m126.37,1.12H13C6.47,1.12,1.12,6.47,1.12,13.01v67.3c0,6.54,5.35,11.89,11.89,11.89h9.61l22.83,21.78-7.26-21.78h88.18c6.54,0,11.89-5.35,11.89-11.89V13.01c0-6.54-5.35-11.89-11.89-11.89Z"/>
      <path class="cls-2" d="m47.93,117.89l-25.76-24.58h-9.16c-7.17,0-13-5.83-13-13V13.01C0,5.83,5.83,0,13,0h113.36c7.17,0,13.01,5.83,13.01,13.01v67.3c0,7.17-5.83,13-13.01,13H39.73l8.19,24.58ZM13,2.24C7.07,2.24,2.24,7.07,2.24,13.01v67.3c0,5.94,4.83,10.77,10.77,10.77h10.06l19.9,18.99-6.33-18.99h89.74c5.94,0,10.77-4.83,10.77-10.77V13.01c0-5.94-4.83-10.77-10.77-10.77H13Z"/>
    </g>
    <g>
      <rect class="cls-2" x="34.16" y="20.44" width="71.05" height="2.24"/>
      <rect class="cls-2" x="34.16" y="33.05" width="71.05" height="2.24"/>
      <rect class="cls-2" x="34.16" y="45.66" width="71.05" height="2.24"/>
      <rect class="cls-2" x="34.16" y="58.27" width="71.05" height="2.24"/>
      <rect class="cls-2" x="34.16" y="69.94" width="71.05" height="2.24"/>
    </g>
  </g>
  <g>
    <g>
      <circle class="cls-1" cx="152.96" cy="152.82" r="30.92"/>
      <path class="cls-2" d="m152.96,186.29c-18.46,0-33.47-15.02-33.47-33.47s15.02-33.47,33.47-33.47,33.47,15.02,33.47,33.47-15.02,33.47-33.47,33.47Zm0-61.84c-15.64,0-28.36,12.72-28.36,28.36s12.72,28.36,28.36,28.36,28.36-12.72,28.36-28.36-12.72-28.36-28.36-28.36Z"/>
    </g>
    <rect class="cls-2" x="150.41" y="134.25" width="5.11" height="37.13" transform="translate(-63.26 152.92) rotate(-45)"/>
    <rect class="cls-2" x="134.4" y="150.26" width="37.13" height="5.11" transform="translate(-63.26 152.92) rotate(-45)"/>
  </g>
</svg>