<svg width="21" height="20" viewBox="0 0 21 20" fill="none" xmlns="http://www.w3.org/2000/svg">
<path d="M14.6436 7.48946C11.8809 6.35077 8.91815 6.43377 6.35743 7.49141C3.79796 8.54905 1.64374 10.5802 0.5 13.3332C1.56151 15.886 3.59771 18.0363 6.35643 19.1761C9.11814 20.3157 12.0819 20.2337 14.6426 19.1741C17.202 18.1174 19.3563 16.0861 20.5 13.3333C19.4395 10.7805 17.4023 8.63022 14.6436 7.48946ZM14.0059 17.6341C12.8838 18.098 11.7032 18.3333 10.4952 18.3333C9.29207 18.3333 8.11435 18.0989 6.99122 17.636C4.95317 16.7933 3.32026 15.2796 2.33303 13.3332C3.31934 11.3879 4.95299 9.87519 6.99422 9.03143C8.11628 8.56755 9.29692 8.33317 10.5059 8.33317C11.7081 8.33317 12.8858 8.56755 14.0099 9.03045C16.0479 9.87324 17.6808 11.3869 18.6671 13.3333C17.6808 15.2786 16.0471 16.7913 14.0059 17.6341Z" fill="#777E90"/>
<path d="M10.5 10C8.65915 10 7.16699 11.4922 7.16699 13.333C7.16699 15.1749 8.65917 16.6661 10.5 16.6661C12.3417 16.6661 13.8329 15.1739 13.8329 13.333C13.8329 11.4922 12.3417 10 10.5 10ZM10.5 15.0001C9.57906 15.0001 8.83297 14.2549 8.83297 13.334C8.83297 12.4131 9.57906 11.667 10.5 11.667C11.4208 11.667 12.1669 12.4131 12.1669 13.334C12.1669 14.2549 11.4208 15.0001 10.5 15.0001Z" fill="#777E90"/>
<path d="M9.66699 0H11.333V4.99907H9.66699V0Z" fill="#777E90"/>
<path d="M18.8291 2.88966L16.3369 6.4482L14.9717 5.49214L17.4638 1.93359L18.8291 2.88966Z" fill="#777E90"/>
<path d="M3.53513 1.93262L6.0273 5.49316L4.66209 6.44923L2.16992 2.88868L3.53513 1.93262Z" fill="#777E90"/>
</svg>
