<svg width="25" height="24" viewBox="0 0 25 24" fill="none" xmlns="http://www.w3.org/2000/svg">
<path fill-rule="evenodd" clip-rule="evenodd" d="M19.5 6H5.5C4.94772 6 4.5 6.44772 4.5 7V19C4.5 19.5523 4.94772 20 5.5 20H19.5C20.0523 20 20.5 19.5523 20.5 19V7C20.5 6.44771 20.0523 6 19.5 6ZM5.5 4C3.84315 4 2.5 5.34315 2.5 7V19C2.5 20.6569 3.84315 22 5.5 22H19.5C21.1569 22 22.5 20.6569 22.5 19V7C22.5 5.34315 21.1569 4 19.5 4H5.5Z" fill="#B1B5C4"/>
<path fill-rule="evenodd" clip-rule="evenodd" d="M10.5 12C9.94772 12 9.5 12.4477 9.5 13C9.5 13.5523 9.94772 14 10.5 14H17.5C18.0523 14 18.5 13.5523 18.5 13C18.5 12.4477 18.0523 12 17.5 12H10.5ZM7.5 16C6.94772 16 6.5 16.4477 6.5 17C6.5 17.5523 6.94772 18 7.5 18H13.5C14.0523 18 14.5 17.5523 14.5 17C14.5 16.4477 14.0523 16 13.5 16H7.5Z" fill="#B1B5C4"/>
<path fill-rule="evenodd" clip-rule="evenodd" d="M7.5 2C6.94772 2 6.5 2.44772 6.5 3V7C6.5 7.55228 6.94772 8 7.5 8C8.05228 8 8.5 7.55228 8.5 7V3C8.5 2.44772 8.05228 2 7.5 2ZM17.5 2C16.9477 2 16.5 2.44772 16.5 3V7C16.5 7.55228 16.9477 8 17.5 8C18.0523 8 18.5 7.55228 18.5 7V3C18.5 2.44772 18.0523 2 17.5 2Z" fill="#B1B5C4"/>
</svg>
