<svg width="16" height="16" viewBox="0 0 16 16" fill="none" xmlns="http://www.w3.org/2000/svg">
<path d="M11.3149 5.99137C9.10469 5.08042 6.73452 5.14682 4.68594 5.99294C2.63837 6.83905 0.914989 8.46397 0 10.6664C0.849209 12.7086 2.47817 14.4288 4.68514 15.3407C6.89451 16.2524 9.26548 16.1868 11.3141 15.3391C13.3616 14.4938 15.085 12.8687 16 10.6664C15.1516 8.62421 13.5218 6.90398 11.3149 5.99137ZM10.8047 14.1071C9.90706 14.4782 8.96255 14.6665 7.99614 14.6665C7.03365 14.6665 6.09148 14.479 5.19297 14.1086C3.56254 13.4344 2.25621 12.2235 1.46642 10.6664C2.25547 9.11013 3.5624 7.89996 5.19537 7.22495C6.09302 6.85384 7.03753 6.66634 8.00474 6.66634C8.96645 6.66634 9.90862 6.85384 10.8079 7.22417C12.4383 7.8984 13.7447 9.10935 14.5337 10.6664C13.7446 12.2227 12.4377 13.4329 10.8047 14.1071Z" fill="#777E90"/>
<path d="M8.00035 8C6.52771 8 5.33398 9.19378 5.33398 10.6664C5.33398 12.1399 6.52773 13.3329 8.00035 13.3329C9.47377 13.3329 10.6667 12.1391 10.6667 10.6664C10.6667 9.19378 9.47377 8 8.00035 8ZM8.00035 12.0001C7.26364 12.0001 6.66677 11.4039 6.66677 10.6672C6.66677 9.93049 7.26364 9.3336 8.00035 9.3336C8.73706 9.3336 9.33393 9.93049 9.33393 10.6672C9.33393 11.4039 8.73706 12.0001 8.00035 12.0001Z" fill="#777E90"/>
<path d="M7.33398 0H8.66679V3.99925H7.33398V0Z" fill="#777E90"/>
<path d="M14.6631 2.31172L12.6693 5.15856L11.5771 4.39371L13.5709 1.54688L14.6631 2.31172Z" fill="#777E90"/>
<path d="M2.4281 1.5459L4.42184 4.39434L3.32967 5.15919L1.33594 2.31075L2.4281 1.5459Z" fill="#777E90"/>
</svg>
