<svg width="16" height="18" viewBox="0 0 16 18" fill="none" xmlns="http://www.w3.org/2000/svg">
<path d="M14.9233 2.88545e-05H3.38439C1.79226 0.00164244 0.501575 1.18594 0.5 2.64687V13.9405C0.5 13.9777 0.504396 14.0156 0.513187 14.0519C0.505275 14.1309 0.5 14.2116 0.5 14.2923V15.3532C0.501758 16.8142 1.79235 17.9986 3.38439 18H14.9233C15.2415 18 15.5 17.7628 15.5 17.4708V0.529223C15.5 0.237175 15.2415 2.88545e-05 14.9233 2.88545e-05ZM3.96122 1.05848H14.3458V11.6471H3.96122V1.05848ZM2.80778 1.15609V11.7003C2.38842 11.7793 1.99456 11.9439 1.65346 12.1811V2.64703C1.6561 1.97582 2.11765 1.37877 2.80778 1.15609ZM3.3845 16.9417C2.42887 16.9409 1.65434 16.2302 1.65346 15.3532V14.2924C1.65522 13.4171 2.42799 12.7071 3.38274 12.7063H14.3466V13.4122H3.38454C3.06628 13.4122 2.80782 13.6494 2.80782 13.9415C2.80782 14.2335 3.06628 14.4707 3.38454 14.4707H14.3466V15.1766H3.38454C3.06628 15.1766 2.80782 15.4138 2.80782 15.7058C2.80782 15.9987 3.06628 16.2358 3.38454 16.2358H14.3466V16.9417L3.3845 16.9417Z" fill="#777E90"/>
<path d="M12.1271 6.35326L13.1144 4.78414C13.2172 4.62037 13.2172 4.41869 13.1144 4.25491C13.0115 4.09034 12.8207 3.98949 12.615 3.98949H10.6405L9.65318 2.42036C9.55032 2.25659 9.35955 2.15576 9.15294 2.15576C8.94722 2.15576 8.75645 2.2566 8.65357 2.42036L7.6663 3.98949H5.69175C5.48603 3.98949 5.29525 4.09033 5.19238 4.25491C5.08952 4.41868 5.08952 4.62036 5.19238 4.78414L6.17966 6.35326L5.19238 7.92239C5.08952 8.08616 5.08952 8.28784 5.19238 8.45161C5.29524 8.61538 5.48602 8.71621 5.69175 8.71621H7.6663L8.65357 10.2853V10.2861C8.75643 10.4499 8.94721 10.5507 9.15382 10.5507C9.35954 10.5507 9.55031 10.4499 9.65318 10.2861L10.6405 8.71702L12.615 8.71621C12.8207 8.71621 13.0115 8.61537 13.1144 8.45161C13.2172 8.28784 13.2172 8.08616 13.1144 7.92239L12.1271 6.35326ZM10.3073 7.65776C10.1016 7.65776 9.91079 7.75861 9.80791 7.92237L9.15294 8.96227L8.49887 7.92237C8.39601 7.7586 8.20523 7.65776 7.9995 7.65776H6.69133L7.34541 6.61786C7.44827 6.45409 7.44827 6.25242 7.34541 6.08864L6.69133 5.04874H7.9995C8.20522 5.04874 8.39599 4.9479 8.49887 4.78414L9.15294 3.74424L9.80701 4.78414H9.80789C9.91075 4.94791 10.1015 5.04874 10.3073 5.04874H11.6154L10.9614 6.08864C10.8585 6.25241 10.8585 6.45409 10.9614 6.61786L11.6154 7.65776H10.3073Z" fill="#777E90"/>
</svg>
