<svg width="21" height="20" viewBox="0 0 21 20" fill="none" xmlns="http://www.w3.org/2000/svg">
<path d="M15.2055 8.23504C15.53 8.23504 15.7935 7.97151 15.7935 7.64702C15.7971 6.24238 15.2378 4.89517 14.2419 3.90453C14.0115 3.67505 13.6396 3.67505 13.4101 3.90453C13.1797 4.1349 13.1797 4.5069 13.4101 4.73637C14.1845 5.50637 14.6193 6.55424 14.6175 7.64702C14.6175 7.97151 14.881 8.23504 15.2055 8.23504Z" fill="#777E90"/>
<path d="M17.325 17.9535C16.8455 17.4767 16.5766 16.8277 16.5784 16.1518V16.0586C17.5088 15.9573 18.1972 15.1452 18.1452 14.2111C18.0923 13.2762 17.3187 12.5466 16.382 12.5492H16.3641H16.365C17.5213 11.1778 18.1533 9.44055 18.147 7.64699C18.147 3.4304 14.7166 0 10.5001 0C6.28357 0 2.85321 3.4304 2.85321 7.64699C2.84693 9.44065 3.47888 11.1779 4.63519 12.5492H4.61816C3.68146 12.5465 2.90788 13.2762 2.85499 14.2111C2.803 15.1452 3.49141 15.9573 4.42184 16.0586V16.1518C4.42364 16.8277 4.15472 17.4766 3.67517 17.9535L2.63358 18.996C2.46506 19.1646 2.41486 19.4173 2.50539 19.637C2.59683 19.8566 2.81105 20 3.04949 20H17.9516H17.9507C18.1891 20 18.4034 19.8566 18.4948 19.637C18.5853 19.4173 18.5351 19.1646 18.3666 18.996L17.325 17.9535ZM6.05754 12.3521C4.7569 11.133 4.02188 9.42905 4.02907 7.64695C4.02907 4.07932 6.93233 1.17602 10.4999 1.17602C14.0675 1.17602 16.9708 4.07932 16.9708 7.64695C16.9779 9.42895 16.2429 11.1329 14.9423 12.3521C14.884 12.4077 14.8374 12.4749 14.8061 12.5493H6.19377C6.1624 12.4749 6.11581 12.4077 6.05754 12.3521ZM4.02907 14.3134C4.02996 13.9889 4.29259 13.7262 4.61798 13.7253H16.383H16.3821C16.7075 13.7253 16.971 13.9889 16.971 14.3134C16.971 14.6388 16.7075 14.9023 16.3821 14.9023H4.618C4.29261 14.9014 4.02996 14.6388 4.02907 14.3134ZM4.4683 18.823L4.50594 18.7853H4.50684C5.20781 18.0888 5.60041 17.1405 5.59772 16.1517V16.0782H15.4023V16.1517C15.3996 17.1404 15.7923 18.0888 16.4932 18.7853L16.5309 18.823H4.4683Z" fill="#777E90"/>
<path d="M2.65667 12.5493C2.98117 12.5493 3.24469 12.2858 3.24469 11.9613C3.24469 11.6359 2.98117 11.3723 2.65667 11.3723H2.46037V10.7843C2.46037 10.4598 2.19684 10.1963 1.87235 10.1963C1.54785 10.1963 1.28433 10.4598 1.28433 10.7843V11.3723H1.08802C0.763525 11.3723 0.5 11.6359 0.5 11.9613C0.5 12.2858 0.763525 12.5493 1.08802 12.5493H1.28433V13.1373C1.28433 13.4618 1.54785 13.7253 1.87235 13.7253C2.19684 13.7253 2.46037 13.4618 2.46037 13.1373V12.5493H2.65667Z" fill="#777E90"/>
<path d="M19.9116 1.56866H19.519V0.588027C19.519 0.263528 19.2563 0 18.9309 0C18.6065 0 18.3429 0.263528 18.3429 0.588027V1.56866H17.9503C17.6258 1.56866 17.3623 1.83219 17.3623 2.15669C17.3623 2.48119 17.6258 2.74471 17.9503 2.74471H18.3429V3.72535C18.3429 4.04985 18.6065 4.31337 18.9309 4.31337C19.2563 4.31337 19.519 4.04985 19.519 3.72535V2.74471H19.9116C20.2361 2.74471 20.4996 2.48119 20.4996 2.15669C20.4996 1.83219 20.2361 1.56866 19.9116 1.56866Z" fill="#777E90"/>
</svg>
