<svg width="16" height="16" viewBox="0 0 16 16" fill="none" xmlns="http://www.w3.org/2000/svg">
<g clip-path="url(#clip0_1740_34204)">
<path d="M14 12.0155C14 12.3409 13.7362 12.6047 13.4109 12.6047H2.58915C2.26377 12.6047 2 12.3409 2 12.0155V12.0155C2 11.6901 2.26377 11.4264 2.58915 11.4264H2.6V7.32059C2.6 4.38192 5.018 2 8 2C10.982 2 13.4 4.38192 13.4 7.32059V11.4264H13.4109C13.7362 11.4264 14 11.6901 14 12.0155V12.0155ZM3.8 11.4264H12.2V7.32059C12.2 5.03293 10.3196 3.17829 8 3.17829C5.6804 3.17829 3.8 5.03293 3.8 7.32059V11.4264ZM6.83101 14.1167C6.48109 13.6894 6.94772 13.1938 7.5 13.1938H8.5C9.05229 13.1938 9.51891 13.6894 9.16899 14.1167C9.13524 14.1579 9.0991 14.1975 9.06066 14.2353C8.77936 14.5115 8.39782 14.6667 8 14.6667C7.60218 14.6667 7.22064 14.5115 6.93934 14.2353C6.9009 14.1975 6.86476 14.1579 6.83101 14.1167Z" fill="#777E91"/>
</g>
<defs>
<clipPath id="clip0_1740_34204">
<rect width="16" height="16" fill="white"/>
</clipPath>
</defs>
</svg>
