<svg width="16" height="16" viewBox="0 0 16 16" fill="none" xmlns="http://www.w3.org/2000/svg">
<path fill-rule="evenodd" clip-rule="evenodd" d="M13.3337 3.33333H2.66699C2.2988 3.33333 2.00033 3.63181 2.00033 4V12C2.00033 12.3682 2.2988 12.6667 2.66699 12.6667H13.3337C13.7018 12.6667 14.0003 12.3682 14.0003 12V4C14.0003 3.63181 13.7018 3.33333 13.3337 3.33333ZM2.66699 2C1.56242 2 0.666992 2.89543 0.666992 4V12C0.666992 13.1046 1.56242 14 2.66699 14H13.3337C14.4382 14 15.3337 13.1046 15.3337 12V4C15.3337 2.89543 14.4382 2 13.3337 2H2.66699Z" fill="#777E91"/>
<path d="M5.33301 10.334C5.33301 10.8863 4.88529 11.334 4.33301 11.334C3.78072 11.334 3.33301 10.8863 3.33301 10.334C3.33301 9.7817 3.78072 9.33398 4.33301 9.33398C4.88529 9.33398 5.33301 9.7817 5.33301 10.334Z" fill="#777E91"/>
<path d="M8.66699 10.334C8.66699 10.8863 8.21928 11.334 7.66699 11.334C7.11471 11.334 6.66699 10.8863 6.66699 10.334C6.66699 9.7817 7.11471 9.33398 7.66699 9.33398C8.21928 9.33398 8.66699 9.7817 8.66699 10.334Z" fill="#777E91"/>
<path d="M0.666992 5.33398H15.3337V6.66732H0.666992V5.33398Z" fill="#777E91"/>
</svg>
