<svg width="16" height="16" viewBox="0 0 16 16" fill="none" xmlns="http://www.w3.org/2000/svg">
<path fill-rule="evenodd" clip-rule="evenodd" d="M13.3327 3.33333H2.66602C2.29783 3.33333 1.99935 3.63181 1.99935 4V12C1.99935 12.3682 2.29783 12.6667 2.66602 12.6667H13.3327C13.7009 12.6667 13.9993 12.3682 13.9993 12V4C13.9993 3.63181 13.7009 3.33333 13.3327 3.33333ZM2.66602 2C1.56145 2 0.666016 2.89543 0.666016 4V12C0.666016 13.1046 1.56145 14 2.66602 14H13.3327C14.4373 14 15.3327 13.1046 15.3327 12V4C15.3327 2.89543 14.4373 2 13.3327 2H2.66602Z" fill="#777E91"/>
<path d="M5.33398 10.333C5.33398 10.8853 4.88627 11.333 4.33398 11.333C3.7817 11.333 3.33398 10.8853 3.33398 10.333C3.33398 9.78072 3.7817 9.33301 4.33398 9.33301C4.88627 9.33301 5.33398 9.78072 5.33398 10.333Z" fill="#777E91"/>
<path d="M8.66602 10.333C8.66602 10.8853 8.2183 11.333 7.66602 11.333C7.11373 11.333 6.66602 10.8853 6.66602 10.333C6.66602 9.78072 7.11373 9.33301 7.66602 9.33301C8.2183 9.33301 8.66602 9.78072 8.66602 10.333Z" fill="#777E91"/>
<path d="M0.666016 5.33301H15.3327V6.66634H0.666016V5.33301Z" fill="#777E91"/>
</svg>
