<svg width="10" height="10" viewBox="0 0 10 10" fill="none" xmlns="http://www.w3.org/2000/svg">
<path fill-rule="evenodd" clip-rule="evenodd" d="M0.52827 0.529247C0.788619 0.268897 1.21073 0.268897 1.47108 0.529247L4.99967 4.05784L8.52827 0.529247C8.78862 0.268897 9.21073 0.268897 9.47108 0.529247C9.73143 0.789596 9.73143 1.21171 9.47108 1.47206L5.94248 5.00065L9.47108 8.52925C9.73143 8.7896 9.73143 9.21171 9.47108 9.47206C9.21073 9.73241 8.78862 9.73241 8.52827 9.47206L4.99967 5.94346L1.47108 9.47206C1.21073 9.73241 0.78862 9.73241 0.52827 9.47206C0.267921 9.21171 0.267921 8.7896 0.52827 8.52925L4.05687 5.00065L0.52827 1.47206C0.26792 1.21171 0.26792 0.789596 0.52827 0.529247Z" fill="#777E91"/>
</svg>
