<svg width="14" height="14" viewBox="0 0 14 14" fill="none" xmlns="http://www.w3.org/2000/svg">
<path fill-rule="evenodd" clip-rule="evenodd" d="M11.6673 6.99967C11.6673 9.577 9.57798 11.6663 7.00065 11.6663C4.42332 11.6663 2.33398 9.577 2.33398 6.99967C2.33398 4.42235 4.42332 2.33301 7.00065 2.33301C9.57798 2.33301 11.6673 4.42235 11.6673 6.99967ZM13.6673 6.99967C13.6673 10.6816 10.6825 13.6663 7.00065 13.6663C3.31875 13.6663 0.333984 10.6816 0.333984 6.99967C0.333984 3.31778 3.31875 0.333008 7.00065 0.333008C10.6825 0.333008 13.6673 3.31778 13.6673 6.99967ZM7.00065 2.66634C7.55294 2.66634 8.00065 3.11406 8.00065 3.66634V5.99967H10.334C10.8863 5.99967 11.334 6.44739 11.334 6.99967C11.334 7.55196 10.8863 7.99967 10.334 7.99967H8.00065V10.333C8.00065 10.8853 7.55294 11.333 7.00065 11.333C6.44837 11.333 6.00065 10.8853 6.00065 10.333V7.99967H3.66732C3.11503 7.99967 2.66732 7.55196 2.66732 6.99967C2.66732 6.44739 3.11503 5.99967 3.66732 5.99967H6.00065V3.66634C6.00065 3.11406 6.44837 2.66634 7.00065 2.66634Z" fill="#777E91"/>
</svg>
