<svg width="16" height="16" viewBox="0 0 16 16" fill="none" xmlns="http://www.w3.org/2000/svg">
<path fill-rule="evenodd" clip-rule="evenodd" d="M8 7.33333C6.81828 7.33333 5.76562 7.37637 4.90558 7.43104C4.08981 7.4829 3.46253 8.10532 3.40398 8.91533C3.36233 9.49155 3.33333 10.0987 3.33333 10.6667C3.33333 11.2346 3.36233 11.8418 3.40398 12.418C3.46253 13.228 4.08981 13.8504 4.90559 13.9023C5.76563 13.957 6.81828 14 8 14C9.18172 14 10.2344 13.957 11.0944 13.9023C11.9102 13.8504 12.5375 13.228 12.596 12.418C12.6377 11.8418 12.6667 11.2346 12.6667 10.6667C12.6667 10.0987 12.6377 9.49155 12.596 8.91533C12.5375 8.10532 11.9102 7.4829 11.0944 7.43104C10.2344 7.37637 9.18172 7.33333 8 7.33333ZM4.821 6.10039C3.34251 6.19437 2.18092 7.34158 2.07412 8.81921C2.03101 9.41559 2 10.0566 2 10.6667C2 11.2767 2.03101 11.9177 2.07412 12.5141C2.18092 13.9918 3.34251 15.139 4.821 15.2329C5.70519 15.2891 6.78631 15.3333 8 15.3333C9.2137 15.3333 10.2948 15.2891 11.179 15.2329C12.6575 15.139 13.8191 13.9918 13.9259 12.5141C13.969 11.9177 14 11.2767 14 10.6667C14 10.0566 13.969 9.41559 13.9259 8.81921C13.8191 7.34158 12.6575 6.19437 11.179 6.10039C10.2948 6.04419 9.21369 6 8 6C6.78631 6 5.70519 6.04419 4.821 6.10039Z" fill="#777E91"/>
<path fill-rule="evenodd" clip-rule="evenodd" d="M8.66699 11.1543C9.06553 10.9238 9.33366 10.4929 9.33366 9.99935C9.33366 9.26297 8.73671 8.66602 8.00033 8.66602C7.26395 8.66602 6.66699 9.26297 6.66699 9.99935C6.66699 10.4929 6.93512 10.9238 7.33366 11.1543V11.9993C7.33366 12.3675 7.63214 12.666 8.00033 12.666C8.36852 12.666 8.66699 12.3675 8.66699 11.9993V11.1543Z" fill="#777E91"/>
<path fill-rule="evenodd" clip-rule="evenodd" d="M4.66699 3.99935C4.66699 2.1584 6.15938 0.666016 8.00033 0.666016C9.84127 0.666016 11.3337 2.1584 11.3337 3.99935V6.66602C11.3337 7.03421 11.0352 7.33268 10.667 7.33268C10.2988 7.33268 10.0003 7.03421 10.0003 6.66602V3.99935C10.0003 2.89478 9.10489 1.99935 8.00033 1.99935C6.89576 1.99935 6.00033 2.89478 6.00033 3.99935V6.66602C6.00033 7.03421 5.70185 7.33268 5.33366 7.33268C4.96547 7.33268 4.66699 7.03421 4.66699 6.66602V3.99935Z" fill="#777E91"/>
</svg>
