<svg width="16" height="16" viewBox="0 0 16 16" fill="none" xmlns="http://www.w3.org/2000/svg">
<path fill-rule="evenodd" clip-rule="evenodd" d="M8 8.66732C5.42267 8.66732 3.33333 10.7567 3.33333 13.334V14.6673C3.33333 15.0355 3.03486 15.334 2.66667 15.334C2.29848 15.334 2 15.0355 2 14.6673V13.334C2 10.0203 4.68629 7.33398 8 7.33398C11.3137 7.33398 14 10.0203 14 13.334V14.6673C14 15.0355 13.7015 15.334 13.3333 15.334C12.9651 15.334 12.6667 15.0355 12.6667 14.6673V13.334C12.6667 10.7567 10.5773 8.66732 8 8.66732Z" fill="#23262F"/>
<path fill-rule="evenodd" clip-rule="evenodd" d="M8 7.33268C9.47276 7.33268 10.6667 6.13878 10.6667 4.66602C10.6667 3.19326 9.47276 1.99935 8 1.99935C6.52724 1.99935 5.33333 3.19326 5.33333 4.66602C5.33333 6.13878 6.52724 7.33268 8 7.33268ZM8 8.66602C10.2091 8.66602 12 6.87515 12 4.66602C12 2.45688 10.2091 0.666016 8 0.666016C5.79086 0.666016 4 2.45688 4 4.66602C4 6.87515 5.79086 8.66602 8 8.66602Z" fill="#23262F"/>
</svg>
